<?xml version="1.0" encoding="utf-8" standalone="no"?>
<!DOCTYPE svg PUBLIC "-//W3C//DTD SVG 1.1//EN"
  "http://www.w3.org/Graphics/SVG/1.1/DTD/svg11.dtd">
<svg xmlns:xlink="http://www.w3.org/1999/xlink" width="279.157921pt" height="207.051875pt" viewBox="0 0 279.157921 207.051875" xmlns="http://www.w3.org/2000/svg" version="1.1">
 <metadata>
  <rdf:RDF xmlns:dc="http://purl.org/dc/elements/1.1/" xmlns:cc="http://creativecommons.org/ns#" xmlns:rdf="http://www.w3.org/1999/02/22-rdf-syntax-ns#">
   <cc:Work>
    <dc:type rdf:resource="http://purl.org/dc/dcmitype/StillImage"/>
    <dc:date>2026-04-02T10:30:38.583697</dc:date>
    <dc:format>image/svg+xml</dc:format>
    <dc:creator>
     <cc:Agent>
      <dc:title>Matplotlib v3.10.3, https://matplotlib.org/</dc:title>
     </cc:Agent>
    </dc:creator>
   </cc:Work>
  </rdf:RDF>
 </metadata>
 <defs>
  <style type="text/css">*{stroke-linejoin: round; stroke-linecap: butt}</style>
 </defs>
 <g id="figure_1">
  <g id="patch_1">
   <path d="M 0 207.051875 
L 279.157921 207.051875 
L 279.157921 0 
L 0 0 
z
" style="fill: #ffffff"/>
  </g>
  <g id="axes_1">
   <g id="patch_2">
    <path d="M 53.31375 167.56 
L 268.612839 167.56 
L 268.612839 7.2 
L 53.31375 7.2 
z
" style="fill: #e5e5e5"/>
   </g>
   <g id="matplotlib.axis_1">
    <g id="xtick_1">
     <g id="line2d_1">
      <path d="M 63.100072 167.56 
L 63.100072 7.2 
" clip-path="url(#p3f6c2bc73c)" style="fill: none; stroke: #ffffff; stroke-width: 0.8; stroke-linecap: square"/>
     </g>
     <g id="line2d_2">
      <defs>
       <path id="m2e6228635e" d="M 0 0 
L 0 3.5 
" style="stroke: #555555; stroke-width: 0.8"/>
      </defs>
      <g>
       <use xlink:href="#m2e6228635e" x="63.100072" y="167.56" style="fill: #555555; stroke: #555555; stroke-width: 0.8"/>
      </g>
     </g>
     <g id="text_1">
      <!-- 0 -->
      <g style="fill: #555555" transform="translate(59.918822 182.158437) scale(0.1 -0.1)">
       <defs>
        <path id="DejaVuSans-30" d="M 2034 4250 
Q 1547 4250 1301 3770 
Q 1056 3291 1056 2328 
Q 1056 1369 1301 889 
Q 1547 409 2034 409 
Q 2525 409 2770 889 
Q 3016 1369 3016 2328 
Q 3016 3291 2770 3770 
Q 2525 4250 2034 4250 
z
M 2034 4750 
Q 2819 4750 3233 4129 
Q 3647 3509 3647 2328 
Q 3647 1150 3233 529 
Q 2819 -91 2034 -91 
Q 1250 -91 836 529 
Q 422 1150 422 2328 
Q 422 3509 836 4129 
Q 1250 4750 2034 4750 
z
" transform="scale(0.015625)"/>
       </defs>
       <use xlink:href="#DejaVuSans-30"/>
      </g>
     </g>
    </g>
    <g id="xtick_2">
     <g id="line2d_3">
      <path d="M 102.962892 167.56 
L 102.962892 7.2 
" clip-path="url(#p3f6c2bc73c)" style="fill: none; stroke: #ffffff; stroke-width: 0.8; stroke-linecap: square"/>
     </g>
     <g id="line2d_4">
      <g>
       <use xlink:href="#m2e6228635e" x="102.962892" y="167.56" style="fill: #555555; stroke: #555555; stroke-width: 0.8"/>
      </g>
     </g>
     <g id="text_2">
      <!-- 100 -->
      <g style="fill: #555555" transform="translate(93.419142 182.158437) scale(0.1 -0.1)">
       <defs>
        <path id="DejaVuSans-31" d="M 794 531 
L 1825 531 
L 1825 4091 
L 703 3866 
L 703 4441 
L 1819 4666 
L 2450 4666 
L 2450 531 
L 3481 531 
L 3481 0 
L 794 0 
L 794 531 
z
" transform="scale(0.015625)"/>
       </defs>
       <use xlink:href="#DejaVuSans-31"/>
       <use xlink:href="#DejaVuSans-30" transform="translate(63.623047 0)"/>
       <use xlink:href="#DejaVuSans-30" transform="translate(127.246094 0)"/>
      </g>
     </g>
    </g>
    <g id="xtick_3">
     <g id="line2d_5">
      <path d="M 142.825712 167.56 
L 142.825712 7.2 
" clip-path="url(#p3f6c2bc73c)" style="fill: none; stroke: #ffffff; stroke-width: 0.8; stroke-linecap: square"/>
     </g>
     <g id="line2d_6">
      <g>
       <use xlink:href="#m2e6228635e" x="142.825712" y="167.56" style="fill: #555555; stroke: #555555; stroke-width: 0.8"/>
      </g>
     </g>
     <g id="text_3">
      <!-- 200 -->
      <g style="fill: #555555" transform="translate(133.281962 182.158437) scale(0.1 -0.1)">
       <defs>
        <path id="DejaVuSans-32" d="M 1228 531 
L 3431 531 
L 3431 0 
L 469 0 
L 469 531 
Q 828 903 1448 1529 
Q 2069 2156 2228 2338 
Q 2531 2678 2651 2914 
Q 2772 3150 2772 3378 
Q 2772 3750 2511 3984 
Q 2250 4219 1831 4219 
Q 1534 4219 1204 4116 
Q 875 4013 500 3803 
L 500 4441 
Q 881 4594 1212 4672 
Q 1544 4750 1819 4750 
Q 2544 4750 2975 4387 
Q 3406 4025 3406 3419 
Q 3406 3131 3298 2873 
Q 3191 2616 2906 2266 
Q 2828 2175 2409 1742 
Q 1991 1309 1228 531 
z
" transform="scale(0.015625)"/>
       </defs>
       <use xlink:href="#DejaVuSans-32"/>
       <use xlink:href="#DejaVuSans-30" transform="translate(63.623047 0)"/>
       <use xlink:href="#DejaVuSans-30" transform="translate(127.246094 0)"/>
      </g>
     </g>
    </g>
    <g id="xtick_4">
     <g id="line2d_7">
      <path d="M 182.688531 167.56 
L 182.688531 7.2 
" clip-path="url(#p3f6c2bc73c)" style="fill: none; stroke: #ffffff; stroke-width: 0.8; stroke-linecap: square"/>
     </g>
     <g id="line2d_8">
      <g>
       <use xlink:href="#m2e6228635e" x="182.688531" y="167.56" style="fill: #555555; stroke: #555555; stroke-width: 0.8"/>
      </g>
     </g>
     <g id="text_4">
      <!-- 300 -->
      <g style="fill: #555555" transform="translate(173.144781 182.158437) scale(0.1 -0.1)">
       <defs>
        <path id="DejaVuSans-33" d="M 2597 2516 
Q 3050 2419 3304 2112 
Q 3559 1806 3559 1356 
Q 3559 666 3084 287 
Q 2609 -91 1734 -91 
Q 1441 -91 1130 -33 
Q 819 25 488 141 
L 488 750 
Q 750 597 1062 519 
Q 1375 441 1716 441 
Q 2309 441 2620 675 
Q 2931 909 2931 1356 
Q 2931 1769 2642 2001 
Q 2353 2234 1838 2234 
L 1294 2234 
L 1294 2753 
L 1863 2753 
Q 2328 2753 2575 2939 
Q 2822 3125 2822 3475 
Q 2822 3834 2567 4026 
Q 2313 4219 1838 4219 
Q 1578 4219 1281 4162 
Q 984 4106 628 3988 
L 628 4550 
Q 988 4650 1302 4700 
Q 1616 4750 1894 4750 
Q 2613 4750 3031 4423 
Q 3450 4097 3450 3541 
Q 3450 3153 3228 2886 
Q 3006 2619 2597 2516 
z
" transform="scale(0.015625)"/>
       </defs>
       <use xlink:href="#DejaVuSans-33"/>
       <use xlink:href="#DejaVuSans-30" transform="translate(63.623047 0)"/>
       <use xlink:href="#DejaVuSans-30" transform="translate(127.246094 0)"/>
      </g>
     </g>
    </g>
    <g id="xtick_5">
     <g id="line2d_9">
      <path d="M 222.551351 167.56 
L 222.551351 7.2 
" clip-path="url(#p3f6c2bc73c)" style="fill: none; stroke: #ffffff; stroke-width: 0.8; stroke-linecap: square"/>
     </g>
     <g id="line2d_10">
      <g>
       <use xlink:href="#m2e6228635e" x="222.551351" y="167.56" style="fill: #555555; stroke: #555555; stroke-width: 0.8"/>
      </g>
     </g>
     <g id="text_5">
      <!-- 400 -->
      <g style="fill: #555555" transform="translate(213.007601 182.158437) scale(0.1 -0.1)">
       <defs>
        <path id="DejaVuSans-34" d="M 2419 4116 
L 825 1625 
L 2419 1625 
L 2419 4116 
z
M 2253 4666 
L 3047 4666 
L 3047 1625 
L 3713 1625 
L 3713 1100 
L 3047 1100 
L 3047 0 
L 2419 0 
L 2419 1100 
L 313 1100 
L 313 1709 
L 2253 4666 
z
" transform="scale(0.015625)"/>
       </defs>
       <use xlink:href="#DejaVuSans-34"/>
       <use xlink:href="#DejaVuSans-30" transform="translate(63.623047 0)"/>
       <use xlink:href="#DejaVuSans-30" transform="translate(127.246094 0)"/>
      </g>
     </g>
    </g>
    <g id="xtick_6">
     <g id="line2d_11">
      <path d="M 262.414171 167.56 
L 262.414171 7.2 
" clip-path="url(#p3f6c2bc73c)" style="fill: none; stroke: #ffffff; stroke-width: 0.8; stroke-linecap: square"/>
     </g>
     <g id="line2d_12">
      <g>
       <use xlink:href="#m2e6228635e" x="262.414171" y="167.56" style="fill: #555555; stroke: #555555; stroke-width: 0.8"/>
      </g>
     </g>
     <g id="text_6">
      <!-- 500 -->
      <g style="fill: #555555" transform="translate(252.870421 182.158437) scale(0.1 -0.1)">
       <defs>
        <path id="DejaVuSans-35" d="M 691 4666 
L 3169 4666 
L 3169 4134 
L 1269 4134 
L 1269 2991 
Q 1406 3038 1543 3061 
Q 1681 3084 1819 3084 
Q 2600 3084 3056 2656 
Q 3513 2228 3513 1497 
Q 3513 744 3044 326 
Q 2575 -91 1722 -91 
Q 1428 -91 1123 -41 
Q 819 9 494 109 
L 494 744 
Q 775 591 1075 516 
Q 1375 441 1709 441 
Q 2250 441 2565 725 
Q 2881 1009 2881 1497 
Q 2881 1984 2565 2268 
Q 2250 2553 1709 2553 
Q 1456 2553 1204 2497 
Q 953 2441 691 2322 
L 691 4666 
z
" transform="scale(0.015625)"/>
       </defs>
       <use xlink:href="#DejaVuSans-35"/>
       <use xlink:href="#DejaVuSans-30" transform="translate(63.623047 0)"/>
       <use xlink:href="#DejaVuSans-30" transform="translate(127.246094 0)"/>
      </g>
     </g>
    </g>
    <g id="text_7">
     <!-- Epoch -->
     <g style="fill: #555555" transform="translate(142.59017 197.35625) scale(0.12 -0.12)">
      <defs>
       <path id="DejaVuSans-45" d="M 628 4666 
L 3578 4666 
L 3578 4134 
L 1259 4134 
L 1259 2753 
L 3481 2753 
L 3481 2222 
L 1259 2222 
L 1259 531 
L 3634 531 
L 3634 0 
L 628 0 
L 628 4666 
z
" transform="scale(0.015625)"/>
       <path id="DejaVuSans-70" d="M 1159 525 
L 1159 -1331 
L 581 -1331 
L 581 3500 
L 1159 3500 
L 1159 2969 
Q 1341 3281 1617 3432 
Q 1894 3584 2278 3584 
Q 2916 3584 3314 3078 
Q 3713 2572 3713 1747 
Q 3713 922 3314 415 
Q 2916 -91 2278 -91 
Q 1894 -91 1617 61 
Q 1341 213 1159 525 
z
M 3116 1747 
Q 3116 2381 2855 2742 
Q 2594 3103 2138 3103 
Q 1681 3103 1420 2742 
Q 1159 2381 1159 1747 
Q 1159 1113 1420 752 
Q 1681 391 2138 391 
Q 2594 391 2855 752 
Q 3116 1113 3116 1747 
z
" transform="scale(0.015625)"/>
       <path id="DejaVuSans-6f" d="M 1959 3097 
Q 1497 3097 1228 2736 
Q 959 2375 959 1747 
Q 959 1119 1226 758 
Q 1494 397 1959 397 
Q 2419 397 2687 759 
Q 2956 1122 2956 1747 
Q 2956 2369 2687 2733 
Q 2419 3097 1959 3097 
z
M 1959 3584 
Q 2709 3584 3137 3096 
Q 3566 2609 3566 1747 
Q 3566 888 3137 398 
Q 2709 -91 1959 -91 
Q 1206 -91 779 398 
Q 353 888 353 1747 
Q 353 2609 779 3096 
Q 1206 3584 1959 3584 
z
" transform="scale(0.015625)"/>
       <path id="DejaVuSans-63" d="M 3122 3366 
L 3122 2828 
Q 2878 2963 2633 3030 
Q 2388 3097 2138 3097 
Q 1578 3097 1268 2742 
Q 959 2388 959 1747 
Q 959 1106 1268 751 
Q 1578 397 2138 397 
Q 2388 397 2633 464 
Q 2878 531 3122 666 
L 3122 134 
Q 2881 22 2623 -34 
Q 2366 -91 2075 -91 
Q 1284 -91 818 406 
Q 353 903 353 1747 
Q 353 2603 823 3093 
Q 1294 3584 2113 3584 
Q 2378 3584 2631 3529 
Q 2884 3475 3122 3366 
z
" transform="scale(0.015625)"/>
       <path id="DejaVuSans-68" d="M 3513 2113 
L 3513 0 
L 2938 0 
L 2938 2094 
Q 2938 2591 2744 2837 
Q 2550 3084 2163 3084 
Q 1697 3084 1428 2787 
Q 1159 2491 1159 1978 
L 1159 0 
L 581 0 
L 581 4863 
L 1159 4863 
L 1159 2956 
Q 1366 3272 1645 3428 
Q 1925 3584 2291 3584 
Q 2894 3584 3203 3211 
Q 3513 2838 3513 2113 
z
" transform="scale(0.015625)"/>
      </defs>
      <use xlink:href="#DejaVuSans-45"/>
      <use xlink:href="#DejaVuSans-70" transform="translate(63.183594 0)"/>
      <use xlink:href="#DejaVuSans-6f" transform="translate(126.660156 0)"/>
      <use xlink:href="#DejaVuSans-63" transform="translate(187.841797 0)"/>
      <use xlink:href="#DejaVuSans-68" transform="translate(242.822266 0)"/>
     </g>
    </g>
   </g>
   <g id="matplotlib.axis_2">
    <g id="ytick_1">
     <g id="line2d_13">
      <path d="M 53.31375 155.212863 
L 268.612839 155.212863 
" clip-path="url(#p3f6c2bc73c)" style="fill: none; stroke: #ffffff; stroke-width: 0.8; stroke-linecap: square"/>
     </g>
     <g id="line2d_14">
      <defs>
       <path id="m7bbd5a22ce" d="M 0 0 
L -3.5 0 
" style="stroke: #555555; stroke-width: 0.8"/>
      </defs>
      <g>
       <use xlink:href="#m7bbd5a22ce" x="53.31375" y="155.212863" style="fill: #555555; stroke: #555555; stroke-width: 0.8"/>
      </g>
     </g>
     <g id="text_8">
      <!-- $\mathdefault{10^{-4}}$ -->
      <g style="fill: #555555" transform="translate(22.81375 159.012082) scale(0.1 -0.1)">
       <defs>
        <path id="DejaVuSans-2212" d="M 678 2272 
L 4684 2272 
L 4684 1741 
L 678 1741 
L 678 2272 
z
" transform="scale(0.015625)"/>
       </defs>
       <use xlink:href="#DejaVuSans-31" transform="translate(0 0.684375)"/>
       <use xlink:href="#DejaVuSans-30" transform="translate(63.623047 0.684375)"/>
       <use xlink:href="#DejaVuSans-2212" transform="translate(128.203125 38.965625) scale(0.7)"/>
       <use xlink:href="#DejaVuSans-34" transform="translate(186.855469 38.965625) scale(0.7)"/>
      </g>
     </g>
    </g>
    <g id="ytick_2">
     <g id="line2d_15">
      <path d="M 53.31375 112.348809 
L 268.612839 112.348809 
" clip-path="url(#p3f6c2bc73c)" style="fill: none; stroke: #ffffff; stroke-width: 0.8; stroke-linecap: square"/>
     </g>
     <g id="line2d_16">
      <g>
       <use xlink:href="#m7bbd5a22ce" x="53.31375" y="112.348809" style="fill: #555555; stroke: #555555; stroke-width: 0.8"/>
      </g>
     </g>
     <g id="text_9">
      <!-- $\mathdefault{10^{-3}}$ -->
      <g style="fill: #555555" transform="translate(22.81375 116.148028) scale(0.1 -0.1)">
       <use xlink:href="#DejaVuSans-31" transform="translate(0 0.765625)"/>
       <use xlink:href="#DejaVuSans-30" transform="translate(63.623047 0.765625)"/>
       <use xlink:href="#DejaVuSans-2212" transform="translate(128.203125 39.046875) scale(0.7)"/>
       <use xlink:href="#DejaVuSans-33" transform="translate(186.855469 39.046875) scale(0.7)"/>
      </g>
     </g>
    </g>
    <g id="ytick_3">
     <g id="line2d_17">
      <path d="M 53.31375 69.484755 
L 268.612839 69.484755 
" clip-path="url(#p3f6c2bc73c)" style="fill: none; stroke: #ffffff; stroke-width: 0.8; stroke-linecap: square"/>
     </g>
     <g id="line2d_18">
      <g>
       <use xlink:href="#m7bbd5a22ce" x="53.31375" y="69.484755" style="fill: #555555; stroke: #555555; stroke-width: 0.8"/>
      </g>
     </g>
     <g id="text_10">
      <!-- $\mathdefault{10^{-2}}$ -->
      <g style="fill: #555555" transform="translate(22.81375 73.283974) scale(0.1 -0.1)">
       <use xlink:href="#DejaVuSans-31" transform="translate(0 0.765625)"/>
       <use xlink:href="#DejaVuSans-30" transform="translate(63.623047 0.765625)"/>
       <use xlink:href="#DejaVuSans-2212" transform="translate(128.203125 39.046875) scale(0.7)"/>
       <use xlink:href="#DejaVuSans-32" transform="translate(186.855469 39.046875) scale(0.7)"/>
      </g>
     </g>
    </g>
    <g id="ytick_4">
     <g id="line2d_19">
      <path d="M 53.31375 26.620701 
L 268.612839 26.620701 
" clip-path="url(#p3f6c2bc73c)" style="fill: none; stroke: #ffffff; stroke-width: 0.8; stroke-linecap: square"/>
     </g>
     <g id="line2d_20">
      <g>
       <use xlink:href="#m7bbd5a22ce" x="53.31375" y="26.620701" style="fill: #555555; stroke: #555555; stroke-width: 0.8"/>
      </g>
     </g>
     <g id="text_11">
      <!-- $\mathdefault{10^{-1}}$ -->
      <g style="fill: #555555" transform="translate(22.81375 30.41992) scale(0.1 -0.1)">
       <use xlink:href="#DejaVuSans-31" transform="translate(0 0.684375)"/>
       <use xlink:href="#DejaVuSans-30" transform="translate(63.623047 0.684375)"/>
       <use xlink:href="#DejaVuSans-2212" transform="translate(128.203125 38.965625) scale(0.7)"/>
       <use xlink:href="#DejaVuSans-31" transform="translate(186.855469 38.965625) scale(0.7)"/>
      </g>
     </g>
    </g>
    <g id="ytick_5">
     <g id="line2d_21">
      <defs>
       <path id="mc5a851b8ac" d="M 0 0 
L -2 0 
" style="stroke: #555555; stroke-width: 0.6"/>
      </defs>
      <g>
       <use xlink:href="#mc5a851b8ac" x="53.31375" y="164.7222" style="fill: #555555; stroke: #555555; stroke-width: 0.6"/>
      </g>
     </g>
    </g>
    <g id="ytick_6">
     <g id="line2d_22">
      <g>
       <use xlink:href="#mc5a851b8ac" x="53.31375" y="161.852589" style="fill: #555555; stroke: #555555; stroke-width: 0.6"/>
      </g>
     </g>
    </g>
    <g id="ytick_7">
     <g id="line2d_23">
      <g>
       <use xlink:href="#mc5a851b8ac" x="53.31375" y="159.366819" style="fill: #555555; stroke: #555555; stroke-width: 0.6"/>
      </g>
     </g>
    </g>
    <g id="ytick_8">
     <g id="line2d_24">
      <g>
       <use xlink:href="#mc5a851b8ac" x="53.31375" y="157.174215" style="fill: #555555; stroke: #555555; stroke-width: 0.6"/>
      </g>
     </g>
    </g>
    <g id="ytick_9">
     <g id="line2d_25">
      <g>
       <use xlink:href="#mc5a851b8ac" x="53.31375" y="142.309497" style="fill: #555555; stroke: #555555; stroke-width: 0.6"/>
      </g>
     </g>
    </g>
    <g id="ytick_10">
     <g id="line2d_26">
      <g>
       <use xlink:href="#mc5a851b8ac" x="53.31375" y="134.761512" style="fill: #555555; stroke: #555555; stroke-width: 0.6"/>
      </g>
     </g>
    </g>
    <g id="ytick_11">
     <g id="line2d_27">
      <g>
       <use xlink:href="#mc5a851b8ac" x="53.31375" y="129.406131" style="fill: #555555; stroke: #555555; stroke-width: 0.6"/>
      </g>
     </g>
    </g>
    <g id="ytick_12">
     <g id="line2d_28">
      <g>
       <use xlink:href="#mc5a851b8ac" x="53.31375" y="125.252175" style="fill: #555555; stroke: #555555; stroke-width: 0.6"/>
      </g>
     </g>
    </g>
    <g id="ytick_13">
     <g id="line2d_29">
      <g>
       <use xlink:href="#mc5a851b8ac" x="53.31375" y="121.858146" style="fill: #555555; stroke: #555555; stroke-width: 0.6"/>
      </g>
     </g>
    </g>
    <g id="ytick_14">
     <g id="line2d_30">
      <g>
       <use xlink:href="#mc5a851b8ac" x="53.31375" y="118.988535" style="fill: #555555; stroke: #555555; stroke-width: 0.6"/>
      </g>
     </g>
    </g>
    <g id="ytick_15">
     <g id="line2d_31">
      <g>
       <use xlink:href="#mc5a851b8ac" x="53.31375" y="116.502765" style="fill: #555555; stroke: #555555; stroke-width: 0.6"/>
      </g>
     </g>
    </g>
    <g id="ytick_16">
     <g id="line2d_32">
      <g>
       <use xlink:href="#mc5a851b8ac" x="53.31375" y="114.310161" style="fill: #555555; stroke: #555555; stroke-width: 0.6"/>
      </g>
     </g>
    </g>
    <g id="ytick_17">
     <g id="line2d_33">
      <g>
       <use xlink:href="#mc5a851b8ac" x="53.31375" y="99.445443" style="fill: #555555; stroke: #555555; stroke-width: 0.6"/>
      </g>
     </g>
    </g>
    <g id="ytick_18">
     <g id="line2d_34">
      <g>
       <use xlink:href="#mc5a851b8ac" x="53.31375" y="91.897458" style="fill: #555555; stroke: #555555; stroke-width: 0.6"/>
      </g>
     </g>
    </g>
    <g id="ytick_19">
     <g id="line2d_35">
      <g>
       <use xlink:href="#mc5a851b8ac" x="53.31375" y="86.542077" style="fill: #555555; stroke: #555555; stroke-width: 0.6"/>
      </g>
     </g>
    </g>
    <g id="ytick_20">
     <g id="line2d_36">
      <g>
       <use xlink:href="#mc5a851b8ac" x="53.31375" y="82.388121" style="fill: #555555; stroke: #555555; stroke-width: 0.6"/>
      </g>
     </g>
    </g>
    <g id="ytick_21">
     <g id="line2d_37">
      <g>
       <use xlink:href="#mc5a851b8ac" x="53.31375" y="78.994092" style="fill: #555555; stroke: #555555; stroke-width: 0.6"/>
      </g>
     </g>
    </g>
    <g id="ytick_22">
     <g id="line2d_38">
      <g>
       <use xlink:href="#mc5a851b8ac" x="53.31375" y="76.124481" style="fill: #555555; stroke: #555555; stroke-width: 0.6"/>
      </g>
     </g>
    </g>
    <g id="ytick_23">
     <g id="line2d_39">
      <g>
       <use xlink:href="#mc5a851b8ac" x="53.31375" y="73.638711" style="fill: #555555; stroke: #555555; stroke-width: 0.6"/>
      </g>
     </g>
    </g>
    <g id="ytick_24">
     <g id="line2d_40">
      <g>
       <use xlink:href="#mc5a851b8ac" x="53.31375" y="71.446107" style="fill: #555555; stroke: #555555; stroke-width: 0.6"/>
      </g>
     </g>
    </g>
    <g id="ytick_25">
     <g id="line2d_41">
      <g>
       <use xlink:href="#mc5a851b8ac" x="53.31375" y="56.581389" style="fill: #555555; stroke: #555555; stroke-width: 0.6"/>
      </g>
     </g>
    </g>
    <g id="ytick_26">
     <g id="line2d_42">
      <g>
       <use xlink:href="#mc5a851b8ac" x="53.31375" y="49.033404" style="fill: #555555; stroke: #555555; stroke-width: 0.6"/>
      </g>
     </g>
    </g>
    <g id="ytick_27">
     <g id="line2d_43">
      <g>
       <use xlink:href="#mc5a851b8ac" x="53.31375" y="43.678023" style="fill: #555555; stroke: #555555; stroke-width: 0.6"/>
      </g>
     </g>
    </g>
    <g id="ytick_28">
     <g id="line2d_44">
      <g>
       <use xlink:href="#mc5a851b8ac" x="53.31375" y="39.524067" style="fill: #555555; stroke: #555555; stroke-width: 0.6"/>
      </g>
     </g>
    </g>
    <g id="ytick_29">
     <g id="line2d_45">
      <g>
       <use xlink:href="#mc5a851b8ac" x="53.31375" y="36.130038" style="fill: #555555; stroke: #555555; stroke-width: 0.6"/>
      </g>
     </g>
    </g>
    <g id="ytick_30">
     <g id="line2d_46">
      <g>
       <use xlink:href="#mc5a851b8ac" x="53.31375" y="33.260427" style="fill: #555555; stroke: #555555; stroke-width: 0.6"/>
      </g>
     </g>
    </g>
    <g id="ytick_31">
     <g id="line2d_47">
      <g>
       <use xlink:href="#mc5a851b8ac" x="53.31375" y="30.774657" style="fill: #555555; stroke: #555555; stroke-width: 0.6"/>
      </g>
     </g>
    </g>
    <g id="ytick_32">
     <g id="line2d_48">
      <g>
       <use xlink:href="#mc5a851b8ac" x="53.31375" y="28.582053" style="fill: #555555; stroke: #555555; stroke-width: 0.6"/>
      </g>
     </g>
    </g>
    <g id="ytick_33">
     <g id="line2d_49">
      <g>
       <use xlink:href="#mc5a851b8ac" x="53.31375" y="13.717335" style="fill: #555555; stroke: #555555; stroke-width: 0.6"/>
      </g>
     </g>
    </g>
    <g id="text_12">
     <!-- Loss -->
     <g style="fill: #555555" transform="translate(16.318125 100.540625) rotate(-90) scale(0.12 -0.12)">
      <defs>
       <path id="DejaVuSans-4c" d="M 628 4666 
L 1259 4666 
L 1259 531 
L 3531 531 
L 3531 0 
L 628 0 
L 628 4666 
z
" transform="scale(0.015625)"/>
       <path id="DejaVuSans-73" d="M 2834 3397 
L 2834 2853 
Q 2591 2978 2328 3040 
Q 2066 3103 1784 3103 
Q 1356 3103 1142 2972 
Q 928 2841 928 2578 
Q 928 2378 1081 2264 
Q 1234 2150 1697 2047 
L 1894 2003 
Q 2506 1872 2764 1633 
Q 3022 1394 3022 966 
Q 3022 478 2636 193 
Q 2250 -91 1575 -91 
Q 1294 -91 989 -36 
Q 684 19 347 128 
L 347 722 
Q 666 556 975 473 
Q 1284 391 1588 391 
Q 1994 391 2212 530 
Q 2431 669 2431 922 
Q 2431 1156 2273 1281 
Q 2116 1406 1581 1522 
L 1381 1569 
Q 847 1681 609 1914 
Q 372 2147 372 2553 
Q 372 3047 722 3315 
Q 1072 3584 1716 3584 
Q 2034 3584 2315 3537 
Q 2597 3491 2834 3397 
z
" transform="scale(0.015625)"/>
      </defs>
      <use xlink:href="#DejaVuSans-4c"/>
      <use xlink:href="#DejaVuSans-6f" transform="translate(53.962891 0)"/>
      <use xlink:href="#DejaVuSans-73" transform="translate(115.144531 0)"/>
      <use xlink:href="#DejaVuSans-73" transform="translate(167.244141 0)"/>
     </g>
    </g>
   </g>
   <g id="line2d_50">
    <path d="M 63.100072 14.489091 
L 63.4987 56.093172 
L 63.897329 61.802142 
L 64.295957 65.862353 
L 65.093213 71.095517 
L 65.491841 72.418651 
L 66.289098 73.262235 
L 66.687726 74.833873 
L 67.484982 76.069667 
L 67.883611 76.977991 
L 68.282239 76.499978 
L 68.680867 77.815681 
L 69.079495 78.473503 
L 69.478123 78.595575 
L 70.27538 78.391875 
L 70.674008 78.87657 
L 71.072636 79.910968 
L 71.471264 79.132941 
L 71.869893 79.453951 
L 72.268521 80.426382 
L 72.667149 79.775754 
L 73.065777 80.453631 
L 73.464405 79.60411 
L 73.863034 79.650864 
L 74.261662 80.095116 
L 74.66029 80.842755 
L 75.058918 80.100879 
L 75.457546 81.19497 
L 75.856175 80.902208 
L 76.254803 80.250245 
L 76.653431 80.445432 
L 77.052059 82.219325 
L 77.450687 82.61313 
L 77.849316 81.313587 
L 78.646572 82.261448 
L 79.0452 81.794749 
L 79.842457 82.520705 
L 80.241085 81.863663 
L 80.639713 82.623011 
L 81.038341 81.524993 
L 81.436969 82.588187 
L 81.835598 81.922516 
L 82.234226 82.920383 
L 82.632854 82.263773 
L 83.031482 83.127822 
L 83.43011 82.448539 
L 83.828739 82.043818 
L 84.227367 83.604655 
L 84.625995 81.14949 
L 85.024623 83.165994 
L 85.423251 82.96714 
L 85.821879 83.616148 
L 86.220508 82.872039 
L 86.619136 83.382361 
L 87.416392 83.213605 
L 87.81502 83.249689 
L 89.010905 83.844219 
L 89.409533 82.925795 
L 89.808161 84.265894 
L 90.20679 82.980535 
L 90.605418 82.987375 
L 91.004046 83.511217 
L 91.402674 85.753902 
L 91.801302 84.655659 
L 92.199931 85.288614 
L 92.598559 85.320551 
L 92.997187 85.207797 
L 93.395815 85.438647 
L 93.794443 85.811447 
L 94.193072 85.538449 
L 94.5917 84.893003 
L 94.990328 85.159947 
L 95.787584 85.039693 
L 96.186213 85.405087 
L 96.584841 85.046521 
L 96.983469 85.073915 
L 97.382097 86.164983 
L 97.780725 84.824474 
L 98.179354 84.765571 
L 98.577982 85.74171 
L 98.97661 85.347252 
L 99.375238 85.247187 
L 99.773866 85.901954 
L 100.172495 85.555257 
L 100.571123 85.747866 
L 101.368379 85.605177 
L 101.767007 85.41033 
L 102.564264 85.385302 
L 102.962892 86.031349 
L 103.36152 85.118476 
L 103.760148 85.787566 
L 104.158777 85.247232 
L 104.557405 84.995545 
L 104.956033 85.881075 
L 105.354661 84.996017 
L 105.753289 86.230521 
L 106.151918 85.554801 
L 106.550546 86.081204 
L 106.949174 85.639636 
L 107.347802 85.906005 
L 107.74643 85.957895 
L 108.543687 85.179313 
L 109.340943 86.777142 
L 109.739571 87.450671 
L 110.1382 86.770952 
L 110.536828 86.638645 
L 110.935456 86.093068 
L 111.334084 86.502311 
L 111.732712 87.202925 
L 112.131341 87.500045 
L 112.529969 86.796713 
L 112.928597 86.714753 
L 113.327225 87.338557 
L 113.725853 86.998971 
L 114.124482 86.945903 
L 114.52311 87.138518 
L 114.921738 86.648828 
L 115.320366 86.914289 
L 115.718994 86.647579 
L 116.117622 87.322773 
L 116.516251 87.374681 
L 116.914879 87.03901 
L 117.313507 86.99652 
L 117.712135 87.733346 
L 118.110763 86.888724 
L 118.509392 87.473057 
L 118.90802 87.434358 
L 119.306648 88.26804 
L 119.705276 87.399324 
L 120.103904 87.248287 
L 120.502533 87.581337 
L 120.901161 87.404937 
L 121.698417 87.803985 
L 122.097045 87.741443 
L 122.495674 87.240388 
L 122.894302 87.326473 
L 123.691558 87.710257 
L 124.090186 87.542082 
L 124.488815 87.552136 
L 124.887443 87.391474 
L 125.286071 87.365551 
L 125.684699 87.22692 
L 126.083327 87.898994 
L 126.481956 87.21482 
L 126.880584 87.964659 
L 127.279212 87.384837 
L 127.67784 87.510041 
L 128.076468 87.419376 
L 128.475097 87.197484 
L 129.272353 87.659926 
L 129.670981 87.623935 
L 130.069609 87.12255 
L 130.468238 87.710522 
L 130.866866 87.709077 
L 131.265494 87.493097 
L 131.664122 87.816799 
L 132.06275 87.160649 
L 132.860007 88.125735 
L 133.258635 87.821832 
L 133.657263 87.785017 
L 134.055891 87.632597 
L 134.45452 87.913286 
L 134.853148 86.879751 
L 135.251776 87.56338 
L 136.049032 88.262815 
L 136.447661 87.414819 
L 137.244917 88.031953 
L 137.643545 88.232441 
L 138.042173 88.22069 
L 138.440802 87.291208 
L 138.83943 87.74128 
L 139.238058 88.012423 
L 139.636686 87.849771 
L 140.035314 88.240019 
L 140.433943 87.292048 
L 140.832571 87.447189 
L 141.231199 87.966812 
L 141.629827 88.303749 
L 142.028455 87.989806 
L 142.427084 87.339544 
L 143.22434 87.912801 
L 143.622968 88.473726 
L 144.021596 87.38253 
L 144.420225 88.13671 
L 144.818853 87.336548 
L 145.217481 88.220732 
L 145.616109 88.26904 
L 146.014737 87.96814 
L 146.413365 87.850171 
L 146.811994 88.138078 
L 147.210622 88.257549 
L 148.007878 87.936169 
L 148.805135 88.134579 
L 149.602391 88.562126 
L 150.001019 88.011986 
L 150.399647 88.202034 
L 150.798276 87.799988 
L 151.196904 88.247744 
L 151.595532 87.680502 
L 151.99416 87.431387 
L 152.392788 88.309345 
L 153.190045 88.345502 
L 153.588673 87.873605 
L 154.385929 87.84066 
L 154.784558 87.9545 
L 155.183186 87.829111 
L 155.581814 88.350154 
L 156.37907 88.374856 
L 157.176327 87.755847 
L 157.574955 88.039745 
L 157.973583 88.099095 
L 158.372211 87.815692 
L 158.77084 88.483703 
L 159.169468 88.384086 
L 159.568096 88.115496 
L 159.966724 88.348308 
L 160.763981 87.640478 
L 161.162609 88.572795 
L 161.561237 88.328514 
L 161.959865 87.729846 
L 162.757122 88.219269 
L 163.554378 87.90158 
L 163.953006 88.433822 
L 164.351634 87.417894 
L 164.750263 88.499722 
L 165.148891 87.829666 
L 165.547519 88.280921 
L 165.946147 88.237213 
L 166.344775 88.359035 
L 166.743404 88.339674 
L 167.142032 87.675326 
L 167.54066 88.293529 
L 167.939288 88.323153 
L 168.337916 87.999668 
L 169.135173 87.992641 
L 169.533801 88.129441 
L 169.932429 87.860759 
L 170.331057 88.503902 
L 170.729686 88.414223 
L 171.128314 88.656736 
L 171.526942 88.155411 
L 172.324198 87.997655 
L 173.121455 88.089622 
L 173.520083 87.985632 
L 173.918711 88.480339 
L 174.317339 88.398259 
L 174.715968 87.561402 
L 175.114596 88.026766 
L 175.513224 87.948133 
L 175.911852 88.560389 
L 176.31048 88.255963 
L 176.709108 87.721864 
L 177.107737 88.080461 
L 177.506365 88.20842 
L 177.904993 88.024768 
L 178.303621 88.386023 
L 178.702249 87.613648 
L 179.100878 87.772579 
L 179.499506 88.101829 
L 179.898134 87.992591 
L 180.69539 88.241085 
L 181.492647 88.703946 
L 181.891275 87.77912 
L 182.289903 88.481566 
L 182.688531 88.507783 
L 183.08716 88.36589 
L 183.485788 88.475058 
L 183.884416 88.08568 
L 184.681672 88.125307 
L 185.080301 87.63085 
L 185.478929 88.505 
L 185.877557 88.092512 
L 186.276185 88.580591 
L 186.674813 88.040901 
L 187.073442 88.001994 
L 187.47207 88.292334 
L 188.269326 88.30333 
L 188.667954 88.047724 
L 189.066583 88.071247 
L 189.863839 88.554341 
L 190.262467 88.443466 
L 190.661095 88.095226 
L 191.059724 88.556966 
L 191.458352 87.636383 
L 191.85698 88.590066 
L 192.255608 87.972855 
L 192.654236 88.493438 
L 193.052865 88.012978 
L 193.451493 88.284494 
L 193.850121 87.996237 
L 194.248749 88.386572 
L 195.444634 88.681133 
L 195.843262 88.419739 
L 196.640518 88.178323 
L 197.039147 87.246857 
L 197.836403 88.083991 
L 198.235031 87.754699 
L 198.633659 88.847396 
L 199.032288 87.716832 
L 199.430916 88.627014 
L 199.829544 88.077624 
L 200.228172 87.993502 
L 200.6268 88.231782 
L 201.025429 88.790779 
L 201.424057 87.864618 
L 201.822685 88.38663 
L 202.221313 88.38536 
L 202.619941 87.707896 
L 203.01857 88.174268 
L 203.417198 88.141324 
L 203.815826 87.627389 
L 204.214454 87.670947 
L 204.613082 88.244842 
L 205.410339 88.180634 
L 205.808967 88.300089 
L 206.207595 88.145145 
L 206.606223 87.81479 
L 207.004851 88.003925 
L 207.40348 87.749612 
L 207.802108 87.859511 
L 208.200736 87.683919 
L 208.599364 88.113769 
L 208.997992 88.089998 
L 209.396621 88.47577 
L 210.193877 87.639969 
L 210.592505 88.015621 
L 210.991133 87.630218 
L 211.389762 88.906671 
L 211.78839 88.031786 
L 212.585646 88.438101 
L 212.984274 88.16281 
L 213.382903 87.722937 
L 213.781531 88.422567 
L 214.180159 88.255088 
L 214.578787 87.681648 
L 214.977415 87.92318 
L 215.376044 87.986381 
L 215.774672 88.335257 
L 216.1733 88.149211 
L 216.970556 88.324755 
L 217.369185 87.796659 
L 218.166441 88.530654 
L 218.565069 88.2031 
L 218.963697 88.047095 
L 219.362326 87.726965 
L 220.159582 88.357596 
L 220.55821 88.432397 
L 220.956838 88.224603 
L 221.355467 88.626941 
L 221.754095 87.884158 
L 222.152723 88.447207 
L 222.949979 87.769994 
L 223.348608 87.553709 
L 223.747236 88.590874 
L 224.544492 87.857261 
L 224.94312 87.862464 
L 225.341749 88.111032 
L 225.740377 88.629679 
L 226.139005 87.451621 
L 226.537633 88.70419 
L 226.936261 87.771067 
L 227.33489 88.479857 
L 227.733518 88.41751 
L 228.132146 88.124745 
L 228.530774 87.627117 
L 228.929402 88.185521 
L 229.328031 88.021994 
L 229.726659 88.00603 
L 230.125287 87.76113 
L 230.523915 88.648331 
L 231.321172 88.461064 
L 231.7198 87.578504 
L 232.118428 88.880357 
L 232.915684 88.930485 
L 233.314313 88.26176 
L 234.111569 88.114782 
L 234.510197 87.726001 
L 235.307454 88.277412 
L 235.706082 87.701812 
L 236.503338 87.940277 
L 236.901966 87.709706 
L 237.300594 87.833422 
L 237.699223 88.63999 
L 238.097851 88.439962 
L 238.496479 88.003633 
L 238.895107 87.767628 
L 239.293735 87.713169 
L 239.692364 88.440838 
L 240.090992 87.900382 
L 240.48962 88.354283 
L 241.286876 88.113027 
L 241.685505 88.304121 
L 242.084133 88.056827 
L 242.482761 88.400571 
L 242.881389 87.608321 
L 243.280017 88.769408 
L 243.678646 87.733462 
L 244.077274 88.114123 
L 244.475902 88.731236 
L 244.87453 87.982894 
L 245.273158 88.479164 
L 246.070415 87.89977 
L 246.867671 88.714725 
L 247.266299 87.835883 
L 247.664928 88.243985 
L 248.462184 88.400344 
L 248.860812 87.836577 
L 249.25944 87.798396 
L 249.658069 88.299501 
L 250.455325 87.723976 
L 250.853953 88.302801 
L 251.252581 87.677051 
L 251.65121 88.360336 
L 252.049838 88.054771 
L 252.448466 88.346011 
L 252.847094 88.449545 
L 253.245722 87.684584 
L 253.644351 88.141874 
L 254.042979 87.721297 
L 254.441607 88.225859 
L 254.840235 88.15997 
L 255.238863 88.491701 
L 255.637492 88.290611 
L 256.03612 88.640319 
L 256.434748 87.835398 
L 257.232004 88.457071 
L 257.630633 87.634696 
L 258.029261 88.214687 
L 258.427889 87.543563 
L 258.826517 87.558468 
L 258.826517 87.558468 
" clip-path="url(#p3f6c2bc73c)" style="fill: none; stroke: #1d3557; stroke-width: 1.5; stroke-linecap: square"/>
   </g>
   <g id="line2d_51">
    <path d="M 63.100072 64.050348 
L 63.4987 82.048407 
L 63.897329 86.907556 
L 64.694585 101.301249 
L 65.491841 108.132695 
L 65.89047 99.451117 
L 66.289098 102.000775 
L 66.687726 93.982593 
L 67.086354 107.312287 
L 67.484982 112.121124 
L 67.883611 114.710419 
L 68.282239 109.665309 
L 68.680867 106.413805 
L 69.079495 117.017023 
L 69.876752 110.543183 
L 70.27538 110.876868 
L 70.674008 112.802035 
L 71.072636 119.001357 
L 71.471264 114.04658 
L 71.869893 112.148412 
L 72.268521 97.966633 
L 72.667149 110.000864 
L 73.065777 112.528335 
L 73.464405 112.459638 
L 73.863034 101.059321 
L 74.261662 119.596836 
L 74.66029 112.708861 
L 75.058918 109.694126 
L 75.457546 121.881422 
L 75.856175 118.581109 
L 76.254803 117.403513 
L 76.653431 114.301994 
L 77.052059 121.748836 
L 77.450687 119.627716 
L 77.849316 115.343717 
L 78.247944 118.990324 
L 78.646572 107.192415 
L 79.0452 116.419448 
L 79.443828 112.866297 
L 79.842457 114.553574 
L 80.241085 120.801179 
L 81.038341 106.575901 
L 81.436969 122.916678 
L 81.835598 110.668642 
L 82.234226 127.10458 
L 82.632854 127.224397 
L 83.031482 113.436285 
L 83.43011 110.674731 
L 83.828739 126.046975 
L 84.227367 118.011633 
L 84.625995 116.362709 
L 85.024623 102.496609 
L 85.423251 120.789376 
L 85.821879 120.78691 
L 86.220508 115.081774 
L 86.619136 117.735083 
L 87.017764 118.222249 
L 87.416392 117.45832 
L 87.81502 112.933992 
L 88.213649 120.903872 
L 88.612277 115.595422 
L 89.010905 124.707365 
L 89.409533 124.823672 
L 89.808161 124.535676 
L 90.20679 114.813055 
L 90.605418 124.515907 
L 91.004046 126.867461 
L 91.402674 127.944389 
L 91.801302 121.60974 
L 92.598559 133.424426 
L 92.997187 133.974099 
L 93.395815 128.910433 
L 93.794443 129.717956 
L 94.193072 125.64631 
L 94.5917 111.173789 
L 94.990328 115.222457 
L 95.388956 135.327965 
L 95.787584 133.952609 
L 96.186213 114.070041 
L 96.584841 121.254092 
L 96.983469 130.481383 
L 97.382097 134.895743 
L 97.780725 110.167339 
L 98.179354 135.381623 
L 98.577982 128.31061 
L 98.97661 129.466869 
L 99.375238 131.907766 
L 99.773866 123.237369 
L 100.172495 128.451912 
L 100.571123 147.637633 
L 100.969751 131.175166 
L 101.368379 135.443828 
L 101.767007 134.320802 
L 102.165636 124.158069 
L 102.564264 121.192401 
L 102.962892 130.075181 
L 103.36152 132.235722 
L 103.760148 133.296017 
L 104.158777 125.356687 
L 104.557405 121.750057 
L 104.956033 132.417183 
L 105.354661 114.728971 
L 105.753289 135.500822 
L 106.151918 130.820121 
L 106.550546 138.020944 
L 106.949174 117.101149 
L 107.347802 125.733879 
L 107.74643 124.619489 
L 108.145059 141.995475 
L 108.543687 121.457541 
L 108.942315 129.497508 
L 109.340943 145.133751 
L 109.739571 140.149185 
L 110.536828 124.121158 
L 110.935456 130.086454 
L 111.334084 145.11175 
L 111.732712 133.591066 
L 112.131341 143.851425 
L 112.529969 140.047387 
L 112.928597 138.995171 
L 113.725853 134.175542 
L 114.124482 135.809441 
L 114.52311 135.505043 
L 114.921738 129.446943 
L 115.320366 137.931023 
L 115.718994 138.182103 
L 116.117622 135.524684 
L 116.516251 125.901608 
L 117.313507 135.126197 
L 117.712135 146.128629 
L 118.110763 148.382172 
L 118.509392 142.300206 
L 118.90802 148.307027 
L 119.306648 144.867956 
L 119.705276 147.922695 
L 120.103904 142.116955 
L 120.502533 145.780781 
L 120.901161 148.092294 
L 121.299789 144.776974 
L 121.698417 131.685584 
L 122.097045 144.349763 
L 122.495674 151.44791 
L 122.894302 152.727757 
L 123.29293 147.806803 
L 123.691558 138.692963 
L 124.090186 149.576038 
L 124.488815 141.693669 
L 124.887443 142.078782 
L 125.286071 145.840657 
L 125.684699 138.102858 
L 126.083327 142.66535 
L 126.481956 136.431491 
L 126.880584 139.886962 
L 127.279212 144.965651 
L 127.67784 134.633434 
L 128.076468 139.373953 
L 128.475097 152.029742 
L 128.873725 140.693491 
L 129.272353 144.057436 
L 129.670981 141.494532 
L 130.069609 148.384051 
L 130.468238 147.923911 
L 130.866866 149.492906 
L 131.265494 143.983268 
L 131.664122 154.527535 
L 132.06275 152.489489 
L 132.461379 151.340487 
L 133.258635 153.068605 
L 133.657263 148.593685 
L 134.055891 156.563664 
L 134.853148 142.875687 
L 135.251776 147.916351 
L 136.049032 138.800774 
L 136.447661 153.785018 
L 136.846289 148.86775 
L 137.244917 148.988982 
L 137.643545 147.342262 
L 138.042173 150.343899 
L 138.440802 141.177826 
L 138.83943 148.0802 
L 139.238058 151.707205 
L 139.636686 153.093689 
L 140.035314 149.473885 
L 140.433943 152.979321 
L 140.832571 153.359207 
L 141.231199 148.469186 
L 141.629827 154.39128 
L 142.028455 149.869496 
L 142.427084 147.940607 
L 142.825712 158.465642 
L 143.22434 155.905908 
L 143.622968 150.389614 
L 144.021596 153.397024 
L 144.420225 155.341149 
L 144.818853 153.797125 
L 145.217481 155.776217 
L 145.616109 154.097557 
L 146.014737 156.625644 
L 146.413365 152.58806 
L 146.811994 155.500252 
L 147.210622 154.406134 
L 147.60925 150.320966 
L 148.007878 154.002838 
L 148.406506 150.094254 
L 148.805135 153.531866 
L 149.203763 150.426544 
L 149.602391 151.564127 
L 150.001019 154.475995 
L 150.399647 153.702516 
L 150.798276 156.220414 
L 151.196904 151.146596 
L 151.99416 158.721557 
L 152.791417 151.07174 
L 153.190045 155.807519 
L 153.588673 157.465329 
L 153.987301 156.575245 
L 154.385929 152.713014 
L 154.784558 153.68402 
L 155.183186 158.637128 
L 155.581814 152.69658 
L 155.980442 153.768388 
L 156.37907 154.001032 
L 156.777699 151.94903 
L 157.176327 155.206934 
L 157.574955 152.307741 
L 157.973583 152.554051 
L 158.372211 156.627541 
L 158.77084 157.741129 
L 159.568096 157.090675 
L 159.966724 153.262514 
L 160.365352 154.824949 
L 160.763981 158.436286 
L 161.162609 157.387025 
L 161.561237 154.946279 
L 161.959865 158.217275 
L 162.358493 158.527732 
L 163.15575 156.148365 
L 163.554378 156.490451 
L 163.953006 154.954183 
L 164.351634 158.321017 
L 164.750263 153.576096 
L 165.148891 157.980096 
L 165.946147 159.049681 
L 166.344775 154.308402 
L 166.743404 155.259466 
L 167.142032 157.063096 
L 167.54066 155.297288 
L 167.939288 155.916215 
L 168.337916 157.726887 
L 168.736545 154.289201 
L 169.135173 158.90995 
L 169.533801 159.369768 
L 170.331057 156.011138 
L 170.729686 157.575198 
L 171.128314 158.640378 
L 171.526942 156.555451 
L 171.92557 158.216089 
L 172.324198 156.306416 
L 172.722827 157.41817 
L 173.121455 156.419572 
L 173.520083 158.098131 
L 173.918711 158.515226 
L 174.317339 156.048498 
L 174.715968 155.30381 
L 175.114596 156.86231 
L 175.513224 155.18379 
L 175.911852 156.743077 
L 176.31048 154.428677 
L 176.709108 155.670705 
L 177.107737 159.064425 
L 177.506365 157.24195 
L 177.904993 159.347855 
L 178.702249 158.415931 
L 179.100878 160.270909 
L 179.499506 156.288184 
L 179.898134 159.209668 
L 180.296762 158.051079 
L 180.69539 158.637453 
L 181.094019 158.93302 
L 181.492647 157.081116 
L 181.891275 158.443042 
L 182.289903 156.903977 
L 182.688531 156.92958 
L 183.08716 156.678802 
L 183.485788 154.634399 
L 183.884416 156.761024 
L 184.283044 158.041965 
L 184.681672 157.111862 
L 185.080301 158.342069 
L 185.478929 158.335576 
L 185.877557 158.131945 
L 186.276185 158.167452 
L 186.674813 156.869902 
L 187.073442 159.854457 
L 187.47207 155.727654 
L 188.269326 158.301413 
L 188.667954 157.561894 
L 189.066583 157.491877 
L 189.465211 157.866806 
L 189.863839 156.44558 
L 190.262467 158.166257 
L 190.661095 158.886085 
L 191.059724 158.117217 
L 191.458352 159.362254 
L 191.85698 158.469664 
L 192.255608 158.437676 
L 192.654236 156.566475 
L 193.052865 158.857304 
L 193.451493 158.09435 
L 193.850121 158.921921 
L 194.248749 157.732782 
L 194.647377 158.190007 
L 195.046006 157.378148 
L 195.444634 157.442851 
L 195.843262 156.812048 
L 196.24189 157.751612 
L 196.640518 157.08751 
L 197.039147 158.283898 
L 197.437775 158.12831 
L 197.836403 157.540205 
L 198.235031 158.332262 
L 198.633659 158.587292 
L 199.032288 159.30807 
L 199.430916 158.863617 
L 199.829544 158.686577 
L 200.6268 157.448462 
L 201.822685 158.609045 
L 202.221313 158.194456 
L 202.619941 158.579618 
L 203.01857 158.248059 
L 203.417198 158.702664 
L 203.815826 158.48132 
L 204.613082 158.89482 
L 205.011711 158.877139 
L 205.410339 158.437646 
L 206.207595 157.934224 
L 207.004851 158.117276 
L 207.40348 158.084512 
L 208.200736 158.322276 
L 208.599364 158.615127 
L 209.396621 158.335736 
L 209.795249 158.535446 
L 210.193877 158.299077 
L 210.592505 158.236843 
L 210.991133 158.354792 
L 211.389762 157.499571 
L 212.187018 157.740265 
L 212.585646 157.582134 
L 213.382903 158.425306 
L 214.578787 158.528668 
L 214.977415 158.444073 
L 215.376044 158.75868 
L 216.970556 158.332936 
L 217.767813 158.370651 
L 218.166441 158.081826 
L 218.565069 158.151851 
L 218.963697 157.962413 
L 219.760954 158.112473 
L 220.159582 158.165028 
L 220.956838 157.955896 
L 221.355467 157.96222 
L 221.754095 158.103338 
L 223.348608 158.106548 
L 224.544492 158.360037 
L 227.33489 158.358241 
L 228.132146 158.326241 
L 229.726659 158.499381 
L 232.517056 158.404549 
L 234.908825 158.309121 
L 258.826517 158.463342 
L 258.826517 158.463342 
" clip-path="url(#p3f6c2bc73c)" style="fill: none; stroke: #e63946; stroke-width: 1.5; stroke-linecap: square"/>
   </g>
   <g id="patch_3">
    <path d="M 53.31375 167.56 
L 53.31375 7.2 
" style="fill: none; stroke: #ffffff; stroke-linejoin: miter; stroke-linecap: square"/>
   </g>
   <g id="patch_4">
    <path d="M 268.612839 167.56 
L 268.612839 7.2 
" style="fill: none; stroke: #ffffff; stroke-linejoin: miter; stroke-linecap: square"/>
   </g>
   <g id="patch_5">
    <path d="M 53.31375 167.56 
L 268.612839 167.56 
" style="fill: none; stroke: #ffffff; stroke-linejoin: miter; stroke-linecap: square"/>
   </g>
   <g id="patch_6">
    <path d="M 53.31375 7.2 
L 268.612839 7.2 
" style="fill: none; stroke: #ffffff; stroke-linejoin: miter; stroke-linecap: square"/>
   </g>
   <g id="legend_1">
    <g id="patch_7">
     <path d="M 157.737839 44.55625 
L 261.612839 44.55625 
Q 263.612839 44.55625 263.612839 42.55625 
L 263.612839 14.2 
Q 263.612839 12.2 261.612839 12.2 
L 157.737839 12.2 
Q 155.737839 12.2 155.737839 14.2 
L 155.737839 42.55625 
Q 155.737839 44.55625 157.737839 44.55625 
z
" style="fill: #e5e5e5; opacity: 0.8; stroke: #cccccc; stroke-width: 0.5; stroke-linejoin: miter"/>
    </g>
    <g id="line2d_52">
     <path d="M 159.737839 20.298437 
L 169.737839 20.298437 
L 179.737839 20.298437 
" style="fill: none; stroke: #1d3557; stroke-width: 1.5; stroke-linecap: square"/>
    </g>
    <g id="text_13">
     <!-- Training loss -->
     <g transform="translate(187.737839 23.798437) scale(0.1 -0.1)">
      <defs>
       <path id="DejaVuSans-54" d="M -19 4666 
L 3928 4666 
L 3928 4134 
L 2272 4134 
L 2272 0 
L 1638 0 
L 1638 4134 
L -19 4134 
L -19 4666 
z
" transform="scale(0.015625)"/>
       <path id="DejaVuSans-72" d="M 2631 2963 
Q 2534 3019 2420 3045 
Q 2306 3072 2169 3072 
Q 1681 3072 1420 2755 
Q 1159 2438 1159 1844 
L 1159 0 
L 581 0 
L 581 3500 
L 1159 3500 
L 1159 2956 
Q 1341 3275 1631 3429 
Q 1922 3584 2338 3584 
Q 2397 3584 2469 3576 
Q 2541 3569 2628 3553 
L 2631 2963 
z
" transform="scale(0.015625)"/>
       <path id="DejaVuSans-61" d="M 2194 1759 
Q 1497 1759 1228 1600 
Q 959 1441 959 1056 
Q 959 750 1161 570 
Q 1363 391 1709 391 
Q 2188 391 2477 730 
Q 2766 1069 2766 1631 
L 2766 1759 
L 2194 1759 
z
M 3341 1997 
L 3341 0 
L 2766 0 
L 2766 531 
Q 2569 213 2275 61 
Q 1981 -91 1556 -91 
Q 1019 -91 701 211 
Q 384 513 384 1019 
Q 384 1609 779 1909 
Q 1175 2209 1959 2209 
L 2766 2209 
L 2766 2266 
Q 2766 2663 2505 2880 
Q 2244 3097 1772 3097 
Q 1472 3097 1187 3025 
Q 903 2953 641 2809 
L 641 3341 
Q 956 3463 1253 3523 
Q 1550 3584 1831 3584 
Q 2591 3584 2966 3190 
Q 3341 2797 3341 1997 
z
" transform="scale(0.015625)"/>
       <path id="DejaVuSans-69" d="M 603 3500 
L 1178 3500 
L 1178 0 
L 603 0 
L 603 3500 
z
M 603 4863 
L 1178 4863 
L 1178 4134 
L 603 4134 
L 603 4863 
z
" transform="scale(0.015625)"/>
       <path id="DejaVuSans-6e" d="M 3513 2113 
L 3513 0 
L 2938 0 
L 2938 2094 
Q 2938 2591 2744 2837 
Q 2550 3084 2163 3084 
Q 1697 3084 1428 2787 
Q 1159 2491 1159 1978 
L 1159 0 
L 581 0 
L 581 3500 
L 1159 3500 
L 1159 2956 
Q 1366 3272 1645 3428 
Q 1925 3584 2291 3584 
Q 2894 3584 3203 3211 
Q 3513 2838 3513 2113 
z
" transform="scale(0.015625)"/>
       <path id="DejaVuSans-67" d="M 2906 1791 
Q 2906 2416 2648 2759 
Q 2391 3103 1925 3103 
Q 1463 3103 1205 2759 
Q 947 2416 947 1791 
Q 947 1169 1205 825 
Q 1463 481 1925 481 
Q 2391 481 2648 825 
Q 2906 1169 2906 1791 
z
M 3481 434 
Q 3481 -459 3084 -895 
Q 2688 -1331 1869 -1331 
Q 1566 -1331 1297 -1286 
Q 1028 -1241 775 -1147 
L 775 -588 
Q 1028 -725 1275 -790 
Q 1522 -856 1778 -856 
Q 2344 -856 2625 -561 
Q 2906 -266 2906 331 
L 2906 616 
Q 2728 306 2450 153 
Q 2172 0 1784 0 
Q 1141 0 747 490 
Q 353 981 353 1791 
Q 353 2603 747 3093 
Q 1141 3584 1784 3584 
Q 2172 3584 2450 3431 
Q 2728 3278 2906 2969 
L 2906 3500 
L 3481 3500 
L 3481 434 
z
" transform="scale(0.015625)"/>
       <path id="DejaVuSans-20" transform="scale(0.015625)"/>
       <path id="DejaVuSans-6c" d="M 603 4863 
L 1178 4863 
L 1178 0 
L 603 0 
L 603 4863 
z
" transform="scale(0.015625)"/>
      </defs>
      <use xlink:href="#DejaVuSans-54"/>
      <use xlink:href="#DejaVuSans-72" transform="translate(46.333984 0)"/>
      <use xlink:href="#DejaVuSans-61" transform="translate(87.447266 0)"/>
      <use xlink:href="#DejaVuSans-69" transform="translate(148.726562 0)"/>
      <use xlink:href="#DejaVuSans-6e" transform="translate(176.509766 0)"/>
      <use xlink:href="#DejaVuSans-69" transform="translate(239.888672 0)"/>
      <use xlink:href="#DejaVuSans-6e" transform="translate(267.671875 0)"/>
      <use xlink:href="#DejaVuSans-67" transform="translate(331.050781 0)"/>
      <use xlink:href="#DejaVuSans-20" transform="translate(394.527344 0)"/>
      <use xlink:href="#DejaVuSans-6c" transform="translate(426.314453 0)"/>
      <use xlink:href="#DejaVuSans-6f" transform="translate(454.097656 0)"/>
      <use xlink:href="#DejaVuSans-73" transform="translate(515.279297 0)"/>
      <use xlink:href="#DejaVuSans-73" transform="translate(567.378906 0)"/>
     </g>
    </g>
    <g id="line2d_53">
     <path d="M 159.737839 34.976562 
L 169.737839 34.976562 
L 179.737839 34.976562 
" style="fill: none; stroke: #e63946; stroke-width: 1.5; stroke-linecap: square"/>
    </g>
    <g id="text_14">
     <!-- Validation loss -->
     <g transform="translate(187.737839 38.476562) scale(0.1 -0.1)">
      <defs>
       <path id="DejaVuSans-56" d="M 1831 0 
L 50 4666 
L 709 4666 
L 2188 738 
L 3669 4666 
L 4325 4666 
L 2547 0 
L 1831 0 
z
" transform="scale(0.015625)"/>
       <path id="DejaVuSans-64" d="M 2906 2969 
L 2906 4863 
L 3481 4863 
L 3481 0 
L 2906 0 
L 2906 525 
Q 2725 213 2448 61 
Q 2172 -91 1784 -91 
Q 1150 -91 751 415 
Q 353 922 353 1747 
Q 353 2572 751 3078 
Q 1150 3584 1784 3584 
Q 2172 3584 2448 3432 
Q 2725 3281 2906 2969 
z
M 947 1747 
Q 947 1113 1208 752 
Q 1469 391 1925 391 
Q 2381 391 2643 752 
Q 2906 1113 2906 1747 
Q 2906 2381 2643 2742 
Q 2381 3103 1925 3103 
Q 1469 3103 1208 2742 
Q 947 2381 947 1747 
z
" transform="scale(0.015625)"/>
       <path id="DejaVuSans-74" d="M 1172 4494 
L 1172 3500 
L 2356 3500 
L 2356 3053 
L 1172 3053 
L 1172 1153 
Q 1172 725 1289 603 
Q 1406 481 1766 481 
L 2356 481 
L 2356 0 
L 1766 0 
Q 1100 0 847 248 
Q 594 497 594 1153 
L 594 3053 
L 172 3053 
L 172 3500 
L 594 3500 
L 594 4494 
L 1172 4494 
z
" transform="scale(0.015625)"/>
      </defs>
      <use xlink:href="#DejaVuSans-56"/>
      <use xlink:href="#DejaVuSans-61" transform="translate(60.658203 0)"/>
      <use xlink:href="#DejaVuSans-6c" transform="translate(121.9375 0)"/>
      <use xlink:href="#DejaVuSans-69" transform="translate(149.720703 0)"/>
      <use xlink:href="#DejaVuSans-64" transform="translate(177.503906 0)"/>
      <use xlink:href="#DejaVuSans-61" transform="translate(240.980469 0)"/>
      <use xlink:href="#DejaVuSans-74" transform="translate(302.259766 0)"/>
      <use xlink:href="#DejaVuSans-69" transform="translate(341.46875 0)"/>
      <use xlink:href="#DejaVuSans-6f" transform="translate(369.251953 0)"/>
      <use xlink:href="#DejaVuSans-6e" transform="translate(430.433594 0)"/>
      <use xlink:href="#DejaVuSans-20" transform="translate(493.8125 0)"/>
      <use xlink:href="#DejaVuSans-6c" transform="translate(525.599609 0)"/>
      <use xlink:href="#DejaVuSans-6f" transform="translate(553.382812 0)"/>
      <use xlink:href="#DejaVuSans-73" transform="translate(614.564453 0)"/>
      <use xlink:href="#DejaVuSans-73" transform="translate(666.664062 0)"/>
     </g>
    </g>
   </g>
  </g>
 </g>
 <defs>
  <clipPath id="p3f6c2bc73c">
   <rect x="53.31375" y="7.2" width="215.299089" height="160.36"/>
  </clipPath>
 </defs>
</svg>
