<?xml version="1.0" encoding="utf-8" standalone="no"?>
<!DOCTYPE svg PUBLIC "-//W3C//DTD SVG 1.1//EN"
  "http://www.w3.org/Graphics/SVG/1.1/DTD/svg11.dtd">
<svg xmlns:xlink="http://www.w3.org/1999/xlink" width="278.836696pt" height="207.051875pt" viewBox="0 0 278.836696 207.051875" xmlns="http://www.w3.org/2000/svg" version="1.1">
 <metadata>
  <rdf:RDF xmlns:dc="http://purl.org/dc/elements/1.1/" xmlns:cc="http://creativecommons.org/ns#" xmlns:rdf="http://www.w3.org/1999/02/22-rdf-syntax-ns#">
   <cc:Work>
    <dc:type rdf:resource="http://purl.org/dc/dcmitype/StillImage"/>
    <dc:date>2026-04-02T10:40:40.025677</dc:date>
    <dc:format>image/svg+xml</dc:format>
    <dc:creator>
     <cc:Agent>
      <dc:title>Matplotlib v3.10.3, https://matplotlib.org/</dc:title>
     </cc:Agent>
    </dc:creator>
   </cc:Work>
  </rdf:RDF>
 </metadata>
 <defs>
  <style type="text/css">*{stroke-linejoin: round; stroke-linecap: butt}</style>
 </defs>
 <g id="figure_1">
  <g id="patch_1">
   <path d="M 0 207.051875 
L 278.836696 207.051875 
L 278.836696 0 
L 0 0 
z
" style="fill: #ffffff"/>
  </g>
  <g id="axes_1">
   <g id="patch_2">
    <path d="M 53.31375 167.56 
L 271.636696 167.56 
L 271.636696 7.2 
L 53.31375 7.2 
z
" style="fill: #e5e5e5"/>
   </g>
   <g id="matplotlib.axis_1">
    <g id="xtick_1">
     <g id="line2d_1">
      <path d="M 63.23752 167.56 
L 63.23752 7.2 
" clip-path="url(#p3ead902363)" style="fill: none; stroke: #ffffff; stroke-width: 0.8; stroke-linecap: square"/>
     </g>
     <g id="line2d_2">
      <defs>
       <path id="m008c221035" d="M 0 0 
L 0 3.5 
" style="stroke: #555555; stroke-width: 0.8"/>
      </defs>
      <g>
       <use xlink:href="#m008c221035" x="63.23752" y="167.56" style="fill: #555555; stroke: #555555; stroke-width: 0.8"/>
      </g>
     </g>
     <g id="text_1">
      <!-- 0 -->
      <g style="fill: #555555" transform="translate(60.05627 182.158437) scale(0.1 -0.1)">
       <defs>
        <path id="DejaVuSans-30" d="M 2034 4250 
Q 1547 4250 1301 3770 
Q 1056 3291 1056 2328 
Q 1056 1369 1301 889 
Q 1547 409 2034 409 
Q 2525 409 2770 889 
Q 3016 1369 3016 2328 
Q 3016 3291 2770 3770 
Q 2525 4250 2034 4250 
z
M 2034 4750 
Q 2819 4750 3233 4129 
Q 3647 3509 3647 2328 
Q 3647 1150 3233 529 
Q 2819 -91 2034 -91 
Q 1250 -91 836 529 
Q 422 1150 422 2328 
Q 422 3509 836 4129 
Q 1250 4750 2034 4750 
z
" transform="scale(0.015625)"/>
       </defs>
       <use xlink:href="#DejaVuSans-30"/>
      </g>
     </g>
    </g>
    <g id="xtick_2">
     <g id="line2d_3">
      <path d="M 101.851412 167.56 
L 101.851412 7.2 
" clip-path="url(#p3ead902363)" style="fill: none; stroke: #ffffff; stroke-width: 0.8; stroke-linecap: square"/>
     </g>
     <g id="line2d_4">
      <g>
       <use xlink:href="#m008c221035" x="101.851412" y="167.56" style="fill: #555555; stroke: #555555; stroke-width: 0.8"/>
      </g>
     </g>
     <g id="text_2">
      <!-- 100 -->
      <g style="fill: #555555" transform="translate(92.307662 182.158437) scale(0.1 -0.1)">
       <defs>
        <path id="DejaVuSans-31" d="M 794 531 
L 1825 531 
L 1825 4091 
L 703 3866 
L 703 4441 
L 1819 4666 
L 2450 4666 
L 2450 531 
L 3481 531 
L 3481 0 
L 794 0 
L 794 531 
z
" transform="scale(0.015625)"/>
       </defs>
       <use xlink:href="#DejaVuSans-31"/>
       <use xlink:href="#DejaVuSans-30" transform="translate(63.623047 0)"/>
       <use xlink:href="#DejaVuSans-30" transform="translate(127.246094 0)"/>
      </g>
     </g>
    </g>
    <g id="xtick_3">
     <g id="line2d_5">
      <path d="M 140.465305 167.56 
L 140.465305 7.2 
" clip-path="url(#p3ead902363)" style="fill: none; stroke: #ffffff; stroke-width: 0.8; stroke-linecap: square"/>
     </g>
     <g id="line2d_6">
      <g>
       <use xlink:href="#m008c221035" x="140.465305" y="167.56" style="fill: #555555; stroke: #555555; stroke-width: 0.8"/>
      </g>
     </g>
     <g id="text_3">
      <!-- 200 -->
      <g style="fill: #555555" transform="translate(130.921555 182.158437) scale(0.1 -0.1)">
       <defs>
        <path id="DejaVuSans-32" d="M 1228 531 
L 3431 531 
L 3431 0 
L 469 0 
L 469 531 
Q 828 903 1448 1529 
Q 2069 2156 2228 2338 
Q 2531 2678 2651 2914 
Q 2772 3150 2772 3378 
Q 2772 3750 2511 3984 
Q 2250 4219 1831 4219 
Q 1534 4219 1204 4116 
Q 875 4013 500 3803 
L 500 4441 
Q 881 4594 1212 4672 
Q 1544 4750 1819 4750 
Q 2544 4750 2975 4387 
Q 3406 4025 3406 3419 
Q 3406 3131 3298 2873 
Q 3191 2616 2906 2266 
Q 2828 2175 2409 1742 
Q 1991 1309 1228 531 
z
" transform="scale(0.015625)"/>
       </defs>
       <use xlink:href="#DejaVuSans-32"/>
       <use xlink:href="#DejaVuSans-30" transform="translate(63.623047 0)"/>
       <use xlink:href="#DejaVuSans-30" transform="translate(127.246094 0)"/>
      </g>
     </g>
    </g>
    <g id="xtick_4">
     <g id="line2d_7">
      <path d="M 179.079197 167.56 
L 179.079197 7.2 
" clip-path="url(#p3ead902363)" style="fill: none; stroke: #ffffff; stroke-width: 0.8; stroke-linecap: square"/>
     </g>
     <g id="line2d_8">
      <g>
       <use xlink:href="#m008c221035" x="179.079197" y="167.56" style="fill: #555555; stroke: #555555; stroke-width: 0.8"/>
      </g>
     </g>
     <g id="text_4">
      <!-- 300 -->
      <g style="fill: #555555" transform="translate(169.535447 182.158437) scale(0.1 -0.1)">
       <defs>
        <path id="DejaVuSans-33" d="M 2597 2516 
Q 3050 2419 3304 2112 
Q 3559 1806 3559 1356 
Q 3559 666 3084 287 
Q 2609 -91 1734 -91 
Q 1441 -91 1130 -33 
Q 819 25 488 141 
L 488 750 
Q 750 597 1062 519 
Q 1375 441 1716 441 
Q 2309 441 2620 675 
Q 2931 909 2931 1356 
Q 2931 1769 2642 2001 
Q 2353 2234 1838 2234 
L 1294 2234 
L 1294 2753 
L 1863 2753 
Q 2328 2753 2575 2939 
Q 2822 3125 2822 3475 
Q 2822 3834 2567 4026 
Q 2313 4219 1838 4219 
Q 1578 4219 1281 4162 
Q 984 4106 628 3988 
L 628 4550 
Q 988 4650 1302 4700 
Q 1616 4750 1894 4750 
Q 2613 4750 3031 4423 
Q 3450 4097 3450 3541 
Q 3450 3153 3228 2886 
Q 3006 2619 2597 2516 
z
" transform="scale(0.015625)"/>
       </defs>
       <use xlink:href="#DejaVuSans-33"/>
       <use xlink:href="#DejaVuSans-30" transform="translate(63.623047 0)"/>
       <use xlink:href="#DejaVuSans-30" transform="translate(127.246094 0)"/>
      </g>
     </g>
    </g>
    <g id="xtick_5">
     <g id="line2d_9">
      <path d="M 217.693089 167.56 
L 217.693089 7.2 
" clip-path="url(#p3ead902363)" style="fill: none; stroke: #ffffff; stroke-width: 0.8; stroke-linecap: square"/>
     </g>
     <g id="line2d_10">
      <g>
       <use xlink:href="#m008c221035" x="217.693089" y="167.56" style="fill: #555555; stroke: #555555; stroke-width: 0.8"/>
      </g>
     </g>
     <g id="text_5">
      <!-- 400 -->
      <g style="fill: #555555" transform="translate(208.149339 182.158437) scale(0.1 -0.1)">
       <defs>
        <path id="DejaVuSans-34" d="M 2419 4116 
L 825 1625 
L 2419 1625 
L 2419 4116 
z
M 2253 4666 
L 3047 4666 
L 3047 1625 
L 3713 1625 
L 3713 1100 
L 3047 1100 
L 3047 0 
L 2419 0 
L 2419 1100 
L 313 1100 
L 313 1709 
L 2253 4666 
z
" transform="scale(0.015625)"/>
       </defs>
       <use xlink:href="#DejaVuSans-34"/>
       <use xlink:href="#DejaVuSans-30" transform="translate(63.623047 0)"/>
       <use xlink:href="#DejaVuSans-30" transform="translate(127.246094 0)"/>
      </g>
     </g>
    </g>
    <g id="xtick_6">
     <g id="line2d_11">
      <path d="M 256.306981 167.56 
L 256.306981 7.2 
" clip-path="url(#p3ead902363)" style="fill: none; stroke: #ffffff; stroke-width: 0.8; stroke-linecap: square"/>
     </g>
     <g id="line2d_12">
      <g>
       <use xlink:href="#m008c221035" x="256.306981" y="167.56" style="fill: #555555; stroke: #555555; stroke-width: 0.8"/>
      </g>
     </g>
     <g id="text_6">
      <!-- 500 -->
      <g style="fill: #555555" transform="translate(246.763231 182.158437) scale(0.1 -0.1)">
       <defs>
        <path id="DejaVuSans-35" d="M 691 4666 
L 3169 4666 
L 3169 4134 
L 1269 4134 
L 1269 2991 
Q 1406 3038 1543 3061 
Q 1681 3084 1819 3084 
Q 2600 3084 3056 2656 
Q 3513 2228 3513 1497 
Q 3513 744 3044 326 
Q 2575 -91 1722 -91 
Q 1428 -91 1123 -41 
Q 819 9 494 109 
L 494 744 
Q 775 591 1075 516 
Q 1375 441 1709 441 
Q 2250 441 2565 725 
Q 2881 1009 2881 1497 
Q 2881 1984 2565 2268 
Q 2250 2553 1709 2553 
Q 1456 2553 1204 2497 
Q 953 2441 691 2322 
L 691 4666 
z
" transform="scale(0.015625)"/>
       </defs>
       <use xlink:href="#DejaVuSans-35"/>
       <use xlink:href="#DejaVuSans-30" transform="translate(63.623047 0)"/>
       <use xlink:href="#DejaVuSans-30" transform="translate(127.246094 0)"/>
      </g>
     </g>
    </g>
    <g id="text_7">
     <!-- Epoch -->
     <g style="fill: #555555" transform="translate(144.102098 197.35625) scale(0.12 -0.12)">
      <defs>
       <path id="DejaVuSans-45" d="M 628 4666 
L 3578 4666 
L 3578 4134 
L 1259 4134 
L 1259 2753 
L 3481 2753 
L 3481 2222 
L 1259 2222 
L 1259 531 
L 3634 531 
L 3634 0 
L 628 0 
L 628 4666 
z
" transform="scale(0.015625)"/>
       <path id="DejaVuSans-70" d="M 1159 525 
L 1159 -1331 
L 581 -1331 
L 581 3500 
L 1159 3500 
L 1159 2969 
Q 1341 3281 1617 3432 
Q 1894 3584 2278 3584 
Q 2916 3584 3314 3078 
Q 3713 2572 3713 1747 
Q 3713 922 3314 415 
Q 2916 -91 2278 -91 
Q 1894 -91 1617 61 
Q 1341 213 1159 525 
z
M 3116 1747 
Q 3116 2381 2855 2742 
Q 2594 3103 2138 3103 
Q 1681 3103 1420 2742 
Q 1159 2381 1159 1747 
Q 1159 1113 1420 752 
Q 1681 391 2138 391 
Q 2594 391 2855 752 
Q 3116 1113 3116 1747 
z
" transform="scale(0.015625)"/>
       <path id="DejaVuSans-6f" d="M 1959 3097 
Q 1497 3097 1228 2736 
Q 959 2375 959 1747 
Q 959 1119 1226 758 
Q 1494 397 1959 397 
Q 2419 397 2687 759 
Q 2956 1122 2956 1747 
Q 2956 2369 2687 2733 
Q 2419 3097 1959 3097 
z
M 1959 3584 
Q 2709 3584 3137 3096 
Q 3566 2609 3566 1747 
Q 3566 888 3137 398 
Q 2709 -91 1959 -91 
Q 1206 -91 779 398 
Q 353 888 353 1747 
Q 353 2609 779 3096 
Q 1206 3584 1959 3584 
z
" transform="scale(0.015625)"/>
       <path id="DejaVuSans-63" d="M 3122 3366 
L 3122 2828 
Q 2878 2963 2633 3030 
Q 2388 3097 2138 3097 
Q 1578 3097 1268 2742 
Q 959 2388 959 1747 
Q 959 1106 1268 751 
Q 1578 397 2138 397 
Q 2388 397 2633 464 
Q 2878 531 3122 666 
L 3122 134 
Q 2881 22 2623 -34 
Q 2366 -91 2075 -91 
Q 1284 -91 818 406 
Q 353 903 353 1747 
Q 353 2603 823 3093 
Q 1294 3584 2113 3584 
Q 2378 3584 2631 3529 
Q 2884 3475 3122 3366 
z
" transform="scale(0.015625)"/>
       <path id="DejaVuSans-68" d="M 3513 2113 
L 3513 0 
L 2938 0 
L 2938 2094 
Q 2938 2591 2744 2837 
Q 2550 3084 2163 3084 
Q 1697 3084 1428 2787 
Q 1159 2491 1159 1978 
L 1159 0 
L 581 0 
L 581 4863 
L 1159 4863 
L 1159 2956 
Q 1366 3272 1645 3428 
Q 1925 3584 2291 3584 
Q 2894 3584 3203 3211 
Q 3513 2838 3513 2113 
z
" transform="scale(0.015625)"/>
      </defs>
      <use xlink:href="#DejaVuSans-45"/>
      <use xlink:href="#DejaVuSans-70" transform="translate(63.183594 0)"/>
      <use xlink:href="#DejaVuSans-6f" transform="translate(126.660156 0)"/>
      <use xlink:href="#DejaVuSans-63" transform="translate(187.841797 0)"/>
      <use xlink:href="#DejaVuSans-68" transform="translate(242.822266 0)"/>
     </g>
    </g>
   </g>
   <g id="matplotlib.axis_2">
    <g id="ytick_1">
     <g id="line2d_13">
      <path d="M 53.31375 152.548305 
L 271.636696 152.548305 
" clip-path="url(#p3ead902363)" style="fill: none; stroke: #ffffff; stroke-width: 0.8; stroke-linecap: square"/>
     </g>
     <g id="line2d_14">
      <defs>
       <path id="m44d33bdea3" d="M 0 0 
L -3.5 0 
" style="stroke: #555555; stroke-width: 0.8"/>
      </defs>
      <g>
       <use xlink:href="#m44d33bdea3" x="53.31375" y="152.548305" style="fill: #555555; stroke: #555555; stroke-width: 0.8"/>
      </g>
     </g>
     <g id="text_8">
      <!-- $\mathdefault{10^{-4}}$ -->
      <g style="fill: #555555" transform="translate(22.81375 156.347523) scale(0.1 -0.1)">
       <defs>
        <path id="DejaVuSans-2212" d="M 678 2272 
L 4684 2272 
L 4684 1741 
L 678 1741 
L 678 2272 
z
" transform="scale(0.015625)"/>
       </defs>
       <use xlink:href="#DejaVuSans-31" transform="translate(0 0.684375)"/>
       <use xlink:href="#DejaVuSans-30" transform="translate(63.623047 0.684375)"/>
       <use xlink:href="#DejaVuSans-2212" transform="translate(128.203125 38.965625) scale(0.7)"/>
       <use xlink:href="#DejaVuSans-34" transform="translate(186.855469 38.965625) scale(0.7)"/>
      </g>
     </g>
    </g>
    <g id="ytick_2">
     <g id="line2d_15">
      <path d="M 53.31375 109.82925 
L 271.636696 109.82925 
" clip-path="url(#p3ead902363)" style="fill: none; stroke: #ffffff; stroke-width: 0.8; stroke-linecap: square"/>
     </g>
     <g id="line2d_16">
      <g>
       <use xlink:href="#m44d33bdea3" x="53.31375" y="109.82925" style="fill: #555555; stroke: #555555; stroke-width: 0.8"/>
      </g>
     </g>
     <g id="text_9">
      <!-- $\mathdefault{10^{-3}}$ -->
      <g style="fill: #555555" transform="translate(22.81375 113.628469) scale(0.1 -0.1)">
       <use xlink:href="#DejaVuSans-31" transform="translate(0 0.765625)"/>
       <use xlink:href="#DejaVuSans-30" transform="translate(63.623047 0.765625)"/>
       <use xlink:href="#DejaVuSans-2212" transform="translate(128.203125 39.046875) scale(0.7)"/>
       <use xlink:href="#DejaVuSans-33" transform="translate(186.855469 39.046875) scale(0.7)"/>
      </g>
     </g>
    </g>
    <g id="ytick_3">
     <g id="line2d_17">
      <path d="M 53.31375 67.110196 
L 271.636696 67.110196 
" clip-path="url(#p3ead902363)" style="fill: none; stroke: #ffffff; stroke-width: 0.8; stroke-linecap: square"/>
     </g>
     <g id="line2d_18">
      <g>
       <use xlink:href="#m44d33bdea3" x="53.31375" y="67.110196" style="fill: #555555; stroke: #555555; stroke-width: 0.8"/>
      </g>
     </g>
     <g id="text_10">
      <!-- $\mathdefault{10^{-2}}$ -->
      <g style="fill: #555555" transform="translate(22.81375 70.909414) scale(0.1 -0.1)">
       <use xlink:href="#DejaVuSans-31" transform="translate(0 0.765625)"/>
       <use xlink:href="#DejaVuSans-30" transform="translate(63.623047 0.765625)"/>
       <use xlink:href="#DejaVuSans-2212" transform="translate(128.203125 39.046875) scale(0.7)"/>
       <use xlink:href="#DejaVuSans-32" transform="translate(186.855469 39.046875) scale(0.7)"/>
      </g>
     </g>
    </g>
    <g id="ytick_4">
     <g id="line2d_19">
      <path d="M 53.31375 24.391141 
L 271.636696 24.391141 
" clip-path="url(#p3ead902363)" style="fill: none; stroke: #ffffff; stroke-width: 0.8; stroke-linecap: square"/>
     </g>
     <g id="line2d_20">
      <g>
       <use xlink:href="#m44d33bdea3" x="53.31375" y="24.391141" style="fill: #555555; stroke: #555555; stroke-width: 0.8"/>
      </g>
     </g>
     <g id="text_11">
      <!-- $\mathdefault{10^{-1}}$ -->
      <g style="fill: #555555" transform="translate(22.81375 28.19036) scale(0.1 -0.1)">
       <use xlink:href="#DejaVuSans-31" transform="translate(0 0.684375)"/>
       <use xlink:href="#DejaVuSans-30" transform="translate(63.623047 0.684375)"/>
       <use xlink:href="#DejaVuSans-2212" transform="translate(128.203125 38.965625) scale(0.7)"/>
       <use xlink:href="#DejaVuSans-31" transform="translate(186.855469 38.965625) scale(0.7)"/>
      </g>
     </g>
    </g>
    <g id="ytick_5">
     <g id="line2d_21">
      <defs>
       <path id="m97a1c20d8e" d="M 0 0 
L -2 0 
" style="stroke: #555555; stroke-width: 0.6"/>
      </defs>
      <g>
       <use xlink:href="#m97a1c20d8e" x="53.31375" y="165.408022" style="fill: #555555; stroke: #555555; stroke-width: 0.6"/>
      </g>
     </g>
    </g>
    <g id="ytick_6">
     <g id="line2d_22">
      <g>
       <use xlink:href="#m97a1c20d8e" x="53.31375" y="162.025474" style="fill: #555555; stroke: #555555; stroke-width: 0.6"/>
      </g>
     </g>
    </g>
    <g id="ytick_7">
     <g id="line2d_23">
      <g>
       <use xlink:href="#m97a1c20d8e" x="53.31375" y="159.16557" style="fill: #555555; stroke: #555555; stroke-width: 0.6"/>
      </g>
     </g>
    </g>
    <g id="ytick_8">
     <g id="line2d_24">
      <g>
       <use xlink:href="#m97a1c20d8e" x="53.31375" y="156.688209" style="fill: #555555; stroke: #555555; stroke-width: 0.6"/>
      </g>
     </g>
    </g>
    <g id="ytick_9">
     <g id="line2d_25">
      <g>
       <use xlink:href="#m97a1c20d8e" x="53.31375" y="154.503021" style="fill: #555555; stroke: #555555; stroke-width: 0.6"/>
      </g>
     </g>
    </g>
    <g id="ytick_10">
     <g id="line2d_26">
      <g>
       <use xlink:href="#m97a1c20d8e" x="53.31375" y="139.688588" style="fill: #555555; stroke: #555555; stroke-width: 0.6"/>
      </g>
     </g>
    </g>
    <g id="ytick_11">
     <g id="line2d_27">
      <g>
       <use xlink:href="#m97a1c20d8e" x="53.31375" y="132.166136" style="fill: #555555; stroke: #555555; stroke-width: 0.6"/>
      </g>
     </g>
    </g>
    <g id="ytick_12">
     <g id="line2d_28">
      <g>
       <use xlink:href="#m97a1c20d8e" x="53.31375" y="126.828871" style="fill: #555555; stroke: #555555; stroke-width: 0.6"/>
      </g>
     </g>
    </g>
    <g id="ytick_13">
     <g id="line2d_29">
      <g>
       <use xlink:href="#m97a1c20d8e" x="53.31375" y="122.688967" style="fill: #555555; stroke: #555555; stroke-width: 0.6"/>
      </g>
     </g>
    </g>
    <g id="ytick_14">
     <g id="line2d_30">
      <g>
       <use xlink:href="#m97a1c20d8e" x="53.31375" y="119.306419" style="fill: #555555; stroke: #555555; stroke-width: 0.6"/>
      </g>
     </g>
    </g>
    <g id="ytick_15">
     <g id="line2d_31">
      <g>
       <use xlink:href="#m97a1c20d8e" x="53.31375" y="116.446516" style="fill: #555555; stroke: #555555; stroke-width: 0.6"/>
      </g>
     </g>
    </g>
    <g id="ytick_16">
     <g id="line2d_32">
      <g>
       <use xlink:href="#m97a1c20d8e" x="53.31375" y="113.969154" style="fill: #555555; stroke: #555555; stroke-width: 0.6"/>
      </g>
     </g>
    </g>
    <g id="ytick_17">
     <g id="line2d_33">
      <g>
       <use xlink:href="#m97a1c20d8e" x="53.31375" y="111.783967" style="fill: #555555; stroke: #555555; stroke-width: 0.6"/>
      </g>
     </g>
    </g>
    <g id="ytick_18">
     <g id="line2d_34">
      <g>
       <use xlink:href="#m97a1c20d8e" x="53.31375" y="96.969533" style="fill: #555555; stroke: #555555; stroke-width: 0.6"/>
      </g>
     </g>
    </g>
    <g id="ytick_19">
     <g id="line2d_35">
      <g>
       <use xlink:href="#m97a1c20d8e" x="53.31375" y="89.447081" style="fill: #555555; stroke: #555555; stroke-width: 0.6"/>
      </g>
     </g>
    </g>
    <g id="ytick_20">
     <g id="line2d_36">
      <g>
       <use xlink:href="#m97a1c20d8e" x="53.31375" y="84.109817" style="fill: #555555; stroke: #555555; stroke-width: 0.6"/>
      </g>
     </g>
    </g>
    <g id="ytick_21">
     <g id="line2d_37">
      <g>
       <use xlink:href="#m97a1c20d8e" x="53.31375" y="79.969913" style="fill: #555555; stroke: #555555; stroke-width: 0.6"/>
      </g>
     </g>
    </g>
    <g id="ytick_22">
     <g id="line2d_38">
      <g>
       <use xlink:href="#m97a1c20d8e" x="53.31375" y="76.587365" style="fill: #555555; stroke: #555555; stroke-width: 0.6"/>
      </g>
     </g>
    </g>
    <g id="ytick_23">
     <g id="line2d_39">
      <g>
       <use xlink:href="#m97a1c20d8e" x="53.31375" y="73.727461" style="fill: #555555; stroke: #555555; stroke-width: 0.6"/>
      </g>
     </g>
    </g>
    <g id="ytick_24">
     <g id="line2d_40">
      <g>
       <use xlink:href="#m97a1c20d8e" x="53.31375" y="71.2501" style="fill: #555555; stroke: #555555; stroke-width: 0.6"/>
      </g>
     </g>
    </g>
    <g id="ytick_25">
     <g id="line2d_41">
      <g>
       <use xlink:href="#m97a1c20d8e" x="53.31375" y="69.064912" style="fill: #555555; stroke: #555555; stroke-width: 0.6"/>
      </g>
     </g>
    </g>
    <g id="ytick_26">
     <g id="line2d_42">
      <g>
       <use xlink:href="#m97a1c20d8e" x="53.31375" y="54.250479" style="fill: #555555; stroke: #555555; stroke-width: 0.6"/>
      </g>
     </g>
    </g>
    <g id="ytick_27">
     <g id="line2d_43">
      <g>
       <use xlink:href="#m97a1c20d8e" x="53.31375" y="46.728027" style="fill: #555555; stroke: #555555; stroke-width: 0.6"/>
      </g>
     </g>
    </g>
    <g id="ytick_28">
     <g id="line2d_44">
      <g>
       <use xlink:href="#m97a1c20d8e" x="53.31375" y="41.390762" style="fill: #555555; stroke: #555555; stroke-width: 0.6"/>
      </g>
     </g>
    </g>
    <g id="ytick_29">
     <g id="line2d_45">
      <g>
       <use xlink:href="#m97a1c20d8e" x="53.31375" y="37.250858" style="fill: #555555; stroke: #555555; stroke-width: 0.6"/>
      </g>
     </g>
    </g>
    <g id="ytick_30">
     <g id="line2d_46">
      <g>
       <use xlink:href="#m97a1c20d8e" x="53.31375" y="33.86831" style="fill: #555555; stroke: #555555; stroke-width: 0.6"/>
      </g>
     </g>
    </g>
    <g id="ytick_31">
     <g id="line2d_47">
      <g>
       <use xlink:href="#m97a1c20d8e" x="53.31375" y="31.008407" style="fill: #555555; stroke: #555555; stroke-width: 0.6"/>
      </g>
     </g>
    </g>
    <g id="ytick_32">
     <g id="line2d_48">
      <g>
       <use xlink:href="#m97a1c20d8e" x="53.31375" y="28.531045" style="fill: #555555; stroke: #555555; stroke-width: 0.6"/>
      </g>
     </g>
    </g>
    <g id="ytick_33">
     <g id="line2d_49">
      <g>
       <use xlink:href="#m97a1c20d8e" x="53.31375" y="26.345858" style="fill: #555555; stroke: #555555; stroke-width: 0.6"/>
      </g>
     </g>
    </g>
    <g id="ytick_34">
     <g id="line2d_50">
      <g>
       <use xlink:href="#m97a1c20d8e" x="53.31375" y="11.531424" style="fill: #555555; stroke: #555555; stroke-width: 0.6"/>
      </g>
     </g>
    </g>
    <g id="text_12">
     <!-- Loss -->
     <g style="fill: #555555" transform="translate(16.318125 100.540625) rotate(-90) scale(0.12 -0.12)">
      <defs>
       <path id="DejaVuSans-4c" d="M 628 4666 
L 1259 4666 
L 1259 531 
L 3531 531 
L 3531 0 
L 628 0 
L 628 4666 
z
" transform="scale(0.015625)"/>
       <path id="DejaVuSans-73" d="M 2834 3397 
L 2834 2853 
Q 2591 2978 2328 3040 
Q 2066 3103 1784 3103 
Q 1356 3103 1142 2972 
Q 928 2841 928 2578 
Q 928 2378 1081 2264 
Q 1234 2150 1697 2047 
L 1894 2003 
Q 2506 1872 2764 1633 
Q 3022 1394 3022 966 
Q 3022 478 2636 193 
Q 2250 -91 1575 -91 
Q 1294 -91 989 -36 
Q 684 19 347 128 
L 347 722 
Q 666 556 975 473 
Q 1284 391 1588 391 
Q 1994 391 2212 530 
Q 2431 669 2431 922 
Q 2431 1156 2273 1281 
Q 2116 1406 1581 1522 
L 1381 1569 
Q 847 1681 609 1914 
Q 372 2147 372 2553 
Q 372 3047 722 3315 
Q 1072 3584 1716 3584 
Q 2034 3584 2315 3537 
Q 2597 3491 2834 3397 
z
" transform="scale(0.015625)"/>
      </defs>
      <use xlink:href="#DejaVuSans-4c"/>
      <use xlink:href="#DejaVuSans-6f" transform="translate(53.962891 0)"/>
      <use xlink:href="#DejaVuSans-73" transform="translate(115.144531 0)"/>
      <use xlink:href="#DejaVuSans-73" transform="translate(167.244141 0)"/>
     </g>
    </g>
   </g>
   <g id="line2d_51">
    <path d="M 63.23752 14.489091 
L 63.623659 55.510688 
L 64.009798 61.096857 
L 64.395937 64.775787 
L 64.782076 66.396765 
L 65.168215 69.665583 
L 65.554354 70.893122 
L 65.940493 70.991522 
L 66.326632 71.224892 
L 67.098909 74.00077 
L 67.485048 74.132229 
L 67.871187 74.50488 
L 68.257326 75.772109 
L 68.643465 75.567908 
L 69.029604 74.911948 
L 69.415743 76.670186 
L 69.801882 76.644024 
L 70.188021 75.326776 
L 70.57416 76.589176 
L 70.960299 77.007126 
L 71.346438 76.460563 
L 71.732577 77.203873 
L 72.118715 77.654246 
L 72.504854 76.555993 
L 72.890993 78.304245 
L 73.277132 78.510114 
L 73.663271 79.21621 
L 74.04941 78.07227 
L 74.435549 77.723527 
L 75.207827 79.037173 
L 75.593966 78.699335 
L 75.980105 80.061066 
L 76.366244 79.590091 
L 76.752383 79.787023 
L 77.138521 79.36176 
L 77.52466 79.89712 
L 77.910799 78.636437 
L 78.296938 79.529384 
L 78.683077 79.818982 
L 79.069216 80.255607 
L 79.455355 80.439353 
L 79.841494 79.747433 
L 80.613772 80.842386 
L 80.999911 79.773407 
L 81.38605 80.602404 
L 81.772188 80.890377 
L 82.158327 79.560078 
L 82.544466 79.90798 
L 82.930605 80.0385 
L 83.702883 80.846941 
L 84.089022 80.965346 
L 84.475161 80.715493 
L 84.8613 80.108241 
L 85.247439 81.089027 
L 85.633578 81.139498 
L 86.019717 80.709746 
L 86.405856 81.240547 
L 86.791994 80.221969 
L 87.178133 81.180545 
L 87.564272 80.639516 
L 87.950411 81.143343 
L 88.33655 81.417565 
L 88.722689 80.385522 
L 89.881106 81.428797 
L 90.267245 81.727362 
L 90.653384 81.118452 
L 91.039523 81.949749 
L 91.425662 81.54542 
L 91.8118 83.120206 
L 92.197939 83.518864 
L 92.584078 82.934031 
L 92.970217 82.972283 
L 93.356356 83.157114 
L 93.742495 82.493311 
L 94.514773 83.258065 
L 94.900912 82.797867 
L 95.287051 83.421766 
L 95.67319 82.368381 
L 96.059329 82.131456 
L 96.831606 82.851364 
L 97.217745 82.904753 
L 97.603884 83.424801 
L 97.990023 83.062871 
L 98.376162 83.025848 
L 98.762301 82.610036 
L 99.920718 83.446026 
L 100.306857 82.288472 
L 100.692996 83.287284 
L 101.079135 83.478542 
L 101.465273 82.993402 
L 101.851412 82.818143 
L 102.237551 83.532821 
L 102.62369 83.417854 
L 103.009829 83.04542 
L 103.782107 83.014827 
L 104.168246 83.845291 
L 104.554385 83.290993 
L 104.940524 83.043827 
L 105.326663 83.11409 
L 105.712802 83.520182 
L 106.098941 83.460219 
L 106.485079 83.673327 
L 106.871218 83.230185 
L 107.257357 83.511354 
L 107.643496 83.236467 
L 108.029635 84.074043 
L 108.415774 83.551737 
L 108.801913 83.733463 
L 109.188052 82.626677 
L 109.574191 83.962758 
L 109.96033 84.347542 
L 110.732608 84.254189 
L 111.118747 84.662218 
L 111.504885 84.073165 
L 111.891024 84.072909 
L 112.277163 84.753054 
L 112.663302 84.892505 
L 113.049441 84.388655 
L 113.43558 84.756181 
L 113.821719 84.412053 
L 114.207858 84.720542 
L 114.593997 84.319081 
L 114.980136 84.632057 
L 115.366275 84.56274 
L 116.138552 84.131524 
L 116.524691 84.866264 
L 116.91083 84.350021 
L 117.296969 84.432008 
L 117.683108 85.043814 
L 118.069247 83.854617 
L 118.841525 84.127081 
L 119.227664 83.990877 
L 119.613803 84.183794 
L 119.999942 84.236336 
L 120.386081 84.404568 
L 120.77222 84.084591 
L 121.158358 84.470205 
L 121.544497 84.300052 
L 121.930636 85.044057 
L 122.316775 84.473768 
L 122.702914 84.228953 
L 123.089053 84.867685 
L 123.475192 84.551552 
L 123.861331 84.950511 
L 124.24747 84.658505 
L 124.633609 84.900463 
L 125.019748 84.26803 
L 125.405887 84.475854 
L 125.792026 85.062643 
L 126.178164 84.447664 
L 126.564303 84.75092 
L 126.950442 85.317098 
L 127.336581 84.861634 
L 127.72272 84.233557 
L 128.494998 84.603093 
L 128.881137 84.6809 
L 129.267276 84.883309 
L 129.653415 84.06806 
L 130.039554 85.184081 
L 130.425693 84.857067 
L 130.811832 85.093474 
L 131.19797 84.786324 
L 131.584109 85.029058 
L 131.970248 85.503234 
L 132.356387 84.643751 
L 132.742526 85.617738 
L 133.514804 84.948878 
L 133.900943 84.78805 
L 134.287082 85.439981 
L 134.673221 85.341798 
L 135.05936 85.449896 
L 135.445499 84.870792 
L 135.831637 85.170371 
L 136.217776 85.215745 
L 136.603915 84.980206 
L 136.990054 85.72828 
L 137.376193 84.923723 
L 138.148471 85.011302 
L 138.53461 85.140695 
L 138.920749 85.08136 
L 139.306888 85.289245 
L 139.693027 85.722441 
L 140.079166 85.002818 
L 140.465305 85.355569 
L 140.851443 85.336407 
L 141.237582 84.577402 
L 141.623721 85.196871 
L 142.00986 84.787016 
L 142.395999 85.977174 
L 143.554416 85.572531 
L 143.940555 85.651891 
L 144.712833 85.66598 
L 145.098972 85.837733 
L 145.485111 85.244666 
L 145.871249 85.708765 
L 146.257388 85.600682 
L 146.643527 85.006608 
L 147.415805 85.706652 
L 147.801944 85.565753 
L 148.188083 85.292742 
L 148.574222 85.854461 
L 148.960361 85.159922 
L 149.3465 85.190028 
L 149.732639 84.454006 
L 150.118778 85.562264 
L 150.504916 85.501295 
L 150.891055 85.181483 
L 151.277194 85.506442 
L 151.663333 85.109863 
L 152.049472 85.456651 
L 152.435611 86.333567 
L 152.82175 85.920915 
L 153.207889 86.159196 
L 153.594028 85.31121 
L 153.980167 85.987608 
L 154.366306 85.244832 
L 154.752445 85.612045 
L 155.138584 85.323568 
L 156.297 85.84529 
L 156.683139 85.546602 
L 157.069278 85.428197 
L 157.455417 86.28371 
L 157.841556 85.618585 
L 158.227695 85.569108 
L 158.613834 85.853546 
L 158.999973 85.432199 
L 159.386112 85.853 
L 159.772251 85.303252 
L 160.15839 85.015968 
L 160.544528 85.66939 
L 160.930667 85.725743 
L 161.316806 86.100923 
L 161.702945 85.182212 
L 162.089084 86.034383 
L 162.475223 85.726326 
L 162.861362 86.124362 
L 163.247501 85.726712 
L 163.63364 85.517766 
L 164.019779 85.983817 
L 164.405918 85.304024 
L 164.792057 85.755749 
L 165.950473 86.175134 
L 166.336612 85.837764 
L 166.722751 85.746838 
L 167.10889 86.02402 
L 167.495029 85.862052 
L 167.881168 86.050412 
L 168.267307 85.388022 
L 168.653446 86.16618 
L 169.425724 85.997048 
L 169.811863 85.735902 
L 170.58414 85.947017 
L 171.356418 85.793055 
L 171.742557 85.952702 
L 172.128696 85.480853 
L 172.514835 86.025619 
L 173.287113 85.572366 
L 173.673252 85.981861 
L 174.059391 85.762863 
L 174.44553 85.411922 
L 174.831669 86.12828 
L 175.217807 86.001371 
L 175.603946 85.431335 
L 175.990085 85.430178 
L 176.376224 85.622138 
L 176.762363 85.643491 
L 177.148502 86.177893 
L 177.534641 86.388535 
L 177.92078 86.019396 
L 178.693058 86.454163 
L 179.079197 85.73123 
L 179.465336 85.850089 
L 180.237613 86.492887 
L 181.009891 85.53877 
L 181.39603 86.574202 
L 181.782169 85.836385 
L 182.554447 85.210394 
L 182.940586 86.100487 
L 183.326725 86.51434 
L 183.712864 85.376742 
L 184.099003 85.257197 
L 184.485142 85.375313 
L 184.87128 86.113042 
L 185.257419 85.891985 
L 185.643558 85.464169 
L 186.029697 85.627399 
L 186.415836 85.507051 
L 186.801975 85.625249 
L 187.188114 86.727531 
L 187.960392 85.472218 
L 188.346531 85.754271 
L 188.73267 85.284177 
L 189.504948 86.845243 
L 189.891086 85.808453 
L 190.277225 86.62951 
L 190.663364 85.893625 
L 191.049503 86.283189 
L 191.435642 85.987312 
L 191.821781 86.264775 
L 192.20792 86.25904 
L 192.594059 86.630338 
L 192.980198 85.591914 
L 193.366337 86.012525 
L 193.752476 85.142166 
L 194.138615 86.296135 
L 195.68317 85.504034 
L 196.069309 85.379221 
L 196.455448 85.622831 
L 196.841587 85.519878 
L 197.227726 85.983483 
L 197.613865 85.080302 
L 198.000004 86.2344 
L 198.386143 85.749828 
L 198.772282 85.931184 
L 199.158421 85.318073 
L 199.544559 86.064799 
L 199.930698 86.334364 
L 200.316837 85.540831 
L 200.702976 85.802176 
L 201.089115 85.743735 
L 201.475254 86.289776 
L 201.861393 86.251806 
L 202.247532 85.64757 
L 202.633671 86.020201 
L 203.01981 86.071953 
L 203.405949 85.744469 
L 203.792088 86.450083 
L 204.178227 85.455381 
L 204.950504 86.476744 
L 205.336643 86.129383 
L 205.722782 85.537893 
L 206.108921 85.983869 
L 206.49506 85.620984 
L 207.653477 86.154693 
L 208.039616 85.843742 
L 208.425755 85.755142 
L 208.811894 85.344643 
L 209.198033 85.888475 
L 209.97031 86.002766 
L 210.356449 86.326086 
L 210.742588 86.042915 
L 211.128727 85.462165 
L 211.901005 86.406208 
L 212.287144 85.419915 
L 212.673283 86.458059 
L 213.059422 86.159004 
L 213.445561 85.194145 
L 213.8317 86.072369 
L 214.217838 86.658933 
L 214.603977 85.451417 
L 214.990116 86.308139 
L 215.376255 86.557359 
L 215.762394 85.537947 
L 216.148533 86.110627 
L 216.534672 85.978276 
L 216.920811 85.999214 
L 217.30695 85.710958 
L 218.079228 85.569609 
L 218.465367 85.830083 
L 218.851506 85.90571 
L 219.237644 86.350764 
L 219.623783 85.512747 
L 220.009922 85.862874 
L 220.396061 85.61559 
L 220.7822 85.655015 
L 221.168339 85.92158 
L 221.554478 85.909373 
L 221.940617 86.378764 
L 222.326756 85.040068 
L 222.712895 85.542045 
L 223.099034 85.43681 
L 223.485173 85.503541 
L 223.871312 85.737915 
L 224.643589 85.854081 
L 225.029728 85.50936 
L 225.415867 85.544107 
L 225.802006 86.060217 
L 226.188145 85.632202 
L 226.574284 85.702951 
L 226.960423 86.146172 
L 227.346562 85.943165 
L 227.732701 85.468525 
L 228.11884 85.800644 
L 228.504979 86.297345 
L 228.891118 85.558169 
L 229.277256 86.389305 
L 229.663395 85.403053 
L 230.049534 86.331263 
L 230.435673 85.867558 
L 230.821812 86.067418 
L 231.207951 86.140473 
L 231.980229 85.968989 
L 232.366368 86.251578 
L 232.752507 86.226717 
L 233.138646 85.585383 
L 233.524785 86.14029 
L 233.910923 86.3235 
L 234.297062 85.105126 
L 234.683201 86.10826 
L 235.06934 85.963812 
L 235.455479 85.358072 
L 235.841618 85.663575 
L 236.227757 85.70165 
L 236.613896 86.144654 
L 237.000035 85.974576 
L 237.386174 85.995733 
L 237.772313 86.62903 
L 238.158452 85.565114 
L 238.544591 86.318789 
L 238.930729 85.181827 
L 239.316868 86.106572 
L 240.089146 85.532062 
L 240.475285 85.833587 
L 240.861424 85.846839 
L 241.247563 85.71975 
L 241.633702 85.808073 
L 242.019841 85.290263 
L 242.40598 85.926968 
L 242.792119 85.224845 
L 243.178258 85.715233 
L 243.564397 86.479826 
L 243.950535 86.408904 
L 244.336674 85.331653 
L 245.108952 86.554814 
L 245.495091 85.536664 
L 245.88123 85.264521 
L 246.653508 86.224975 
L 247.039647 85.914821 
L 247.425786 85.930476 
L 247.811925 86.142627 
L 248.198064 86.623107 
L 248.584202 85.501388 
L 248.970341 85.088933 
L 249.35648 85.978977 
L 250.128758 85.423346 
L 250.514897 86.493782 
L 250.901036 85.960821 
L 251.287175 86.178861 
L 252.059453 85.863173 
L 252.445592 86.118341 
L 252.831731 85.598702 
L 253.21787 85.995806 
L 253.604008 85.547124 
L 253.990147 86.087476 
L 254.376286 85.587784 
L 254.762425 85.993616 
L 255.148564 86.154838 
L 255.534703 85.922102 
L 255.920842 85.937334 
L 256.306981 86.147305 
L 257.079259 86.380096 
L 257.465398 85.401336 
L 257.851537 86.093307 
L 258.237676 86.005414 
L 258.623814 85.71553 
L 259.396092 86.179222 
L 259.782231 85.765309 
L 260.16837 85.940793 
L 260.554509 86.312941 
L 260.940648 85.985498 
L 261.326787 86.426428 
L 261.712926 85.908245 
L 261.712926 85.908245 
" clip-path="url(#p3ead902363)" style="fill: none; stroke: #1d3557; stroke-width: 1.5; stroke-linecap: square"/>
   </g>
   <g id="line2d_52">
    <path d="M 63.23752 65.91597 
L 63.623659 83.953856 
L 64.009798 91.799567 
L 64.395937 92.447489 
L 65.554354 106.435999 
L 65.940493 105.213748 
L 66.326632 100.927012 
L 66.712771 102.918286 
L 67.098909 97.723242 
L 67.485048 98.83883 
L 67.871187 104.485065 
L 68.257326 113.105428 
L 68.643465 110.740359 
L 69.029604 114.367432 
L 69.415743 110.999133 
L 69.801882 114.78576 
L 70.188021 110.155349 
L 70.57416 96.837216 
L 70.960299 110.570618 
L 71.346438 105.67407 
L 71.732577 106.22077 
L 72.118715 121.41282 
L 72.504854 110.750337 
L 72.890993 106.320235 
L 73.277132 119.604334 
L 73.663271 110.555638 
L 74.04941 98.490649 
L 74.435549 117.279636 
L 74.821688 114.281637 
L 75.207827 122.777084 
L 75.980105 109.22726 
L 76.366244 109.731594 
L 76.752383 112.864622 
L 77.138521 111.595203 
L 77.52466 116.823946 
L 77.910799 111.697541 
L 78.296938 118.920878 
L 78.683077 107.415011 
L 79.069216 116.410296 
L 79.455355 105.129908 
L 79.841494 124.5348 
L 80.227633 107.386513 
L 80.613772 97.593526 
L 81.38605 124.048271 
L 82.158327 100.578237 
L 82.544466 108.14503 
L 82.930605 112.569442 
L 83.316744 124.873973 
L 83.702883 115.504664 
L 84.089022 113.12031 
L 84.475161 108.833452 
L 84.8613 119.793783 
L 85.247439 114.069155 
L 85.633578 122.571381 
L 86.405856 95.740653 
L 86.791994 120.25243 
L 87.178133 105.265045 
L 87.564272 104.117059 
L 87.950411 124.615436 
L 88.33655 103.922086 
L 88.722689 119.597712 
L 89.108828 117.48377 
L 89.494967 100.810537 
L 89.881106 112.404761 
L 90.267245 113.060907 
L 90.653384 115.110215 
L 91.039523 112.981038 
L 91.425662 109.17274 
L 91.8118 128.597857 
L 92.584078 124.505803 
L 92.970217 126.302074 
L 93.356356 132.122684 
L 93.742495 120.629697 
L 94.128634 128.018936 
L 94.514773 128.746412 
L 94.900912 115.086676 
L 95.287051 133.320884 
L 95.67319 133.786755 
L 96.059329 115.143221 
L 96.445468 131.958085 
L 96.831606 126.199289 
L 97.217745 125.742007 
L 97.603884 129.293744 
L 97.990023 120.951732 
L 98.376162 122.594458 
L 98.762301 129.194338 
L 99.534579 120.676212 
L 99.920718 122.827488 
L 100.306857 135.590869 
L 100.692996 130.780217 
L 101.079135 140.851985 
L 101.465273 121.473946 
L 101.851412 124.727004 
L 102.237551 135.979121 
L 102.62369 123.843405 
L 103.009829 119.670867 
L 103.395968 137.002022 
L 104.168246 114.132887 
L 104.554385 130.848028 
L 104.940524 136.081745 
L 105.326663 126.579131 
L 105.712802 137.206738 
L 106.098941 129.707925 
L 106.485079 114.237377 
L 106.871218 130.867863 
L 107.257357 115.962599 
L 107.643496 126.548492 
L 108.029635 117.677325 
L 108.415774 128.935403 
L 108.801913 131.553177 
L 109.188052 128.123873 
L 109.574191 134.732078 
L 109.96033 138.918203 
L 110.346469 129.487173 
L 110.732608 138.03834 
L 111.118747 132.323843 
L 111.504885 135.413399 
L 111.891024 140.300895 
L 112.277163 141.277147 
L 112.663302 136.852045 
L 113.049441 141.230191 
L 113.43558 140.077787 
L 113.821719 134.642187 
L 114.207858 120.224785 
L 114.980136 135.968425 
L 115.752414 123.088966 
L 116.138552 134.214565 
L 116.524691 126.852722 
L 116.91083 138.58729 
L 117.296969 139.5402 
L 117.683108 144.106465 
L 118.069247 134.046148 
L 118.455386 141.899518 
L 118.841525 143.786136 
L 119.227664 130.182937 
L 119.613803 137.057 
L 120.386081 138.1537 
L 120.77222 140.760102 
L 121.158358 132.581719 
L 121.544497 136.452982 
L 121.930636 130.811761 
L 122.316775 146.786996 
L 122.702914 129.356688 
L 123.089053 136.349743 
L 123.475192 130.437083 
L 123.861331 143.07912 
L 124.24747 140.268119 
L 124.633609 141.211482 
L 125.019748 136.969236 
L 125.405887 122.879659 
L 126.178164 145.086447 
L 126.564303 139.998192 
L 127.336581 137.576709 
L 127.72272 128.238798 
L 128.108859 146.052339 
L 128.494998 135.897582 
L 128.881137 135.432437 
L 129.267276 137.856111 
L 129.653415 137.497148 
L 130.039554 129.150749 
L 130.425693 137.541557 
L 130.811832 141.842888 
L 131.19797 149.103767 
L 131.584109 142.864433 
L 131.970248 146.498896 
L 132.356387 144.000858 
L 132.742526 151.910764 
L 133.128665 144.131045 
L 133.514804 138.600674 
L 134.287082 149.541406 
L 134.673221 144.925138 
L 135.05936 134.973309 
L 135.445499 128.813683 
L 135.831637 149.404044 
L 136.217776 144.442842 
L 136.603915 142.980632 
L 136.990054 146.111437 
L 137.376193 143.25157 
L 137.762332 147.745404 
L 138.148471 139.950769 
L 138.53461 141.55364 
L 138.920749 146.528887 
L 139.306888 139.639376 
L 139.693027 143.428195 
L 140.079166 143.756044 
L 140.465305 145.092488 
L 140.851443 145.631877 
L 141.237582 150.501908 
L 141.623721 145.623182 
L 142.00986 151.953188 
L 142.395999 150.299268 
L 142.782138 151.064467 
L 143.168277 147.185255 
L 143.554416 150.097887 
L 143.940555 155.921925 
L 144.326694 149.273387 
L 144.712833 149.780879 
L 145.098972 147.862289 
L 145.485111 149.916188 
L 145.871249 150.920531 
L 146.257388 152.528967 
L 146.643527 148.123582 
L 147.029666 152.715775 
L 147.415805 150.510642 
L 148.188083 147.459974 
L 148.574222 146.791062 
L 148.960361 145.57114 
L 149.3465 152.317871 
L 149.732639 149.407215 
L 150.118778 149.223736 
L 150.504916 141.354003 
L 150.891055 144.416887 
L 151.277194 141.379845 
L 151.663333 153.330226 
L 152.049472 153.240357 
L 152.435611 153.003443 
L 152.82175 150.905536 
L 153.207889 152.615153 
L 153.594028 153.287444 
L 154.366306 158.129788 
L 154.752445 154.710018 
L 155.138584 153.720894 
L 155.524722 148.669749 
L 155.910861 151.149094 
L 156.297 151.75772 
L 156.683139 143.944667 
L 157.069278 151.802842 
L 157.455417 155.794969 
L 157.841556 151.975121 
L 158.227695 156.257342 
L 158.613834 152.457602 
L 159.386112 157.06657 
L 159.772251 148.572733 
L 160.15839 155.877825 
L 160.544528 152.10254 
L 160.930667 155.389915 
L 161.316806 155.515992 
L 161.702945 152.243021 
L 162.089084 155.981393 
L 162.475223 154.409332 
L 162.861362 157.949329 
L 163.63364 155.768298 
L 164.019779 155.36785 
L 164.405918 156.613946 
L 164.792057 155.175561 
L 165.178195 155.321176 
L 165.564334 157.087469 
L 165.950473 145.252255 
L 166.336612 152.081222 
L 166.722751 156.00631 
L 167.10889 156.595477 
L 167.495029 153.542934 
L 167.881168 156.579314 
L 168.267307 156.278628 
L 168.653446 157.589141 
L 169.039585 156.467767 
L 169.425724 154.30548 
L 169.811863 153.314805 
L 170.198001 156.311079 
L 170.58414 157.147508 
L 170.970279 153.701055 
L 171.356418 157.504004 
L 171.742557 156.631577 
L 172.128696 157.396408 
L 172.514835 155.593803 
L 172.900974 158.699889 
L 173.287113 159.264637 
L 173.673252 153.552661 
L 174.059391 157.960588 
L 174.44553 157.334389 
L 174.831669 157.730562 
L 175.217807 157.599214 
L 175.603946 156.794199 
L 175.990085 156.565693 
L 176.376224 158.830218 
L 176.762363 153.934112 
L 177.148502 154.444955 
L 177.534641 154.474809 
L 177.92078 155.208992 
L 178.306919 156.285699 
L 178.693058 155.631162 
L 179.079197 157.80296 
L 179.465336 156.690383 
L 179.851475 156.817135 
L 180.237613 155.608907 
L 180.623752 156.590491 
L 181.009891 158.807065 
L 181.39603 157.810912 
L 181.782169 157.862484 
L 182.168308 158.032583 
L 182.554447 157.511502 
L 182.940586 156.493204 
L 183.326725 158.247436 
L 184.099003 157.342908 
L 184.485142 160.270909 
L 184.87128 156.182662 
L 185.257419 158.177327 
L 185.643558 158.047766 
L 186.029697 159.48798 
L 186.415836 160.235294 
L 186.801975 156.556337 
L 187.188114 156.638654 
L 187.574253 155.867771 
L 187.960392 158.950847 
L 188.346531 157.974886 
L 188.73267 159.573419 
L 189.118809 158.598889 
L 189.504948 157.31349 
L 189.891086 158.449399 
L 190.277225 156.874819 
L 190.663364 156.325335 
L 191.049503 156.956915 
L 191.435642 159.138008 
L 191.821781 157.051554 
L 192.594059 157.83334 
L 192.980198 158.018411 
L 193.366337 158.893333 
L 194.524754 156.887397 
L 194.910892 157.519426 
L 195.297031 157.750051 
L 195.68317 158.69833 
L 196.069309 158.990929 
L 196.455448 158.257572 
L 196.841587 156.712467 
L 197.227726 158.954839 
L 197.613865 158.179985 
L 198.000004 158.020778 
L 198.386143 158.408607 
L 198.772282 158.356302 
L 199.158421 159.533707 
L 199.544559 158.759093 
L 199.930698 158.284705 
L 200.316837 159.311488 
L 200.702976 158.436974 
L 201.475254 158.688827 
L 201.861393 158.039161 
L 202.247532 157.953603 
L 202.633671 156.970038 
L 203.01981 156.782471 
L 203.405949 157.642353 
L 203.792088 157.875125 
L 204.178227 158.435986 
L 204.950504 157.830598 
L 205.336643 158.572113 
L 205.722782 158.983745 
L 206.108921 158.12873 
L 206.49506 158.382688 
L 206.881199 157.51906 
L 207.267338 157.253394 
L 207.653477 157.470524 
L 208.039616 158.582483 
L 208.425755 158.696465 
L 208.811894 159.767482 
L 209.584171 159.4339 
L 209.97031 158.767905 
L 210.356449 158.512003 
L 210.742588 158.55332 
L 211.128727 158.396442 
L 211.901005 158.35246 
L 212.287144 158.646097 
L 212.673283 157.830476 
L 213.059422 157.688339 
L 213.445561 158.175736 
L 213.8317 158.377322 
L 214.217838 157.896571 
L 214.603977 158.31322 
L 214.990116 157.890479 
L 215.762394 158.336236 
L 216.148533 158.374035 
L 216.534672 157.988209 
L 217.30695 158.687555 
L 218.079228 158.617585 
L 219.237644 158.235243 
L 220.009922 158.524669 
L 220.396061 158.43937 
L 221.168339 158.531583 
L 221.554478 158.435548 
L 221.940617 158.517595 
L 222.712895 158.952071 
L 223.485173 158.922508 
L 223.871312 158.994847 
L 224.643589 158.512182 
L 225.029728 158.628833 
L 227.732701 158.511258 
L 230.049534 158.800545 
L 233.524785 158.481001 
L 233.910923 158.408283 
L 234.683201 158.432829 
L 235.841618 158.342771 
L 236.613896 158.466967 
L 240.089146 158.362476 
L 241.247563 158.403222 
L 242.40598 158.408846 
L 247.811925 158.427383 
L 255.534703 158.501198 
L 260.554509 158.48807 
L 261.712926 158.485806 
L 261.712926 158.485806 
" clip-path="url(#p3ead902363)" style="fill: none; stroke: #e63946; stroke-width: 1.5; stroke-linecap: square"/>
   </g>
   <g id="patch_3">
    <path d="M 53.31375 167.56 
L 53.31375 7.2 
" style="fill: none; stroke: #ffffff; stroke-linejoin: miter; stroke-linecap: square"/>
   </g>
   <g id="patch_4">
    <path d="M 271.636696 167.56 
L 271.636696 7.2 
" style="fill: none; stroke: #ffffff; stroke-linejoin: miter; stroke-linecap: square"/>
   </g>
   <g id="patch_5">
    <path d="M 53.31375 167.56 
L 271.636696 167.56 
" style="fill: none; stroke: #ffffff; stroke-linejoin: miter; stroke-linecap: square"/>
   </g>
   <g id="patch_6">
    <path d="M 53.31375 7.2 
L 271.636696 7.2 
" style="fill: none; stroke: #ffffff; stroke-linejoin: miter; stroke-linecap: square"/>
   </g>
   <g id="legend_1">
    <g id="patch_7">
     <path d="M 160.761696 44.55625 
L 264.636696 44.55625 
Q 266.636696 44.55625 266.636696 42.55625 
L 266.636696 14.2 
Q 266.636696 12.2 264.636696 12.2 
L 160.761696 12.2 
Q 158.761696 12.2 158.761696 14.2 
L 158.761696 42.55625 
Q 158.761696 44.55625 160.761696 44.55625 
z
" style="fill: #e5e5e5; opacity: 0.8; stroke: #cccccc; stroke-width: 0.5; stroke-linejoin: miter"/>
    </g>
    <g id="line2d_53">
     <path d="M 162.761696 20.298437 
L 172.761696 20.298437 
L 182.761696 20.298437 
" style="fill: none; stroke: #1d3557; stroke-width: 1.5; stroke-linecap: square"/>
    </g>
    <g id="text_13">
     <!-- Training loss -->
     <g transform="translate(190.761696 23.798437) scale(0.1 -0.1)">
      <defs>
       <path id="DejaVuSans-54" d="M -19 4666 
L 3928 4666 
L 3928 4134 
L 2272 4134 
L 2272 0 
L 1638 0 
L 1638 4134 
L -19 4134 
L -19 4666 
z
" transform="scale(0.015625)"/>
       <path id="DejaVuSans-72" d="M 2631 2963 
Q 2534 3019 2420 3045 
Q 2306 3072 2169 3072 
Q 1681 3072 1420 2755 
Q 1159 2438 1159 1844 
L 1159 0 
L 581 0 
L 581 3500 
L 1159 3500 
L 1159 2956 
Q 1341 3275 1631 3429 
Q 1922 3584 2338 3584 
Q 2397 3584 2469 3576 
Q 2541 3569 2628 3553 
L 2631 2963 
z
" transform="scale(0.015625)"/>
       <path id="DejaVuSans-61" d="M 2194 1759 
Q 1497 1759 1228 1600 
Q 959 1441 959 1056 
Q 959 750 1161 570 
Q 1363 391 1709 391 
Q 2188 391 2477 730 
Q 2766 1069 2766 1631 
L 2766 1759 
L 2194 1759 
z
M 3341 1997 
L 3341 0 
L 2766 0 
L 2766 531 
Q 2569 213 2275 61 
Q 1981 -91 1556 -91 
Q 1019 -91 701 211 
Q 384 513 384 1019 
Q 384 1609 779 1909 
Q 1175 2209 1959 2209 
L 2766 2209 
L 2766 2266 
Q 2766 2663 2505 2880 
Q 2244 3097 1772 3097 
Q 1472 3097 1187 3025 
Q 903 2953 641 2809 
L 641 3341 
Q 956 3463 1253 3523 
Q 1550 3584 1831 3584 
Q 2591 3584 2966 3190 
Q 3341 2797 3341 1997 
z
" transform="scale(0.015625)"/>
       <path id="DejaVuSans-69" d="M 603 3500 
L 1178 3500 
L 1178 0 
L 603 0 
L 603 3500 
z
M 603 4863 
L 1178 4863 
L 1178 4134 
L 603 4134 
L 603 4863 
z
" transform="scale(0.015625)"/>
       <path id="DejaVuSans-6e" d="M 3513 2113 
L 3513 0 
L 2938 0 
L 2938 2094 
Q 2938 2591 2744 2837 
Q 2550 3084 2163 3084 
Q 1697 3084 1428 2787 
Q 1159 2491 1159 1978 
L 1159 0 
L 581 0 
L 581 3500 
L 1159 3500 
L 1159 2956 
Q 1366 3272 1645 3428 
Q 1925 3584 2291 3584 
Q 2894 3584 3203 3211 
Q 3513 2838 3513 2113 
z
" transform="scale(0.015625)"/>
       <path id="DejaVuSans-67" d="M 2906 1791 
Q 2906 2416 2648 2759 
Q 2391 3103 1925 3103 
Q 1463 3103 1205 2759 
Q 947 2416 947 1791 
Q 947 1169 1205 825 
Q 1463 481 1925 481 
Q 2391 481 2648 825 
Q 2906 1169 2906 1791 
z
M 3481 434 
Q 3481 -459 3084 -895 
Q 2688 -1331 1869 -1331 
Q 1566 -1331 1297 -1286 
Q 1028 -1241 775 -1147 
L 775 -588 
Q 1028 -725 1275 -790 
Q 1522 -856 1778 -856 
Q 2344 -856 2625 -561 
Q 2906 -266 2906 331 
L 2906 616 
Q 2728 306 2450 153 
Q 2172 0 1784 0 
Q 1141 0 747 490 
Q 353 981 353 1791 
Q 353 2603 747 3093 
Q 1141 3584 1784 3584 
Q 2172 3584 2450 3431 
Q 2728 3278 2906 2969 
L 2906 3500 
L 3481 3500 
L 3481 434 
z
" transform="scale(0.015625)"/>
       <path id="DejaVuSans-20" transform="scale(0.015625)"/>
       <path id="DejaVuSans-6c" d="M 603 4863 
L 1178 4863 
L 1178 0 
L 603 0 
L 603 4863 
z
" transform="scale(0.015625)"/>
      </defs>
      <use xlink:href="#DejaVuSans-54"/>
      <use xlink:href="#DejaVuSans-72" transform="translate(46.333984 0)"/>
      <use xlink:href="#DejaVuSans-61" transform="translate(87.447266 0)"/>
      <use xlink:href="#DejaVuSans-69" transform="translate(148.726562 0)"/>
      <use xlink:href="#DejaVuSans-6e" transform="translate(176.509766 0)"/>
      <use xlink:href="#DejaVuSans-69" transform="translate(239.888672 0)"/>
      <use xlink:href="#DejaVuSans-6e" transform="translate(267.671875 0)"/>
      <use xlink:href="#DejaVuSans-67" transform="translate(331.050781 0)"/>
      <use xlink:href="#DejaVuSans-20" transform="translate(394.527344 0)"/>
      <use xlink:href="#DejaVuSans-6c" transform="translate(426.314453 0)"/>
      <use xlink:href="#DejaVuSans-6f" transform="translate(454.097656 0)"/>
      <use xlink:href="#DejaVuSans-73" transform="translate(515.279297 0)"/>
      <use xlink:href="#DejaVuSans-73" transform="translate(567.378906 0)"/>
     </g>
    </g>
    <g id="line2d_54">
     <path d="M 162.761696 34.976562 
L 172.761696 34.976562 
L 182.761696 34.976562 
" style="fill: none; stroke: #e63946; stroke-width: 1.5; stroke-linecap: square"/>
    </g>
    <g id="text_14">
     <!-- Validation loss -->
     <g transform="translate(190.761696 38.476562) scale(0.1 -0.1)">
      <defs>
       <path id="DejaVuSans-56" d="M 1831 0 
L 50 4666 
L 709 4666 
L 2188 738 
L 3669 4666 
L 4325 4666 
L 2547 0 
L 1831 0 
z
" transform="scale(0.015625)"/>
       <path id="DejaVuSans-64" d="M 2906 2969 
L 2906 4863 
L 3481 4863 
L 3481 0 
L 2906 0 
L 2906 525 
Q 2725 213 2448 61 
Q 2172 -91 1784 -91 
Q 1150 -91 751 415 
Q 353 922 353 1747 
Q 353 2572 751 3078 
Q 1150 3584 1784 3584 
Q 2172 3584 2448 3432 
Q 2725 3281 2906 2969 
z
M 947 1747 
Q 947 1113 1208 752 
Q 1469 391 1925 391 
Q 2381 391 2643 752 
Q 2906 1113 2906 1747 
Q 2906 2381 2643 2742 
Q 2381 3103 1925 3103 
Q 1469 3103 1208 2742 
Q 947 2381 947 1747 
z
" transform="scale(0.015625)"/>
       <path id="DejaVuSans-74" d="M 1172 4494 
L 1172 3500 
L 2356 3500 
L 2356 3053 
L 1172 3053 
L 1172 1153 
Q 1172 725 1289 603 
Q 1406 481 1766 481 
L 2356 481 
L 2356 0 
L 1766 0 
Q 1100 0 847 248 
Q 594 497 594 1153 
L 594 3053 
L 172 3053 
L 172 3500 
L 594 3500 
L 594 4494 
L 1172 4494 
z
" transform="scale(0.015625)"/>
      </defs>
      <use xlink:href="#DejaVuSans-56"/>
      <use xlink:href="#DejaVuSans-61" transform="translate(60.658203 0)"/>
      <use xlink:href="#DejaVuSans-6c" transform="translate(121.9375 0)"/>
      <use xlink:href="#DejaVuSans-69" transform="translate(149.720703 0)"/>
      <use xlink:href="#DejaVuSans-64" transform="translate(177.503906 0)"/>
      <use xlink:href="#DejaVuSans-61" transform="translate(240.980469 0)"/>
      <use xlink:href="#DejaVuSans-74" transform="translate(302.259766 0)"/>
      <use xlink:href="#DejaVuSans-69" transform="translate(341.46875 0)"/>
      <use xlink:href="#DejaVuSans-6f" transform="translate(369.251953 0)"/>
      <use xlink:href="#DejaVuSans-6e" transform="translate(430.433594 0)"/>
      <use xlink:href="#DejaVuSans-20" transform="translate(493.8125 0)"/>
      <use xlink:href="#DejaVuSans-6c" transform="translate(525.599609 0)"/>
      <use xlink:href="#DejaVuSans-6f" transform="translate(553.382812 0)"/>
      <use xlink:href="#DejaVuSans-73" transform="translate(614.564453 0)"/>
      <use xlink:href="#DejaVuSans-73" transform="translate(666.664062 0)"/>
     </g>
    </g>
   </g>
  </g>
 </g>
 <defs>
  <clipPath id="p3ead902363">
   <rect x="53.31375" y="7.2" width="218.322946" height="160.36"/>
  </clipPath>
 </defs>
</svg>
