<?xml version="1.0" encoding="utf-8" standalone="no"?>
<!DOCTYPE svg PUBLIC "-//W3C//DTD SVG 1.1//EN"
  "http://www.w3.org/Graphics/SVG/1.1/DTD/svg11.dtd">
<svg xmlns:xlink="http://www.w3.org/1999/xlink" width="279.781071pt" height="207.99625pt" viewBox="0 0 279.781071 207.99625" xmlns="http://www.w3.org/2000/svg" version="1.1">
 <metadata>
  <rdf:RDF xmlns:dc="http://purl.org/dc/elements/1.1/" xmlns:cc="http://creativecommons.org/ns#" xmlns:rdf="http://www.w3.org/1999/02/22-rdf-syntax-ns#">
   <cc:Work>
    <dc:type rdf:resource="http://purl.org/dc/dcmitype/StillImage"/>
    <dc:date>2026-04-02T00:34:56.113981</dc:date>
    <dc:format>image/svg+xml</dc:format>
    <dc:creator>
     <cc:Agent>
      <dc:title>Matplotlib v3.10.3, https://matplotlib.org/</dc:title>
     </cc:Agent>
    </dc:creator>
   </cc:Work>
  </rdf:RDF>
 </metadata>
 <defs>
  <style type="text/css">*{stroke-linejoin: round; stroke-linecap: butt}</style>
 </defs>
 <g id="figure_1">
  <g id="patch_1">
   <path d="M 0 207.99625 
L 279.781071 207.99625 
L 279.781071 0 
L 0 0 
z
" style="fill: #ffffff"/>
  </g>
  <g id="axes_1">
   <g id="patch_2">
    <path d="M 51.378125 170.44 
L 272.581071 170.44 
L 272.581071 7.2 
L 51.378125 7.2 
z
" style="fill: #ffffff"/>
   </g>
   <g id="matplotlib.axis_1">
    <g id="xtick_1">
     <g id="line2d_1">
      <defs>
       <path id="m2803bd6c4c" d="M 0 0 
L 0 3.5 
" style="stroke: #000000; stroke-width: 0.8"/>
      </defs>
      <g>
       <use xlink:href="#m2803bd6c4c" x="61.432804" y="170.44" style="stroke: #000000; stroke-width: 0.8"/>
      </g>
     </g>
     <g id="text_1">
      <!-- 0 -->
      <g transform="translate(58.251554 185.038437) scale(0.1 -0.1)">
       <defs>
        <path id="DejaVuSans-30" d="M 2034 4250 
Q 1547 4250 1301 3770 
Q 1056 3291 1056 2328 
Q 1056 1369 1301 889 
Q 1547 409 2034 409 
Q 2525 409 2770 889 
Q 3016 1369 3016 2328 
Q 3016 3291 2770 3770 
Q 2525 4250 2034 4250 
z
M 2034 4750 
Q 2819 4750 3233 4129 
Q 3647 3509 3647 2328 
Q 3647 1150 3233 529 
Q 2819 -91 2034 -91 
Q 1250 -91 836 529 
Q 422 1150 422 2328 
Q 422 3509 836 4129 
Q 1250 4750 2034 4750 
z
" transform="scale(0.015625)"/>
       </defs>
       <use xlink:href="#DejaVuSans-30"/>
      </g>
     </g>
    </g>
    <g id="xtick_2">
     <g id="line2d_2">
      <g>
       <use xlink:href="#m2803bd6c4c" x="119.468472" y="170.44" style="stroke: #000000; stroke-width: 0.8"/>
      </g>
     </g>
     <g id="text_2">
      <!-- 200 -->
      <g transform="translate(109.924722 185.038437) scale(0.1 -0.1)">
       <defs>
        <path id="DejaVuSans-32" d="M 1228 531 
L 3431 531 
L 3431 0 
L 469 0 
L 469 531 
Q 828 903 1448 1529 
Q 2069 2156 2228 2338 
Q 2531 2678 2651 2914 
Q 2772 3150 2772 3378 
Q 2772 3750 2511 3984 
Q 2250 4219 1831 4219 
Q 1534 4219 1204 4116 
Q 875 4013 500 3803 
L 500 4441 
Q 881 4594 1212 4672 
Q 1544 4750 1819 4750 
Q 2544 4750 2975 4387 
Q 3406 4025 3406 3419 
Q 3406 3131 3298 2873 
Q 3191 2616 2906 2266 
Q 2828 2175 2409 1742 
Q 1991 1309 1228 531 
z
" transform="scale(0.015625)"/>
       </defs>
       <use xlink:href="#DejaVuSans-32"/>
       <use xlink:href="#DejaVuSans-30" transform="translate(63.623047 0)"/>
       <use xlink:href="#DejaVuSans-30" transform="translate(127.246094 0)"/>
      </g>
     </g>
    </g>
    <g id="xtick_3">
     <g id="line2d_3">
      <g>
       <use xlink:href="#m2803bd6c4c" x="177.504139" y="170.44" style="stroke: #000000; stroke-width: 0.8"/>
      </g>
     </g>
     <g id="text_3">
      <!-- 400 -->
      <g transform="translate(167.960389 185.038437) scale(0.1 -0.1)">
       <defs>
        <path id="DejaVuSans-34" d="M 2419 4116 
L 825 1625 
L 2419 1625 
L 2419 4116 
z
M 2253 4666 
L 3047 4666 
L 3047 1625 
L 3713 1625 
L 3713 1100 
L 3047 1100 
L 3047 0 
L 2419 0 
L 2419 1100 
L 313 1100 
L 313 1709 
L 2253 4666 
z
" transform="scale(0.015625)"/>
       </defs>
       <use xlink:href="#DejaVuSans-34"/>
       <use xlink:href="#DejaVuSans-30" transform="translate(63.623047 0)"/>
       <use xlink:href="#DejaVuSans-30" transform="translate(127.246094 0)"/>
      </g>
     </g>
    </g>
    <g id="xtick_4">
     <g id="line2d_4">
      <g>
       <use xlink:href="#m2803bd6c4c" x="235.539806" y="170.44" style="stroke: #000000; stroke-width: 0.8"/>
      </g>
     </g>
     <g id="text_4">
      <!-- 600 -->
      <g transform="translate(225.996056 185.038437) scale(0.1 -0.1)">
       <defs>
        <path id="DejaVuSans-36" d="M 2113 2584 
Q 1688 2584 1439 2293 
Q 1191 2003 1191 1497 
Q 1191 994 1439 701 
Q 1688 409 2113 409 
Q 2538 409 2786 701 
Q 3034 994 3034 1497 
Q 3034 2003 2786 2293 
Q 2538 2584 2113 2584 
z
M 3366 4563 
L 3366 3988 
Q 3128 4100 2886 4159 
Q 2644 4219 2406 4219 
Q 1781 4219 1451 3797 
Q 1122 3375 1075 2522 
Q 1259 2794 1537 2939 
Q 1816 3084 2150 3084 
Q 2853 3084 3261 2657 
Q 3669 2231 3669 1497 
Q 3669 778 3244 343 
Q 2819 -91 2113 -91 
Q 1303 -91 875 529 
Q 447 1150 447 2328 
Q 447 3434 972 4092 
Q 1497 4750 2381 4750 
Q 2619 4750 2861 4703 
Q 3103 4656 3366 4563 
z
" transform="scale(0.015625)"/>
       </defs>
       <use xlink:href="#DejaVuSans-36"/>
       <use xlink:href="#DejaVuSans-30" transform="translate(63.623047 0)"/>
       <use xlink:href="#DejaVuSans-30" transform="translate(127.246094 0)"/>
      </g>
     </g>
    </g>
    <g id="text_5">
     <!-- Epoch -->
     <g transform="translate(146.668661 198.716563) scale(0.1 -0.1)">
      <defs>
       <path id="DejaVuSans-45" d="M 628 4666 
L 3578 4666 
L 3578 4134 
L 1259 4134 
L 1259 2753 
L 3481 2753 
L 3481 2222 
L 1259 2222 
L 1259 531 
L 3634 531 
L 3634 0 
L 628 0 
L 628 4666 
z
" transform="scale(0.015625)"/>
       <path id="DejaVuSans-70" d="M 1159 525 
L 1159 -1331 
L 581 -1331 
L 581 3500 
L 1159 3500 
L 1159 2969 
Q 1341 3281 1617 3432 
Q 1894 3584 2278 3584 
Q 2916 3584 3314 3078 
Q 3713 2572 3713 1747 
Q 3713 922 3314 415 
Q 2916 -91 2278 -91 
Q 1894 -91 1617 61 
Q 1341 213 1159 525 
z
M 3116 1747 
Q 3116 2381 2855 2742 
Q 2594 3103 2138 3103 
Q 1681 3103 1420 2742 
Q 1159 2381 1159 1747 
Q 1159 1113 1420 752 
Q 1681 391 2138 391 
Q 2594 391 2855 752 
Q 3116 1113 3116 1747 
z
" transform="scale(0.015625)"/>
       <path id="DejaVuSans-6f" d="M 1959 3097 
Q 1497 3097 1228 2736 
Q 959 2375 959 1747 
Q 959 1119 1226 758 
Q 1494 397 1959 397 
Q 2419 397 2687 759 
Q 2956 1122 2956 1747 
Q 2956 2369 2687 2733 
Q 2419 3097 1959 3097 
z
M 1959 3584 
Q 2709 3584 3137 3096 
Q 3566 2609 3566 1747 
Q 3566 888 3137 398 
Q 2709 -91 1959 -91 
Q 1206 -91 779 398 
Q 353 888 353 1747 
Q 353 2609 779 3096 
Q 1206 3584 1959 3584 
z
" transform="scale(0.015625)"/>
       <path id="DejaVuSans-63" d="M 3122 3366 
L 3122 2828 
Q 2878 2963 2633 3030 
Q 2388 3097 2138 3097 
Q 1578 3097 1268 2742 
Q 959 2388 959 1747 
Q 959 1106 1268 751 
Q 1578 397 2138 397 
Q 2388 397 2633 464 
Q 2878 531 3122 666 
L 3122 134 
Q 2881 22 2623 -34 
Q 2366 -91 2075 -91 
Q 1284 -91 818 406 
Q 353 903 353 1747 
Q 353 2603 823 3093 
Q 1294 3584 2113 3584 
Q 2378 3584 2631 3529 
Q 2884 3475 3122 3366 
z
" transform="scale(0.015625)"/>
       <path id="DejaVuSans-68" d="M 3513 2113 
L 3513 0 
L 2938 0 
L 2938 2094 
Q 2938 2591 2744 2837 
Q 2550 3084 2163 3084 
Q 1697 3084 1428 2787 
Q 1159 2491 1159 1978 
L 1159 0 
L 581 0 
L 581 4863 
L 1159 4863 
L 1159 2956 
Q 1366 3272 1645 3428 
Q 1925 3584 2291 3584 
Q 2894 3584 3203 3211 
Q 3513 2838 3513 2113 
z
" transform="scale(0.015625)"/>
      </defs>
      <use xlink:href="#DejaVuSans-45"/>
      <use xlink:href="#DejaVuSans-70" transform="translate(63.183594 0)"/>
      <use xlink:href="#DejaVuSans-6f" transform="translate(126.660156 0)"/>
      <use xlink:href="#DejaVuSans-63" transform="translate(187.841797 0)"/>
      <use xlink:href="#DejaVuSans-68" transform="translate(242.822266 0)"/>
     </g>
    </g>
   </g>
   <g id="matplotlib.axis_2">
    <g id="ytick_1">
     <g id="line2d_5">
      <defs>
       <path id="m911dbee015" d="M 0 0 
L -3.5 0 
" style="stroke: #000000; stroke-width: 0.8"/>
      </defs>
      <g>
       <use xlink:href="#m911dbee015" x="51.378125" y="168.054321" style="stroke: #000000; stroke-width: 0.8"/>
      </g>
     </g>
     <g id="text_6">
      <!-- $\mathdefault{10^{-4}}$ -->
      <g transform="translate(20.878125 171.853539) scale(0.1 -0.1)">
       <defs>
        <path id="DejaVuSans-31" d="M 794 531 
L 1825 531 
L 1825 4091 
L 703 3866 
L 703 4441 
L 1819 4666 
L 2450 4666 
L 2450 531 
L 3481 531 
L 3481 0 
L 794 0 
L 794 531 
z
" transform="scale(0.015625)"/>
        <path id="DejaVuSans-2212" d="M 678 2272 
L 4684 2272 
L 4684 1741 
L 678 1741 
L 678 2272 
z
" transform="scale(0.015625)"/>
       </defs>
       <use xlink:href="#DejaVuSans-31" transform="translate(0 0.684375)"/>
       <use xlink:href="#DejaVuSans-30" transform="translate(63.623047 0.684375)"/>
       <use xlink:href="#DejaVuSans-2212" transform="translate(128.203125 38.965625) scale(0.7)"/>
       <use xlink:href="#DejaVuSans-34" transform="translate(186.855469 38.965625) scale(0.7)"/>
      </g>
     </g>
    </g>
    <g id="ytick_2">
     <g id="line2d_6">
      <g>
       <use xlink:href="#m911dbee015" x="51.378125" y="126.184003" style="stroke: #000000; stroke-width: 0.8"/>
      </g>
     </g>
     <g id="text_7">
      <!-- $\mathdefault{10^{-3}}$ -->
      <g transform="translate(20.878125 129.983221) scale(0.1 -0.1)">
       <defs>
        <path id="DejaVuSans-33" d="M 2597 2516 
Q 3050 2419 3304 2112 
Q 3559 1806 3559 1356 
Q 3559 666 3084 287 
Q 2609 -91 1734 -91 
Q 1441 -91 1130 -33 
Q 819 25 488 141 
L 488 750 
Q 750 597 1062 519 
Q 1375 441 1716 441 
Q 2309 441 2620 675 
Q 2931 909 2931 1356 
Q 2931 1769 2642 2001 
Q 2353 2234 1838 2234 
L 1294 2234 
L 1294 2753 
L 1863 2753 
Q 2328 2753 2575 2939 
Q 2822 3125 2822 3475 
Q 2822 3834 2567 4026 
Q 2313 4219 1838 4219 
Q 1578 4219 1281 4162 
Q 984 4106 628 3988 
L 628 4550 
Q 988 4650 1302 4700 
Q 1616 4750 1894 4750 
Q 2613 4750 3031 4423 
Q 3450 4097 3450 3541 
Q 3450 3153 3228 2886 
Q 3006 2619 2597 2516 
z
" transform="scale(0.015625)"/>
       </defs>
       <use xlink:href="#DejaVuSans-31" transform="translate(0 0.765625)"/>
       <use xlink:href="#DejaVuSans-30" transform="translate(63.623047 0.765625)"/>
       <use xlink:href="#DejaVuSans-2212" transform="translate(128.203125 39.046875) scale(0.7)"/>
       <use xlink:href="#DejaVuSans-33" transform="translate(186.855469 39.046875) scale(0.7)"/>
      </g>
     </g>
    </g>
    <g id="ytick_3">
     <g id="line2d_7">
      <g>
       <use xlink:href="#m911dbee015" x="51.378125" y="84.313685" style="stroke: #000000; stroke-width: 0.8"/>
      </g>
     </g>
     <g id="text_8">
      <!-- $\mathdefault{10^{-2}}$ -->
      <g transform="translate(20.878125 88.112903) scale(0.1 -0.1)">
       <use xlink:href="#DejaVuSans-31" transform="translate(0 0.765625)"/>
       <use xlink:href="#DejaVuSans-30" transform="translate(63.623047 0.765625)"/>
       <use xlink:href="#DejaVuSans-2212" transform="translate(128.203125 39.046875) scale(0.7)"/>
       <use xlink:href="#DejaVuSans-32" transform="translate(186.855469 39.046875) scale(0.7)"/>
      </g>
     </g>
    </g>
    <g id="ytick_4">
     <g id="line2d_8">
      <g>
       <use xlink:href="#m911dbee015" x="51.378125" y="42.443367" style="stroke: #000000; stroke-width: 0.8"/>
      </g>
     </g>
     <g id="text_9">
      <!-- $\mathdefault{10^{-1}}$ -->
      <g transform="translate(20.878125 46.242585) scale(0.1 -0.1)">
       <use xlink:href="#DejaVuSans-31" transform="translate(0 0.684375)"/>
       <use xlink:href="#DejaVuSans-30" transform="translate(63.623047 0.684375)"/>
       <use xlink:href="#DejaVuSans-2212" transform="translate(128.203125 38.965625) scale(0.7)"/>
       <use xlink:href="#DejaVuSans-31" transform="translate(186.855469 38.965625) scale(0.7)"/>
      </g>
     </g>
    </g>
    <g id="ytick_5">
     <g id="line2d_9">
      <defs>
       <path id="m7c0522fc95" d="M 0 0 
L -2 0 
" style="stroke: #000000; stroke-width: 0.6"/>
      </defs>
      <g>
       <use xlink:href="#m7c0522fc95" x="51.378125" y="169.970201" style="stroke: #000000; stroke-width: 0.6"/>
      </g>
     </g>
    </g>
    <g id="ytick_6">
     <g id="line2d_10">
      <g>
       <use xlink:href="#m7c0522fc95" x="51.378125" y="155.450099" style="stroke: #000000; stroke-width: 0.6"/>
      </g>
     </g>
    </g>
    <g id="ytick_7">
     <g id="line2d_11">
      <g>
       <use xlink:href="#m7c0522fc95" x="51.378125" y="148.077102" style="stroke: #000000; stroke-width: 0.6"/>
      </g>
     </g>
    </g>
    <g id="ytick_8">
     <g id="line2d_12">
      <g>
       <use xlink:href="#m7c0522fc95" x="51.378125" y="142.845877" style="stroke: #000000; stroke-width: 0.6"/>
      </g>
     </g>
    </g>
    <g id="ytick_9">
     <g id="line2d_13">
      <g>
       <use xlink:href="#m7c0522fc95" x="51.378125" y="138.788224" style="stroke: #000000; stroke-width: 0.6"/>
      </g>
     </g>
    </g>
    <g id="ytick_10">
     <g id="line2d_14">
      <g>
       <use xlink:href="#m7c0522fc95" x="51.378125" y="135.47288" style="stroke: #000000; stroke-width: 0.6"/>
      </g>
     </g>
    </g>
    <g id="ytick_11">
     <g id="line2d_15">
      <g>
       <use xlink:href="#m7c0522fc95" x="51.378125" y="132.669797" style="stroke: #000000; stroke-width: 0.6"/>
      </g>
     </g>
    </g>
    <g id="ytick_12">
     <g id="line2d_16">
      <g>
       <use xlink:href="#m7c0522fc95" x="51.378125" y="130.241656" style="stroke: #000000; stroke-width: 0.6"/>
      </g>
     </g>
    </g>
    <g id="ytick_13">
     <g id="line2d_17">
      <g>
       <use xlink:href="#m7c0522fc95" x="51.378125" y="128.099883" style="stroke: #000000; stroke-width: 0.6"/>
      </g>
     </g>
    </g>
    <g id="ytick_14">
     <g id="line2d_18">
      <g>
       <use xlink:href="#m7c0522fc95" x="51.378125" y="113.579781" style="stroke: #000000; stroke-width: 0.6"/>
      </g>
     </g>
    </g>
    <g id="ytick_15">
     <g id="line2d_19">
      <g>
       <use xlink:href="#m7c0522fc95" x="51.378125" y="106.206784" style="stroke: #000000; stroke-width: 0.6"/>
      </g>
     </g>
    </g>
    <g id="ytick_16">
     <g id="line2d_20">
      <g>
       <use xlink:href="#m7c0522fc95" x="51.378125" y="100.975559" style="stroke: #000000; stroke-width: 0.6"/>
      </g>
     </g>
    </g>
    <g id="ytick_17">
     <g id="line2d_21">
      <g>
       <use xlink:href="#m7c0522fc95" x="51.378125" y="96.917906" style="stroke: #000000; stroke-width: 0.6"/>
      </g>
     </g>
    </g>
    <g id="ytick_18">
     <g id="line2d_22">
      <g>
       <use xlink:href="#m7c0522fc95" x="51.378125" y="93.602562" style="stroke: #000000; stroke-width: 0.6"/>
      </g>
     </g>
    </g>
    <g id="ytick_19">
     <g id="line2d_23">
      <g>
       <use xlink:href="#m7c0522fc95" x="51.378125" y="90.799479" style="stroke: #000000; stroke-width: 0.6"/>
      </g>
     </g>
    </g>
    <g id="ytick_20">
     <g id="line2d_24">
      <g>
       <use xlink:href="#m7c0522fc95" x="51.378125" y="88.371338" style="stroke: #000000; stroke-width: 0.6"/>
      </g>
     </g>
    </g>
    <g id="ytick_21">
     <g id="line2d_25">
      <g>
       <use xlink:href="#m7c0522fc95" x="51.378125" y="86.229565" style="stroke: #000000; stroke-width: 0.6"/>
      </g>
     </g>
    </g>
    <g id="ytick_22">
     <g id="line2d_26">
      <g>
       <use xlink:href="#m7c0522fc95" x="51.378125" y="71.709463" style="stroke: #000000; stroke-width: 0.6"/>
      </g>
     </g>
    </g>
    <g id="ytick_23">
     <g id="line2d_27">
      <g>
       <use xlink:href="#m7c0522fc95" x="51.378125" y="64.336466" style="stroke: #000000; stroke-width: 0.6"/>
      </g>
     </g>
    </g>
    <g id="ytick_24">
     <g id="line2d_28">
      <g>
       <use xlink:href="#m7c0522fc95" x="51.378125" y="59.105241" style="stroke: #000000; stroke-width: 0.6"/>
      </g>
     </g>
    </g>
    <g id="ytick_25">
     <g id="line2d_29">
      <g>
       <use xlink:href="#m7c0522fc95" x="51.378125" y="55.047588" style="stroke: #000000; stroke-width: 0.6"/>
      </g>
     </g>
    </g>
    <g id="ytick_26">
     <g id="line2d_30">
      <g>
       <use xlink:href="#m7c0522fc95" x="51.378125" y="51.732244" style="stroke: #000000; stroke-width: 0.6"/>
      </g>
     </g>
    </g>
    <g id="ytick_27">
     <g id="line2d_31">
      <g>
       <use xlink:href="#m7c0522fc95" x="51.378125" y="48.929161" style="stroke: #000000; stroke-width: 0.6"/>
      </g>
     </g>
    </g>
    <g id="ytick_28">
     <g id="line2d_32">
      <g>
       <use xlink:href="#m7c0522fc95" x="51.378125" y="46.50102" style="stroke: #000000; stroke-width: 0.6"/>
      </g>
     </g>
    </g>
    <g id="ytick_29">
     <g id="line2d_33">
      <g>
       <use xlink:href="#m7c0522fc95" x="51.378125" y="44.359247" style="stroke: #000000; stroke-width: 0.6"/>
      </g>
     </g>
    </g>
    <g id="ytick_30">
     <g id="line2d_34">
      <g>
       <use xlink:href="#m7c0522fc95" x="51.378125" y="29.839145" style="stroke: #000000; stroke-width: 0.6"/>
      </g>
     </g>
    </g>
    <g id="ytick_31">
     <g id="line2d_35">
      <g>
       <use xlink:href="#m7c0522fc95" x="51.378125" y="22.466148" style="stroke: #000000; stroke-width: 0.6"/>
      </g>
     </g>
    </g>
    <g id="ytick_32">
     <g id="line2d_36">
      <g>
       <use xlink:href="#m7c0522fc95" x="51.378125" y="17.234923" style="stroke: #000000; stroke-width: 0.6"/>
      </g>
     </g>
    </g>
    <g id="ytick_33">
     <g id="line2d_37">
      <g>
       <use xlink:href="#m7c0522fc95" x="51.378125" y="13.17727" style="stroke: #000000; stroke-width: 0.6"/>
      </g>
     </g>
    </g>
    <g id="ytick_34">
     <g id="line2d_38">
      <g>
       <use xlink:href="#m7c0522fc95" x="51.378125" y="9.861926" style="stroke: #000000; stroke-width: 0.6"/>
      </g>
     </g>
    </g>
    <g id="text_10">
     <!-- Loss -->
     <g transform="translate(14.798438 99.787188) rotate(-90) scale(0.1 -0.1)">
      <defs>
       <path id="DejaVuSans-4c" d="M 628 4666 
L 1259 4666 
L 1259 531 
L 3531 531 
L 3531 0 
L 628 0 
L 628 4666 
z
" transform="scale(0.015625)"/>
       <path id="DejaVuSans-73" d="M 2834 3397 
L 2834 2853 
Q 2591 2978 2328 3040 
Q 2066 3103 1784 3103 
Q 1356 3103 1142 2972 
Q 928 2841 928 2578 
Q 928 2378 1081 2264 
Q 1234 2150 1697 2047 
L 1894 2003 
Q 2506 1872 2764 1633 
Q 3022 1394 3022 966 
Q 3022 478 2636 193 
Q 2250 -91 1575 -91 
Q 1294 -91 989 -36 
Q 684 19 347 128 
L 347 722 
Q 666 556 975 473 
Q 1284 391 1588 391 
Q 1994 391 2212 530 
Q 2431 669 2431 922 
Q 2431 1156 2273 1281 
Q 2116 1406 1581 1522 
L 1381 1569 
Q 847 1681 609 1914 
Q 372 2147 372 2553 
Q 372 3047 722 3315 
Q 1072 3584 1716 3584 
Q 2034 3584 2315 3537 
Q 2597 3491 2834 3397 
z
" transform="scale(0.015625)"/>
      </defs>
      <use xlink:href="#DejaVuSans-4c"/>
      <use xlink:href="#DejaVuSans-6f" transform="translate(53.962891 0)"/>
      <use xlink:href="#DejaVuSans-73" transform="translate(115.144531 0)"/>
      <use xlink:href="#DejaVuSans-73" transform="translate(167.244141 0)"/>
     </g>
    </g>
   </g>
   <g id="line2d_39">
    <path d="M 61.432804 14.62 
L 61.722983 59.418568 
L 62.013161 69.231445 
L 62.593518 74.418184 
L 62.883696 76.373311 
L 64.334588 82.165358 
L 64.624766 81.701724 
L 65.205123 84.044272 
L 65.495301 84.292479 
L 65.785479 84.268115 
L 66.075658 85.85182 
L 66.365836 86.146701 
L 66.656014 86.265029 
L 66.946193 87.429163 
L 67.236371 87.056629 
L 67.816728 88.198683 
L 68.106906 88.306166 
L 68.687263 89.210693 
L 68.977441 89.323021 
L 69.267619 89.154627 
L 69.557798 88.6361 
L 69.847976 90.035824 
L 70.138154 90.251309 
L 70.428333 91.894082 
L 70.718511 91.456842 
L 71.008689 92.006187 
L 71.298868 91.076519 
L 71.589046 92.098971 
L 71.879224 92.196844 
L 72.459581 91.734741 
L 72.74976 92.109537 
L 73.039938 92.728008 
L 73.330116 92.855547 
L 73.620295 92.126142 
L 74.200651 93.714454 
L 74.49083 93.07888 
L 74.781008 94.362262 
L 75.071186 93.191973 
L 75.361365 93.19777 
L 75.651543 93.927443 
L 75.941721 93.647943 
L 76.2319 93.698009 
L 76.812256 95.045783 
L 77.102435 94.011543 
L 77.392613 95.225401 
L 77.682791 94.745074 
L 77.97297 95.113665 
L 78.553326 95.29344 
L 78.843505 95.461204 
L 79.133683 94.585222 
L 79.423861 95.84653 
L 79.71404 95.555966 
L 80.004218 96.184916 
L 80.294396 96.287627 
L 80.874753 96.109978 
L 81.164931 96.642316 
L 81.45511 96.628236 
L 81.745288 96.132605 
L 82.035466 96.797162 
L 82.325645 96.045884 
L 82.615823 96.339997 
L 82.906001 95.731762 
L 83.19618 95.407919 
L 83.486358 96.530923 
L 83.776536 96.966243 
L 84.066715 97.03371 
L 84.356893 95.707321 
L 84.647071 96.892652 
L 84.93725 96.701056 
L 85.227428 97.466451 
L 85.807785 97.096779 
L 86.097963 97.522721 
L 86.388141 98.43303 
L 86.67832 97.707318 
L 86.968498 97.335249 
L 87.258676 97.285859 
L 87.548855 97.488853 
L 88.129211 97.431575 
L 88.41939 97.879418 
L 88.709568 97.654159 
L 88.999746 98.268787 
L 89.289925 96.62998 
L 89.580103 97.63545 
L 89.870281 97.873405 
L 90.16046 97.356551 
L 90.450638 97.341167 
L 90.740816 98.150754 
L 91.030995 97.925715 
L 91.611351 97.954509 
L 91.90153 98.130733 
L 92.481886 98.130306 
L 92.772065 99.057935 
L 93.062243 98.872062 
L 93.352421 98.325261 
L 93.6426 98.07253 
L 93.932778 98.522078 
L 94.222956 98.177329 
L 94.513135 98.112869 
L 94.803313 98.786382 
L 95.093491 98.138601 
L 95.38367 97.920391 
L 95.964026 98.813013 
L 96.254205 98.048647 
L 96.544383 98.921615 
L 96.834561 98.001376 
L 97.12474 99.262502 
L 97.414918 98.841442 
L 97.705096 98.987572 
L 97.995275 98.405321 
L 98.285453 98.841062 
L 98.575631 98.566245 
L 98.86581 98.670431 
L 99.155988 98.89443 
L 99.446166 98.429818 
L 99.736345 99.106676 
L 100.026523 98.756869 
L 100.316701 99.122608 
L 100.60688 100.081832 
L 100.897058 98.960387 
L 101.187237 99.304089 
L 101.477415 99.287002 
L 101.767593 98.834635 
L 102.34795 99.627339 
L 102.638128 99.468544 
L 102.928307 99.035774 
L 103.218485 98.918544 
L 103.508663 99.464055 
L 103.798842 99.76167 
L 104.08902 98.834296 
L 104.379198 100.686481 
L 104.669377 101.601125 
L 104.959555 100.054243 
L 105.249733 101.324605 
L 105.539912 100.455544 
L 105.83009 100.853706 
L 106.120268 100.531503 
L 106.410447 99.90969 
L 106.990803 101.160732 
L 107.280982 101.242006 
L 107.57116 101.052497 
L 107.861338 101.406964 
L 108.151517 100.616095 
L 108.441695 101.14966 
L 108.731873 100.831191 
L 109.022052 101.037157 
L 109.31223 100.890377 
L 109.602408 101.24658 
L 109.892587 101.155887 
L 110.182765 101.35561 
L 110.472943 100.507468 
L 110.763122 101.117834 
L 111.0533 101.428793 
L 111.343478 101.064925 
L 111.633657 101.308001 
L 111.923835 101.405905 
L 112.214013 101.646433 
L 112.504192 100.710366 
L 112.79437 100.918169 
L 113.084548 101.357385 
L 113.374727 100.941396 
L 113.664905 101.037394 
L 113.955083 100.344003 
L 114.245262 102.352215 
L 114.53544 102.083137 
L 114.825618 102.395407 
L 115.115797 102.44339 
L 115.696153 101.80437 
L 116.27651 101.218488 
L 116.566688 102.311831 
L 116.856867 101.970901 
L 117.147045 102.17958 
L 117.727402 101.747832 
L 118.307758 102.044337 
L 118.597937 102.013131 
L 119.178293 101.504623 
L 119.468472 101.582492 
L 120.048828 102.775265 
L 120.339007 101.797916 
L 120.629185 101.706106 
L 120.919363 102.969636 
L 121.209542 102.409306 
L 121.49972 102.751145 
L 121.789898 102.621168 
L 122.080077 102.937752 
L 122.370255 102.032124 
L 122.950612 102.943677 
L 123.24079 102.921046 
L 123.530968 102.282033 
L 124.111325 102.46763 
L 124.691682 102.615256 
L 124.98186 102.963266 
L 125.562217 102.1759 
L 126.142573 103.105111 
L 126.432752 101.843233 
L 126.72293 102.772692 
L 127.013108 102.94481 
L 127.303287 102.726244 
L 127.593465 102.901251 
L 127.883643 102.580945 
L 128.464 102.396842 
L 128.754178 102.300148 
L 129.044357 102.658005 
L 129.334535 102.647304 
L 129.624714 102.437976 
L 129.914892 102.408536 
L 130.20507 102.03017 
L 130.495249 102.343364 
L 130.785427 102.267707 
L 131.075605 102.982598 
L 131.365784 103.183821 
L 131.655962 102.928795 
L 131.94614 103.623697 
L 132.236319 101.9844 
L 132.526497 103.157829 
L 132.816675 102.767601 
L 133.106854 103.095594 
L 133.397032 102.936483 
L 133.68721 103.081293 
L 133.977389 102.351767 
L 134.267567 103.020936 
L 134.557745 101.965041 
L 134.847924 103.09627 
L 135.138102 103.207824 
L 135.42828 102.769951 
L 135.718459 103.056093 
L 136.298815 102.628459 
L 136.588994 103.077479 
L 137.459529 102.603384 
L 137.749707 102.287535 
L 138.039885 103.020847 
L 138.620242 102.799185 
L 139.200599 103.105567 
L 139.490777 102.903317 
L 139.780955 102.955731 
L 140.071134 102.604907 
L 140.361312 103.07601 
L 140.65149 103.215683 
L 140.941669 102.611871 
L 141.231847 102.69885 
L 141.522025 103.280145 
L 141.812204 103.234709 
L 142.102382 102.600438 
L 142.39256 102.953507 
L 142.682739 103.053046 
L 143.263095 102.682938 
L 143.553274 103.013916 
L 143.843452 102.927958 
L 144.13363 102.968565 
L 144.423809 103.289112 
L 144.713987 103.223544 
L 145.004165 102.662956 
L 145.294344 103.327529 
L 145.584522 102.692069 
L 145.8747 103.548614 
L 146.164879 102.967299 
L 146.455057 103.214611 
L 146.745235 103.196724 
L 147.035414 102.654697 
L 147.325592 102.569515 
L 147.61577 103.078489 
L 147.905949 103.147631 
L 148.776484 102.870966 
L 149.066662 102.42372 
L 149.35684 103.264796 
L 149.937197 102.937954 
L 150.227375 102.886745 
L 150.517554 102.490404 
L 150.807732 103.261759 
L 151.09791 103.078009 
L 151.388089 102.757873 
L 151.678267 102.802608 
L 151.968445 103.071641 
L 152.258624 102.822703 
L 152.83898 103.719563 
L 153.129159 103.036396 
L 153.709515 102.715184 
L 153.999694 103.213188 
L 154.289872 103.087733 
L 154.58005 103.654677 
L 154.870229 103.199152 
L 155.160407 103.447772 
L 155.450585 102.996673 
L 155.740764 103.078489 
L 156.030942 103.040016 
L 156.32112 103.509251 
L 156.901477 102.82239 
L 157.191655 102.964918 
L 157.481834 103.582854 
L 157.772012 103.257321 
L 158.062191 103.180408 
L 158.352369 102.817444 
L 158.642547 102.98488 
L 158.932726 103.499716 
L 159.222904 103.156194 
L 159.513082 103.196295 
L 159.803261 103.026665 
L 160.093439 103.238799 
L 160.673796 103.396591 
L 160.963974 103.802155 
L 161.254152 103.703552 
L 161.544331 103.041192 
L 161.834509 102.866227 
L 162.124687 102.988922 
L 162.414866 102.773804 
L 162.705044 103.290597 
L 162.995222 103.249613 
L 163.285401 103.378381 
L 163.865757 103.311336 
L 164.155936 103.137959 
L 164.446114 103.376514 
L 165.026471 102.772435 
L 165.316649 102.732184 
L 165.606827 103.270338 
L 165.897006 102.935526 
L 166.187184 102.923636 
L 166.477362 103.608618 
L 166.767541 103.053118 
L 167.057719 103.987429 
L 167.347897 102.055723 
L 167.638076 103.542079 
L 168.508611 102.737482 
L 168.798789 103.073514 
L 169.088967 102.837374 
L 169.379146 103.662985 
L 169.669324 103.20304 
L 169.959502 103.738249 
L 170.249681 103.696327 
L 170.539859 103.437888 
L 170.830037 103.953573 
L 171.120216 102.844011 
L 171.410394 103.527986 
L 171.700572 102.979286 
L 171.990751 103.614982 
L 172.280929 103.328045 
L 172.571107 103.254882 
L 172.861286 103.654814 
L 173.151464 103.48532 
L 173.441642 103.067411 
L 173.731821 103.461023 
L 174.021999 102.759541 
L 174.312177 103.071641 
L 174.602356 102.876217 
L 174.892534 103.669119 
L 175.182712 104.025262 
L 175.472891 103.254228 
L 175.763069 103.411422 
L 176.053247 102.890785 
L 176.343426 103.541278 
L 176.633604 103.209264 
L 176.923782 103.318011 
L 177.213961 103.038769 
L 177.504139 103.464679 
L 177.794317 103.249255 
L 178.374674 103.255971 
L 178.664852 103.023773 
L 178.955031 103.402326 
L 179.245209 103.258511 
L 179.535387 103.75259 
L 179.825566 103.170479 
L 180.115744 103.754697 
L 180.405922 102.663347 
L 180.696101 103.849574 
L 180.986279 103.369483 
L 181.276457 103.424316 
L 181.566636 103.305899 
L 181.856814 103.78571 
L 182.146992 102.946156 
L 182.437171 103.238089 
L 182.727349 102.693057 
L 183.017527 103.291171 
L 183.307706 102.682936 
L 183.597884 103.60177 
L 183.888062 103.645792 
L 184.178241 102.995418 
L 184.468419 103.590297 
L 184.758597 103.918409 
L 185.048776 102.736631 
L 185.338954 102.984762 
L 185.629132 102.553877 
L 185.919311 102.932588 
L 186.209489 103.628907 
L 186.499668 103.306241 
L 186.789846 103.630128 
L 187.370203 103.681548 
L 187.660381 103.230866 
L 187.950559 103.206831 
L 188.240738 103.437339 
L 188.821094 103.344933 
L 189.111273 102.975101 
L 189.691629 103.371601 
L 189.981808 103.158415 
L 190.271986 103.438423 
L 190.852343 103.401958 
L 191.142521 103.587134 
L 191.432699 103.289151 
L 191.722878 103.732328 
L 192.013056 103.642118 
L 192.883591 102.528048 
L 193.463948 103.55347 
L 193.754126 103.295291 
L 194.044304 102.442156 
L 194.334483 103.871933 
L 195.205018 103.03677 
L 195.495196 103.802767 
L 196.075553 103.235437 
L 196.655909 103.254969 
L 196.946088 103.677459 
L 197.236266 103.07196 
L 197.526444 103.132108 
L 197.816623 103.627518 
L 198.106801 102.919489 
L 198.687158 103.224372 
L 198.977336 103.053374 
L 199.267514 103.755424 
L 199.847871 103.364765 
L 200.138049 103.375352 
L 200.428228 103.987875 
L 200.718406 103.029395 
L 201.008584 103.23114 
L 201.298763 102.577257 
L 201.588941 103.239099 
L 202.169298 103.167318 
L 202.459476 103.242347 
L 202.749654 103.037551 
L 203.039833 103.611229 
L 203.330011 103.257275 
L 203.620189 103.269264 
L 203.910368 103.54667 
L 204.200546 103.13017 
L 204.490724 103.235835 
L 204.780903 103.015472 
L 205.361259 103.363172 
L 205.651438 102.86606 
L 205.941616 103.192272 
L 206.231794 103.727021 
L 206.521973 102.511031 
L 206.812151 103.13231 
L 207.102329 102.888923 
L 207.392508 103.411036 
L 207.682686 103.24029 
L 207.972864 102.600107 
L 208.263043 103.469662 
L 208.553221 103.744217 
L 209.133578 103.912923 
L 209.423756 103.205854 
L 209.713934 102.860721 
L 210.004113 103.402592 
L 210.294291 103.402472 
L 210.584469 103.791882 
L 210.874648 103.297775 
L 211.164826 103.065785 
L 211.455004 103.69704 
L 211.745183 103.344303 
L 212.035361 103.539254 
L 212.325539 103.141406 
L 212.615718 103.521449 
L 213.196074 103.432757 
L 213.486253 102.912011 
L 213.776431 103.518318 
L 214.066609 103.435424 
L 214.356788 102.786798 
L 214.937145 103.646764 
L 215.227323 103.322327 
L 215.517501 103.644246 
L 215.80768 103.211504 
L 216.097858 103.685712 
L 216.678215 102.732689 
L 216.968393 103.140731 
L 217.54875 102.896185 
L 217.838928 103.505751 
L 218.129106 103.767918 
L 218.419285 103.509436 
L 218.709463 102.949909 
L 218.999641 103.009743 
L 219.28982 102.736555 
L 219.579998 103.435801 
L 219.870176 103.567192 
L 220.160355 103.384567 
L 220.450533 103.400787 
L 220.740711 103.594335 
L 221.03089 102.776977 
L 221.321068 103.456792 
L 221.611246 103.161689 
L 221.901425 103.243607 
L 222.191603 103.206858 
L 222.481781 103.31819 
L 222.77196 103.742108 
L 223.932673 103.300062 
L 224.222851 103.829153 
L 224.51303 103.243179 
L 224.803208 103.799743 
L 225.093386 102.837604 
L 225.383565 102.677905 
L 225.673743 103.399016 
L 225.963921 103.345163 
L 226.2541 103.753248 
L 226.544278 102.648666 
L 226.834456 103.658713 
L 227.124635 103.203859 
L 227.414813 103.25514 
L 227.704991 103.062214 
L 227.99517 103.363424 
L 228.285348 103.925201 
L 228.865705 103.336071 
L 229.155883 103.896189 
L 229.446061 103.291058 
L 229.73624 103.550776 
L 230.606775 103.596697 
L 230.896953 102.944148 
L 231.187131 103.502743 
L 231.47731 103.416658 
L 231.767488 103.601644 
L 232.057666 103.500442 
L 232.347845 102.760102 
L 232.928201 103.033766 
L 233.21838 103.688159 
L 233.508558 103.160709 
L 233.798736 102.974274 
L 234.088915 102.575023 
L 234.379093 103.831545 
L 234.669271 103.500871 
L 235.249628 103.296766 
L 235.829985 103.149773 
L 236.120163 103.393963 
L 236.410341 103.055756 
L 236.70052 103.066715 
L 236.990698 103.470291 
L 237.280876 102.808258 
L 237.571055 103.38852 
L 237.861233 103.16716 
L 238.44159 103.650863 
L 238.731768 102.787002 
L 239.021946 102.832585 
L 239.312125 103.265884 
L 239.892481 103.439979 
L 240.18266 103.823756 
L 240.472838 103.914493 
L 240.763016 103.460109 
L 241.92373 103.600471 
L 242.213908 102.901428 
L 242.794265 103.417554 
L 243.084443 103.023534 
L 243.374622 103.545812 
L 243.6648 103.588554 
L 243.954978 102.428058 
L 244.245157 103.504536 
L 244.535335 103.292474 
L 244.825513 103.286661 
L 245.115692 103.626186 
L 245.40587 103.78294 
L 245.696048 103.331387 
L 245.986227 103.831829 
L 246.276405 103.150017 
L 246.566583 103.921666 
L 246.856762 103.517851 
L 247.14694 103.945871 
L 247.437118 103.464614 
L 247.727297 103.261302 
L 248.017475 103.686755 
L 248.307653 103.085257 
L 248.597832 103.00179 
L 248.88801 103.322272 
L 249.468367 103.483913 
L 249.758545 103.678965 
L 250.048723 102.908342 
L 250.338902 103.316408 
L 250.62908 103.48531 
L 250.919258 103.930519 
L 251.499615 103.022914 
L 252.079972 103.495496 
L 252.37015 103.288228 
L 252.950507 103.414544 
L 253.240685 103.78487 
L 253.530863 103.657645 
L 253.821042 103.874374 
L 254.11122 103.172196 
L 254.401398 103.850036 
L 255.271933 103.087633 
L 255.85229 103.590393 
L 256.142468 103.352252 
L 257.013003 103.296911 
L 257.303182 103.439929 
L 257.59336 103.14269 
L 257.883538 103.63779 
L 258.173717 103.574775 
L 258.754073 103.66049 
L 259.044252 103.484866 
L 259.33443 103.578251 
L 259.624608 103.204435 
L 259.914787 103.549128 
L 260.204965 103.391799 
L 260.495143 103.422606 
L 260.785322 102.92625 
L 261.365678 103.434159 
L 261.655857 102.808497 
L 261.946035 103.458998 
L 262.236213 103.281578 
L 262.526392 103.517988 
L 262.526392 103.517988 
" clip-path="url(#p8bfdb6b7a0)" style="fill: none; stroke: #1d3557; stroke-width: 1.5; stroke-linecap: square"/>
   </g>
   <g id="line2d_40">
    <path d="M 61.432804 52.16843 
L 61.722983 81.085894 
L 62.593518 101.840926 
L 62.883696 103.887386 
L 63.173874 104.665727 
L 63.464053 110.60109 
L 63.754231 106.485932 
L 64.044409 112.352864 
L 64.334588 109.220446 
L 64.624766 113.517835 
L 64.914944 114.948099 
L 65.205123 111.52526 
L 65.785479 115.987449 
L 66.075658 110.945677 
L 66.365836 113.633523 
L 66.656014 119.468177 
L 66.946193 118.949945 
L 67.236371 107.822828 
L 67.526549 118.046289 
L 67.816728 121.221922 
L 68.106906 121.237231 
L 68.397084 116.701226 
L 68.687263 124.553827 
L 69.267619 110.732131 
L 69.847976 126.908834 
L 70.138154 121.628652 
L 70.428333 122.203865 
L 70.718511 124.10905 
L 71.008689 123.529219 
L 71.298868 121.754955 
L 71.589046 125.441154 
L 71.879224 125.475943 
L 72.169403 125.126794 
L 72.459581 124.959682 
L 72.74976 118.70557 
L 73.039938 123.866006 
L 73.330116 126.099602 
L 73.620295 118.624548 
L 73.910473 127.054963 
L 74.200651 127.218049 
L 74.49083 125.426035 
L 74.781008 125.887979 
L 75.071186 113.98016 
L 75.361365 127.880316 
L 75.651543 131.036747 
L 75.941721 123.986716 
L 76.2319 129.587351 
L 76.522078 128.196774 
L 77.102435 132.183245 
L 77.392613 130.873791 
L 77.97297 124.418501 
L 78.553326 129.878912 
L 78.843505 133.000007 
L 79.133683 129.373664 
L 79.423861 122.992011 
L 79.71404 130.571418 
L 80.004218 120.923395 
L 80.294396 129.800628 
L 80.584575 129.23591 
L 80.874753 133.745014 
L 81.164931 133.048243 
L 81.45511 130.873184 
L 82.325645 132.936798 
L 82.615823 126.682741 
L 83.19618 124.983153 
L 83.486358 129.688916 
L 83.776536 131.388203 
L 84.066715 118.803485 
L 84.356893 130.394685 
L 84.647071 123.547379 
L 84.93725 136.648158 
L 85.227428 130.97054 
L 85.517606 128.058204 
L 85.807785 136.304839 
L 86.097963 136.553382 
L 86.388141 135.640611 
L 86.67832 128.361316 
L 86.968498 131.019436 
L 87.258676 135.083974 
L 87.548855 131.874816 
L 87.839033 133.799418 
L 88.129211 129.777265 
L 88.41939 132.792646 
L 88.709568 138.728456 
L 89.580103 127.90472 
L 89.870281 126.015094 
L 90.450638 129.183268 
L 90.740816 129.211444 
L 91.030995 129.778598 
L 91.321173 120.435969 
L 91.611351 131.358891 
L 92.191708 126.063405 
L 92.481886 137.797202 
L 92.772065 134.566306 
L 93.062243 126.923056 
L 93.352421 127.848008 
L 93.6426 137.634184 
L 93.932778 133.780078 
L 94.222956 120.542768 
L 94.513135 141.011277 
L 95.093491 133.765518 
L 95.38367 130.661351 
L 95.673848 126.105343 
L 95.964026 133.017574 
L 96.254205 128.036377 
L 96.544383 136.88167 
L 96.834561 130.527256 
L 97.12474 137.788556 
L 97.705096 133.556016 
L 97.995275 141.496215 
L 98.285453 131.400309 
L 98.575631 126.118821 
L 98.86581 135.697313 
L 99.155988 121.0296 
L 99.446166 125.846967 
L 99.736345 127.450096 
L 100.026523 135.028751 
L 100.316701 134.132704 
L 100.60688 137.717808 
L 101.187237 125.254108 
L 101.477415 125.498878 
L 101.767593 130.330918 
L 102.057772 131.706498 
L 102.34795 134.232548 
L 102.638128 128.815401 
L 102.928307 119.467228 
L 103.218485 120.332538 
L 103.508663 135.874846 
L 103.798842 122.435036 
L 104.08902 141.167446 
L 104.379198 141.613689 
L 104.669377 146.974177 
L 104.959555 144.276609 
L 105.249733 142.871195 
L 105.83009 146.956406 
L 106.120268 142.319648 
L 106.410447 133.810043 
L 106.700625 147.816677 
L 106.990803 138.482998 
L 107.280982 141.263334 
L 107.57116 146.10239 
L 107.861338 148.609584 
L 108.441695 143.195619 
L 108.731873 137.185321 
L 109.31223 141.964244 
L 109.602408 143.300784 
L 109.892587 142.274995 
L 110.182765 144.060511 
L 110.472943 144.396844 
L 110.763122 142.468006 
L 111.0533 139.358418 
L 111.343478 140.768397 
L 111.633657 144.487609 
L 111.923835 145.669858 
L 112.214013 138.458064 
L 112.504192 143.859461 
L 112.79437 140.1765 
L 113.084548 142.186765 
L 113.374727 142.778184 
L 113.664905 132.647356 
L 113.955083 146.447186 
L 114.245262 154.299119 
L 114.53544 151.981593 
L 114.825618 150.643973 
L 115.115797 153.284634 
L 115.405975 151.217043 
L 115.696153 150.627452 
L 115.986332 142.384782 
L 116.27651 151.607918 
L 116.566688 150.131907 
L 116.856867 152.096762 
L 117.147045 153.10285 
L 117.437223 143.010604 
L 117.727402 147.719326 
L 118.307758 151.470646 
L 118.597937 151.327789 
L 118.888115 139.359293 
L 119.178293 152.531626 
L 119.468472 151.967322 
L 119.75865 149.679817 
L 120.048828 143.419639 
L 120.339007 145.038366 
L 120.629185 153.659147 
L 120.919363 151.635795 
L 121.49972 155.468574 
L 121.789898 152.775686 
L 122.080077 153.302549 
L 122.370255 154.920176 
L 122.660433 151.24834 
L 122.950612 154.885297 
L 123.24079 153.858533 
L 123.530968 155.313103 
L 123.821147 153.642773 
L 124.111325 155.48662 
L 124.401503 158.797396 
L 124.691682 154.412306 
L 124.98186 156.385976 
L 125.562217 149.908861 
L 125.852395 151.619287 
L 126.142573 151.563894 
L 126.432752 153.113985 
L 126.72293 157.390486 
L 127.013108 154.37915 
L 127.303287 155.527071 
L 127.593465 153.660784 
L 127.883643 153.697317 
L 128.173822 152.627459 
L 128.464 154.931219 
L 128.754178 149.573405 
L 129.334535 155.291806 
L 129.624714 151.550814 
L 129.914892 151.05365 
L 130.20507 152.32604 
L 130.785427 157.994826 
L 131.075605 159.401683 
L 131.365784 153.830004 
L 131.655962 157.195995 
L 131.94614 154.98143 
L 132.236319 157.190498 
L 132.526497 158.078764 
L 132.816675 157.395715 
L 133.106854 154.116503 
L 133.397032 155.225615 
L 133.68721 157.760661 
L 133.977389 156.026935 
L 134.557745 158.15874 
L 134.847924 156.554243 
L 135.138102 158.990542 
L 135.42828 157.302076 
L 135.718459 157.255227 
L 136.008637 158.577271 
L 136.298815 155.00362 
L 136.588994 159.648809 
L 136.879172 156.558661 
L 137.16935 156.848315 
L 137.459529 158.2572 
L 137.749707 157.144145 
L 138.039885 154.766593 
L 138.330064 158.400645 
L 138.620242 157.429195 
L 138.91042 154.444158 
L 139.200599 157.284283 
L 139.490777 156.582873 
L 139.780955 156.789932 
L 140.071134 159.84216 
L 140.361312 155.869523 
L 140.65149 160.528607 
L 140.941669 158.026014 
L 141.231847 159.47004 
L 141.812204 158.103139 
L 142.102382 159.780498 
L 142.39256 151.848412 
L 142.682739 157.854725 
L 142.972917 157.974807 
L 143.553274 155.804415 
L 143.843452 155.110588 
L 144.13363 159.476676 
L 144.423809 155.949627 
L 144.713987 157.785756 
L 145.004165 156.036499 
L 145.294344 156.092444 
L 145.584522 157.739568 
L 145.8747 154.594316 
L 146.164879 160.676421 
L 146.455057 156.222089 
L 146.745235 158.454684 
L 147.035414 156.702507 
L 147.325592 159.674264 
L 147.61577 157.854629 
L 147.905949 155.107057 
L 148.196127 156.959041 
L 148.486305 156.486892 
L 148.776484 158.837025 
L 149.066662 156.929933 
L 149.35684 158.190748 
L 149.937197 154.278377 
L 150.227375 157.642759 
L 150.517554 158.831117 
L 150.807732 159.240084 
L 151.09791 157.764489 
L 151.388089 158.896478 
L 151.678267 158.745148 
L 151.968445 156.954029 
L 152.258624 155.937623 
L 152.548802 159.432257 
L 152.83898 159.276898 
L 153.129159 160.780085 
L 153.419337 158.986995 
L 153.709515 159.083169 
L 153.999694 160.414218 
L 154.289872 158.407943 
L 154.58005 158.053351 
L 155.450585 160.54531 
L 155.740764 160.279799 
L 156.030942 158.915781 
L 156.32112 160.690031 
L 156.611299 158.345603 
L 156.901477 161.435588 
L 157.191655 159.793161 
L 157.772012 158.598918 
L 158.062191 160.612864 
L 158.352369 159.570665 
L 158.642547 161.112441 
L 158.932726 161.523039 
L 159.513082 158.405597 
L 159.803261 158.960294 
L 160.093439 160.026775 
L 160.383617 159.31757 
L 160.673796 159.552353 
L 160.963974 159.98618 
L 161.254152 160.937584 
L 161.544331 160.204795 
L 161.834509 161.003409 
L 162.124687 159.315825 
L 162.414866 161.414228 
L 162.705044 159.559464 
L 162.995222 159.943546 
L 163.285401 160.950662 
L 163.575579 158.572333 
L 164.155936 157.998626 
L 164.446114 159.202214 
L 165.026471 157.907161 
L 165.316649 161.419493 
L 165.606827 161.473396 
L 165.897006 159.872563 
L 166.187184 159.665554 
L 166.477362 161.131201 
L 166.767541 161.645513 
L 167.057719 160.88909 
L 167.638076 160.932876 
L 167.928254 162.017347 
L 168.218432 161.703805 
L 168.508611 160.260631 
L 168.798789 161.34446 
L 169.088967 161.859181 
L 169.379146 161.234248 
L 169.669324 161.428497 
L 169.959502 159.798076 
L 170.249681 161.691092 
L 170.539859 158.729909 
L 170.830037 161.234366 
L 171.120216 162.012241 
L 171.410394 161.177327 
L 171.700572 161.534504 
L 171.990751 160.406496 
L 172.280929 161.732854 
L 172.571107 159.546953 
L 172.861286 159.996955 
L 173.151464 161.58793 
L 173.731821 161.37732 
L 174.021999 161.290849 
L 174.312177 160.757895 
L 174.602356 162.272166 
L 174.892534 161.602177 
L 175.182712 161.392732 
L 175.472891 160.554093 
L 175.763069 161.898123 
L 176.053247 162.127425 
L 176.633604 161.322627 
L 177.213961 161.853716 
L 177.504139 161.410272 
L 177.794317 161.553687 
L 178.084496 161.379957 
L 178.374674 162.401033 
L 178.664852 162.016229 
L 178.955031 161.26905 
L 179.245209 162.134031 
L 179.535387 161.821254 
L 179.825566 162.702013 
L 180.115744 161.309734 
L 180.405922 162.242997 
L 180.696101 162.002516 
L 180.986279 162.157484 
L 181.276457 160.720333 
L 181.566636 162.509784 
L 181.856814 161.765954 
L 182.146992 162.319511 
L 182.437171 162.051101 
L 182.727349 162.322836 
L 183.017527 162.147586 
L 183.307706 162.522388 
L 183.597884 161.615998 
L 183.888062 161.14801 
L 184.178241 162.777949 
L 184.468419 162.077043 
L 184.758597 161.768193 
L 185.048776 162.147188 
L 185.338954 162.265233 
L 185.629132 161.891447 
L 185.919311 162.123609 
L 186.499668 161.662195 
L 186.789846 161.605588 
L 187.080024 160.341951 
L 187.370203 161.642353 
L 187.950559 162.212173 
L 188.240738 161.385784 
L 188.530916 161.661486 
L 188.821094 161.730566 
L 189.111273 162.349906 
L 189.401451 162.187404 
L 189.691629 162.339631 
L 189.981808 161.134782 
L 190.271986 162.326763 
L 190.562164 162.704538 
L 191.142521 162.184744 
L 191.432699 161.741351 
L 191.722878 162.743662 
L 192.013056 162.716736 
L 192.303234 162.266264 
L 192.593413 162.565385 
L 192.883591 162.58406 
L 193.173769 162.777992 
L 193.463948 161.98492 
L 194.044304 162.71063 
L 194.334483 162.631847 
L 194.624661 162.875117 
L 194.914839 162.266565 
L 195.495196 162.31909 
L 196.075553 162.377723 
L 196.365731 162.660798 
L 196.655909 162.222997 
L 196.946088 162.290384 
L 197.236266 161.712443 
L 197.816623 162.203633 
L 198.106801 162.227528 
L 198.396979 162.112301 
L 198.687158 162.477961 
L 198.977336 162.653936 
L 199.267514 162.071714 
L 199.847871 162.02371 
L 200.138049 162.914817 
L 200.428228 162.218683 
L 200.718406 162.239438 
L 201.008584 161.837533 
L 201.298763 162.356307 
L 201.588941 162.561515 
L 201.879119 162.22821 
L 202.169298 162.093413 
L 202.459476 162.710269 
L 202.749654 162.591398 
L 203.039833 162.158764 
L 203.330011 162.651927 
L 203.620189 162.419248 
L 203.910368 162.410919 
L 204.490724 163.02 
L 204.780903 162.71511 
L 205.071081 162.207884 
L 205.361259 162.154335 
L 205.651438 162.285826 
L 206.231794 162.169976 
L 206.812151 162.718953 
L 207.102329 162.558251 
L 207.392508 162.23711 
L 207.972864 162.232943 
L 208.263043 162.602304 
L 208.553221 162.347684 
L 208.843399 162.636109 
L 209.713934 162.310119 
L 210.004113 161.934398 
L 210.294291 162.504061 
L 210.584469 162.305251 
L 210.874648 162.555833 
L 211.164826 161.999469 
L 211.745183 162.389055 
L 212.035361 162.389088 
L 212.615718 162.66176 
L 212.905896 162.300524 
L 213.196074 162.217971 
L 213.486253 162.437644 
L 213.776431 161.968636 
L 214.066609 162.323452 
L 214.356788 162.468192 
L 214.646966 162.455816 
L 214.937145 162.746821 
L 215.227323 162.74576 
L 215.517501 162.392764 
L 215.80768 162.224933 
L 216.388036 162.625867 
L 216.678215 162.820998 
L 217.258571 162.851746 
L 217.54875 162.682366 
L 217.838928 162.812301 
L 218.129106 162.485448 
L 218.419285 162.367105 
L 219.28982 162.782425 
L 219.870176 162.561005 
L 220.160355 162.631351 
L 220.740711 162.480835 
L 221.03089 162.658967 
L 222.481781 162.826492 
L 222.77196 162.570773 
L 223.352316 162.438483 
L 223.932673 162.604475 
L 224.803208 162.50262 
L 225.673743 162.510119 
L 226.544278 162.474943 
L 231.187131 162.48139 
L 231.767488 162.630298 
L 233.798736 162.713159 
L 236.120163 162.708662 
L 238.44159 162.757704 
L 239.602303 162.784037 
L 241.053195 162.704075 
L 244.535335 162.711413 
L 249.758545 162.674963 
L 262.526392 162.648159 
L 262.526392 162.648159 
" clip-path="url(#p8bfdb6b7a0)" style="fill: none; stroke: #e63946; stroke-width: 1.5; stroke-linecap: square"/>
   </g>
   <g id="patch_3">
    <path d="M 51.378125 170.44 
L 51.378125 7.2 
" style="fill: none; stroke: #000000; stroke-width: 0.8; stroke-linejoin: miter; stroke-linecap: square"/>
   </g>
   <g id="patch_4">
    <path d="M 272.581071 170.44 
L 272.581071 7.2 
" style="fill: none; stroke: #000000; stroke-width: 0.8; stroke-linejoin: miter; stroke-linecap: square"/>
   </g>
   <g id="patch_5">
    <path d="M 51.378125 170.44 
L 272.581071 170.44 
" style="fill: none; stroke: #000000; stroke-width: 0.8; stroke-linejoin: miter; stroke-linecap: square"/>
   </g>
   <g id="patch_6">
    <path d="M 51.378125 7.2 
L 272.581071 7.2 
" style="fill: none; stroke: #000000; stroke-width: 0.8; stroke-linejoin: miter; stroke-linecap: square"/>
   </g>
   <g id="legend_1">
    <g id="patch_7">
     <path d="M 161.706071 44.55625 
L 265.581071 44.55625 
Q 267.581071 44.55625 267.581071 42.55625 
L 267.581071 14.2 
Q 267.581071 12.2 265.581071 12.2 
L 161.706071 12.2 
Q 159.706071 12.2 159.706071 14.2 
L 159.706071 42.55625 
Q 159.706071 44.55625 161.706071 44.55625 
z
" style="fill: #ffffff; opacity: 0.8; stroke: #cccccc; stroke-linejoin: miter"/>
    </g>
    <g id="line2d_41">
     <path d="M 163.706071 20.298438 
L 173.706071 20.298438 
L 183.706071 20.298438 
" style="fill: none; stroke: #1d3557; stroke-width: 1.5; stroke-linecap: square"/>
    </g>
    <g id="text_11">
     <!-- Training loss -->
     <g transform="translate(191.706071 23.798438) scale(0.1 -0.1)">
      <defs>
       <path id="DejaVuSans-54" d="M -19 4666 
L 3928 4666 
L 3928 4134 
L 2272 4134 
L 2272 0 
L 1638 0 
L 1638 4134 
L -19 4134 
L -19 4666 
z
" transform="scale(0.015625)"/>
       <path id="DejaVuSans-72" d="M 2631 2963 
Q 2534 3019 2420 3045 
Q 2306 3072 2169 3072 
Q 1681 3072 1420 2755 
Q 1159 2438 1159 1844 
L 1159 0 
L 581 0 
L 581 3500 
L 1159 3500 
L 1159 2956 
Q 1341 3275 1631 3429 
Q 1922 3584 2338 3584 
Q 2397 3584 2469 3576 
Q 2541 3569 2628 3553 
L 2631 2963 
z
" transform="scale(0.015625)"/>
       <path id="DejaVuSans-61" d="M 2194 1759 
Q 1497 1759 1228 1600 
Q 959 1441 959 1056 
Q 959 750 1161 570 
Q 1363 391 1709 391 
Q 2188 391 2477 730 
Q 2766 1069 2766 1631 
L 2766 1759 
L 2194 1759 
z
M 3341 1997 
L 3341 0 
L 2766 0 
L 2766 531 
Q 2569 213 2275 61 
Q 1981 -91 1556 -91 
Q 1019 -91 701 211 
Q 384 513 384 1019 
Q 384 1609 779 1909 
Q 1175 2209 1959 2209 
L 2766 2209 
L 2766 2266 
Q 2766 2663 2505 2880 
Q 2244 3097 1772 3097 
Q 1472 3097 1187 3025 
Q 903 2953 641 2809 
L 641 3341 
Q 956 3463 1253 3523 
Q 1550 3584 1831 3584 
Q 2591 3584 2966 3190 
Q 3341 2797 3341 1997 
z
" transform="scale(0.015625)"/>
       <path id="DejaVuSans-69" d="M 603 3500 
L 1178 3500 
L 1178 0 
L 603 0 
L 603 3500 
z
M 603 4863 
L 1178 4863 
L 1178 4134 
L 603 4134 
L 603 4863 
z
" transform="scale(0.015625)"/>
       <path id="DejaVuSans-6e" d="M 3513 2113 
L 3513 0 
L 2938 0 
L 2938 2094 
Q 2938 2591 2744 2837 
Q 2550 3084 2163 3084 
Q 1697 3084 1428 2787 
Q 1159 2491 1159 1978 
L 1159 0 
L 581 0 
L 581 3500 
L 1159 3500 
L 1159 2956 
Q 1366 3272 1645 3428 
Q 1925 3584 2291 3584 
Q 2894 3584 3203 3211 
Q 3513 2838 3513 2113 
z
" transform="scale(0.015625)"/>
       <path id="DejaVuSans-67" d="M 2906 1791 
Q 2906 2416 2648 2759 
Q 2391 3103 1925 3103 
Q 1463 3103 1205 2759 
Q 947 2416 947 1791 
Q 947 1169 1205 825 
Q 1463 481 1925 481 
Q 2391 481 2648 825 
Q 2906 1169 2906 1791 
z
M 3481 434 
Q 3481 -459 3084 -895 
Q 2688 -1331 1869 -1331 
Q 1566 -1331 1297 -1286 
Q 1028 -1241 775 -1147 
L 775 -588 
Q 1028 -725 1275 -790 
Q 1522 -856 1778 -856 
Q 2344 -856 2625 -561 
Q 2906 -266 2906 331 
L 2906 616 
Q 2728 306 2450 153 
Q 2172 0 1784 0 
Q 1141 0 747 490 
Q 353 981 353 1791 
Q 353 2603 747 3093 
Q 1141 3584 1784 3584 
Q 2172 3584 2450 3431 
Q 2728 3278 2906 2969 
L 2906 3500 
L 3481 3500 
L 3481 434 
z
" transform="scale(0.015625)"/>
       <path id="DejaVuSans-20" transform="scale(0.015625)"/>
       <path id="DejaVuSans-6c" d="M 603 4863 
L 1178 4863 
L 1178 0 
L 603 0 
L 603 4863 
z
" transform="scale(0.015625)"/>
      </defs>
      <use xlink:href="#DejaVuSans-54"/>
      <use xlink:href="#DejaVuSans-72" transform="translate(46.333984 0)"/>
      <use xlink:href="#DejaVuSans-61" transform="translate(87.447266 0)"/>
      <use xlink:href="#DejaVuSans-69" transform="translate(148.726562 0)"/>
      <use xlink:href="#DejaVuSans-6e" transform="translate(176.509766 0)"/>
      <use xlink:href="#DejaVuSans-69" transform="translate(239.888672 0)"/>
      <use xlink:href="#DejaVuSans-6e" transform="translate(267.671875 0)"/>
      <use xlink:href="#DejaVuSans-67" transform="translate(331.050781 0)"/>
      <use xlink:href="#DejaVuSans-20" transform="translate(394.527344 0)"/>
      <use xlink:href="#DejaVuSans-6c" transform="translate(426.314453 0)"/>
      <use xlink:href="#DejaVuSans-6f" transform="translate(454.097656 0)"/>
      <use xlink:href="#DejaVuSans-73" transform="translate(515.279297 0)"/>
      <use xlink:href="#DejaVuSans-73" transform="translate(567.378906 0)"/>
     </g>
    </g>
    <g id="line2d_42">
     <path d="M 163.706071 34.976562 
L 173.706071 34.976562 
L 183.706071 34.976562 
" style="fill: none; stroke: #e63946; stroke-width: 1.5; stroke-linecap: square"/>
    </g>
    <g id="text_12">
     <!-- Validation loss -->
     <g transform="translate(191.706071 38.476562) scale(0.1 -0.1)">
      <defs>
       <path id="DejaVuSans-56" d="M 1831 0 
L 50 4666 
L 709 4666 
L 2188 738 
L 3669 4666 
L 4325 4666 
L 2547 0 
L 1831 0 
z
" transform="scale(0.015625)"/>
       <path id="DejaVuSans-64" d="M 2906 2969 
L 2906 4863 
L 3481 4863 
L 3481 0 
L 2906 0 
L 2906 525 
Q 2725 213 2448 61 
Q 2172 -91 1784 -91 
Q 1150 -91 751 415 
Q 353 922 353 1747 
Q 353 2572 751 3078 
Q 1150 3584 1784 3584 
Q 2172 3584 2448 3432 
Q 2725 3281 2906 2969 
z
M 947 1747 
Q 947 1113 1208 752 
Q 1469 391 1925 391 
Q 2381 391 2643 752 
Q 2906 1113 2906 1747 
Q 2906 2381 2643 2742 
Q 2381 3103 1925 3103 
Q 1469 3103 1208 2742 
Q 947 2381 947 1747 
z
" transform="scale(0.015625)"/>
       <path id="DejaVuSans-74" d="M 1172 4494 
L 1172 3500 
L 2356 3500 
L 2356 3053 
L 1172 3053 
L 1172 1153 
Q 1172 725 1289 603 
Q 1406 481 1766 481 
L 2356 481 
L 2356 0 
L 1766 0 
Q 1100 0 847 248 
Q 594 497 594 1153 
L 594 3053 
L 172 3053 
L 172 3500 
L 594 3500 
L 594 4494 
L 1172 4494 
z
" transform="scale(0.015625)"/>
      </defs>
      <use xlink:href="#DejaVuSans-56"/>
      <use xlink:href="#DejaVuSans-61" transform="translate(60.658203 0)"/>
      <use xlink:href="#DejaVuSans-6c" transform="translate(121.9375 0)"/>
      <use xlink:href="#DejaVuSans-69" transform="translate(149.720703 0)"/>
      <use xlink:href="#DejaVuSans-64" transform="translate(177.503906 0)"/>
      <use xlink:href="#DejaVuSans-61" transform="translate(240.980469 0)"/>
      <use xlink:href="#DejaVuSans-74" transform="translate(302.259766 0)"/>
      <use xlink:href="#DejaVuSans-69" transform="translate(341.46875 0)"/>
      <use xlink:href="#DejaVuSans-6f" transform="translate(369.251953 0)"/>
      <use xlink:href="#DejaVuSans-6e" transform="translate(430.433594 0)"/>
      <use xlink:href="#DejaVuSans-20" transform="translate(493.8125 0)"/>
      <use xlink:href="#DejaVuSans-6c" transform="translate(525.599609 0)"/>
      <use xlink:href="#DejaVuSans-6f" transform="translate(553.382812 0)"/>
      <use xlink:href="#DejaVuSans-73" transform="translate(614.564453 0)"/>
      <use xlink:href="#DejaVuSans-73" transform="translate(666.664062 0)"/>
     </g>
    </g>
   </g>
  </g>
 </g>
 <defs>
  <clipPath id="p8bfdb6b7a0">
   <rect x="51.378125" y="7.2" width="221.202946" height="163.24"/>
  </clipPath>
 </defs>
</svg>
