<?xml version="1.0" encoding="utf-8" standalone="no"?>
<!DOCTYPE svg PUBLIC "-//W3C//DTD SVG 1.1//EN"
  "http://www.w3.org/Graphics/SVG/1.1/DTD/svg11.dtd">
<svg xmlns:xlink="http://www.w3.org/1999/xlink" width="278.836696pt" height="205.397783pt" viewBox="0 0 278.836696 205.397783" xmlns="http://www.w3.org/2000/svg" version="1.1">
 <metadata>
  <rdf:RDF xmlns:dc="http://purl.org/dc/elements/1.1/" xmlns:cc="http://creativecommons.org/ns#" xmlns:rdf="http://www.w3.org/1999/02/22-rdf-syntax-ns#">
   <cc:Work>
    <dc:type rdf:resource="http://purl.org/dc/dcmitype/StillImage"/>
    <dc:date>2026-04-03T12:44:19.519222</dc:date>
    <dc:format>image/svg+xml</dc:format>
    <dc:creator>
     <cc:Agent>
      <dc:title>Matplotlib v3.10.3, https://matplotlib.org/</dc:title>
     </cc:Agent>
    </dc:creator>
   </cc:Work>
  </rdf:RDF>
 </metadata>
 <defs>
  <style type="text/css">*{stroke-linejoin: round; stroke-linecap: butt}</style>
 </defs>
 <g id="figure_1">
  <g id="patch_1">
   <path d="M 0 205.397783 
L 278.836696 205.397783 
L 278.836696 0 
L 0 0 
z
" style="fill: #ffffff"/>
  </g>
  <g id="axes_1">
   <g id="patch_2">
    <path d="M 53.31375 165.905908 
L 271.636696 165.905908 
L 271.636696 7.912114 
L 53.31375 7.912114 
z
" style="fill: #e5e5e5"/>
   </g>
   <g id="matplotlib.axis_1">
    <g id="xtick_1">
     <g id="line2d_1">
      <path d="M 63.23752 165.905908 
L 63.23752 7.912114 
" clip-path="url(#pf80d073584)" style="fill: none; stroke: #ffffff; stroke-width: 0.8; stroke-linecap: square"/>
     </g>
     <g id="line2d_2">
      <defs>
       <path id="mc3dfa1ede3" d="M 0 0 
L 0 3.5 
" style="stroke: #555555; stroke-width: 0.8"/>
      </defs>
      <g>
       <use xlink:href="#mc3dfa1ede3" x="63.23752" y="165.905908" style="fill: #555555; stroke: #555555; stroke-width: 0.8"/>
      </g>
     </g>
     <g id="text_1">
      <!-- 0 -->
      <g style="fill: #555555" transform="translate(60.05627 180.504345) scale(0.1 -0.1)">
       <defs>
        <path id="DejaVuSans-30" d="M 2034 4250 
Q 1547 4250 1301 3770 
Q 1056 3291 1056 2328 
Q 1056 1369 1301 889 
Q 1547 409 2034 409 
Q 2525 409 2770 889 
Q 3016 1369 3016 2328 
Q 3016 3291 2770 3770 
Q 2525 4250 2034 4250 
z
M 2034 4750 
Q 2819 4750 3233 4129 
Q 3647 3509 3647 2328 
Q 3647 1150 3233 529 
Q 2819 -91 2034 -91 
Q 1250 -91 836 529 
Q 422 1150 422 2328 
Q 422 3509 836 4129 
Q 1250 4750 2034 4750 
z
" transform="scale(0.015625)"/>
       </defs>
       <use xlink:href="#DejaVuSans-30"/>
      </g>
     </g>
    </g>
    <g id="xtick_2">
     <g id="line2d_3">
      <path d="M 109.937616 165.905908 
L 109.937616 7.912114 
" clip-path="url(#pf80d073584)" style="fill: none; stroke: #ffffff; stroke-width: 0.8; stroke-linecap: square"/>
     </g>
     <g id="line2d_4">
      <g>
       <use xlink:href="#mc3dfa1ede3" x="109.937616" y="165.905908" style="fill: #555555; stroke: #555555; stroke-width: 0.8"/>
      </g>
     </g>
     <g id="text_2">
      <!-- 200 -->
      <g style="fill: #555555" transform="translate(100.393866 180.504345) scale(0.1 -0.1)">
       <defs>
        <path id="DejaVuSans-32" d="M 1228 531 
L 3431 531 
L 3431 0 
L 469 0 
L 469 531 
Q 828 903 1448 1529 
Q 2069 2156 2228 2338 
Q 2531 2678 2651 2914 
Q 2772 3150 2772 3378 
Q 2772 3750 2511 3984 
Q 2250 4219 1831 4219 
Q 1534 4219 1204 4116 
Q 875 4013 500 3803 
L 500 4441 
Q 881 4594 1212 4672 
Q 1544 4750 1819 4750 
Q 2544 4750 2975 4387 
Q 3406 4025 3406 3419 
Q 3406 3131 3298 2873 
Q 3191 2616 2906 2266 
Q 2828 2175 2409 1742 
Q 1991 1309 1228 531 
z
" transform="scale(0.015625)"/>
       </defs>
       <use xlink:href="#DejaVuSans-32"/>
       <use xlink:href="#DejaVuSans-30" transform="translate(63.623047 0)"/>
       <use xlink:href="#DejaVuSans-30" transform="translate(127.246094 0)"/>
      </g>
     </g>
    </g>
    <g id="xtick_3">
     <g id="line2d_5">
      <path d="M 156.637711 165.905908 
L 156.637711 7.912114 
" clip-path="url(#pf80d073584)" style="fill: none; stroke: #ffffff; stroke-width: 0.8; stroke-linecap: square"/>
     </g>
     <g id="line2d_6">
      <g>
       <use xlink:href="#mc3dfa1ede3" x="156.637711" y="165.905908" style="fill: #555555; stroke: #555555; stroke-width: 0.8"/>
      </g>
     </g>
     <g id="text_3">
      <!-- 400 -->
      <g style="fill: #555555" transform="translate(147.093961 180.504345) scale(0.1 -0.1)">
       <defs>
        <path id="DejaVuSans-34" d="M 2419 4116 
L 825 1625 
L 2419 1625 
L 2419 4116 
z
M 2253 4666 
L 3047 4666 
L 3047 1625 
L 3713 1625 
L 3713 1100 
L 3047 1100 
L 3047 0 
L 2419 0 
L 2419 1100 
L 313 1100 
L 313 1709 
L 2253 4666 
z
" transform="scale(0.015625)"/>
       </defs>
       <use xlink:href="#DejaVuSans-34"/>
       <use xlink:href="#DejaVuSans-30" transform="translate(63.623047 0)"/>
       <use xlink:href="#DejaVuSans-30" transform="translate(127.246094 0)"/>
      </g>
     </g>
    </g>
    <g id="xtick_4">
     <g id="line2d_7">
      <path d="M 203.337807 165.905908 
L 203.337807 7.912114 
" clip-path="url(#pf80d073584)" style="fill: none; stroke: #ffffff; stroke-width: 0.8; stroke-linecap: square"/>
     </g>
     <g id="line2d_8">
      <g>
       <use xlink:href="#mc3dfa1ede3" x="203.337807" y="165.905908" style="fill: #555555; stroke: #555555; stroke-width: 0.8"/>
      </g>
     </g>
     <g id="text_4">
      <!-- 600 -->
      <g style="fill: #555555" transform="translate(193.794057 180.504345) scale(0.1 -0.1)">
       <defs>
        <path id="DejaVuSans-36" d="M 2113 2584 
Q 1688 2584 1439 2293 
Q 1191 2003 1191 1497 
Q 1191 994 1439 701 
Q 1688 409 2113 409 
Q 2538 409 2786 701 
Q 3034 994 3034 1497 
Q 3034 2003 2786 2293 
Q 2538 2584 2113 2584 
z
M 3366 4563 
L 3366 3988 
Q 3128 4100 2886 4159 
Q 2644 4219 2406 4219 
Q 1781 4219 1451 3797 
Q 1122 3375 1075 2522 
Q 1259 2794 1537 2939 
Q 1816 3084 2150 3084 
Q 2853 3084 3261 2657 
Q 3669 2231 3669 1497 
Q 3669 778 3244 343 
Q 2819 -91 2113 -91 
Q 1303 -91 875 529 
Q 447 1150 447 2328 
Q 447 3434 972 4092 
Q 1497 4750 2381 4750 
Q 2619 4750 2861 4703 
Q 3103 4656 3366 4563 
z
" transform="scale(0.015625)"/>
       </defs>
       <use xlink:href="#DejaVuSans-36"/>
       <use xlink:href="#DejaVuSans-30" transform="translate(63.623047 0)"/>
       <use xlink:href="#DejaVuSans-30" transform="translate(127.246094 0)"/>
      </g>
     </g>
    </g>
    <g id="xtick_5">
     <g id="line2d_9">
      <path d="M 250.037902 165.905908 
L 250.037902 7.912114 
" clip-path="url(#pf80d073584)" style="fill: none; stroke: #ffffff; stroke-width: 0.8; stroke-linecap: square"/>
     </g>
     <g id="line2d_10">
      <g>
       <use xlink:href="#mc3dfa1ede3" x="250.037902" y="165.905908" style="fill: #555555; stroke: #555555; stroke-width: 0.8"/>
      </g>
     </g>
     <g id="text_5">
      <!-- 800 -->
      <g style="fill: #555555" transform="translate(240.494152 180.504345) scale(0.1 -0.1)">
       <defs>
        <path id="DejaVuSans-38" d="M 2034 2216 
Q 1584 2216 1326 1975 
Q 1069 1734 1069 1313 
Q 1069 891 1326 650 
Q 1584 409 2034 409 
Q 2484 409 2743 651 
Q 3003 894 3003 1313 
Q 3003 1734 2745 1975 
Q 2488 2216 2034 2216 
z
M 1403 2484 
Q 997 2584 770 2862 
Q 544 3141 544 3541 
Q 544 4100 942 4425 
Q 1341 4750 2034 4750 
Q 2731 4750 3128 4425 
Q 3525 4100 3525 3541 
Q 3525 3141 3298 2862 
Q 3072 2584 2669 2484 
Q 3125 2378 3379 2068 
Q 3634 1759 3634 1313 
Q 3634 634 3220 271 
Q 2806 -91 2034 -91 
Q 1263 -91 848 271 
Q 434 634 434 1313 
Q 434 1759 690 2068 
Q 947 2378 1403 2484 
z
M 1172 3481 
Q 1172 3119 1398 2916 
Q 1625 2713 2034 2713 
Q 2441 2713 2670 2916 
Q 2900 3119 2900 3481 
Q 2900 3844 2670 4047 
Q 2441 4250 2034 4250 
Q 1625 4250 1398 4047 
Q 1172 3844 1172 3481 
z
" transform="scale(0.015625)"/>
       </defs>
       <use xlink:href="#DejaVuSans-38"/>
       <use xlink:href="#DejaVuSans-30" transform="translate(63.623047 0)"/>
       <use xlink:href="#DejaVuSans-30" transform="translate(127.246094 0)"/>
      </g>
     </g>
    </g>
    <g id="text_6">
     <!-- Epoch -->
     <g style="fill: #555555" transform="translate(144.102098 195.702158) scale(0.12 -0.12)">
      <defs>
       <path id="DejaVuSans-45" d="M 628 4666 
L 3578 4666 
L 3578 4134 
L 1259 4134 
L 1259 2753 
L 3481 2753 
L 3481 2222 
L 1259 2222 
L 1259 531 
L 3634 531 
L 3634 0 
L 628 0 
L 628 4666 
z
" transform="scale(0.015625)"/>
       <path id="DejaVuSans-70" d="M 1159 525 
L 1159 -1331 
L 581 -1331 
L 581 3500 
L 1159 3500 
L 1159 2969 
Q 1341 3281 1617 3432 
Q 1894 3584 2278 3584 
Q 2916 3584 3314 3078 
Q 3713 2572 3713 1747 
Q 3713 922 3314 415 
Q 2916 -91 2278 -91 
Q 1894 -91 1617 61 
Q 1341 213 1159 525 
z
M 3116 1747 
Q 3116 2381 2855 2742 
Q 2594 3103 2138 3103 
Q 1681 3103 1420 2742 
Q 1159 2381 1159 1747 
Q 1159 1113 1420 752 
Q 1681 391 2138 391 
Q 2594 391 2855 752 
Q 3116 1113 3116 1747 
z
" transform="scale(0.015625)"/>
       <path id="DejaVuSans-6f" d="M 1959 3097 
Q 1497 3097 1228 2736 
Q 959 2375 959 1747 
Q 959 1119 1226 758 
Q 1494 397 1959 397 
Q 2419 397 2687 759 
Q 2956 1122 2956 1747 
Q 2956 2369 2687 2733 
Q 2419 3097 1959 3097 
z
M 1959 3584 
Q 2709 3584 3137 3096 
Q 3566 2609 3566 1747 
Q 3566 888 3137 398 
Q 2709 -91 1959 -91 
Q 1206 -91 779 398 
Q 353 888 353 1747 
Q 353 2609 779 3096 
Q 1206 3584 1959 3584 
z
" transform="scale(0.015625)"/>
       <path id="DejaVuSans-63" d="M 3122 3366 
L 3122 2828 
Q 2878 2963 2633 3030 
Q 2388 3097 2138 3097 
Q 1578 3097 1268 2742 
Q 959 2388 959 1747 
Q 959 1106 1268 751 
Q 1578 397 2138 397 
Q 2388 397 2633 464 
Q 2878 531 3122 666 
L 3122 134 
Q 2881 22 2623 -34 
Q 2366 -91 2075 -91 
Q 1284 -91 818 406 
Q 353 903 353 1747 
Q 353 2603 823 3093 
Q 1294 3584 2113 3584 
Q 2378 3584 2631 3529 
Q 2884 3475 3122 3366 
z
" transform="scale(0.015625)"/>
       <path id="DejaVuSans-68" d="M 3513 2113 
L 3513 0 
L 2938 0 
L 2938 2094 
Q 2938 2591 2744 2837 
Q 2550 3084 2163 3084 
Q 1697 3084 1428 2787 
Q 1159 2491 1159 1978 
L 1159 0 
L 581 0 
L 581 4863 
L 1159 4863 
L 1159 2956 
Q 1366 3272 1645 3428 
Q 1925 3584 2291 3584 
Q 2894 3584 3203 3211 
Q 3513 2838 3513 2113 
z
" transform="scale(0.015625)"/>
      </defs>
      <use xlink:href="#DejaVuSans-45"/>
      <use xlink:href="#DejaVuSans-70" transform="translate(63.183594 0)"/>
      <use xlink:href="#DejaVuSans-6f" transform="translate(126.660156 0)"/>
      <use xlink:href="#DejaVuSans-63" transform="translate(187.841797 0)"/>
      <use xlink:href="#DejaVuSans-68" transform="translate(242.822266 0)"/>
     </g>
    </g>
   </g>
   <g id="matplotlib.axis_2">
    <g id="ytick_1">
     <g id="line2d_11">
      <path d="M 53.31375 142.108499 
L 271.636696 142.108499 
" clip-path="url(#pf80d073584)" style="fill: none; stroke: #ffffff; stroke-width: 0.8; stroke-linecap: square"/>
     </g>
     <g id="line2d_12">
      <defs>
       <path id="m72ca8f2e04" d="M 0 0 
L -3.5 0 
" style="stroke: #555555; stroke-width: 0.8"/>
      </defs>
      <g>
       <use xlink:href="#m72ca8f2e04" x="53.31375" y="142.108499" style="fill: #555555; stroke: #555555; stroke-width: 0.8"/>
      </g>
     </g>
     <g id="text_7">
      <!-- $\mathdefault{10^{-6}}$ -->
      <g style="fill: #555555" transform="translate(22.81375 145.907718) scale(0.1 -0.1)">
       <defs>
        <path id="DejaVuSans-31" d="M 794 531 
L 1825 531 
L 1825 4091 
L 703 3866 
L 703 4441 
L 1819 4666 
L 2450 4666 
L 2450 531 
L 3481 531 
L 3481 0 
L 794 0 
L 794 531 
z
" transform="scale(0.015625)"/>
        <path id="DejaVuSans-2212" d="M 678 2272 
L 4684 2272 
L 4684 1741 
L 678 1741 
L 678 2272 
z
" transform="scale(0.015625)"/>
       </defs>
       <use xlink:href="#DejaVuSans-31" transform="translate(0 0.765625)"/>
       <use xlink:href="#DejaVuSans-30" transform="translate(63.623047 0.765625)"/>
       <use xlink:href="#DejaVuSans-2212" transform="translate(128.203125 39.046875) scale(0.7)"/>
       <use xlink:href="#DejaVuSans-36" transform="translate(186.855469 39.046875) scale(0.7)"/>
      </g>
     </g>
    </g>
    <g id="ytick_2">
     <g id="line2d_13">
      <path d="M 53.31375 115.886643 
L 271.636696 115.886643 
" clip-path="url(#pf80d073584)" style="fill: none; stroke: #ffffff; stroke-width: 0.8; stroke-linecap: square"/>
     </g>
     <g id="line2d_14">
      <g>
       <use xlink:href="#m72ca8f2e04" x="53.31375" y="115.886643" style="fill: #555555; stroke: #555555; stroke-width: 0.8"/>
      </g>
     </g>
     <g id="text_8">
      <!-- $\mathdefault{10^{-5}}$ -->
      <g style="fill: #555555" transform="translate(22.81375 119.685862) scale(0.1 -0.1)">
       <defs>
        <path id="DejaVuSans-35" d="M 691 4666 
L 3169 4666 
L 3169 4134 
L 1269 4134 
L 1269 2991 
Q 1406 3038 1543 3061 
Q 1681 3084 1819 3084 
Q 2600 3084 3056 2656 
Q 3513 2228 3513 1497 
Q 3513 744 3044 326 
Q 2575 -91 1722 -91 
Q 1428 -91 1123 -41 
Q 819 9 494 109 
L 494 744 
Q 775 591 1075 516 
Q 1375 441 1709 441 
Q 2250 441 2565 725 
Q 2881 1009 2881 1497 
Q 2881 1984 2565 2268 
Q 2250 2553 1709 2553 
Q 1456 2553 1204 2497 
Q 953 2441 691 2322 
L 691 4666 
z
" transform="scale(0.015625)"/>
       </defs>
       <use xlink:href="#DejaVuSans-31" transform="translate(0 0.684375)"/>
       <use xlink:href="#DejaVuSans-30" transform="translate(63.623047 0.684375)"/>
       <use xlink:href="#DejaVuSans-2212" transform="translate(128.203125 38.965625) scale(0.7)"/>
       <use xlink:href="#DejaVuSans-35" transform="translate(186.855469 38.965625) scale(0.7)"/>
      </g>
     </g>
    </g>
    <g id="ytick_3">
     <g id="line2d_15">
      <path d="M 53.31375 89.664787 
L 271.636696 89.664787 
" clip-path="url(#pf80d073584)" style="fill: none; stroke: #ffffff; stroke-width: 0.8; stroke-linecap: square"/>
     </g>
     <g id="line2d_16">
      <g>
       <use xlink:href="#m72ca8f2e04" x="53.31375" y="89.664787" style="fill: #555555; stroke: #555555; stroke-width: 0.8"/>
      </g>
     </g>
     <g id="text_9">
      <!-- $\mathdefault{10^{-4}}$ -->
      <g style="fill: #555555" transform="translate(22.81375 93.464006) scale(0.1 -0.1)">
       <use xlink:href="#DejaVuSans-31" transform="translate(0 0.684375)"/>
       <use xlink:href="#DejaVuSans-30" transform="translate(63.623047 0.684375)"/>
       <use xlink:href="#DejaVuSans-2212" transform="translate(128.203125 38.965625) scale(0.7)"/>
       <use xlink:href="#DejaVuSans-34" transform="translate(186.855469 38.965625) scale(0.7)"/>
      </g>
     </g>
    </g>
    <g id="ytick_4">
     <g id="line2d_17">
      <path d="M 53.31375 63.442931 
L 271.636696 63.442931 
" clip-path="url(#pf80d073584)" style="fill: none; stroke: #ffffff; stroke-width: 0.8; stroke-linecap: square"/>
     </g>
     <g id="line2d_18">
      <g>
       <use xlink:href="#m72ca8f2e04" x="53.31375" y="63.442931" style="fill: #555555; stroke: #555555; stroke-width: 0.8"/>
      </g>
     </g>
     <g id="text_10">
      <!-- $\mathdefault{10^{-3}}$ -->
      <g style="fill: #555555" transform="translate(22.81375 67.24215) scale(0.1 -0.1)">
       <defs>
        <path id="DejaVuSans-33" d="M 2597 2516 
Q 3050 2419 3304 2112 
Q 3559 1806 3559 1356 
Q 3559 666 3084 287 
Q 2609 -91 1734 -91 
Q 1441 -91 1130 -33 
Q 819 25 488 141 
L 488 750 
Q 750 597 1062 519 
Q 1375 441 1716 441 
Q 2309 441 2620 675 
Q 2931 909 2931 1356 
Q 2931 1769 2642 2001 
Q 2353 2234 1838 2234 
L 1294 2234 
L 1294 2753 
L 1863 2753 
Q 2328 2753 2575 2939 
Q 2822 3125 2822 3475 
Q 2822 3834 2567 4026 
Q 2313 4219 1838 4219 
Q 1578 4219 1281 4162 
Q 984 4106 628 3988 
L 628 4550 
Q 988 4650 1302 4700 
Q 1616 4750 1894 4750 
Q 2613 4750 3031 4423 
Q 3450 4097 3450 3541 
Q 3450 3153 3228 2886 
Q 3006 2619 2597 2516 
z
" transform="scale(0.015625)"/>
       </defs>
       <use xlink:href="#DejaVuSans-31" transform="translate(0 0.765625)"/>
       <use xlink:href="#DejaVuSans-30" transform="translate(63.623047 0.765625)"/>
       <use xlink:href="#DejaVuSans-2212" transform="translate(128.203125 39.046875) scale(0.7)"/>
       <use xlink:href="#DejaVuSans-33" transform="translate(186.855469 39.046875) scale(0.7)"/>
      </g>
     </g>
    </g>
    <g id="ytick_5">
     <g id="line2d_19">
      <path d="M 53.31375 37.221075 
L 271.636696 37.221075 
" clip-path="url(#pf80d073584)" style="fill: none; stroke: #ffffff; stroke-width: 0.8; stroke-linecap: square"/>
     </g>
     <g id="line2d_20">
      <g>
       <use xlink:href="#m72ca8f2e04" x="53.31375" y="37.221075" style="fill: #555555; stroke: #555555; stroke-width: 0.8"/>
      </g>
     </g>
     <g id="text_11">
      <!-- $\mathdefault{10^{-2}}$ -->
      <g style="fill: #555555" transform="translate(22.81375 41.020294) scale(0.1 -0.1)">
       <use xlink:href="#DejaVuSans-31" transform="translate(0 0.765625)"/>
       <use xlink:href="#DejaVuSans-30" transform="translate(63.623047 0.765625)"/>
       <use xlink:href="#DejaVuSans-2212" transform="translate(128.203125 39.046875) scale(0.7)"/>
       <use xlink:href="#DejaVuSans-32" transform="translate(186.855469 39.046875) scale(0.7)"/>
      </g>
     </g>
    </g>
    <g id="ytick_6">
     <g id="line2d_21">
      <path d="M 53.31375 10.999219 
L 271.636696 10.999219 
" clip-path="url(#pf80d073584)" style="fill: none; stroke: #ffffff; stroke-width: 0.8; stroke-linecap: square"/>
     </g>
     <g id="line2d_22">
      <g>
       <use xlink:href="#m72ca8f2e04" x="53.31375" y="10.999219" style="fill: #555555; stroke: #555555; stroke-width: 0.8"/>
      </g>
     </g>
     <g id="text_12">
      <!-- $\mathdefault{10^{-1}}$ -->
      <g style="fill: #555555" transform="translate(22.81375 14.798438) scale(0.1 -0.1)">
       <use xlink:href="#DejaVuSans-31" transform="translate(0 0.684375)"/>
       <use xlink:href="#DejaVuSans-30" transform="translate(63.623047 0.684375)"/>
       <use xlink:href="#DejaVuSans-2212" transform="translate(128.203125 38.965625) scale(0.7)"/>
       <use xlink:href="#DejaVuSans-31" transform="translate(186.855469 38.965625) scale(0.7)"/>
      </g>
     </g>
    </g>
    <g id="ytick_7">
     <g id="line2d_23">
      <defs>
       <path id="m18921c72c1" d="M 0 0 
L -2 0 
" style="stroke: #555555; stroke-width: 0.6"/>
      </defs>
      <g>
       <use xlink:href="#m18921c72c1" x="53.31375" y="160.43679" style="fill: #555555; stroke: #555555; stroke-width: 0.6"/>
      </g>
     </g>
    </g>
    <g id="ytick_8">
     <g id="line2d_24">
      <g>
       <use xlink:href="#m18921c72c1" x="53.31375" y="155.819351" style="fill: #555555; stroke: #555555; stroke-width: 0.6"/>
      </g>
     </g>
    </g>
    <g id="ytick_9">
     <g id="line2d_25">
      <g>
       <use xlink:href="#m18921c72c1" x="53.31375" y="152.543225" style="fill: #555555; stroke: #555555; stroke-width: 0.6"/>
      </g>
     </g>
    </g>
    <g id="ytick_10">
     <g id="line2d_26">
      <g>
       <use xlink:href="#m18921c72c1" x="53.31375" y="150.002065" style="fill: #555555; stroke: #555555; stroke-width: 0.6"/>
      </g>
     </g>
    </g>
    <g id="ytick_11">
     <g id="line2d_27">
      <g>
       <use xlink:href="#m18921c72c1" x="53.31375" y="147.925785" style="fill: #555555; stroke: #555555; stroke-width: 0.6"/>
      </g>
     </g>
    </g>
    <g id="ytick_12">
     <g id="line2d_28">
      <g>
       <use xlink:href="#m18921c72c1" x="53.31375" y="146.170316" style="fill: #555555; stroke: #555555; stroke-width: 0.6"/>
      </g>
     </g>
    </g>
    <g id="ytick_13">
     <g id="line2d_29">
      <g>
       <use xlink:href="#m18921c72c1" x="53.31375" y="144.64966" style="fill: #555555; stroke: #555555; stroke-width: 0.6"/>
      </g>
     </g>
    </g>
    <g id="ytick_14">
     <g id="line2d_30">
      <g>
       <use xlink:href="#m18921c72c1" x="53.31375" y="143.308346" style="fill: #555555; stroke: #555555; stroke-width: 0.6"/>
      </g>
     </g>
    </g>
    <g id="ytick_15">
     <g id="line2d_31">
      <g>
       <use xlink:href="#m18921c72c1" x="53.31375" y="134.214934" style="fill: #555555; stroke: #555555; stroke-width: 0.6"/>
      </g>
     </g>
    </g>
    <g id="ytick_16">
     <g id="line2d_32">
      <g>
       <use xlink:href="#m18921c72c1" x="53.31375" y="129.597495" style="fill: #555555; stroke: #555555; stroke-width: 0.6"/>
      </g>
     </g>
    </g>
    <g id="ytick_17">
     <g id="line2d_33">
      <g>
       <use xlink:href="#m18921c72c1" x="53.31375" y="126.321369" style="fill: #555555; stroke: #555555; stroke-width: 0.6"/>
      </g>
     </g>
    </g>
    <g id="ytick_18">
     <g id="line2d_34">
      <g>
       <use xlink:href="#m18921c72c1" x="53.31375" y="123.780209" style="fill: #555555; stroke: #555555; stroke-width: 0.6"/>
      </g>
     </g>
    </g>
    <g id="ytick_19">
     <g id="line2d_35">
      <g>
       <use xlink:href="#m18921c72c1" x="53.31375" y="121.703929" style="fill: #555555; stroke: #555555; stroke-width: 0.6"/>
      </g>
     </g>
    </g>
    <g id="ytick_20">
     <g id="line2d_36">
      <g>
       <use xlink:href="#m18921c72c1" x="53.31375" y="119.94846" style="fill: #555555; stroke: #555555; stroke-width: 0.6"/>
      </g>
     </g>
    </g>
    <g id="ytick_21">
     <g id="line2d_37">
      <g>
       <use xlink:href="#m18921c72c1" x="53.31375" y="118.427804" style="fill: #555555; stroke: #555555; stroke-width: 0.6"/>
      </g>
     </g>
    </g>
    <g id="ytick_22">
     <g id="line2d_38">
      <g>
       <use xlink:href="#m18921c72c1" x="53.31375" y="117.08649" style="fill: #555555; stroke: #555555; stroke-width: 0.6"/>
      </g>
     </g>
    </g>
    <g id="ytick_23">
     <g id="line2d_39">
      <g>
       <use xlink:href="#m18921c72c1" x="53.31375" y="107.993078" style="fill: #555555; stroke: #555555; stroke-width: 0.6"/>
      </g>
     </g>
    </g>
    <g id="ytick_24">
     <g id="line2d_40">
      <g>
       <use xlink:href="#m18921c72c1" x="53.31375" y="103.375638" style="fill: #555555; stroke: #555555; stroke-width: 0.6"/>
      </g>
     </g>
    </g>
    <g id="ytick_25">
     <g id="line2d_41">
      <g>
       <use xlink:href="#m18921c72c1" x="53.31375" y="100.099513" style="fill: #555555; stroke: #555555; stroke-width: 0.6"/>
      </g>
     </g>
    </g>
    <g id="ytick_26">
     <g id="line2d_42">
      <g>
       <use xlink:href="#m18921c72c1" x="53.31375" y="97.558352" style="fill: #555555; stroke: #555555; stroke-width: 0.6"/>
      </g>
     </g>
    </g>
    <g id="ytick_27">
     <g id="line2d_43">
      <g>
       <use xlink:href="#m18921c72c1" x="53.31375" y="95.482073" style="fill: #555555; stroke: #555555; stroke-width: 0.6"/>
      </g>
     </g>
    </g>
    <g id="ytick_28">
     <g id="line2d_44">
      <g>
       <use xlink:href="#m18921c72c1" x="53.31375" y="93.726604" style="fill: #555555; stroke: #555555; stroke-width: 0.6"/>
      </g>
     </g>
    </g>
    <g id="ytick_29">
     <g id="line2d_45">
      <g>
       <use xlink:href="#m18921c72c1" x="53.31375" y="92.205948" style="fill: #555555; stroke: #555555; stroke-width: 0.6"/>
      </g>
     </g>
    </g>
    <g id="ytick_30">
     <g id="line2d_46">
      <g>
       <use xlink:href="#m18921c72c1" x="53.31375" y="90.864633" style="fill: #555555; stroke: #555555; stroke-width: 0.6"/>
      </g>
     </g>
    </g>
    <g id="ytick_31">
     <g id="line2d_47">
      <g>
       <use xlink:href="#m18921c72c1" x="53.31375" y="81.771222" style="fill: #555555; stroke: #555555; stroke-width: 0.6"/>
      </g>
     </g>
    </g>
    <g id="ytick_32">
     <g id="line2d_48">
      <g>
       <use xlink:href="#m18921c72c1" x="53.31375" y="77.153782" style="fill: #555555; stroke: #555555; stroke-width: 0.6"/>
      </g>
     </g>
    </g>
    <g id="ytick_33">
     <g id="line2d_49">
      <g>
       <use xlink:href="#m18921c72c1" x="53.31375" y="73.877657" style="fill: #555555; stroke: #555555; stroke-width: 0.6"/>
      </g>
     </g>
    </g>
    <g id="ytick_34">
     <g id="line2d_50">
      <g>
       <use xlink:href="#m18921c72c1" x="53.31375" y="71.336496" style="fill: #555555; stroke: #555555; stroke-width: 0.6"/>
      </g>
     </g>
    </g>
    <g id="ytick_35">
     <g id="line2d_51">
      <g>
       <use xlink:href="#m18921c72c1" x="53.31375" y="69.260217" style="fill: #555555; stroke: #555555; stroke-width: 0.6"/>
      </g>
     </g>
    </g>
    <g id="ytick_36">
     <g id="line2d_52">
      <g>
       <use xlink:href="#m18921c72c1" x="53.31375" y="67.504748" style="fill: #555555; stroke: #555555; stroke-width: 0.6"/>
      </g>
     </g>
    </g>
    <g id="ytick_37">
     <g id="line2d_53">
      <g>
       <use xlink:href="#m18921c72c1" x="53.31375" y="65.984091" style="fill: #555555; stroke: #555555; stroke-width: 0.6"/>
      </g>
     </g>
    </g>
    <g id="ytick_38">
     <g id="line2d_54">
      <g>
       <use xlink:href="#m18921c72c1" x="53.31375" y="64.642777" style="fill: #555555; stroke: #555555; stroke-width: 0.6"/>
      </g>
     </g>
    </g>
    <g id="ytick_39">
     <g id="line2d_55">
      <g>
       <use xlink:href="#m18921c72c1" x="53.31375" y="55.549366" style="fill: #555555; stroke: #555555; stroke-width: 0.6"/>
      </g>
     </g>
    </g>
    <g id="ytick_40">
     <g id="line2d_56">
      <g>
       <use xlink:href="#m18921c72c1" x="53.31375" y="50.931926" style="fill: #555555; stroke: #555555; stroke-width: 0.6"/>
      </g>
     </g>
    </g>
    <g id="ytick_41">
     <g id="line2d_57">
      <g>
       <use xlink:href="#m18921c72c1" x="53.31375" y="47.655801" style="fill: #555555; stroke: #555555; stroke-width: 0.6"/>
      </g>
     </g>
    </g>
    <g id="ytick_42">
     <g id="line2d_58">
      <g>
       <use xlink:href="#m18921c72c1" x="53.31375" y="45.11464" style="fill: #555555; stroke: #555555; stroke-width: 0.6"/>
      </g>
     </g>
    </g>
    <g id="ytick_43">
     <g id="line2d_59">
      <g>
       <use xlink:href="#m18921c72c1" x="53.31375" y="43.038361" style="fill: #555555; stroke: #555555; stroke-width: 0.6"/>
      </g>
     </g>
    </g>
    <g id="ytick_44">
     <g id="line2d_60">
      <g>
       <use xlink:href="#m18921c72c1" x="53.31375" y="41.282892" style="fill: #555555; stroke: #555555; stroke-width: 0.6"/>
      </g>
     </g>
    </g>
    <g id="ytick_45">
     <g id="line2d_61">
      <g>
       <use xlink:href="#m18921c72c1" x="53.31375" y="39.762235" style="fill: #555555; stroke: #555555; stroke-width: 0.6"/>
      </g>
     </g>
    </g>
    <g id="ytick_46">
     <g id="line2d_62">
      <g>
       <use xlink:href="#m18921c72c1" x="53.31375" y="38.420921" style="fill: #555555; stroke: #555555; stroke-width: 0.6"/>
      </g>
     </g>
    </g>
    <g id="ytick_47">
     <g id="line2d_63">
      <g>
       <use xlink:href="#m18921c72c1" x="53.31375" y="29.32751" style="fill: #555555; stroke: #555555; stroke-width: 0.6"/>
      </g>
     </g>
    </g>
    <g id="ytick_48">
     <g id="line2d_64">
      <g>
       <use xlink:href="#m18921c72c1" x="53.31375" y="24.71007" style="fill: #555555; stroke: #555555; stroke-width: 0.6"/>
      </g>
     </g>
    </g>
    <g id="ytick_49">
     <g id="line2d_65">
      <g>
       <use xlink:href="#m18921c72c1" x="53.31375" y="21.433944" style="fill: #555555; stroke: #555555; stroke-width: 0.6"/>
      </g>
     </g>
    </g>
    <g id="ytick_50">
     <g id="line2d_66">
      <g>
       <use xlink:href="#m18921c72c1" x="53.31375" y="18.892784" style="fill: #555555; stroke: #555555; stroke-width: 0.6"/>
      </g>
     </g>
    </g>
    <g id="ytick_51">
     <g id="line2d_67">
      <g>
       <use xlink:href="#m18921c72c1" x="53.31375" y="16.816505" style="fill: #555555; stroke: #555555; stroke-width: 0.6"/>
      </g>
     </g>
    </g>
    <g id="ytick_52">
     <g id="line2d_68">
      <g>
       <use xlink:href="#m18921c72c1" x="53.31375" y="15.061036" style="fill: #555555; stroke: #555555; stroke-width: 0.6"/>
      </g>
     </g>
    </g>
    <g id="ytick_53">
     <g id="line2d_69">
      <g>
       <use xlink:href="#m18921c72c1" x="53.31375" y="13.540379" style="fill: #555555; stroke: #555555; stroke-width: 0.6"/>
      </g>
     </g>
    </g>
    <g id="ytick_54">
     <g id="line2d_70">
      <g>
       <use xlink:href="#m18921c72c1" x="53.31375" y="12.199065" style="fill: #555555; stroke: #555555; stroke-width: 0.6"/>
      </g>
     </g>
    </g>
    <g id="text_13">
     <!-- Loss -->
     <g style="fill: #555555" transform="translate(16.318125 100.069636) rotate(-90) scale(0.12 -0.12)">
      <defs>
       <path id="DejaVuSans-4c" d="M 628 4666 
L 1259 4666 
L 1259 531 
L 3531 531 
L 3531 0 
L 628 0 
L 628 4666 
z
" transform="scale(0.015625)"/>
       <path id="DejaVuSans-73" d="M 2834 3397 
L 2834 2853 
Q 2591 2978 2328 3040 
Q 2066 3103 1784 3103 
Q 1356 3103 1142 2972 
Q 928 2841 928 2578 
Q 928 2378 1081 2264 
Q 1234 2150 1697 2047 
L 1894 2003 
Q 2506 1872 2764 1633 
Q 3022 1394 3022 966 
Q 3022 478 2636 193 
Q 2250 -91 1575 -91 
Q 1294 -91 989 -36 
Q 684 19 347 128 
L 347 722 
Q 666 556 975 473 
Q 1284 391 1588 391 
Q 1994 391 2212 530 
Q 2431 669 2431 922 
Q 2431 1156 2273 1281 
Q 2116 1406 1581 1522 
L 1381 1569 
Q 847 1681 609 1914 
Q 372 2147 372 2553 
Q 372 3047 722 3315 
Q 1072 3584 1716 3584 
Q 2034 3584 2315 3537 
Q 2597 3491 2834 3397 
z
" transform="scale(0.015625)"/>
      </defs>
      <use xlink:href="#DejaVuSans-4c"/>
      <use xlink:href="#DejaVuSans-6f" transform="translate(53.962891 0)"/>
      <use xlink:href="#DejaVuSans-73" transform="translate(115.144531 0)"/>
      <use xlink:href="#DejaVuSans-73" transform="translate(167.244141 0)"/>
     </g>
    </g>
   </g>
   <g id="line2d_71">
    <path d="M 63.23752 15.09365 
L 63.471021 55.2582 
L 63.704521 60.00745 
L 63.938022 70.439422 
L 64.171522 65.964653 
L 64.405023 74.579046 
L 64.638523 72.109682 
L 64.872024 76.746523 
L 65.105524 77.551674 
L 65.339025 75.31693 
L 65.572525 64.41294 
L 65.806026 64.830274 
L 66.039526 60.815601 
L 66.273026 62.314027 
L 66.506527 86.050456 
L 66.740027 81.017371 
L 66.973528 78.790307 
L 67.207028 74.944284 
L 67.440529 57.023475 
L 67.674029 77.617272 
L 67.90753 74.182797 
L 68.14103 74.881742 
L 68.374531 71.176318 
L 68.608031 77.748527 
L 68.841532 79.576231 
L 69.075032 72.323739 
L 69.308533 69.354354 
L 69.542033 59.853347 
L 70.009034 75.387441 
L 70.242535 66.363613 
L 70.709536 69.344333 
L 70.943036 87.486963 
L 71.176536 92.070887 
L 71.410037 94.027007 
L 71.877038 61.606717 
L 72.110538 67.192782 
L 72.344039 63.910413 
L 72.81104 95.719115 
L 73.04454 88.188766 
L 73.278041 73.393061 
L 73.511541 85.158213 
L 73.745042 84.504811 
L 74.212043 79.345349 
L 74.445543 61.469941 
L 74.679044 65.468429 
L 74.912544 57.171565 
L 75.379545 70.05461 
L 75.613046 67.945052 
L 75.846546 78.775776 
L 76.080047 106.946004 
L 76.313547 113.303459 
L 76.780548 114.20315 
L 77.014048 116.388403 
L 77.247549 116.505534 
L 77.481049 111.527617 
L 77.71455 117.510907 
L 77.94805 115.370276 
L 78.181551 115.324192 
L 78.415051 114.479941 
L 78.648552 117.041751 
L 78.882052 112.480496 
L 79.115553 114.7018 
L 79.349053 112.809628 
L 79.582554 106.907308 
L 79.816054 104.729376 
L 80.049555 106.191698 
L 80.516556 78.508454 
L 80.983557 97.526968 
L 81.217057 91.510872 
L 81.450557 69.810121 
L 81.684058 95.489007 
L 81.917558 102.344728 
L 82.151059 92.668895 
L 82.61806 99.455837 
L 82.85156 98.737287 
L 83.085061 111.703838 
L 83.318561 107.058778 
L 83.785562 72.059243 
L 84.019063 96.520382 
L 84.252563 86.048323 
L 84.953065 126.280508 
L 85.186565 126.982822 
L 85.653566 125.61556 
L 85.887067 125.874241 
L 86.354068 122.427374 
L 86.587568 124.485127 
L 86.821068 113.897407 
L 87.054569 120.830403 
L 87.52157 123.918883 
L 87.988571 116.769908 
L 88.222071 102.921126 
L 88.455572 112.764807 
L 88.689072 116.721386 
L 88.922573 98.827794 
L 89.156073 98.325479 
L 89.389574 109.611546 
L 89.623074 101.051683 
L 89.856575 111.19733 
L 90.323576 100.103531 
L 90.790577 97.667982 
L 91.257578 132.1878 
L 91.491078 133.353415 
L 91.724578 121.981852 
L 91.958079 129.726744 
L 92.191579 133.565287 
L 92.65858 126.242302 
L 92.892081 131.368291 
L 93.125581 128.180723 
L 93.359082 128.507622 
L 93.592582 114.758766 
L 93.826083 125.689945 
L 94.059583 126.393804 
L 94.293084 126.249913 
L 94.526584 119.046962 
L 94.760085 120.45556 
L 95.227086 127.105783 
L 95.460586 111.267817 
L 95.927587 105.980731 
L 96.161088 122.203983 
L 96.394588 124.457237 
L 96.628089 124.936811 
L 96.861589 109.865535 
L 97.095089 104.273991 
L 97.32859 130.187882 
L 97.56209 135.415206 
L 97.795591 131.141814 
L 98.262592 137.785854 
L 98.496092 137.657716 
L 98.729593 135.347476 
L 98.963093 136.385214 
L 99.196594 134.997892 
L 99.430094 136.481159 
L 99.663595 115.470122 
L 99.897095 131.286248 
L 100.130596 137.707567 
L 100.364096 135.923897 
L 100.597597 125.867876 
L 100.831097 133.858848 
L 101.064598 134.977178 
L 101.298098 131.737023 
L 101.531599 110.583888 
L 101.765099 125.51713 
L 101.998599 130.979375 
L 102.2321 132.597733 
L 102.4656 120.473752 
L 102.699101 136.113016 
L 102.932601 132.078459 
L 103.166102 131.287188 
L 103.399602 133.211782 
L 103.866603 130.096724 
L 104.100104 136.877868 
L 104.333604 118.560819 
L 104.567105 122.514072 
L 104.800605 135.248045 
L 105.034106 140.498613 
L 105.267606 139.135732 
L 105.501107 125.352603 
L 105.734607 138.538543 
L 105.968108 142.8936 
L 106.201608 141.365014 
L 106.435109 140.601986 
L 106.668609 134.695412 
L 106.902109 139.6195 
L 107.13561 139.10574 
L 107.36911 135.351453 
L 107.602611 140.540697 
L 107.836111 135.599436 
L 108.069612 140.446738 
L 108.303112 120.127825 
L 108.536613 127.876278 
L 108.770113 125.685326 
L 109.003614 137.187456 
L 109.237114 137.264424 
L 109.470615 137.567958 
L 109.704115 138.096052 
L 109.937616 133.97843 
L 110.171116 140.241964 
L 110.404617 129.996778 
L 110.871618 143.572734 
L 111.105118 138.844382 
L 111.338619 143.86548 
L 111.80562 137.892532 
L 112.03912 143.324572 
L 112.27262 144.541494 
L 112.506121 143.829927 
L 112.739621 143.723283 
L 112.973122 128.539156 
L 113.206622 137.937139 
L 113.440123 138.563442 
L 113.673623 140.688618 
L 114.140624 138.928189 
L 114.374125 145.14831 
L 114.607625 142.373974 
L 114.841126 131.186486 
L 115.074626 143.101777 
L 115.308127 133.498039 
L 115.541627 144.38688 
L 115.775128 132.098961 
L 116.008628 141.963027 
L 116.242129 137.06096 
L 116.475629 141.101814 
L 116.70913 141.557626 
L 116.94263 144.866872 
L 117.17613 139.94902 
L 117.409631 142.709624 
L 117.643131 121.375938 
L 117.876632 136.350743 
L 118.110132 139.663016 
L 118.343633 145.57295 
L 118.577133 128.863284 
L 118.810634 144.201804 
L 119.044134 141.719319 
L 119.277635 141.822888 
L 119.511135 143.817981 
L 119.744636 144.720559 
L 119.978136 114.697121 
L 120.211637 143.493395 
L 120.445137 111.200276 
L 120.678638 136.962156 
L 120.912138 145.420717 
L 121.145639 144.96567 
L 121.379139 145.887134 
L 121.61264 143.664587 
L 121.84614 145.177665 
L 122.079641 145.653594 
L 122.313141 136.496459 
L 122.780142 144.407925 
L 123.013642 141.541345 
L 123.247143 125.666425 
L 123.480643 142.347514 
L 123.714144 143.368027 
L 123.947644 142.614705 
L 124.181145 144.48289 
L 124.414645 142.673626 
L 124.648146 145.371904 
L 125.115147 144.587218 
L 125.348647 145.139065 
L 125.582148 128.107585 
L 125.815648 144.54954 
L 126.049149 144.085683 
L 126.282649 137.803597 
L 126.51615 142.429757 
L 126.74965 133.620832 
L 126.983151 130.598393 
L 127.216651 145.188557 
L 127.450151 141.212495 
L 127.683652 106.596276 
L 127.917152 143.056649 
L 128.150653 144.260703 
L 128.384153 137.920037 
L 128.617654 134.862213 
L 128.851154 145.190433 
L 129.084655 138.403339 
L 129.318155 127.718105 
L 129.551656 146.36119 
L 129.785156 126.891131 
L 130.018657 145.912935 
L 130.485658 123.397018 
L 130.719158 146.885445 
L 130.952659 128.892569 
L 131.186159 147.890714 
L 131.41966 146.820499 
L 131.65316 147.228839 
L 131.886661 146.961252 
L 132.120161 146.258713 
L 132.353662 129.660332 
L 132.587162 130.663795 
L 132.820662 142.506265 
L 133.054163 122.750443 
L 133.287663 142.601644 
L 133.521164 136.530208 
L 133.754664 145.442606 
L 133.988165 142.268217 
L 134.221665 147.559065 
L 134.455166 144.46114 
L 134.688666 144.831856 
L 134.922167 147.331047 
L 135.155667 143.178363 
L 135.622668 147.726902 
L 135.856169 143.107005 
L 136.089669 131.39044 
L 136.55667 145.241578 
L 136.790171 147.144584 
L 137.023671 148.130797 
L 137.257172 131.15583 
L 137.490672 145.189078 
L 137.724172 134.635621 
L 137.957673 146.274064 
L 138.191173 146.171266 
L 138.424674 145.407374 
L 138.658174 147.702793 
L 138.891675 138.191636 
L 139.125175 121.317852 
L 139.358676 124.924815 
L 139.592176 147.612302 
L 139.825677 147.00269 
L 140.059177 144.414759 
L 140.292678 147.162553 
L 140.526178 146.911538 
L 140.759679 137.668482 
L 140.993179 101.035558 
L 141.22668 144.197773 
L 141.46018 136.73208 
L 141.693681 137.39338 
L 141.927181 146.423771 
L 142.160682 132.777286 
L 142.627682 146.755358 
L 142.861183 122.593396 
L 143.094683 145.601578 
L 143.328184 138.297306 
L 143.561684 147.472339 
L 143.795185 148.421551 
L 144.028685 133.292876 
L 144.262186 146.900639 
L 144.495686 146.418487 
L 144.729187 148.614222 
L 144.962687 143.993439 
L 145.196188 117.924044 
L 145.429688 145.519644 
L 145.663189 123.685958 
L 145.896689 148.351986 
L 146.13019 148.889579 
L 146.36369 143.413945 
L 146.597191 148.652397 
L 146.830691 144.887784 
L 147.064192 146.823631 
L 147.297692 147.333416 
L 147.531193 148.466186 
L 147.764693 148.375852 
L 147.998193 137.164639 
L 148.231694 147.491281 
L 148.465194 134.085242 
L 148.698695 144.860082 
L 148.932195 147.031744 
L 149.399196 124.882444 
L 149.632697 142.188018 
L 149.866197 143.63832 
L 150.099698 148.586846 
L 150.333198 146.879404 
L 150.566699 150.356325 
L 150.800199 146.368549 
L 151.0337 148.335259 
L 151.2672 144.441863 
L 151.500701 130.265989 
L 151.734201 139.946004 
L 151.967702 131.865658 
L 152.201202 136.067009 
L 152.434703 138.2488 
L 152.668203 148.092546 
L 152.901703 142.771285 
L 153.135204 147.159427 
L 153.368704 141.059295 
L 153.602205 144.335928 
L 153.835705 144.410135 
L 154.069206 135.929357 
L 154.302706 149.696635 
L 154.536207 149.847222 
L 154.769707 145.991983 
L 155.236708 142.872028 
L 155.703709 136.544619 
L 155.93721 146.509409 
L 156.17071 148.095243 
L 156.404211 115.056438 
L 156.637711 141.056914 
L 156.871212 142.789071 
L 157.104712 147.288071 
L 157.338213 148.13505 
L 157.571713 145.686254 
L 157.805214 126.884059 
L 158.038714 149.590031 
L 158.272214 148.75847 
L 158.505715 138.543161 
L 158.739215 145.765185 
L 158.972716 149.020954 
L 159.206216 131.794015 
L 159.439717 143.982311 
L 159.673217 144.289588 
L 159.906718 147.080003 
L 160.140218 145.299483 
L 160.373719 128.675985 
L 160.607219 125.132692 
L 160.84072 146.287662 
L 161.07422 146.557821 
L 161.307721 149.585443 
L 161.541221 149.757858 
L 161.774722 148.033176 
L 162.008222 121.454515 
L 162.241723 151.055454 
L 162.475223 141.085827 
L 162.708724 150.785415 
L 162.942224 146.741588 
L 163.175724 137.110163 
L 163.409225 143.232751 
L 163.642725 153.190062 
L 163.876226 146.548234 
L 164.109726 136.556489 
L 164.576727 153.578152 
L 164.810228 133.894439 
L 165.043728 138.761135 
L 165.277229 151.366984 
L 165.510729 150.549859 
L 165.74423 152.581489 
L 165.97773 149.578291 
L 166.211231 141.856985 
L 166.444731 152.542807 
L 166.678232 150.200506 
L 166.911732 117.140719 
L 167.145233 147.248433 
L 167.378733 149.255448 
L 167.612234 153.283503 
L 167.845734 151.884551 
L 168.079234 145.251482 
L 168.312735 150.818784 
L 168.546235 148.672483 
L 168.779736 153.677288 
L 169.013236 151.042044 
L 169.246737 151.152253 
L 169.480237 151.504434 
L 169.713738 148.81616 
L 170.180739 152.388016 
L 170.414239 151.672402 
L 170.88124 120.179545 
L 171.348241 153.27289 
L 171.581742 128.066589 
L 172.048743 153.193542 
L 172.282243 151.701561 
L 172.515744 153.005165 
L 172.749244 140.866902 
L 172.982745 152.439101 
L 173.216245 152.613847 
L 173.449745 144.801124 
L 173.683246 152.912976 
L 173.916746 153.01515 
L 174.150247 149.050509 
L 174.383747 125.725709 
L 174.617248 153.964721 
L 174.850748 144.036246 
L 175.084249 139.705918 
L 175.317749 144.665008 
L 175.55125 152.470805 
L 175.78475 150.757115 
L 176.018251 133.702508 
L 176.251751 131.58514 
L 176.485252 143.693947 
L 176.718752 148.813148 
L 176.952253 145.913458 
L 177.185753 151.853135 
L 177.419254 147.224691 
L 177.652754 153.632497 
L 177.886255 150.642213 
L 178.119755 151.825203 
L 178.353255 149.305122 
L 178.586756 150.702498 
L 178.820256 149.070308 
L 179.053757 144.035636 
L 179.287257 147.515266 
L 179.520758 124.794109 
L 179.754258 151.114434 
L 179.987759 152.338821 
L 180.221259 145.322504 
L 180.45476 148.15644 
L 180.68826 153.012103 
L 180.921761 151.965903 
L 181.155261 150.14921 
L 181.622262 151.376501 
L 181.855763 136.902795 
L 182.089263 146.91079 
L 182.322764 148.122791 
L 182.556264 131.279275 
L 182.789765 150.540502 
L 183.023265 151.268189 
L 183.256766 139.274244 
L 183.723766 153.845331 
L 183.957267 151.498422 
L 184.190767 142.297935 
L 184.424268 152.185258 
L 184.657768 143.65834 
L 184.891269 152.720248 
L 185.124769 155.593562 
L 185.35827 151.453221 
L 185.59177 152.023167 
L 185.825271 143.523011 
L 186.058771 153.883315 
L 186.292272 146.70162 
L 186.759273 154.803856 
L 186.992773 153.605663 
L 187.226274 153.840551 
L 187.693275 139.408176 
L 187.926775 155.277732 
L 188.160276 154.930288 
L 188.627276 144.17049 
L 188.860777 146.197578 
L 189.094277 155.476489 
L 189.327778 155.228639 
L 189.561278 147.8107 
L 189.794779 149.88411 
L 190.028279 155.080839 
L 190.26178 125.463537 
L 190.728781 154.652926 
L 190.962281 154.510338 
L 191.195782 151.762701 
L 191.429282 143.571448 
L 191.662783 145.006446 
L 191.896283 152.823404 
L 192.129784 151.786698 
L 192.363284 154.756823 
L 192.596785 150.268392 
L 192.830285 139.086724 
L 193.063786 116.295216 
L 193.297286 148.581967 
L 193.530787 155.216056 
L 193.764287 156.14141 
L 193.997787 147.958386 
L 194.231288 153.39623 
L 194.464788 155.688572 
L 194.698289 138.112596 
L 195.16529 154.22853 
L 195.39879 154.429203 
L 195.632291 155.760751 
L 195.865791 128.269634 
L 196.099292 136.123215 
L 196.332792 156.051138 
L 196.566293 129.258021 
L 196.799793 152.64686 
L 197.033294 127.831534 
L 197.266794 150.038225 
L 197.500295 155.795907 
L 197.733795 147.721104 
L 197.967296 126.174484 
L 198.434297 153.986336 
L 198.667797 154.178141 
L 198.901297 133.647996 
L 199.134798 150.912998 
L 199.368298 155.225165 
L 199.601799 152.971453 
L 199.835299 142.448679 
L 200.0688 152.316032 
L 200.3023 150.826358 
L 200.769301 133.778869 
L 201.002802 155.953121 
L 201.236302 144.282281 
L 201.469803 157.299317 
L 201.703303 155.561935 
L 201.936804 149.474807 
L 202.170304 157.442851 
L 202.403805 139.1494 
L 202.637305 148.512247 
L 203.104306 155.690159 
L 203.337807 156.38788 
L 203.571307 154.221382 
L 204.038308 145.574467 
L 204.271808 117.988947 
L 204.505309 155.691552 
L 204.97231 147.972073 
L 205.439311 157.950836 
L 206.139812 146.552131 
L 206.373313 133.63564 
L 206.606813 146.488842 
L 206.840314 138.277206 
L 207.073814 158.196327 
L 207.307315 154.555668 
L 207.540815 132.787409 
L 207.774316 157.328764 
L 208.007816 138.617686 
L 208.241317 154.375152 
L 208.708318 157.669441 
L 208.941818 124.580405 
L 209.408819 150.305529 
L 209.642319 157.602203 
L 209.87582 112.901726 
L 210.10932 142.568616 
L 210.576321 156.438295 
L 210.809822 156.644032 
L 211.043322 132.869082 
L 211.276823 145.470937 
L 211.510323 133.047583 
L 211.743824 156.254032 
L 211.977324 151.704062 
L 212.210825 154.607381 
L 212.444325 136.675265 
L 212.677826 157.945297 
L 212.911326 155.743564 
L 213.144827 156.12324 
L 213.378327 144.449365 
L 213.611828 139.477913 
L 213.845328 156.787158 
L 214.312329 144.914958 
L 214.545829 144.779687 
L 214.77933 136.884271 
L 215.01283 156.532834 
L 215.246331 151.352368 
L 215.713332 153.524087 
L 215.946832 152.053965 
L 216.180333 155.836404 
L 216.647334 153.522541 
L 217.114335 140.4825 
L 217.347835 149.604891 
L 217.581336 145.909216 
L 217.814836 158.197924 
L 218.048337 119.443063 
L 218.281837 139.861529 
L 218.515338 129.569008 
L 218.748838 158.130101 
L 218.982339 152.319686 
L 219.215839 155.967996 
L 219.449339 155.453431 
L 219.68284 126.789756 
L 219.91634 153.562572 
L 220.149841 153.176136 
L 220.383341 157.074123 
L 220.616842 149.908541 
L 220.850342 157.58438 
L 221.083843 157.623775 
L 221.317343 157.264603 
L 221.550844 157.862591 
L 221.784344 155.151956 
L 222.017845 127.714467 
L 222.251345 156.651143 
L 222.484846 157.207286 
L 222.718346 154.442735 
L 222.951847 158.066385 
L 223.185347 156.036409 
L 223.418848 155.34859 
L 223.652348 129.775682 
L 223.885849 144.3302 
L 224.119349 145.720019 
L 224.352849 125.938974 
L 224.58635 156.665892 
L 224.81985 154.063921 
L 225.053351 136.929336 
L 225.286851 157.424035 
L 225.520352 141.214407 
L 225.753852 156.350965 
L 225.987353 151.205022 
L 226.220853 158.609231 
L 226.454354 147.351754 
L 226.687854 124.162394 
L 226.921355 151.225129 
L 227.154855 158.626064 
L 227.388356 125.882887 
L 227.621856 154.154923 
L 227.855357 156.600298 
L 228.088857 156.12347 
L 228.322358 154.482094 
L 228.555858 142.230088 
L 228.789359 149.848079 
L 229.022859 150.481742 
L 229.256359 158.34257 
L 229.48986 158.367273 
L 229.72336 157.468033 
L 230.190361 147.525143 
L 230.423862 155.848698 
L 230.657362 155.764526 
L 230.890863 154.08648 
L 231.124363 157.272727 
L 231.357864 156.133238 
L 231.591364 158.314224 
L 231.824865 156.905579 
L 232.291866 139.804252 
L 232.525366 156.244837 
L 232.758867 156.183113 
L 232.992367 153.893066 
L 233.225868 153.070653 
L 233.459368 154.709033 
L 233.692869 152.21181 
L 233.926369 158.669099 
L 234.15987 156.937121 
L 234.39337 147.795559 
L 234.62687 149.643191 
L 234.860371 158.67717 
L 235.093871 146.854225 
L 235.327372 153.90053 
L 235.794373 121.75738 
L 236.027873 157.959122 
L 236.261374 135.098618 
L 236.494874 153.969515 
L 236.961875 157.545669 
L 237.195376 150.865626 
L 237.428876 157.538811 
L 237.662377 155.707347 
L 237.895877 130.398815 
L 238.129378 136.147624 
L 238.362878 149.291618 
L 238.596379 144.959451 
L 238.829879 156.993625 
L 239.06338 151.77284 
L 239.29688 156.304958 
L 239.53038 158.066615 
L 239.763881 154.925208 
L 239.997381 147.868049 
L 240.230882 156.779147 
L 240.464382 150.998874 
L 240.697883 157.028342 
L 240.931383 157.519531 
L 241.164884 158.334556 
L 241.398384 157.034718 
L 241.631885 153.209922 
L 241.865385 158.07513 
L 242.098886 158.435828 
L 242.332386 157.502971 
L 242.565887 158.260268 
L 242.799387 153.367303 
L 243.032888 143.162757 
L 243.266388 152.760298 
L 243.499889 150.250982 
L 243.96689 158.68101 
L 244.20039 120.301331 
L 244.433891 154.222939 
L 244.667391 152.844195 
L 244.900891 135.483249 
L 245.134392 156.663311 
L 245.367892 149.503924 
L 245.601393 154.918626 
L 245.834893 156.795384 
L 246.068394 154.589138 
L 246.301894 120.415099 
L 246.535395 158.551066 
L 246.768895 150.357141 
L 247.002396 157.11938 
L 247.235896 157.647125 
L 247.469397 138.76471 
L 247.702897 146.401873 
L 247.936398 144.397098 
L 248.169898 158.033774 
L 248.403399 104.142414 
L 248.636899 157.971051 
L 248.8704 144.393992 
L 249.1039 155.578583 
L 249.337401 152.643516 
L 249.804401 158.681035 
L 250.037902 147.085336 
L 250.271402 157.246981 
L 250.504903 140.394397 
L 250.738403 156.87681 
L 250.971904 149.386887 
L 251.205404 158.568645 
L 251.438905 153.790259 
L 251.672405 154.742188 
L 251.905906 154.745191 
L 252.139406 157.084012 
L 252.372907 120.766282 
L 252.606407 156.581265 
L 252.839908 155.834984 
L 253.073408 156.935072 
L 253.306909 158.724372 
L 253.540409 143.31613 
L 253.77391 158.431754 
L 254.240911 154.729757 
L 254.474411 158.706136 
L 254.707912 138.706806 
L 254.941412 153.058777 
L 255.174912 157.373827 
L 255.408413 152.991596 
L 255.641913 154.73524 
L 255.875414 143.006823 
L 256.108914 152.458097 
L 256.342415 156.889793 
L 256.575915 154.7793 
L 256.809416 150.263509 
L 257.042916 158.55893 
L 257.276417 156.528215 
L 257.509917 124.750803 
L 257.976918 152.14874 
L 258.210419 157.677083 
L 258.443919 157.401541 
L 258.67742 153.038502 
L 258.91092 156.165045 
L 259.144421 154.200754 
L 259.377921 136.805917 
L 259.611422 158.288173 
L 259.844922 157.948171 
L 260.078422 155.299316 
L 260.311923 155.287993 
L 260.778924 158.161533 
L 261.012424 155.9891 
L 261.245925 135.537507 
L 261.479425 157.045112 
L 261.712926 153.192133 
L 261.712926 153.192133 
" clip-path="url(#pf80d073584)" style="fill: none; stroke: #1d3557; stroke-width: 1.5; stroke-linecap: square"/>
   </g>
   <g id="line2d_72">
    <path d="M 63.23752 53.299997 
L 63.471021 51.779181 
L 63.704521 68.112916 
L 64.171522 72.947646 
L 64.405023 78.418097 
L 64.638523 75.156775 
L 64.872024 74.30952 
L 65.105524 72.10013 
L 65.339025 63.546091 
L 65.572525 64.389875 
L 66.039526 55.319656 
L 66.273026 87.745109 
L 66.506527 81.61933 
L 66.973528 80.345769 
L 67.207028 54.018534 
L 67.440529 75.44252 
L 67.674029 79.555936 
L 67.90753 81.318526 
L 68.14103 80.494283 
L 68.374531 77.854333 
L 68.608031 79.481634 
L 68.841532 86.555629 
L 69.542033 62.007808 
L 69.775534 73.644217 
L 70.009034 67.940504 
L 70.242535 67.922601 
L 70.476035 60.755946 
L 70.943036 96.630562 
L 71.643537 79.277309 
L 71.877038 53.846598 
L 72.110538 79.021157 
L 72.344039 70.596498 
L 72.81104 96.547289 
L 73.278041 78.709662 
L 73.511541 89.03747 
L 73.745042 81.433569 
L 73.978542 85.636813 
L 74.212043 58.556823 
L 74.679044 75.990454 
L 74.912544 51.166282 
L 75.146045 80.29692 
L 75.379545 74.908357 
L 75.613046 74.721543 
L 76.080047 110.136297 
L 76.313547 109.70184 
L 76.547047 112.145894 
L 76.780548 111.577948 
L 77.014048 113.158828 
L 77.247549 110.215475 
L 77.481049 111.937962 
L 77.71455 115.076184 
L 77.94805 112.778269 
L 78.181551 114.245679 
L 78.415051 111.930493 
L 78.648552 112.72261 
L 78.882052 115.314198 
L 79.115553 111.164672 
L 79.349053 116.129454 
L 79.582554 97.268401 
L 79.816054 102.733516 
L 80.049555 91.849573 
L 80.283055 87.775643 
L 80.516556 86.968242 
L 80.750056 100.725997 
L 80.983557 93.793801 
L 81.217057 63.202619 
L 81.684058 104.523195 
L 81.917558 98.631883 
L 82.384559 94.227153 
L 82.61806 101.720397 
L 82.85156 103.717951 
L 83.085061 112.15976 
L 83.318561 101.23519 
L 83.552062 81.857462 
L 83.785562 83.402174 
L 84.019063 104.454241 
L 84.252563 82.53561 
L 84.486064 120.039956 
L 84.719564 121.495555 
L 85.186565 120.514395 
L 85.420066 120.465396 
L 85.887067 122.757447 
L 86.120567 117.45098 
L 86.354068 120.952497 
L 86.821068 115.08502 
L 87.054569 121.81662 
L 87.288069 117.574596 
L 87.52157 119.688959 
L 87.75507 108.871836 
L 87.988571 115.415 
L 88.222071 104.574836 
L 88.689072 112.236457 
L 88.922573 97.961563 
L 89.156073 110.181983 
L 89.389574 92.574451 
L 89.623074 111.148287 
L 90.323576 97.520461 
L 90.557076 100.968647 
L 90.790577 97.880489 
L 91.024077 125.552354 
L 91.257578 124.721022 
L 91.491078 125.653603 
L 91.724578 117.832098 
L 91.958079 126.069431 
L 92.191579 126.838823 
L 92.42508 113.652048 
L 92.65858 125.857667 
L 92.892081 125.333271 
L 93.125581 119.118758 
L 93.359082 125.098691 
L 93.592582 114.127673 
L 93.826083 125.506406 
L 94.059583 124.227652 
L 94.293084 115.018926 
L 94.526584 121.562225 
L 94.760085 118.726869 
L 94.993585 121.088694 
L 95.227086 122.041724 
L 95.460586 101.897611 
L 95.927587 122.825337 
L 96.161088 122.394374 
L 96.394588 124.192613 
L 96.861589 105.649873 
L 97.095089 113.091848 
L 97.32859 127.570006 
L 97.56209 128.202836 
L 97.795591 125.653413 
L 98.029091 129.806172 
L 98.262592 129.594225 
L 99.196594 127.294045 
L 99.430094 129.404399 
L 99.663595 118.790129 
L 99.897095 130.146027 
L 100.130596 129.918071 
L 100.364096 128.977454 
L 100.597597 128.756045 
L 100.831097 128.353176 
L 101.064598 126.95471 
L 101.298098 126.245407 
L 101.531599 109.392 
L 101.765099 128.23125 
L 101.998599 123.069427 
L 102.2321 127.616631 
L 102.4656 125.294148 
L 102.699101 128.526681 
L 102.932601 125.860587 
L 103.166102 125.982103 
L 103.399602 127.101717 
L 103.633103 124.077021 
L 103.866603 126.984103 
L 104.100104 127.845614 
L 104.333604 114.18416 
L 104.567105 124.596799 
L 105.034106 132.151537 
L 105.267606 133.108955 
L 105.501107 130.494896 
L 105.734607 133.500628 
L 106.201608 131.726755 
L 106.435109 132.298381 
L 106.668609 129.22835 
L 106.902109 132.113198 
L 107.36911 133.206085 
L 107.602611 131.139553 
L 107.836111 130.614003 
L 108.069612 129.305522 
L 108.303112 130.958226 
L 108.536613 131.375778 
L 108.770113 125.963618 
L 109.003614 131.301049 
L 109.237114 129.406038 
L 109.470615 132.335248 
L 109.704115 131.01442 
L 109.937616 130.650327 
L 110.404617 130.638447 
L 110.638117 128.403474 
L 110.871618 133.254466 
L 111.105118 133.206676 
L 111.338619 133.793511 
L 111.572119 133.629771 
L 111.80562 132.637323 
L 112.03912 133.175282 
L 112.27262 133.037588 
L 112.506121 134.059552 
L 112.739621 133.863555 
L 112.973122 133.909332 
L 113.206622 132.059554 
L 113.440123 133.025627 
L 113.673623 130.771817 
L 113.907124 133.731352 
L 114.140624 132.867474 
L 114.607625 134.3861 
L 114.841126 132.460024 
L 115.074626 134.08553 
L 115.308127 132.83962 
L 115.541627 133.038008 
L 115.775128 132.670223 
L 116.008628 133.291759 
L 116.242129 129.388098 
L 116.475629 133.249606 
L 116.70913 132.030066 
L 116.94263 133.726177 
L 117.17613 133.479657 
L 117.409631 132.516336 
L 117.643131 110.527165 
L 117.876632 132.564944 
L 118.110132 134.089226 
L 118.343633 134.450137 
L 118.577133 133.580691 
L 118.810634 133.715428 
L 119.044134 134.002392 
L 119.277635 134.55306 
L 119.511135 133.30892 
L 119.744636 135.121642 
L 119.978136 128.689076 
L 120.211637 134.396851 
L 120.445137 119.705095 
L 120.678638 134.237735 
L 121.145639 134.83373 
L 121.379139 134.720465 
L 121.61264 132.335006 
L 121.84614 134.912404 
L 122.079641 135.243196 
L 122.313141 130.096784 
L 122.546641 134.094988 
L 122.780142 134.766163 
L 123.013642 133.212771 
L 123.247143 130.288588 
L 123.480643 134.390216 
L 123.714144 135.20213 
L 123.947644 134.272468 
L 124.181145 134.856995 
L 124.414645 134.18483 
L 124.648146 135.660302 
L 124.881646 134.231593 
L 125.115147 134.968762 
L 125.348647 134.677291 
L 126.049149 134.796173 
L 126.282649 134.717423 
L 126.51615 135.503599 
L 126.74965 124.441606 
L 126.983151 135.265294 
L 127.216651 134.154673 
L 127.450151 129.231163 
L 127.917152 134.452517 
L 128.150653 136.134961 
L 128.384153 132.273094 
L 128.617654 132.682254 
L 128.851154 135.752272 
L 129.084655 132.641171 
L 129.318155 133.271125 
L 129.551656 136.296436 
L 129.785156 136.29695 
L 130.018657 134.440729 
L 130.252157 130.512803 
L 130.485658 132.534783 
L 130.719158 136.466762 
L 130.952659 135.313139 
L 131.186159 135.831964 
L 131.65316 135.283997 
L 131.886661 135.836453 
L 132.120161 134.980132 
L 132.820662 136.335914 
L 133.054163 132.552811 
L 133.287663 134.158697 
L 133.521164 130.108025 
L 133.754664 135.785762 
L 133.988165 133.852391 
L 134.221665 136.323593 
L 134.688666 134.797294 
L 134.922167 136.646147 
L 135.155667 135.767833 
L 135.389168 135.863965 
L 135.622668 136.894239 
L 135.856169 135.84465 
L 136.089669 135.375646 
L 136.32317 131.809118 
L 136.55667 135.80769 
L 136.790171 136.597536 
L 137.023671 135.618169 
L 137.257172 134.020173 
L 137.490672 135.870957 
L 137.724172 136.637332 
L 137.957673 134.496394 
L 138.191173 137.016497 
L 138.424674 135.089045 
L 138.658174 136.608727 
L 138.891675 132.907239 
L 139.125175 116.403552 
L 139.358676 135.489145 
L 139.592176 136.89921 
L 139.825677 136.034897 
L 140.059177 136.20121 
L 140.292678 136.624797 
L 140.526178 137.376687 
L 140.759679 131.541724 
L 141.22668 136.787188 
L 141.46018 137.070491 
L 141.693681 134.415183 
L 141.927181 136.804175 
L 142.160682 136.811172 
L 142.394182 131.990357 
L 142.627682 137.121693 
L 142.861183 127.515137 
L 143.094683 137.418572 
L 143.328184 133.729271 
L 143.561684 137.379109 
L 144.028685 136.539231 
L 144.262186 137.445722 
L 144.495686 137.603125 
L 144.729187 136.958373 
L 144.962687 137.371897 
L 145.196188 133.584693 
L 145.429688 137.184557 
L 145.663189 136.867651 
L 145.896689 137.958717 
L 146.36369 137.016517 
L 146.597191 137.487167 
L 146.830691 137.356875 
L 147.064192 137.889819 
L 147.297692 136.551885 
L 147.531193 137.286055 
L 147.764693 136.472152 
L 147.998193 137.924529 
L 148.231694 136.880887 
L 148.698695 137.352418 
L 148.932195 136.481295 
L 149.399196 125.209151 
L 149.632697 137.54567 
L 149.866197 136.647588 
L 150.099698 138.143528 
L 150.333198 137.342275 
L 150.566699 137.540587 
L 150.800199 138.639855 
L 151.0337 137.578897 
L 151.2672 137.684241 
L 151.500701 136.65669 
L 151.734201 137.602727 
L 152.201202 136.724999 
L 152.434703 137.288011 
L 152.668203 136.232333 
L 152.901703 138.247798 
L 153.135204 137.898096 
L 153.368704 138.777791 
L 153.602205 137.278075 
L 153.835705 137.778108 
L 154.069206 137.917785 
L 154.302706 137.621417 
L 154.536207 138.036904 
L 154.769707 134.553277 
L 155.003208 138.379221 
L 155.470209 133.019078 
L 155.703709 136.461835 
L 155.93721 137.430756 
L 156.17071 136.699889 
L 156.404211 134.791375 
L 156.637711 134.011797 
L 156.871212 139.326665 
L 157.104712 138.539263 
L 157.338213 138.634916 
L 157.571713 138.290692 
L 157.805214 137.543168 
L 158.038714 137.931107 
L 158.272214 138.616331 
L 158.739215 136.081194 
L 159.206216 137.932069 
L 159.439717 137.981577 
L 159.673217 137.814838 
L 159.906718 138.432671 
L 160.140218 135.728082 
L 160.373719 136.867178 
L 160.607219 136.672194 
L 160.84072 138.431154 
L 161.07422 138.100031 
L 161.307721 137.265094 
L 161.541221 138.903852 
L 161.774722 138.77731 
L 162.008222 135.554468 
L 162.241723 139.270168 
L 162.475223 137.521835 
L 162.708724 139.590548 
L 162.942224 138.844578 
L 163.175724 137.265825 
L 163.409225 139.693954 
L 163.642725 139.584314 
L 163.876226 139.331208 
L 164.109726 139.650087 
L 164.576727 139.233531 
L 164.810228 138.936871 
L 165.510729 139.612973 
L 165.74423 140.000254 
L 165.97773 137.825868 
L 166.211231 139.589932 
L 166.444731 140.078229 
L 166.678232 138.520613 
L 166.911732 138.184602 
L 167.145233 139.592518 
L 167.378733 140.006452 
L 167.612234 139.892138 
L 167.845734 140.142113 
L 168.079234 139.174383 
L 168.546235 139.553429 
L 168.779736 138.639771 
L 169.013236 139.600574 
L 169.246737 139.865019 
L 169.480237 139.866932 
L 169.713738 138.850161 
L 169.947238 139.718909 
L 170.180739 138.492479 
L 170.414239 139.598534 
L 170.64774 139.378539 
L 170.88124 136.325471 
L 171.114741 138.902307 
L 171.348241 139.957017 
L 171.581742 137.667196 
L 171.815242 139.772194 
L 172.048743 139.594818 
L 172.282243 140.406254 
L 172.515744 140.051168 
L 172.749244 137.729131 
L 172.982745 139.693465 
L 173.449745 139.633387 
L 173.683246 139.262068 
L 173.916746 140.063977 
L 174.383747 139.495452 
L 174.617248 140.220958 
L 174.850748 140.415039 
L 175.084249 131.546571 
L 175.317749 139.159775 
L 175.55125 140.34649 
L 175.78475 139.897608 
L 176.018251 139.039306 
L 176.251751 135.758116 
L 176.718752 140.207729 
L 176.952253 139.939467 
L 177.185753 140.449168 
L 177.419254 140.631888 
L 177.652754 139.705938 
L 177.886255 139.618714 
L 178.119755 139.174481 
L 178.353255 139.177524 
L 178.586756 139.667942 
L 178.820256 140.578181 
L 179.053757 140.291292 
L 179.287257 139.475351 
L 179.520758 140.097422 
L 179.754258 139.767919 
L 179.987759 140.499414 
L 180.221259 140.161819 
L 180.45476 140.028119 
L 180.68826 140.205715 
L 180.921761 139.9808 
L 181.155261 140.513485 
L 181.388762 139.644583 
L 181.622262 139.763297 
L 181.855763 140.236704 
L 182.089263 140.242387 
L 182.322764 134.84113 
L 182.556264 140.763684 
L 182.789765 140.870929 
L 183.023265 140.409988 
L 183.256766 140.794738 
L 183.490266 140.673645 
L 183.723766 141.00862 
L 183.957267 140.117964 
L 184.190767 141.026458 
L 184.424268 140.392324 
L 184.657768 138.002998 
L 184.891269 140.535803 
L 185.124769 140.915538 
L 185.825271 140.359799 
L 186.058771 140.888677 
L 186.292272 140.989425 
L 186.525772 139.91488 
L 186.759273 140.98115 
L 187.226274 140.893857 
L 187.459774 139.834752 
L 187.693275 140.646224 
L 187.926775 140.533853 
L 188.160276 140.717616 
L 188.393776 140.221044 
L 188.627276 140.800783 
L 188.860777 141.078967 
L 189.327778 140.708116 
L 189.561278 139.081654 
L 189.794779 140.912948 
L 190.028279 140.851666 
L 190.26178 140.040965 
L 190.728781 141.159454 
L 191.195782 141.052704 
L 191.429282 140.494345 
L 191.662783 140.7083 
L 192.129784 140.498473 
L 192.363284 140.700468 
L 192.596785 141.176898 
L 192.830285 139.685226 
L 193.063786 127.947048 
L 193.297286 141.095635 
L 193.764287 141.30693 
L 193.997787 140.827213 
L 194.231288 141.044642 
L 194.464788 140.949468 
L 194.698289 139.561785 
L 194.931789 141.089773 
L 195.16529 140.850787 
L 195.39879 141.630174 
L 195.865791 140.082359 
L 196.099292 140.510349 
L 196.332792 141.205989 
L 196.566293 141.336498 
L 196.799793 140.913206 
L 197.033294 138.385181 
L 197.266794 141.52771 
L 197.500295 141.309991 
L 197.733795 139.854149 
L 197.967296 141.098176 
L 198.200796 138.016828 
L 198.434297 141.119631 
L 198.667797 141.2855 
L 198.901297 140.085658 
L 199.134798 141.409399 
L 199.368298 141.192678 
L 199.601799 141.139223 
L 199.835299 141.445882 
L 200.3023 140.629566 
L 200.535801 141.132789 
L 200.769301 141.03049 
L 201.002802 141.420169 
L 201.236302 141.320594 
L 201.469803 141.520511 
L 201.703303 141.41629 
L 201.936804 140.951487 
L 202.170304 141.104936 
L 202.637305 140.691969 
L 202.870806 141.295172 
L 203.337807 141.516997 
L 203.571307 141.46533 
L 203.804807 141.588607 
L 204.038308 141.533569 
L 204.271808 141.244233 
L 204.505309 141.615706 
L 204.738809 141.305197 
L 205.439311 141.709798 
L 205.906312 141.559712 
L 206.139812 141.096908 
L 206.373313 139.580031 
L 206.606813 141.521501 
L 207.307315 141.576618 
L 207.540815 141.270657 
L 207.774316 141.528347 
L 208.007816 141.132207 
L 208.474817 141.698561 
L 208.941818 141.608407 
L 209.642319 141.545016 
L 209.87582 136.023118 
L 210.10932 141.47215 
L 210.342821 141.659872 
L 210.576321 141.553344 
L 210.809822 141.600859 
L 211.043322 141.456628 
L 211.276823 141.626834 
L 211.510323 139.996026 
L 211.743824 141.68069 
L 212.444325 141.602871 
L 212.911326 141.683193 
L 213.144827 141.600585 
L 213.378327 141.072243 
L 213.611828 141.570468 
L 214.078828 141.71742 
L 214.312329 141.608572 
L 214.545829 141.631213 
L 214.77933 141.477842 
L 215.01283 141.798518 
L 215.246331 141.685504 
L 215.479831 141.725856 
L 215.946832 141.547092 
L 216.180333 141.683238 
L 216.880834 141.468073 
L 217.114335 141.248534 
L 217.347835 141.647366 
L 217.814836 141.674573 
L 218.281837 140.704361 
L 218.515338 141.727799 
L 219.449339 141.540867 
L 219.68284 140.629424 
L 219.91634 141.620323 
L 220.616842 141.743626 
L 221.784344 141.693517 
L 222.017845 141.621738 
L 222.484846 141.686506 
L 223.418848 141.772269 
L 223.652348 141.366231 
L 223.885849 141.603707 
L 224.119349 141.660041 
L 224.352849 141.326236 
L 224.58635 141.695875 
L 225.753852 141.702785 
L 226.687854 141.739803 
L 227.154855 141.754135 
L 227.388356 141.404463 
L 227.621856 141.725662 
L 228.555858 141.731423 
L 229.256359 141.752822 
L 229.956861 141.700023 
L 230.423862 141.750985 
L 231.357864 141.743065 
L 233.225868 141.730831 
L 240.230882 141.746564 
L 252.606407 141.760318 
L 261.712926 141.761095 
L 261.712926 141.761095 
" clip-path="url(#pf80d073584)" style="fill: none; stroke: #e63946; stroke-width: 1.5; stroke-linecap: square"/>
   </g>
   <g id="patch_3">
    <path d="M 53.31375 165.905908 
L 53.31375 7.912114 
" style="fill: none; stroke: #ffffff; stroke-linejoin: miter; stroke-linecap: square"/>
   </g>
   <g id="patch_4">
    <path d="M 271.636696 165.905908 
L 271.636696 7.912114 
" style="fill: none; stroke: #ffffff; stroke-linejoin: miter; stroke-linecap: square"/>
   </g>
   <g id="patch_5">
    <path d="M 53.31375 165.905908 
L 271.636696 165.905908 
" style="fill: none; stroke: #ffffff; stroke-linejoin: miter; stroke-linecap: square"/>
   </g>
   <g id="patch_6">
    <path d="M 53.31375 7.912114 
L 271.636696 7.912114 
" style="fill: none; stroke: #ffffff; stroke-linejoin: miter; stroke-linecap: square"/>
   </g>
   <g id="legend_1">
    <g id="patch_7">
     <path d="M 160.761696 45.268364 
L 264.636696 45.268364 
Q 266.636696 45.268364 266.636696 43.268364 
L 266.636696 14.912114 
Q 266.636696 12.912114 264.636696 12.912114 
L 160.761696 12.912114 
Q 158.761696 12.912114 158.761696 14.912114 
L 158.761696 43.268364 
Q 158.761696 45.268364 160.761696 45.268364 
z
" style="fill: #e5e5e5; opacity: 0.8; stroke: #cccccc; stroke-width: 0.5; stroke-linejoin: miter"/>
    </g>
    <g id="line2d_73">
     <path d="M 162.761696 21.010552 
L 172.761696 21.010552 
L 182.761696 21.010552 
" style="fill: none; stroke: #1d3557; stroke-width: 1.5; stroke-linecap: square"/>
    </g>
    <g id="text_14">
     <!-- Training loss -->
     <g transform="translate(190.761696 24.510552) scale(0.1 -0.1)">
      <defs>
       <path id="DejaVuSans-54" d="M -19 4666 
L 3928 4666 
L 3928 4134 
L 2272 4134 
L 2272 0 
L 1638 0 
L 1638 4134 
L -19 4134 
L -19 4666 
z
" transform="scale(0.015625)"/>
       <path id="DejaVuSans-72" d="M 2631 2963 
Q 2534 3019 2420 3045 
Q 2306 3072 2169 3072 
Q 1681 3072 1420 2755 
Q 1159 2438 1159 1844 
L 1159 0 
L 581 0 
L 581 3500 
L 1159 3500 
L 1159 2956 
Q 1341 3275 1631 3429 
Q 1922 3584 2338 3584 
Q 2397 3584 2469 3576 
Q 2541 3569 2628 3553 
L 2631 2963 
z
" transform="scale(0.015625)"/>
       <path id="DejaVuSans-61" d="M 2194 1759 
Q 1497 1759 1228 1600 
Q 959 1441 959 1056 
Q 959 750 1161 570 
Q 1363 391 1709 391 
Q 2188 391 2477 730 
Q 2766 1069 2766 1631 
L 2766 1759 
L 2194 1759 
z
M 3341 1997 
L 3341 0 
L 2766 0 
L 2766 531 
Q 2569 213 2275 61 
Q 1981 -91 1556 -91 
Q 1019 -91 701 211 
Q 384 513 384 1019 
Q 384 1609 779 1909 
Q 1175 2209 1959 2209 
L 2766 2209 
L 2766 2266 
Q 2766 2663 2505 2880 
Q 2244 3097 1772 3097 
Q 1472 3097 1187 3025 
Q 903 2953 641 2809 
L 641 3341 
Q 956 3463 1253 3523 
Q 1550 3584 1831 3584 
Q 2591 3584 2966 3190 
Q 3341 2797 3341 1997 
z
" transform="scale(0.015625)"/>
       <path id="DejaVuSans-69" d="M 603 3500 
L 1178 3500 
L 1178 0 
L 603 0 
L 603 3500 
z
M 603 4863 
L 1178 4863 
L 1178 4134 
L 603 4134 
L 603 4863 
z
" transform="scale(0.015625)"/>
       <path id="DejaVuSans-6e" d="M 3513 2113 
L 3513 0 
L 2938 0 
L 2938 2094 
Q 2938 2591 2744 2837 
Q 2550 3084 2163 3084 
Q 1697 3084 1428 2787 
Q 1159 2491 1159 1978 
L 1159 0 
L 581 0 
L 581 3500 
L 1159 3500 
L 1159 2956 
Q 1366 3272 1645 3428 
Q 1925 3584 2291 3584 
Q 2894 3584 3203 3211 
Q 3513 2838 3513 2113 
z
" transform="scale(0.015625)"/>
       <path id="DejaVuSans-67" d="M 2906 1791 
Q 2906 2416 2648 2759 
Q 2391 3103 1925 3103 
Q 1463 3103 1205 2759 
Q 947 2416 947 1791 
Q 947 1169 1205 825 
Q 1463 481 1925 481 
Q 2391 481 2648 825 
Q 2906 1169 2906 1791 
z
M 3481 434 
Q 3481 -459 3084 -895 
Q 2688 -1331 1869 -1331 
Q 1566 -1331 1297 -1286 
Q 1028 -1241 775 -1147 
L 775 -588 
Q 1028 -725 1275 -790 
Q 1522 -856 1778 -856 
Q 2344 -856 2625 -561 
Q 2906 -266 2906 331 
L 2906 616 
Q 2728 306 2450 153 
Q 2172 0 1784 0 
Q 1141 0 747 490 
Q 353 981 353 1791 
Q 353 2603 747 3093 
Q 1141 3584 1784 3584 
Q 2172 3584 2450 3431 
Q 2728 3278 2906 2969 
L 2906 3500 
L 3481 3500 
L 3481 434 
z
" transform="scale(0.015625)"/>
       <path id="DejaVuSans-20" transform="scale(0.015625)"/>
       <path id="DejaVuSans-6c" d="M 603 4863 
L 1178 4863 
L 1178 0 
L 603 0 
L 603 4863 
z
" transform="scale(0.015625)"/>
      </defs>
      <use xlink:href="#DejaVuSans-54"/>
      <use xlink:href="#DejaVuSans-72" transform="translate(46.333984 0)"/>
      <use xlink:href="#DejaVuSans-61" transform="translate(87.447266 0)"/>
      <use xlink:href="#DejaVuSans-69" transform="translate(148.726562 0)"/>
      <use xlink:href="#DejaVuSans-6e" transform="translate(176.509766 0)"/>
      <use xlink:href="#DejaVuSans-69" transform="translate(239.888672 0)"/>
      <use xlink:href="#DejaVuSans-6e" transform="translate(267.671875 0)"/>
      <use xlink:href="#DejaVuSans-67" transform="translate(331.050781 0)"/>
      <use xlink:href="#DejaVuSans-20" transform="translate(394.527344 0)"/>
      <use xlink:href="#DejaVuSans-6c" transform="translate(426.314453 0)"/>
      <use xlink:href="#DejaVuSans-6f" transform="translate(454.097656 0)"/>
      <use xlink:href="#DejaVuSans-73" transform="translate(515.279297 0)"/>
      <use xlink:href="#DejaVuSans-73" transform="translate(567.378906 0)"/>
     </g>
    </g>
    <g id="line2d_74">
     <path d="M 162.761696 35.688677 
L 172.761696 35.688677 
L 182.761696 35.688677 
" style="fill: none; stroke: #e63946; stroke-width: 1.5; stroke-linecap: square"/>
    </g>
    <g id="text_15">
     <!-- Validation loss -->
     <g transform="translate(190.761696 39.188677) scale(0.1 -0.1)">
      <defs>
       <path id="DejaVuSans-56" d="M 1831 0 
L 50 4666 
L 709 4666 
L 2188 738 
L 3669 4666 
L 4325 4666 
L 2547 0 
L 1831 0 
z
" transform="scale(0.015625)"/>
       <path id="DejaVuSans-64" d="M 2906 2969 
L 2906 4863 
L 3481 4863 
L 3481 0 
L 2906 0 
L 2906 525 
Q 2725 213 2448 61 
Q 2172 -91 1784 -91 
Q 1150 -91 751 415 
Q 353 922 353 1747 
Q 353 2572 751 3078 
Q 1150 3584 1784 3584 
Q 2172 3584 2448 3432 
Q 2725 3281 2906 2969 
z
M 947 1747 
Q 947 1113 1208 752 
Q 1469 391 1925 391 
Q 2381 391 2643 752 
Q 2906 1113 2906 1747 
Q 2906 2381 2643 2742 
Q 2381 3103 1925 3103 
Q 1469 3103 1208 2742 
Q 947 2381 947 1747 
z
" transform="scale(0.015625)"/>
       <path id="DejaVuSans-74" d="M 1172 4494 
L 1172 3500 
L 2356 3500 
L 2356 3053 
L 1172 3053 
L 1172 1153 
Q 1172 725 1289 603 
Q 1406 481 1766 481 
L 2356 481 
L 2356 0 
L 1766 0 
Q 1100 0 847 248 
Q 594 497 594 1153 
L 594 3053 
L 172 3053 
L 172 3500 
L 594 3500 
L 594 4494 
L 1172 4494 
z
" transform="scale(0.015625)"/>
      </defs>
      <use xlink:href="#DejaVuSans-56"/>
      <use xlink:href="#DejaVuSans-61" transform="translate(60.658203 0)"/>
      <use xlink:href="#DejaVuSans-6c" transform="translate(121.9375 0)"/>
      <use xlink:href="#DejaVuSans-69" transform="translate(149.720703 0)"/>
      <use xlink:href="#DejaVuSans-64" transform="translate(177.503906 0)"/>
      <use xlink:href="#DejaVuSans-61" transform="translate(240.980469 0)"/>
      <use xlink:href="#DejaVuSans-74" transform="translate(302.259766 0)"/>
      <use xlink:href="#DejaVuSans-69" transform="translate(341.46875 0)"/>
      <use xlink:href="#DejaVuSans-6f" transform="translate(369.251953 0)"/>
      <use xlink:href="#DejaVuSans-6e" transform="translate(430.433594 0)"/>
      <use xlink:href="#DejaVuSans-20" transform="translate(493.8125 0)"/>
      <use xlink:href="#DejaVuSans-6c" transform="translate(525.599609 0)"/>
      <use xlink:href="#DejaVuSans-6f" transform="translate(553.382812 0)"/>
      <use xlink:href="#DejaVuSans-73" transform="translate(614.564453 0)"/>
      <use xlink:href="#DejaVuSans-73" transform="translate(666.664062 0)"/>
     </g>
    </g>
   </g>
  </g>
 </g>
 <defs>
  <clipPath id="pf80d073584">
   <rect x="53.31375" y="7.912114" width="218.322946" height="157.993794"/>
  </clipPath>
 </defs>
</svg>
