<?xml version="1.0" encoding="utf-8" standalone="no"?>
<!DOCTYPE svg PUBLIC "-//W3C//DTD SVG 1.1//EN"
  "http://www.w3.org/Graphics/SVG/1.1/DTD/svg11.dtd">
<svg xmlns:xlink="http://www.w3.org/1999/xlink" width="280.070418pt" height="207.99625pt" viewBox="0 0 280.070418 207.99625" xmlns="http://www.w3.org/2000/svg" version="1.1">
 <metadata>
  <rdf:RDF xmlns:dc="http://purl.org/dc/elements/1.1/" xmlns:cc="http://creativecommons.org/ns#" xmlns:rdf="http://www.w3.org/1999/02/22-rdf-syntax-ns#">
   <cc:Work>
    <dc:type rdf:resource="http://purl.org/dc/dcmitype/StillImage"/>
    <dc:date>2026-03-08T23:23:48.977078</dc:date>
    <dc:format>image/svg+xml</dc:format>
    <dc:creator>
     <cc:Agent>
      <dc:title>Matplotlib v3.10.5, https://matplotlib.org/</dc:title>
     </cc:Agent>
    </dc:creator>
   </cc:Work>
  </rdf:RDF>
 </metadata>
 <defs>
  <style type="text/css">*{stroke-linejoin: round; stroke-linecap: butt}</style>
 </defs>
 <g id="figure_1">
  <g id="patch_1">
   <path d="M 0 207.99625 
L 280.070418 207.99625 
L 280.070418 0 
L 0 0 
z
" style="fill: #ffffff"/>
  </g>
  <g id="axes_1">
   <g id="patch_2">
    <path d="M 51.378125 170.44 
L 269.878413 170.44 
L 269.878413 7.2 
L 51.378125 7.2 
z
" style="fill: #ffffff"/>
   </g>
   <g id="matplotlib.axis_1">
    <g id="xtick_1">
     <g id="line2d_1">
      <path d="M 61.309956 170.44 
L 61.309956 7.2 
" clip-path="url(#p0de04547b4)" style="fill: none; stroke: #b0b0b0; stroke-width: 0.8; stroke-linecap: square"/>
     </g>
     <g id="line2d_2">
      <defs>
       <path id="m0add3c37fa" d="M 0 0 
L 0 3.5 
" style="stroke: #000000; stroke-width: 0.8"/>
      </defs>
      <g>
       <use xlink:href="#m0add3c37fa" x="61.309956" y="170.44" style="stroke: #000000; stroke-width: 0.8"/>
      </g>
     </g>
     <g id="text_1">
      <!-- 0 -->
      <g transform="translate(58.128706 185.038438) scale(0.1 -0.1)">
       <defs>
        <path id="DejaVuSans-30" d="M 2034 4250 
Q 1547 4250 1301 3770 
Q 1056 3291 1056 2328 
Q 1056 1369 1301 889 
Q 1547 409 2034 409 
Q 2525 409 2770 889 
Q 3016 1369 3016 2328 
Q 3016 3291 2770 3770 
Q 2525 4250 2034 4250 
z
M 2034 4750 
Q 2819 4750 3233 4129 
Q 3647 3509 3647 2328 
Q 3647 1150 3233 529 
Q 2819 -91 2034 -91 
Q 1250 -91 836 529 
Q 422 1150 422 2328 
Q 422 3509 836 4129 
Q 1250 4750 2034 4750 
z
" transform="scale(0.015625)"/>
       </defs>
       <use xlink:href="#DejaVuSans-30"/>
      </g>
     </g>
    </g>
    <g id="xtick_2">
     <g id="line2d_3">
      <path d="M 101.077049 170.44 
L 101.077049 7.2 
" clip-path="url(#p0de04547b4)" style="fill: none; stroke: #b0b0b0; stroke-width: 0.8; stroke-linecap: square"/>
     </g>
     <g id="line2d_4">
      <g>
       <use xlink:href="#m0add3c37fa" x="101.077049" y="170.44" style="stroke: #000000; stroke-width: 0.8"/>
      </g>
     </g>
     <g id="text_2">
      <!-- 200 -->
      <g transform="translate(91.533299 185.038438) scale(0.1 -0.1)">
       <defs>
        <path id="DejaVuSans-32" d="M 1228 531 
L 3431 531 
L 3431 0 
L 469 0 
L 469 531 
Q 828 903 1448 1529 
Q 2069 2156 2228 2338 
Q 2531 2678 2651 2914 
Q 2772 3150 2772 3378 
Q 2772 3750 2511 3984 
Q 2250 4219 1831 4219 
Q 1534 4219 1204 4116 
Q 875 4013 500 3803 
L 500 4441 
Q 881 4594 1212 4672 
Q 1544 4750 1819 4750 
Q 2544 4750 2975 4387 
Q 3406 4025 3406 3419 
Q 3406 3131 3298 2873 
Q 3191 2616 2906 2266 
Q 2828 2175 2409 1742 
Q 1991 1309 1228 531 
z
" transform="scale(0.015625)"/>
       </defs>
       <use xlink:href="#DejaVuSans-32"/>
       <use xlink:href="#DejaVuSans-30" transform="translate(63.623047 0)"/>
       <use xlink:href="#DejaVuSans-30" transform="translate(127.246094 0)"/>
      </g>
     </g>
    </g>
    <g id="xtick_3">
     <g id="line2d_5">
      <path d="M 140.844141 170.44 
L 140.844141 7.2 
" clip-path="url(#p0de04547b4)" style="fill: none; stroke: #b0b0b0; stroke-width: 0.8; stroke-linecap: square"/>
     </g>
     <g id="line2d_6">
      <g>
       <use xlink:href="#m0add3c37fa" x="140.844141" y="170.44" style="stroke: #000000; stroke-width: 0.8"/>
      </g>
     </g>
     <g id="text_3">
      <!-- 400 -->
      <g transform="translate(131.300391 185.038438) scale(0.1 -0.1)">
       <defs>
        <path id="DejaVuSans-34" d="M 2419 4116 
L 825 1625 
L 2419 1625 
L 2419 4116 
z
M 2253 4666 
L 3047 4666 
L 3047 1625 
L 3713 1625 
L 3713 1100 
L 3047 1100 
L 3047 0 
L 2419 0 
L 2419 1100 
L 313 1100 
L 313 1709 
L 2253 4666 
z
" transform="scale(0.015625)"/>
       </defs>
       <use xlink:href="#DejaVuSans-34"/>
       <use xlink:href="#DejaVuSans-30" transform="translate(63.623047 0)"/>
       <use xlink:href="#DejaVuSans-30" transform="translate(127.246094 0)"/>
      </g>
     </g>
    </g>
    <g id="xtick_4">
     <g id="line2d_7">
      <path d="M 180.611233 170.44 
L 180.611233 7.2 
" clip-path="url(#p0de04547b4)" style="fill: none; stroke: #b0b0b0; stroke-width: 0.8; stroke-linecap: square"/>
     </g>
     <g id="line2d_8">
      <g>
       <use xlink:href="#m0add3c37fa" x="180.611233" y="170.44" style="stroke: #000000; stroke-width: 0.8"/>
      </g>
     </g>
     <g id="text_4">
      <!-- 600 -->
      <g transform="translate(171.067483 185.038438) scale(0.1 -0.1)">
       <defs>
        <path id="DejaVuSans-36" d="M 2113 2584 
Q 1688 2584 1439 2293 
Q 1191 2003 1191 1497 
Q 1191 994 1439 701 
Q 1688 409 2113 409 
Q 2538 409 2786 701 
Q 3034 994 3034 1497 
Q 3034 2003 2786 2293 
Q 2538 2584 2113 2584 
z
M 3366 4563 
L 3366 3988 
Q 3128 4100 2886 4159 
Q 2644 4219 2406 4219 
Q 1781 4219 1451 3797 
Q 1122 3375 1075 2522 
Q 1259 2794 1537 2939 
Q 1816 3084 2150 3084 
Q 2853 3084 3261 2657 
Q 3669 2231 3669 1497 
Q 3669 778 3244 343 
Q 2819 -91 2113 -91 
Q 1303 -91 875 529 
Q 447 1150 447 2328 
Q 447 3434 972 4092 
Q 1497 4750 2381 4750 
Q 2619 4750 2861 4703 
Q 3103 4656 3366 4563 
z
" transform="scale(0.015625)"/>
       </defs>
       <use xlink:href="#DejaVuSans-36"/>
       <use xlink:href="#DejaVuSans-30" transform="translate(63.623047 0)"/>
       <use xlink:href="#DejaVuSans-30" transform="translate(127.246094 0)"/>
      </g>
     </g>
    </g>
    <g id="xtick_5">
     <g id="line2d_9">
      <path d="M 220.378325 170.44 
L 220.378325 7.2 
" clip-path="url(#p0de04547b4)" style="fill: none; stroke: #b0b0b0; stroke-width: 0.8; stroke-linecap: square"/>
     </g>
     <g id="line2d_10">
      <g>
       <use xlink:href="#m0add3c37fa" x="220.378325" y="170.44" style="stroke: #000000; stroke-width: 0.8"/>
      </g>
     </g>
     <g id="text_5">
      <!-- 800 -->
      <g transform="translate(210.834575 185.038438) scale(0.1 -0.1)">
       <defs>
        <path id="DejaVuSans-38" d="M 2034 2216 
Q 1584 2216 1326 1975 
Q 1069 1734 1069 1313 
Q 1069 891 1326 650 
Q 1584 409 2034 409 
Q 2484 409 2743 651 
Q 3003 894 3003 1313 
Q 3003 1734 2745 1975 
Q 2488 2216 2034 2216 
z
M 1403 2484 
Q 997 2584 770 2862 
Q 544 3141 544 3541 
Q 544 4100 942 4425 
Q 1341 4750 2034 4750 
Q 2731 4750 3128 4425 
Q 3525 4100 3525 3541 
Q 3525 3141 3298 2862 
Q 3072 2584 2669 2484 
Q 3125 2378 3379 2068 
Q 3634 1759 3634 1313 
Q 3634 634 3220 271 
Q 2806 -91 2034 -91 
Q 1263 -91 848 271 
Q 434 634 434 1313 
Q 434 1759 690 2068 
Q 947 2378 1403 2484 
z
M 1172 3481 
Q 1172 3119 1398 2916 
Q 1625 2713 2034 2713 
Q 2441 2713 2670 2916 
Q 2900 3119 2900 3481 
Q 2900 3844 2670 4047 
Q 2441 4250 2034 4250 
Q 1625 4250 1398 4047 
Q 1172 3844 1172 3481 
z
" transform="scale(0.015625)"/>
       </defs>
       <use xlink:href="#DejaVuSans-38"/>
       <use xlink:href="#DejaVuSans-30" transform="translate(63.623047 0)"/>
       <use xlink:href="#DejaVuSans-30" transform="translate(127.246094 0)"/>
      </g>
     </g>
    </g>
    <g id="xtick_6">
     <g id="line2d_11">
      <path d="M 260.145418 170.44 
L 260.145418 7.2 
" clip-path="url(#p0de04547b4)" style="fill: none; stroke: #b0b0b0; stroke-width: 0.8; stroke-linecap: square"/>
     </g>
     <g id="line2d_12">
      <g>
       <use xlink:href="#m0add3c37fa" x="260.145418" y="170.44" style="stroke: #000000; stroke-width: 0.8"/>
      </g>
     </g>
     <g id="text_6">
      <!-- 1000 -->
      <g transform="translate(247.420418 185.038438) scale(0.1 -0.1)">
       <defs>
        <path id="DejaVuSans-31" d="M 794 531 
L 1825 531 
L 1825 4091 
L 703 3866 
L 703 4441 
L 1819 4666 
L 2450 4666 
L 2450 531 
L 3481 531 
L 3481 0 
L 794 0 
L 794 531 
z
" transform="scale(0.015625)"/>
       </defs>
       <use xlink:href="#DejaVuSans-31"/>
       <use xlink:href="#DejaVuSans-30" transform="translate(63.623047 0)"/>
       <use xlink:href="#DejaVuSans-30" transform="translate(127.246094 0)"/>
       <use xlink:href="#DejaVuSans-30" transform="translate(190.869141 0)"/>
      </g>
     </g>
    </g>
    <g id="text_7">
     <!-- Epoch -->
     <g transform="translate(145.317332 198.716563) scale(0.1 -0.1)">
      <defs>
       <path id="DejaVuSans-45" d="M 628 4666 
L 3578 4666 
L 3578 4134 
L 1259 4134 
L 1259 2753 
L 3481 2753 
L 3481 2222 
L 1259 2222 
L 1259 531 
L 3634 531 
L 3634 0 
L 628 0 
L 628 4666 
z
" transform="scale(0.015625)"/>
       <path id="DejaVuSans-70" d="M 1159 525 
L 1159 -1331 
L 581 -1331 
L 581 3500 
L 1159 3500 
L 1159 2969 
Q 1341 3281 1617 3432 
Q 1894 3584 2278 3584 
Q 2916 3584 3314 3078 
Q 3713 2572 3713 1747 
Q 3713 922 3314 415 
Q 2916 -91 2278 -91 
Q 1894 -91 1617 61 
Q 1341 213 1159 525 
z
M 3116 1747 
Q 3116 2381 2855 2742 
Q 2594 3103 2138 3103 
Q 1681 3103 1420 2742 
Q 1159 2381 1159 1747 
Q 1159 1113 1420 752 
Q 1681 391 2138 391 
Q 2594 391 2855 752 
Q 3116 1113 3116 1747 
z
" transform="scale(0.015625)"/>
       <path id="DejaVuSans-6f" d="M 1959 3097 
Q 1497 3097 1228 2736 
Q 959 2375 959 1747 
Q 959 1119 1226 758 
Q 1494 397 1959 397 
Q 2419 397 2687 759 
Q 2956 1122 2956 1747 
Q 2956 2369 2687 2733 
Q 2419 3097 1959 3097 
z
M 1959 3584 
Q 2709 3584 3137 3096 
Q 3566 2609 3566 1747 
Q 3566 888 3137 398 
Q 2709 -91 1959 -91 
Q 1206 -91 779 398 
Q 353 888 353 1747 
Q 353 2609 779 3096 
Q 1206 3584 1959 3584 
z
" transform="scale(0.015625)"/>
       <path id="DejaVuSans-63" d="M 3122 3366 
L 3122 2828 
Q 2878 2963 2633 3030 
Q 2388 3097 2138 3097 
Q 1578 3097 1268 2742 
Q 959 2388 959 1747 
Q 959 1106 1268 751 
Q 1578 397 2138 397 
Q 2388 397 2633 464 
Q 2878 531 3122 666 
L 3122 134 
Q 2881 22 2623 -34 
Q 2366 -91 2075 -91 
Q 1284 -91 818 406 
Q 353 903 353 1747 
Q 353 2603 823 3093 
Q 1294 3584 2113 3584 
Q 2378 3584 2631 3529 
Q 2884 3475 3122 3366 
z
" transform="scale(0.015625)"/>
       <path id="DejaVuSans-68" d="M 3513 2113 
L 3513 0 
L 2938 0 
L 2938 2094 
Q 2938 2591 2744 2837 
Q 2550 3084 2163 3084 
Q 1697 3084 1428 2787 
Q 1159 2491 1159 1978 
L 1159 0 
L 581 0 
L 581 4863 
L 1159 4863 
L 1159 2956 
Q 1366 3272 1645 3428 
Q 1925 3584 2291 3584 
Q 2894 3584 3203 3211 
Q 3513 2838 3513 2113 
z
" transform="scale(0.015625)"/>
      </defs>
      <use xlink:href="#DejaVuSans-45"/>
      <use xlink:href="#DejaVuSans-70" transform="translate(63.183594 0)"/>
      <use xlink:href="#DejaVuSans-6f" transform="translate(126.660156 0)"/>
      <use xlink:href="#DejaVuSans-63" transform="translate(187.841797 0)"/>
      <use xlink:href="#DejaVuSans-68" transform="translate(242.822266 0)"/>
     </g>
    </g>
   </g>
   <g id="matplotlib.axis_2">
    <g id="ytick_1">
     <g id="line2d_13">
      <path d="M 51.378125 141.192651 
L 269.878413 141.192651 
" clip-path="url(#p0de04547b4)" style="fill: none; stroke: #b0b0b0; stroke-width: 0.8; stroke-linecap: square"/>
     </g>
     <g id="line2d_14">
      <defs>
       <path id="m4c895254ad" d="M 0 0 
L -3.5 0 
" style="stroke: #000000; stroke-width: 0.8"/>
      </defs>
      <g>
       <use xlink:href="#m4c895254ad" x="51.378125" y="141.192651" style="stroke: #000000; stroke-width: 0.8"/>
      </g>
     </g>
     <g id="text_8">
      <!-- $\mathdefault{10^{-5}}$ -->
      <g transform="translate(20.878125 144.99187) scale(0.1 -0.1)">
       <defs>
        <path id="DejaVuSans-2212" d="M 678 2272 
L 4684 2272 
L 4684 1741 
L 678 1741 
L 678 2272 
z
" transform="scale(0.015625)"/>
        <path id="DejaVuSans-35" d="M 691 4666 
L 3169 4666 
L 3169 4134 
L 1269 4134 
L 1269 2991 
Q 1406 3038 1543 3061 
Q 1681 3084 1819 3084 
Q 2600 3084 3056 2656 
Q 3513 2228 3513 1497 
Q 3513 744 3044 326 
Q 2575 -91 1722 -91 
Q 1428 -91 1123 -41 
Q 819 9 494 109 
L 494 744 
Q 775 591 1075 516 
Q 1375 441 1709 441 
Q 2250 441 2565 725 
Q 2881 1009 2881 1497 
Q 2881 1984 2565 2268 
Q 2250 2553 1709 2553 
Q 1456 2553 1204 2497 
Q 953 2441 691 2322 
L 691 4666 
z
" transform="scale(0.015625)"/>
       </defs>
       <use xlink:href="#DejaVuSans-31" transform="translate(0 0.684375)"/>
       <use xlink:href="#DejaVuSans-30" transform="translate(63.623047 0.684375)"/>
       <use xlink:href="#DejaVuSans-2212" transform="translate(128.203125 38.965625) scale(0.7)"/>
       <use xlink:href="#DejaVuSans-35" transform="translate(186.855469 38.965625) scale(0.7)"/>
      </g>
     </g>
    </g>
    <g id="ytick_2">
     <g id="line2d_15">
      <path d="M 51.378125 105.26289 
L 269.878413 105.26289 
" clip-path="url(#p0de04547b4)" style="fill: none; stroke: #b0b0b0; stroke-width: 0.8; stroke-linecap: square"/>
     </g>
     <g id="line2d_16">
      <g>
       <use xlink:href="#m4c895254ad" x="51.378125" y="105.26289" style="stroke: #000000; stroke-width: 0.8"/>
      </g>
     </g>
     <g id="text_9">
      <!-- $\mathdefault{10^{-4}}$ -->
      <g transform="translate(20.878125 109.062108) scale(0.1 -0.1)">
       <use xlink:href="#DejaVuSans-31" transform="translate(0 0.684375)"/>
       <use xlink:href="#DejaVuSans-30" transform="translate(63.623047 0.684375)"/>
       <use xlink:href="#DejaVuSans-2212" transform="translate(128.203125 38.965625) scale(0.7)"/>
       <use xlink:href="#DejaVuSans-34" transform="translate(186.855469 38.965625) scale(0.7)"/>
      </g>
     </g>
    </g>
    <g id="ytick_3">
     <g id="line2d_17">
      <path d="M 51.378125 69.333129 
L 269.878413 69.333129 
" clip-path="url(#p0de04547b4)" style="fill: none; stroke: #b0b0b0; stroke-width: 0.8; stroke-linecap: square"/>
     </g>
     <g id="line2d_18">
      <g>
       <use xlink:href="#m4c895254ad" x="51.378125" y="69.333129" style="stroke: #000000; stroke-width: 0.8"/>
      </g>
     </g>
     <g id="text_10">
      <!-- $\mathdefault{10^{-3}}$ -->
      <g transform="translate(20.878125 73.132347) scale(0.1 -0.1)">
       <defs>
        <path id="DejaVuSans-33" d="M 2597 2516 
Q 3050 2419 3304 2112 
Q 3559 1806 3559 1356 
Q 3559 666 3084 287 
Q 2609 -91 1734 -91 
Q 1441 -91 1130 -33 
Q 819 25 488 141 
L 488 750 
Q 750 597 1062 519 
Q 1375 441 1716 441 
Q 2309 441 2620 675 
Q 2931 909 2931 1356 
Q 2931 1769 2642 2001 
Q 2353 2234 1838 2234 
L 1294 2234 
L 1294 2753 
L 1863 2753 
Q 2328 2753 2575 2939 
Q 2822 3125 2822 3475 
Q 2822 3834 2567 4026 
Q 2313 4219 1838 4219 
Q 1578 4219 1281 4162 
Q 984 4106 628 3988 
L 628 4550 
Q 988 4650 1302 4700 
Q 1616 4750 1894 4750 
Q 2613 4750 3031 4423 
Q 3450 4097 3450 3541 
Q 3450 3153 3228 2886 
Q 3006 2619 2597 2516 
z
" transform="scale(0.015625)"/>
       </defs>
       <use xlink:href="#DejaVuSans-31" transform="translate(0 0.765625)"/>
       <use xlink:href="#DejaVuSans-30" transform="translate(63.623047 0.765625)"/>
       <use xlink:href="#DejaVuSans-2212" transform="translate(128.203125 39.046875) scale(0.7)"/>
       <use xlink:href="#DejaVuSans-33" transform="translate(186.855469 39.046875) scale(0.7)"/>
      </g>
     </g>
    </g>
    <g id="ytick_4">
     <g id="line2d_19">
      <path d="M 51.378125 33.403367 
L 269.878413 33.403367 
" clip-path="url(#p0de04547b4)" style="fill: none; stroke: #b0b0b0; stroke-width: 0.8; stroke-linecap: square"/>
     </g>
     <g id="line2d_20">
      <g>
       <use xlink:href="#m4c895254ad" x="51.378125" y="33.403367" style="stroke: #000000; stroke-width: 0.8"/>
      </g>
     </g>
     <g id="text_11">
      <!-- $\mathdefault{10^{-2}}$ -->
      <g transform="translate(20.878125 37.202586) scale(0.1 -0.1)">
       <use xlink:href="#DejaVuSans-31" transform="translate(0 0.765625)"/>
       <use xlink:href="#DejaVuSans-30" transform="translate(63.623047 0.765625)"/>
       <use xlink:href="#DejaVuSans-2212" transform="translate(128.203125 39.046875) scale(0.7)"/>
       <use xlink:href="#DejaVuSans-32" transform="translate(186.855469 39.046875) scale(0.7)"/>
      </g>
     </g>
    </g>
    <g id="ytick_5">
     <g id="line2d_21">
      <defs>
       <path id="m260f391cb1" d="M 0 0 
L -2 0 
" style="stroke: #000000; stroke-width: 0.6"/>
      </defs>
      <g>
       <use xlink:href="#m260f391cb1" x="51.378125" y="166.306476" style="stroke: #000000; stroke-width: 0.6"/>
      </g>
     </g>
    </g>
    <g id="ytick_6">
     <g id="line2d_22">
      <g>
       <use xlink:href="#m260f391cb1" x="51.378125" y="159.979559" style="stroke: #000000; stroke-width: 0.6"/>
      </g>
     </g>
    </g>
    <g id="ytick_7">
     <g id="line2d_23">
      <g>
       <use xlink:href="#m260f391cb1" x="51.378125" y="155.49054" style="stroke: #000000; stroke-width: 0.6"/>
      </g>
     </g>
    </g>
    <g id="ytick_8">
     <g id="line2d_24">
      <g>
       <use xlink:href="#m260f391cb1" x="51.378125" y="152.008587" style="stroke: #000000; stroke-width: 0.6"/>
      </g>
     </g>
    </g>
    <g id="ytick_9">
     <g id="line2d_25">
      <g>
       <use xlink:href="#m260f391cb1" x="51.378125" y="149.163623" style="stroke: #000000; stroke-width: 0.6"/>
      </g>
     </g>
    </g>
    <g id="ytick_10">
     <g id="line2d_26">
      <g>
       <use xlink:href="#m260f391cb1" x="51.378125" y="146.758241" style="stroke: #000000; stroke-width: 0.6"/>
      </g>
     </g>
    </g>
    <g id="ytick_11">
     <g id="line2d_27">
      <g>
       <use xlink:href="#m260f391cb1" x="51.378125" y="144.674604" style="stroke: #000000; stroke-width: 0.6"/>
      </g>
     </g>
    </g>
    <g id="ytick_12">
     <g id="line2d_28">
      <g>
       <use xlink:href="#m260f391cb1" x="51.378125" y="142.836706" style="stroke: #000000; stroke-width: 0.6"/>
      </g>
     </g>
    </g>
    <g id="ytick_13">
     <g id="line2d_29">
      <g>
       <use xlink:href="#m260f391cb1" x="51.378125" y="130.376715" style="stroke: #000000; stroke-width: 0.6"/>
      </g>
     </g>
    </g>
    <g id="ytick_14">
     <g id="line2d_30">
      <g>
       <use xlink:href="#m260f391cb1" x="51.378125" y="124.049798" style="stroke: #000000; stroke-width: 0.6"/>
      </g>
     </g>
    </g>
    <g id="ytick_15">
     <g id="line2d_31">
      <g>
       <use xlink:href="#m260f391cb1" x="51.378125" y="119.560779" style="stroke: #000000; stroke-width: 0.6"/>
      </g>
     </g>
    </g>
    <g id="ytick_16">
     <g id="line2d_32">
      <g>
       <use xlink:href="#m260f391cb1" x="51.378125" y="116.078825" style="stroke: #000000; stroke-width: 0.6"/>
      </g>
     </g>
    </g>
    <g id="ytick_17">
     <g id="line2d_33">
      <g>
       <use xlink:href="#m260f391cb1" x="51.378125" y="113.233862" style="stroke: #000000; stroke-width: 0.6"/>
      </g>
     </g>
    </g>
    <g id="ytick_18">
     <g id="line2d_34">
      <g>
       <use xlink:href="#m260f391cb1" x="51.378125" y="110.82848" style="stroke: #000000; stroke-width: 0.6"/>
      </g>
     </g>
    </g>
    <g id="ytick_19">
     <g id="line2d_35">
      <g>
       <use xlink:href="#m260f391cb1" x="51.378125" y="108.744843" style="stroke: #000000; stroke-width: 0.6"/>
      </g>
     </g>
    </g>
    <g id="ytick_20">
     <g id="line2d_36">
      <g>
       <use xlink:href="#m260f391cb1" x="51.378125" y="106.906945" style="stroke: #000000; stroke-width: 0.6"/>
      </g>
     </g>
    </g>
    <g id="ytick_21">
     <g id="line2d_37">
      <g>
       <use xlink:href="#m260f391cb1" x="51.378125" y="94.446954" style="stroke: #000000; stroke-width: 0.6"/>
      </g>
     </g>
    </g>
    <g id="ytick_22">
     <g id="line2d_38">
      <g>
       <use xlink:href="#m260f391cb1" x="51.378125" y="88.120037" style="stroke: #000000; stroke-width: 0.6"/>
      </g>
     </g>
    </g>
    <g id="ytick_23">
     <g id="line2d_39">
      <g>
       <use xlink:href="#m260f391cb1" x="51.378125" y="83.631018" style="stroke: #000000; stroke-width: 0.6"/>
      </g>
     </g>
    </g>
    <g id="ytick_24">
     <g id="line2d_40">
      <g>
       <use xlink:href="#m260f391cb1" x="51.378125" y="80.149064" style="stroke: #000000; stroke-width: 0.6"/>
      </g>
     </g>
    </g>
    <g id="ytick_25">
     <g id="line2d_41">
      <g>
       <use xlink:href="#m260f391cb1" x="51.378125" y="77.304101" style="stroke: #000000; stroke-width: 0.6"/>
      </g>
     </g>
    </g>
    <g id="ytick_26">
     <g id="line2d_42">
      <g>
       <use xlink:href="#m260f391cb1" x="51.378125" y="74.898719" style="stroke: #000000; stroke-width: 0.6"/>
      </g>
     </g>
    </g>
    <g id="ytick_27">
     <g id="line2d_43">
      <g>
       <use xlink:href="#m260f391cb1" x="51.378125" y="72.815082" style="stroke: #000000; stroke-width: 0.6"/>
      </g>
     </g>
    </g>
    <g id="ytick_28">
     <g id="line2d_44">
      <g>
       <use xlink:href="#m260f391cb1" x="51.378125" y="70.977184" style="stroke: #000000; stroke-width: 0.6"/>
      </g>
     </g>
    </g>
    <g id="ytick_29">
     <g id="line2d_45">
      <g>
       <use xlink:href="#m260f391cb1" x="51.378125" y="58.517193" style="stroke: #000000; stroke-width: 0.6"/>
      </g>
     </g>
    </g>
    <g id="ytick_30">
     <g id="line2d_46">
      <g>
       <use xlink:href="#m260f391cb1" x="51.378125" y="52.190276" style="stroke: #000000; stroke-width: 0.6"/>
      </g>
     </g>
    </g>
    <g id="ytick_31">
     <g id="line2d_47">
      <g>
       <use xlink:href="#m260f391cb1" x="51.378125" y="47.701257" style="stroke: #000000; stroke-width: 0.6"/>
      </g>
     </g>
    </g>
    <g id="ytick_32">
     <g id="line2d_48">
      <g>
       <use xlink:href="#m260f391cb1" x="51.378125" y="44.219303" style="stroke: #000000; stroke-width: 0.6"/>
      </g>
     </g>
    </g>
    <g id="ytick_33">
     <g id="line2d_49">
      <g>
       <use xlink:href="#m260f391cb1" x="51.378125" y="41.37434" style="stroke: #000000; stroke-width: 0.6"/>
      </g>
     </g>
    </g>
    <g id="ytick_34">
     <g id="line2d_50">
      <g>
       <use xlink:href="#m260f391cb1" x="51.378125" y="38.968958" style="stroke: #000000; stroke-width: 0.6"/>
      </g>
     </g>
    </g>
    <g id="ytick_35">
     <g id="line2d_51">
      <g>
       <use xlink:href="#m260f391cb1" x="51.378125" y="36.885321" style="stroke: #000000; stroke-width: 0.6"/>
      </g>
     </g>
    </g>
    <g id="ytick_36">
     <g id="line2d_52">
      <g>
       <use xlink:href="#m260f391cb1" x="51.378125" y="35.047423" style="stroke: #000000; stroke-width: 0.6"/>
      </g>
     </g>
    </g>
    <g id="ytick_37">
     <g id="line2d_53">
      <g>
       <use xlink:href="#m260f391cb1" x="51.378125" y="22.587432" style="stroke: #000000; stroke-width: 0.6"/>
      </g>
     </g>
    </g>
    <g id="ytick_38">
     <g id="line2d_54">
      <g>
       <use xlink:href="#m260f391cb1" x="51.378125" y="16.260515" style="stroke: #000000; stroke-width: 0.6"/>
      </g>
     </g>
    </g>
    <g id="ytick_39">
     <g id="line2d_55">
      <g>
       <use xlink:href="#m260f391cb1" x="51.378125" y="11.771496" style="stroke: #000000; stroke-width: 0.6"/>
      </g>
     </g>
    </g>
    <g id="ytick_40">
     <g id="line2d_56">
      <g>
       <use xlink:href="#m260f391cb1" x="51.378125" y="8.289542" style="stroke: #000000; stroke-width: 0.6"/>
      </g>
     </g>
    </g>
    <g id="text_12">
     <!-- Loss -->
     <g transform="translate(14.798438 99.787188) rotate(-90) scale(0.1 -0.1)">
      <defs>
       <path id="DejaVuSans-4c" d="M 628 4666 
L 1259 4666 
L 1259 531 
L 3531 531 
L 3531 0 
L 628 0 
L 628 4666 
z
" transform="scale(0.015625)"/>
       <path id="DejaVuSans-73" d="M 2834 3397 
L 2834 2853 
Q 2591 2978 2328 3040 
Q 2066 3103 1784 3103 
Q 1356 3103 1142 2972 
Q 928 2841 928 2578 
Q 928 2378 1081 2264 
Q 1234 2150 1697 2047 
L 1894 2003 
Q 2506 1872 2764 1633 
Q 3022 1394 3022 966 
Q 3022 478 2636 193 
Q 2250 -91 1575 -91 
Q 1294 -91 989 -36 
Q 684 19 347 128 
L 347 722 
Q 666 556 975 473 
Q 1284 391 1588 391 
Q 1994 391 2212 530 
Q 2431 669 2431 922 
Q 2431 1156 2273 1281 
Q 2116 1406 1581 1522 
L 1381 1569 
Q 847 1681 609 1914 
Q 372 2147 372 2553 
Q 372 3047 722 3315 
Q 1072 3584 1716 3584 
Q 2034 3584 2315 3537 
Q 2597 3491 2834 3397 
z
" transform="scale(0.015625)"/>
      </defs>
      <use xlink:href="#DejaVuSans-4c"/>
      <use xlink:href="#DejaVuSans-6f" transform="translate(53.962891 0)"/>
      <use xlink:href="#DejaVuSans-73" transform="translate(115.144531 0)"/>
      <use xlink:href="#DejaVuSans-73" transform="translate(167.244141 0)"/>
     </g>
    </g>
   </g>
   <g id="line2d_57">
    <path d="M 61.309956 14.62 
L 61.508792 60.779366 
L 61.906463 85.078416 
L 62.105298 89.777004 
L 62.304134 88.683765 
L 62.502969 98.621523 
L 62.701805 88.588614 
L 62.90064 100.226281 
L 63.099475 97.779219 
L 63.298311 99.390288 
L 63.497146 105.724833 
L 63.695982 91.931443 
L 64.093653 109.085404 
L 64.292488 98.066449 
L 64.491324 95.372333 
L 64.690159 115.862474 
L 64.888995 109.619265 
L 65.08783 99.737525 
L 65.286666 108.171992 
L 65.485501 105.681178 
L 65.684336 106.896356 
L 65.883172 102.201815 
L 66.082007 103.35979 
L 66.280843 99.544254 
L 66.479678 112.456214 
L 66.678514 109.540077 
L 66.877349 102.123764 
L 67.076185 112.794651 
L 67.473856 104.360132 
L 67.672691 113.321457 
L 67.871527 113.245094 
L 68.070362 99.917695 
L 68.269197 117.78474 
L 68.666868 98.563738 
L 68.865704 105.861172 
L 69.064539 118.684398 
L 69.263375 110.169804 
L 69.46221 109.609289 
L 69.661046 112.02654 
L 69.859881 104.490535 
L 70.058717 104.01527 
L 70.257552 114.984055 
L 70.655223 104.524761 
L 70.854058 121.848362 
L 71.052894 108.241092 
L 71.251729 114.25812 
L 71.450565 99.356868 
L 71.6494 115.754485 
L 71.848236 116.663682 
L 72.047071 113.464071 
L 72.245907 100.552547 
L 72.444742 121.041242 
L 72.643578 119.466203 
L 72.842413 116.539972 
L 73.041249 104.105889 
L 73.240084 123.767135 
L 73.637755 102.966643 
L 73.83659 117.051041 
L 74.035426 113.093104 
L 74.234261 116.246034 
L 74.433097 108.977163 
L 74.830768 123.059316 
L 75.029603 101.894829 
L 75.228439 121.796736 
L 75.427274 112.153529 
L 75.62611 112.239508 
L 75.824945 120.488215 
L 76.02378 111.23703 
L 76.421451 106.228026 
L 76.620287 124.937496 
L 76.819122 114.684747 
L 77.017958 124.576571 
L 77.216793 113.570288 
L 77.415629 118.178765 
L 77.614464 98.409298 
L 77.8133 126.148829 
L 78.210971 113.019872 
L 78.409806 114.598076 
L 78.608641 118.583453 
L 78.807477 104.932497 
L 79.006312 125.57146 
L 79.205148 117.012796 
L 79.403983 121.531986 
L 79.602819 109.716309 
L 79.801654 121.37581 
L 80.00049 115.272638 
L 80.199325 120.278846 
L 80.398161 110.57873 
L 80.795832 120.372086 
L 80.994667 106.500734 
L 81.193502 122.975389 
L 81.392338 120.218647 
L 81.591173 111.457555 
L 81.790009 115.7618 
L 81.988844 122.576393 
L 82.18768 116.407739 
L 82.386515 115.299396 
L 82.585351 116.910588 
L 82.784186 122.077605 
L 82.983022 113.133795 
L 83.181857 113.159504 
L 83.380692 120.005037 
L 83.579528 113.516761 
L 83.778363 121.724045 
L 83.977199 111.730497 
L 84.176034 123.381501 
L 84.37487 118.457173 
L 84.573705 122.550609 
L 84.971376 117.842412 
L 85.170212 96.108574 
L 85.369047 132.92686 
L 85.567883 127.188742 
L 85.766718 136.563506 
L 85.965553 140.072458 
L 86.164389 132.721063 
L 86.363224 135.022597 
L 86.56206 130.424166 
L 86.760895 130.577268 
L 86.959731 133.282758 
L 87.158566 130.452754 
L 87.357402 131.17791 
L 87.556237 130.077078 
L 87.755073 134.566567 
L 87.953908 135.394928 
L 88.152744 132.496348 
L 88.351579 125.85037 
L 88.550414 131.588559 
L 88.74925 131.812253 
L 88.948085 124.598591 
L 89.146921 135.073107 
L 89.345756 136.002997 
L 89.544592 131.559369 
L 89.743427 130.563004 
L 89.942263 135.726745 
L 90.339934 130.216668 
L 90.538769 134.698905 
L 90.737605 130.093718 
L 90.93644 134.681178 
L 91.135275 126.674644 
L 91.334111 135.899969 
L 91.532946 134.774999 
L 91.731782 134.634621 
L 91.930617 128.202309 
L 92.129453 135.593785 
L 92.328288 124.507952 
L 92.527124 136.913064 
L 92.725959 124.225479 
L 92.924795 137.219412 
L 93.12363 136.689603 
L 93.322466 128.639142 
L 93.720136 134.568273 
L 93.918972 131.984407 
L 94.117807 136.370877 
L 94.316643 131.119368 
L 94.515478 130.215498 
L 94.714314 130.236916 
L 94.913149 136.781431 
L 95.111985 134.810557 
L 95.31082 130.999264 
L 95.509656 132.231588 
L 95.708491 134.611413 
L 95.907327 134.742078 
L 96.106162 131.625108 
L 96.304997 131.657834 
L 96.503833 126.837573 
L 96.702668 139.04417 
L 97.100339 131.281458 
L 97.299175 137.447441 
L 97.49801 132.985557 
L 97.696846 133.43646 
L 97.895681 135.52219 
L 98.094517 135.715545 
L 98.293352 135.415545 
L 98.492188 130.885835 
L 98.691023 129.36133 
L 98.889858 136.168502 
L 99.088694 137.521718 
L 99.287529 126.488168 
L 99.486365 134.076754 
L 99.6852 135.904866 
L 99.884036 136.569401 
L 100.082871 132.059555 
L 100.281707 135.85292 
L 100.480542 130.058997 
L 100.679378 135.154152 
L 100.878213 136.461161 
L 101.077049 127.527594 
L 101.474719 147.558252 
L 101.673555 147.0769 
L 101.87239 146.026119 
L 102.071226 143.839195 
L 102.270061 143.748067 
L 102.468897 144.678349 
L 102.667732 144.715368 
L 102.866568 145.385802 
L 103.065403 145.374013 
L 103.264239 141.805172 
L 103.463074 143.303022 
L 103.66191 145.706226 
L 103.860745 144.609611 
L 104.05958 142.716672 
L 104.258416 148.185371 
L 104.457251 142.910107 
L 104.656087 146.494828 
L 104.854922 144.007411 
L 105.053758 145.633699 
L 105.451429 143.672641 
L 105.650264 144.35795 
L 105.8491 146.321401 
L 106.047935 146.594871 
L 106.246771 145.301033 
L 106.445606 142.102491 
L 106.843277 153.098831 
L 107.042112 151.55644 
L 107.240948 150.8992 
L 107.439783 151.869525 
L 107.638619 150.792032 
L 107.837454 150.975762 
L 108.03629 150.642068 
L 108.235125 149.985466 
L 108.433961 151.951043 
L 108.632796 152.213084 
L 108.831632 151.177714 
L 109.030467 150.929733 
L 109.229302 151.793627 
L 109.626973 151.155216 
L 109.825809 151.496434 
L 110.024644 151.269657 
L 110.22348 150.489082 
L 110.621151 151.759409 
L 110.819986 152.015644 
L 111.018822 150.286928 
L 111.217657 152.776464 
L 111.615328 151.309075 
L 112.012999 150.907864 
L 112.211834 152.160555 
L 112.41067 151.496679 
L 112.609505 152.74262 
L 112.808341 155.719465 
L 113.007176 155.533733 
L 113.206012 155.191199 
L 113.404847 155.583554 
L 114.001354 155.177705 
L 114.200189 154.483555 
L 114.399024 154.931481 
L 114.59786 155.757309 
L 114.995531 155.186557 
L 115.592037 155.454785 
L 115.790873 155.096711 
L 115.989708 155.251508 
L 116.586215 155.341919 
L 116.78505 155.494569 
L 116.983885 155.07957 
L 117.182721 155.886001 
L 117.381556 155.388856 
L 117.580392 155.73095 
L 117.779227 155.766464 
L 117.978063 155.576869 
L 118.176898 155.671306 
L 118.375734 156.02105 
L 118.574569 155.914593 
L 118.773405 155.504966 
L 118.97224 155.393866 
L 119.171076 155.113905 
L 119.369911 155.380256 
L 119.568746 155.401913 
L 119.767582 156.154761 
L 119.966417 155.661588 
L 120.165253 155.957113 
L 120.364088 155.477822 
L 120.562924 155.790848 
L 120.761759 157.715288 
L 121.15943 157.866503 
L 121.358266 157.343577 
L 121.557101 157.782055 
L 121.755937 157.936711 
L 121.954772 157.38786 
L 122.352443 158.04275 
L 122.551278 157.543157 
L 122.750114 157.669372 
L 123.147785 157.722738 
L 123.34662 157.973009 
L 123.545456 157.77155 
L 123.943127 158.182927 
L 124.141962 157.800388 
L 124.340798 157.687031 
L 124.539633 157.838549 
L 124.738468 158.148829 
L 124.937304 158.219785 
L 125.136139 157.955787 
L 125.732646 157.797989 
L 125.931481 158.130854 
L 126.527988 158.095086 
L 126.726823 157.88627 
L 126.925659 158.132595 
L 127.124494 157.892333 
L 127.323329 157.847217 
L 127.522165 158.179607 
L 127.721 158.120069 
L 127.919836 157.925168 
L 128.516342 158.299477 
L 128.715178 157.925447 
L 129.112849 158.389786 
L 129.311684 157.952127 
L 129.709355 158.492387 
L 130.107026 158.062024 
L 130.305861 158.347967 
L 130.504697 158.248908 
L 130.902368 158.5915 
L 131.101203 158.277172 
L 131.300039 158.252901 
L 131.498874 158.552751 
L 131.69771 158.146705 
L 131.896545 158.556306 
L 132.294216 158.328027 
L 132.493051 158.168143 
L 132.691887 158.239702 
L 132.890722 158.606772 
L 133.089558 158.639583 
L 133.487229 158.392628 
L 133.686064 158.401743 
L 133.8849 158.618952 
L 134.282571 158.563147 
L 134.481406 158.358913 
L 134.680242 158.627162 
L 134.879077 158.420136 
L 135.475583 158.623942 
L 135.674419 158.870949 
L 136.07209 158.516625 
L 136.270925 158.79932 
L 136.469761 158.512073 
L 136.668596 158.953315 
L 137.066267 158.40235 
L 137.265103 158.728455 
L 137.463938 158.70164 
L 137.662773 158.850066 
L 137.861609 158.694238 
L 138.25928 158.888863 
L 139.253457 158.739784 
L 139.452293 159.11672 
L 139.849964 158.95336 
L 140.048799 159.142794 
L 140.247634 158.89379 
L 140.44647 159.248886 
L 140.645305 158.991071 
L 141.241812 158.973342 
L 141.440647 159.160724 
L 142.037154 158.962149 
L 142.235989 159.245718 
L 142.434825 159.157782 
L 142.63366 159.412828 
L 142.832495 160.187298 
L 143.230166 160.286673 
L 143.627837 160.152497 
L 145.019686 160.288121 
L 145.218521 160.363338 
L 145.417356 160.188771 
L 145.616192 160.321904 
L 145.815027 160.213708 
L 146.212698 160.403608 
L 146.411534 160.274537 
L 147.00804 160.37649 
L 147.206876 160.326837 
L 147.604547 160.50698 
L 147.803382 160.264858 
L 148.002217 160.416174 
L 149.19523 160.383946 
L 149.791737 160.458275 
L 149.990572 160.497213 
L 150.189407 160.373914 
L 150.587078 160.584495 
L 151.38242 160.512094 
L 151.581256 160.643556 
L 151.978927 160.450975 
L 152.177762 160.642445 
L 152.376598 160.557395 
L 152.575433 160.619475 
L 153.171939 160.420405 
L 153.370775 160.711239 
L 153.768446 160.493876 
L 153.967281 160.724225 
L 154.166117 160.596485 
L 154.563788 160.635735 
L 155.557965 160.623498 
L 155.7568 161.296334 
L 156.552142 161.266042 
L 156.750978 161.307581 
L 156.949813 161.202854 
L 157.148649 161.376145 
L 158.739332 161.281537 
L 158.938168 161.371176 
L 159.137003 161.282184 
L 159.534674 161.380332 
L 160.131181 161.348597 
L 162.914877 161.391979 
L 163.312548 161.438777 
L 165.698573 161.47472 
L 168.48227 161.564677 
L 168.681105 161.455131 
L 169.277612 161.57878 
L 169.874118 161.51102 
L 170.072954 161.608899 
L 170.271789 161.506245 
L 170.66946 161.651583 
L 170.868295 161.539931 
L 171.067131 161.650734 
L 171.265966 161.517953 
L 171.663637 161.596537 
L 171.862473 161.485871 
L 172.458979 161.663908 
L 173.850827 161.595648 
L 174.248498 161.653428 
L 174.646169 161.642968 
L 174.845005 161.7308 
L 175.242676 161.657955 
L 175.839182 161.671164 
L 176.236853 161.677142 
L 177.032195 161.772492 
L 177.429866 161.56527 
L 177.628701 161.740745 
L 178.026372 161.72928 
L 178.424043 161.778856 
L 178.622878 161.651102 
L 178.821714 161.763093 
L 179.219385 161.754165 
L 179.815891 161.725213 
L 182.798423 161.830175 
L 183.593765 161.788641 
L 183.991436 161.845699 
L 184.587942 161.888876 
L 184.985613 161.86535 
L 185.184449 161.927411 
L 185.383284 161.815262 
L 185.979791 161.895109 
L 186.973968 161.925129 
L 187.570474 161.915063 
L 188.166981 161.91577 
L 188.365816 161.808052 
L 188.763487 161.974116 
L 189.359993 161.895471 
L 189.558829 162.03574 
L 190.354171 161.914648 
L 190.751842 162.05986 
L 192.342525 162.018486 
L 192.740196 162.060459 
L 192.939032 162.044624 
L 193.137867 162.348923 
L 193.734374 162.411389 
L 194.33088 162.361712 
L 194.927386 162.366016 
L 195.722728 162.403567 
L 198.307589 162.376085 
L 198.70526 162.406116 
L 199.699437 162.401965 
L 200.494779 162.478677 
L 201.091286 162.457019 
L 202.681969 162.434151 
L 203.07964 162.484845 
L 205.863337 162.492668 
L 206.261008 162.513152 
L 208.647033 162.543729 
L 208.845869 162.482322 
L 209.24354 162.562949 
L 209.442375 162.4695 
L 210.038881 162.566037 
L 210.237717 162.507986 
L 210.635388 162.538406 
L 211.231894 162.553578 
L 212.424907 162.563726 
L 214.810932 162.595422 
L 215.009768 162.775116 
L 222.36668 162.814233 
L 222.764351 162.890189 
L 226.144554 162.898923 
L 234.097972 162.967361 
L 235.48982 162.989143 
L 253.583847 163.019797 
L 259.946582 163.019872 
L 259.946582 163.019872 
" clip-path="url(#p0de04547b4)" style="fill: none; stroke: #1d3557; stroke-width: 1.5; stroke-linecap: square"/>
   </g>
   <g id="line2d_58">
    <path d="M 61.309956 52.301 
L 61.707627 81.747311 
L 62.105298 88.315684 
L 62.304134 97.203617 
L 62.502969 100.831946 
L 62.701805 95.686513 
L 62.90064 101.115834 
L 63.099475 80.439063 
L 63.298311 106.969597 
L 63.695982 115.70275 
L 64.093653 103.734433 
L 64.292488 113.186747 
L 64.491324 110.205248 
L 64.888995 119.947369 
L 65.08783 112.39945 
L 65.286666 83.807578 
L 65.485501 105.656023 
L 65.684336 108.256462 
L 65.883172 105.307685 
L 66.082007 49.326943 
L 66.280843 115.716957 
L 66.479678 115.86442 
L 66.678514 94.893614 
L 67.076185 118.768333 
L 67.27502 94.098516 
L 67.473856 114.877869 
L 67.672691 113.860426 
L 67.871527 124.14607 
L 68.070362 113.718407 
L 68.269197 110.468346 
L 68.468033 123.780106 
L 68.666868 122.326015 
L 69.263375 104.957338 
L 69.46221 123.644642 
L 69.661046 103.526719 
L 69.859881 127.090958 
L 70.257552 97.685707 
L 70.456388 114.02623 
L 70.655223 112.827089 
L 70.854058 126.094216 
L 71.052894 124.499259 
L 71.251729 102.146832 
L 71.450565 98.410397 
L 71.848236 122.790252 
L 72.047071 113.326975 
L 72.245907 112.972064 
L 72.444742 100.225363 
L 72.842413 118.669438 
L 73.041249 129.868153 
L 73.240084 112.622336 
L 73.438919 111.741284 
L 73.637755 116.792717 
L 73.83659 105.415172 
L 74.035426 104.119106 
L 74.234261 112.87428 
L 74.433097 101.130359 
L 74.631932 127.925028 
L 74.830768 119.052812 
L 75.228439 123.848285 
L 75.427274 114.220973 
L 75.824945 131.402451 
L 76.02378 117.16844 
L 76.222616 120.986526 
L 76.421451 119.955552 
L 76.620287 124.021317 
L 76.819122 121.266859 
L 77.017958 129.302041 
L 77.216793 127.512291 
L 77.415629 129.443485 
L 77.614464 120.413413 
L 77.8133 127.572994 
L 78.210971 116.630808 
L 78.409806 111.583408 
L 78.608641 129.83215 
L 78.807477 103.930347 
L 79.006312 131.176756 
L 79.205148 129.836922 
L 79.403983 117.301521 
L 79.602819 117.711296 
L 79.801654 133.68401 
L 80.199325 120.351884 
L 80.398161 128.690864 
L 80.596996 129.873721 
L 80.795832 108.043706 
L 80.994667 113.582653 
L 81.193502 132.129943 
L 81.392338 135.5634 
L 81.591173 82.131165 
L 81.790009 127.763301 
L 81.988844 125.343303 
L 82.18768 128.832801 
L 82.386515 126.580664 
L 82.585351 130.326417 
L 82.784186 99.707676 
L 82.983022 108.157021 
L 83.181857 110.419295 
L 83.380692 114.034468 
L 83.579528 101.216897 
L 83.778363 134.34356 
L 83.977199 124.455322 
L 84.176034 130.400118 
L 84.573705 107.94559 
L 84.772541 130.196328 
L 84.971376 126.522209 
L 85.170212 132.37193 
L 85.369047 129.846862 
L 85.567883 103.614831 
L 85.766718 139.565826 
L 85.965553 130.708669 
L 86.164389 134.7177 
L 86.363224 135.516589 
L 86.56206 137.387115 
L 86.760895 132.508979 
L 86.959731 136.959588 
L 87.556237 121.939749 
L 87.755073 138.460479 
L 87.953908 138.464177 
L 88.152744 131.299846 
L 88.351579 119.347762 
L 88.550414 133.936663 
L 88.74925 137.245752 
L 88.948085 137.01595 
L 89.146921 139.187438 
L 89.345756 136.515506 
L 89.544592 128.934139 
L 89.743427 127.096554 
L 89.942263 140.602123 
L 90.141098 132.729571 
L 90.538769 138.769752 
L 90.93644 126.048865 
L 91.135275 131.68469 
L 91.334111 126.545585 
L 91.532946 124.400769 
L 91.731782 141.000362 
L 91.930617 136.164007 
L 92.129453 113.589725 
L 92.328288 142.177388 
L 92.527124 137.996916 
L 92.725959 130.698904 
L 92.924795 143.739774 
L 93.12363 136.647292 
L 93.322466 135.676571 
L 93.521301 117.248698 
L 93.720136 133.206038 
L 93.918972 138.741269 
L 94.117807 132.406661 
L 94.316643 90.536835 
L 94.515478 128.411137 
L 94.714314 139.256023 
L 94.913149 133.50782 
L 95.111985 102.209225 
L 95.31082 138.44897 
L 95.509656 137.121644 
L 95.708491 139.839177 
L 95.907327 111.995941 
L 96.106162 134.599405 
L 96.304997 142.910648 
L 96.503833 144.425844 
L 96.702668 140.413677 
L 96.901504 139.590215 
L 97.100339 144.734663 
L 97.49801 120.251256 
L 97.696846 130.432304 
L 97.895681 132.50965 
L 98.094517 128.879588 
L 98.293352 133.308014 
L 98.492188 143.245486 
L 98.691023 126.783785 
L 98.889858 137.951127 
L 99.088694 136.118569 
L 99.287529 140.49117 
L 99.486365 128.326195 
L 99.6852 138.417928 
L 99.884036 125.275234 
L 100.082871 127.742786 
L 100.281707 140.040764 
L 100.480542 139.863297 
L 100.878213 132.032757 
L 101.077049 134.127617 
L 101.275884 138.058442 
L 101.474719 144.768544 
L 101.673555 145.403631 
L 101.87239 145.195942 
L 102.071226 146.215307 
L 102.270061 140.160339 
L 102.468897 148.117196 
L 102.667732 142.889178 
L 102.866568 142.480059 
L 103.065403 146.509284 
L 103.264239 139.574792 
L 103.463074 143.513685 
L 103.66191 141.692872 
L 103.860745 143.48909 
L 104.05958 143.435405 
L 104.258416 139.240085 
L 104.457251 147.902184 
L 104.656087 140.074934 
L 104.854922 143.338611 
L 105.252593 139.101584 
L 105.451429 145.005807 
L 105.650264 144.950891 
L 105.8491 144.114358 
L 106.047935 141.223529 
L 106.246771 144.77198 
L 106.445606 145.470714 
L 106.644441 147.060583 
L 106.843277 149.562102 
L 107.042112 148.91433 
L 107.240948 146.229814 
L 107.439783 146.185399 
L 107.638619 146.514954 
L 107.837454 147.083805 
L 108.03629 149.091064 
L 108.235125 147.045732 
L 108.433961 151.05687 
L 108.831632 148.346207 
L 109.030467 150.165701 
L 109.229302 144.96496 
L 109.428138 150.0569 
L 109.626973 149.687532 
L 109.825809 147.241558 
L 110.024644 149.879551 
L 110.22348 148.993449 
L 110.422315 143.370772 
L 110.621151 150.301397 
L 110.819986 143.462764 
L 111.018822 147.926889 
L 111.416493 150.039555 
L 111.615328 146.2458 
L 111.814163 150.206475 
L 112.211834 144.910881 
L 112.41067 150.046235 
L 112.609505 148.845342 
L 112.808341 150.078307 
L 113.206012 150.424269 
L 113.404847 151.165854 
L 113.603683 151.431884 
L 113.802518 151.19097 
L 114.001354 150.725825 
L 114.200189 150.766448 
L 114.399024 150.435335 
L 114.59786 151.775855 
L 114.796695 150.075518 
L 115.194366 152.246131 
L 115.393202 151.617247 
L 115.592037 149.712767 
L 115.790873 151.263074 
L 116.188544 151.018477 
L 116.387379 152.647418 
L 116.78505 151.524334 
L 116.983885 151.001017 
L 117.182721 151.166519 
L 117.381556 149.255788 
L 117.580392 151.760782 
L 117.779227 151.237991 
L 117.978063 151.827644 
L 118.176898 151.481983 
L 118.375734 150.66659 
L 118.574569 152.005221 
L 118.773405 152.02344 
L 118.97224 151.120798 
L 119.171076 152.050607 
L 119.369911 150.395713 
L 119.568746 152.220532 
L 119.767582 150.77589 
L 120.165253 151.71276 
L 120.562924 147.907094 
L 120.761759 152.977271 
L 120.960595 152.461609 
L 121.15943 151.151726 
L 121.358266 152.402323 
L 121.557101 152.859711 
L 121.755937 152.572547 
L 121.954772 151.9493 
L 122.153607 153.117401 
L 122.352443 152.788017 
L 122.551278 153.134849 
L 122.750114 151.182659 
L 122.948949 152.453872 
L 123.147785 150.779203 
L 123.34662 153.035125 
L 123.545456 153.179892 
L 123.744291 152.388085 
L 123.943127 153.161217 
L 124.141962 152.579585 
L 124.539633 152.481875 
L 124.738468 153.10473 
L 124.937304 151.522778 
L 125.136139 152.938867 
L 125.53381 152.129293 
L 125.732646 152.186164 
L 126.130317 153.008296 
L 126.329152 151.736128 
L 126.527988 152.387651 
L 126.726823 153.455961 
L 127.124494 152.992609 
L 127.323329 153.648484 
L 127.522165 152.346356 
L 127.721 153.449397 
L 127.919836 152.893354 
L 128.118671 153.325567 
L 128.317507 152.078965 
L 128.516342 153.240219 
L 128.715178 152.108412 
L 128.914013 152.885649 
L 129.112849 153.083894 
L 129.51052 154.041885 
L 129.709355 152.783475 
L 129.90819 152.732593 
L 130.107026 153.521957 
L 130.305861 152.82218 
L 130.504697 152.834787 
L 130.703532 147.677859 
L 130.902368 153.736144 
L 131.101203 152.998674 
L 131.300039 153.533212 
L 131.69771 151.010141 
L 131.896545 154.056636 
L 132.095381 151.927733 
L 132.294216 151.815597 
L 132.493051 153.453811 
L 132.691887 153.368452 
L 132.890722 153.986208 
L 133.089558 152.547831 
L 133.288393 152.098861 
L 133.487229 153.7656 
L 133.686064 153.296097 
L 134.282571 153.407347 
L 134.481406 153.07148 
L 134.680242 153.331507 
L 134.879077 153.849465 
L 135.077912 148.919809 
L 135.276748 153.499388 
L 135.475583 153.677088 
L 135.674419 154.270721 
L 136.07209 153.157165 
L 136.270925 153.479167 
L 136.469761 152.208369 
L 136.867432 154.29258 
L 137.066267 153.171574 
L 137.265103 153.320343 
L 137.463938 152.900367 
L 137.662773 152.83494 
L 137.861609 154.095977 
L 138.060444 154.082879 
L 138.25928 152.720324 
L 138.458115 154.361108 
L 138.855786 152.63619 
L 139.054622 153.313822 
L 139.452293 153.332655 
L 139.651128 152.430689 
L 139.849964 153.989007 
L 140.048799 153.555579 
L 140.247634 154.085892 
L 140.44647 152.668483 
L 140.645305 153.867022 
L 140.844141 153.371585 
L 141.042976 153.458322 
L 141.241812 153.285654 
L 141.440647 152.644249 
L 141.639483 154.018328 
L 141.838318 153.847102 
L 142.037154 153.489696 
L 142.235989 153.507193 
L 142.434825 153.133964 
L 142.832495 154.52029 
L 143.031331 154.631879 
L 143.230166 154.200183 
L 143.429002 154.347952 
L 143.627837 154.238165 
L 143.826673 154.869462 
L 144.025508 153.802855 
L 144.224344 153.522223 
L 144.423179 154.504404 
L 144.622015 154.921255 
L 144.82085 154.679875 
L 145.019686 155.03014 
L 145.218521 154.220711 
L 145.417356 154.444313 
L 145.616192 154.492542 
L 145.815027 153.45542 
L 146.411534 154.745211 
L 146.809205 154.62717 
L 147.00804 154.743347 
L 147.206876 154.521717 
L 147.405711 154.039389 
L 147.604547 154.63983 
L 148.201053 154.818233 
L 148.399888 154.691133 
L 148.797559 153.476676 
L 148.996395 155.040463 
L 149.592901 154.748286 
L 149.791737 154.363809 
L 149.990572 155.122933 
L 150.189407 154.830848 
L 150.388243 155.313042 
L 150.587078 154.805617 
L 150.984749 154.930338 
L 151.183585 154.768884 
L 151.38242 155.390899 
L 151.581256 154.779688 
L 151.780091 154.629502 
L 151.978927 155.196083 
L 152.376598 154.654956 
L 152.575433 155.209968 
L 152.973104 154.476834 
L 153.171939 154.917903 
L 153.370775 155.020183 
L 153.56961 154.499954 
L 154.166117 155.369303 
L 154.364952 154.654233 
L 154.762623 154.14939 
L 154.961459 155.336054 
L 155.359129 154.98469 
L 155.7568 155.317915 
L 156.154471 154.74229 
L 156.353307 155.520665 
L 156.552142 155.102852 
L 156.750978 155.428376 
L 157.148649 155.33293 
L 157.347484 154.445249 
L 157.54632 155.511756 
L 157.745155 155.271658 
L 157.94399 155.506932 
L 158.142826 155.377052 
L 158.938168 155.559883 
L 159.335839 155.140684 
L 159.534674 155.696605 
L 159.73351 155.627878 
L 159.932345 155.363128 
L 160.131181 155.370322 
L 160.330016 155.617242 
L 160.727687 155.155951 
L 160.926522 155.418875 
L 161.324193 155.286091 
L 161.523029 155.485964 
L 161.721864 155.181698 
L 162.318371 155.711622 
L 162.517206 155.635323 
L 162.716042 155.376629 
L 163.113712 155.375171 
L 163.511383 155.714129 
L 163.909054 155.339009 
L 164.10789 155.695345 
L 164.306725 155.411395 
L 164.505561 155.700774 
L 164.903232 155.442973 
L 165.102067 155.728224 
L 165.300903 155.436582 
L 165.499738 154.580141 
L 165.698573 155.575339 
L 166.096244 155.737123 
L 166.29508 155.504925 
L 166.493915 155.707376 
L 167.090422 155.475011 
L 167.289257 155.624231 
L 167.488093 154.866905 
L 167.686928 155.140892 
L 167.885764 155.694001 
L 168.084599 155.782002 
L 168.283434 155.014158 
L 168.681105 155.680412 
L 169.078776 155.256438 
L 169.476447 155.635881 
L 169.675283 155.459803 
L 170.072954 155.867951 
L 170.271789 155.695374 
L 170.470625 155.247273 
L 170.66946 155.64832 
L 170.868295 155.213842 
L 171.265966 155.858905 
L 171.862473 154.718759 
L 172.260144 155.81683 
L 172.458979 155.814837 
L 172.657815 155.660679 
L 172.85665 155.339928 
L 173.651992 155.832344 
L 173.850827 155.654532 
L 174.248498 155.89626 
L 174.447334 155.771643 
L 174.646169 155.904397 
L 174.845005 155.406295 
L 175.04384 155.901881 
L 175.441511 155.835998 
L 175.640347 155.672849 
L 175.839182 155.888256 
L 176.236853 155.678737 
L 176.435688 155.409249 
L 176.634524 155.910018 
L 176.833359 155.898723 
L 177.032195 155.392674 
L 177.23103 155.735692 
L 177.628701 155.820504 
L 177.827537 155.918103 
L 178.026372 155.842176 
L 178.424043 155.964062 
L 178.821714 155.49545 
L 179.020549 155.779258 
L 179.41822 155.811469 
L 179.617056 155.123979 
L 179.815891 155.586434 
L 180.213562 155.722009 
L 180.412398 155.90712 
L 180.611233 155.659114 
L 181.008904 155.628719 
L 181.406575 155.962093 
L 181.60541 155.651872 
L 181.804246 155.931782 
L 182.003081 155.855494 
L 182.201917 155.955993 
L 182.400752 155.890771 
L 182.599588 155.993022 
L 182.798423 155.632601 
L 183.39493 156.097626 
L 183.593765 155.922921 
L 183.7926 156.133534 
L 184.190271 155.74493 
L 184.389107 155.949106 
L 184.587942 155.444527 
L 184.786778 155.471653 
L 184.985613 155.854539 
L 185.184449 155.434751 
L 185.383284 156.033386 
L 185.780955 156.032727 
L 185.979791 156.163709 
L 186.178626 155.829667 
L 186.377461 156.011008 
L 186.576297 155.909555 
L 186.775132 155.938461 
L 186.973968 155.850554 
L 187.172803 155.473425 
L 187.570474 155.793859 
L 187.76931 156.279432 
L 188.166981 156.051725 
L 188.365816 155.473158 
L 188.763487 156.31981 
L 188.962322 155.771054 
L 189.161158 155.728844 
L 189.359993 155.904499 
L 189.757664 155.943235 
L 189.9565 155.684934 
L 190.155335 155.865422 
L 190.354171 156.197173 
L 190.751842 155.907869 
L 190.950677 155.866974 
L 191.547183 156.121152 
L 191.746019 156.076108 
L 191.944854 156.195597 
L 192.342525 156.143305 
L 192.541361 156.22782 
L 192.740196 156.158744 
L 192.939032 155.70704 
L 193.336703 156.326408 
L 193.535538 156.350912 
L 193.734374 156.230799 
L 193.933209 156.367418 
L 194.132044 156.078815 
L 194.33088 156.368332 
L 195.325057 156.27977 
L 195.921564 156.340728 
L 196.716905 156.22544 
L 196.915741 156.344665 
L 197.114576 156.116341 
L 197.711083 156.404674 
L 198.108754 156.07327 
L 198.307589 156.29991 
L 198.506425 155.905532 
L 198.70526 156.239904 
L 198.904096 156.352258 
L 199.102931 156.201838 
L 199.301766 156.360022 
L 199.500602 156.23946 
L 200.295944 156.251611 
L 200.494779 156.151656 
L 200.89245 156.39753 
L 201.091286 156.290381 
L 201.687792 156.424569 
L 201.886627 156.18063 
L 202.085463 156.222255 
L 202.284298 156.11305 
L 202.681969 156.393357 
L 202.880805 156.34975 
L 203.07964 156.443485 
L 203.278476 156.036882 
L 203.676147 156.259306 
L 204.073818 156.284676 
L 204.272653 156.201413 
L 204.471488 156.316014 
L 204.869159 155.695528 
L 205.067995 156.358595 
L 205.664501 156.148778 
L 205.863337 156.464831 
L 206.062172 156.176446 
L 206.261008 156.45329 
L 206.658679 156.497775 
L 207.056349 156.298988 
L 207.255185 156.462118 
L 207.652856 156.358877 
L 207.851691 156.466383 
L 208.050527 156.047654 
L 208.448198 156.273961 
L 208.647033 156.168449 
L 209.044704 156.478154 
L 209.24354 156.403669 
L 209.442375 156.488735 
L 209.64121 156.305755 
L 209.840046 156.336208 
L 210.038881 156.209722 
L 210.436552 156.495465 
L 210.635388 156.54056 
L 210.834223 156.222441 
L 211.033059 156.33124 
L 211.231894 156.133218 
L 211.629565 156.514668 
L 211.828401 156.187182 
L 212.027236 156.330842 
L 212.226071 156.205474 
L 212.424907 156.388659 
L 212.822578 155.954452 
L 213.220249 156.493928 
L 213.419084 156.308265 
L 213.61792 156.465895 
L 214.413262 156.154114 
L 214.810932 156.539038 
L 215.208603 156.394378 
L 215.80511 156.527083 
L 216.202781 156.484617 
L 216.998123 156.473366 
L 217.196958 156.418769 
L 217.395793 156.543798 
L 217.9923 156.516958 
L 218.389971 156.562563 
L 219.185313 156.445407 
L 219.384148 156.573996 
L 219.781819 156.391294 
L 220.974832 156.560836 
L 221.372503 156.398585 
L 221.571338 156.56961 
L 221.969009 156.554406 
L 222.36668 156.428165 
L 222.565515 156.542638 
L 223.162022 156.50585 
L 223.957364 156.549607 
L 224.156199 156.462438 
L 224.951541 156.620936 
L 225.548047 156.446446 
L 225.945718 156.598504 
L 226.144554 156.475545 
L 226.542225 156.626149 
L 226.939896 156.493777 
L 227.337566 156.595137 
L 227.536402 156.451508 
L 227.735237 156.610903 
L 228.331744 156.530286 
L 228.530579 156.589072 
L 228.92825 156.571024 
L 230.916605 156.59369 
L 232.904959 156.605267 
L 233.30263 156.585277 
L 235.48982 156.58185 
L 238.870023 156.597789 
L 244.835087 156.610187 
L 247.022277 156.603972 
L 251.396657 156.610765 
L 257.759392 156.608588 
L 259.946582 156.609742 
L 259.946582 156.609742 
" clip-path="url(#p0de04547b4)" style="fill: none; stroke: #e63946; stroke-width: 1.5; stroke-linecap: square"/>
   </g>
   <g id="patch_3">
    <path d="M 51.378125 170.44 
L 51.378125 7.2 
" style="fill: none; stroke: #000000; stroke-width: 0.8; stroke-linejoin: miter; stroke-linecap: square"/>
   </g>
   <g id="patch_4">
    <path d="M 269.878413 170.44 
L 269.878413 7.2 
" style="fill: none; stroke: #000000; stroke-width: 0.8; stroke-linejoin: miter; stroke-linecap: square"/>
   </g>
   <g id="patch_5">
    <path d="M 51.378125 170.44 
L 269.878413 170.44 
" style="fill: none; stroke: #000000; stroke-width: 0.8; stroke-linejoin: miter; stroke-linecap: square"/>
   </g>
   <g id="patch_6">
    <path d="M 51.378125 7.2 
L 269.878413 7.2 
" style="fill: none; stroke: #000000; stroke-width: 0.8; stroke-linejoin: miter; stroke-linecap: square"/>
   </g>
   <g id="legend_1">
    <g id="patch_7">
     <path d="M 159.003413 44.55625 
L 262.878413 44.55625 
Q 264.878413 44.55625 264.878413 42.55625 
L 264.878413 14.2 
Q 264.878413 12.2 262.878413 12.2 
L 159.003413 12.2 
Q 157.003413 12.2 157.003413 14.2 
L 157.003413 42.55625 
Q 157.003413 44.55625 159.003413 44.55625 
z
" style="fill: #ffffff; opacity: 0.8; stroke: #cccccc; stroke-linejoin: miter"/>
    </g>
    <g id="line2d_59">
     <path d="M 161.003413 20.298438 
L 171.003413 20.298438 
L 181.003413 20.298438 
" style="fill: none; stroke: #1d3557; stroke-width: 1.5; stroke-linecap: square"/>
    </g>
    <g id="text_13">
     <!-- Training loss -->
     <g transform="translate(189.003413 23.798438) scale(0.1 -0.1)">
      <defs>
       <path id="DejaVuSans-54" d="M -19 4666 
L 3928 4666 
L 3928 4134 
L 2272 4134 
L 2272 0 
L 1638 0 
L 1638 4134 
L -19 4134 
L -19 4666 
z
" transform="scale(0.015625)"/>
       <path id="DejaVuSans-72" d="M 2631 2963 
Q 2534 3019 2420 3045 
Q 2306 3072 2169 3072 
Q 1681 3072 1420 2755 
Q 1159 2438 1159 1844 
L 1159 0 
L 581 0 
L 581 3500 
L 1159 3500 
L 1159 2956 
Q 1341 3275 1631 3429 
Q 1922 3584 2338 3584 
Q 2397 3584 2469 3576 
Q 2541 3569 2628 3553 
L 2631 2963 
z
" transform="scale(0.015625)"/>
       <path id="DejaVuSans-61" d="M 2194 1759 
Q 1497 1759 1228 1600 
Q 959 1441 959 1056 
Q 959 750 1161 570 
Q 1363 391 1709 391 
Q 2188 391 2477 730 
Q 2766 1069 2766 1631 
L 2766 1759 
L 2194 1759 
z
M 3341 1997 
L 3341 0 
L 2766 0 
L 2766 531 
Q 2569 213 2275 61 
Q 1981 -91 1556 -91 
Q 1019 -91 701 211 
Q 384 513 384 1019 
Q 384 1609 779 1909 
Q 1175 2209 1959 2209 
L 2766 2209 
L 2766 2266 
Q 2766 2663 2505 2880 
Q 2244 3097 1772 3097 
Q 1472 3097 1187 3025 
Q 903 2953 641 2809 
L 641 3341 
Q 956 3463 1253 3523 
Q 1550 3584 1831 3584 
Q 2591 3584 2966 3190 
Q 3341 2797 3341 1997 
z
" transform="scale(0.015625)"/>
       <path id="DejaVuSans-69" d="M 603 3500 
L 1178 3500 
L 1178 0 
L 603 0 
L 603 3500 
z
M 603 4863 
L 1178 4863 
L 1178 4134 
L 603 4134 
L 603 4863 
z
" transform="scale(0.015625)"/>
       <path id="DejaVuSans-6e" d="M 3513 2113 
L 3513 0 
L 2938 0 
L 2938 2094 
Q 2938 2591 2744 2837 
Q 2550 3084 2163 3084 
Q 1697 3084 1428 2787 
Q 1159 2491 1159 1978 
L 1159 0 
L 581 0 
L 581 3500 
L 1159 3500 
L 1159 2956 
Q 1366 3272 1645 3428 
Q 1925 3584 2291 3584 
Q 2894 3584 3203 3211 
Q 3513 2838 3513 2113 
z
" transform="scale(0.015625)"/>
       <path id="DejaVuSans-67" d="M 2906 1791 
Q 2906 2416 2648 2759 
Q 2391 3103 1925 3103 
Q 1463 3103 1205 2759 
Q 947 2416 947 1791 
Q 947 1169 1205 825 
Q 1463 481 1925 481 
Q 2391 481 2648 825 
Q 2906 1169 2906 1791 
z
M 3481 434 
Q 3481 -459 3084 -895 
Q 2688 -1331 1869 -1331 
Q 1566 -1331 1297 -1286 
Q 1028 -1241 775 -1147 
L 775 -588 
Q 1028 -725 1275 -790 
Q 1522 -856 1778 -856 
Q 2344 -856 2625 -561 
Q 2906 -266 2906 331 
L 2906 616 
Q 2728 306 2450 153 
Q 2172 0 1784 0 
Q 1141 0 747 490 
Q 353 981 353 1791 
Q 353 2603 747 3093 
Q 1141 3584 1784 3584 
Q 2172 3584 2450 3431 
Q 2728 3278 2906 2969 
L 2906 3500 
L 3481 3500 
L 3481 434 
z
" transform="scale(0.015625)"/>
       <path id="DejaVuSans-20" transform="scale(0.015625)"/>
       <path id="DejaVuSans-6c" d="M 603 4863 
L 1178 4863 
L 1178 0 
L 603 0 
L 603 4863 
z
" transform="scale(0.015625)"/>
      </defs>
      <use xlink:href="#DejaVuSans-54"/>
      <use xlink:href="#DejaVuSans-72" transform="translate(46.333984 0)"/>
      <use xlink:href="#DejaVuSans-61" transform="translate(87.447266 0)"/>
      <use xlink:href="#DejaVuSans-69" transform="translate(148.726562 0)"/>
      <use xlink:href="#DejaVuSans-6e" transform="translate(176.509766 0)"/>
      <use xlink:href="#DejaVuSans-69" transform="translate(239.888672 0)"/>
      <use xlink:href="#DejaVuSans-6e" transform="translate(267.671875 0)"/>
      <use xlink:href="#DejaVuSans-67" transform="translate(331.050781 0)"/>
      <use xlink:href="#DejaVuSans-20" transform="translate(394.527344 0)"/>
      <use xlink:href="#DejaVuSans-6c" transform="translate(426.314453 0)"/>
      <use xlink:href="#DejaVuSans-6f" transform="translate(454.097656 0)"/>
      <use xlink:href="#DejaVuSans-73" transform="translate(515.279297 0)"/>
      <use xlink:href="#DejaVuSans-73" transform="translate(567.378906 0)"/>
     </g>
    </g>
    <g id="line2d_60">
     <path d="M 161.003413 34.976563 
L 171.003413 34.976563 
L 181.003413 34.976563 
" style="fill: none; stroke: #e63946; stroke-width: 1.5; stroke-linecap: square"/>
    </g>
    <g id="text_14">
     <!-- Validation loss -->
     <g transform="translate(189.003413 38.476563) scale(0.1 -0.1)">
      <defs>
       <path id="DejaVuSans-56" d="M 1831 0 
L 50 4666 
L 709 4666 
L 2188 738 
L 3669 4666 
L 4325 4666 
L 2547 0 
L 1831 0 
z
" transform="scale(0.015625)"/>
       <path id="DejaVuSans-64" d="M 2906 2969 
L 2906 4863 
L 3481 4863 
L 3481 0 
L 2906 0 
L 2906 525 
Q 2725 213 2448 61 
Q 2172 -91 1784 -91 
Q 1150 -91 751 415 
Q 353 922 353 1747 
Q 353 2572 751 3078 
Q 1150 3584 1784 3584 
Q 2172 3584 2448 3432 
Q 2725 3281 2906 2969 
z
M 947 1747 
Q 947 1113 1208 752 
Q 1469 391 1925 391 
Q 2381 391 2643 752 
Q 2906 1113 2906 1747 
Q 2906 2381 2643 2742 
Q 2381 3103 1925 3103 
Q 1469 3103 1208 2742 
Q 947 2381 947 1747 
z
" transform="scale(0.015625)"/>
       <path id="DejaVuSans-74" d="M 1172 4494 
L 1172 3500 
L 2356 3500 
L 2356 3053 
L 1172 3053 
L 1172 1153 
Q 1172 725 1289 603 
Q 1406 481 1766 481 
L 2356 481 
L 2356 0 
L 1766 0 
Q 1100 0 847 248 
Q 594 497 594 1153 
L 594 3053 
L 172 3053 
L 172 3500 
L 594 3500 
L 594 4494 
L 1172 4494 
z
" transform="scale(0.015625)"/>
      </defs>
      <use xlink:href="#DejaVuSans-56"/>
      <use xlink:href="#DejaVuSans-61" transform="translate(60.658203 0)"/>
      <use xlink:href="#DejaVuSans-6c" transform="translate(121.9375 0)"/>
      <use xlink:href="#DejaVuSans-69" transform="translate(149.720703 0)"/>
      <use xlink:href="#DejaVuSans-64" transform="translate(177.503906 0)"/>
      <use xlink:href="#DejaVuSans-61" transform="translate(240.980469 0)"/>
      <use xlink:href="#DejaVuSans-74" transform="translate(302.259766 0)"/>
      <use xlink:href="#DejaVuSans-69" transform="translate(341.46875 0)"/>
      <use xlink:href="#DejaVuSans-6f" transform="translate(369.251953 0)"/>
      <use xlink:href="#DejaVuSans-6e" transform="translate(430.433594 0)"/>
      <use xlink:href="#DejaVuSans-20" transform="translate(493.8125 0)"/>
      <use xlink:href="#DejaVuSans-6c" transform="translate(525.599609 0)"/>
      <use xlink:href="#DejaVuSans-6f" transform="translate(553.382812 0)"/>
      <use xlink:href="#DejaVuSans-73" transform="translate(614.564453 0)"/>
      <use xlink:href="#DejaVuSans-73" transform="translate(666.664062 0)"/>
     </g>
    </g>
   </g>
  </g>
 </g>
 <defs>
  <clipPath id="p0de04547b4">
   <rect x="51.378125" y="7.2" width="218.500288" height="163.24"/>
  </clipPath>
 </defs>
</svg>
