<?xml version="1.0" encoding="utf-8" standalone="no"?>
<!DOCTYPE svg PUBLIC "-//W3C//DTD SVG 1.1//EN"
  "http://www.w3.org/Graphics/SVG/1.1/DTD/svg11.dtd">
<svg xmlns:xlink="http://www.w3.org/1999/xlink" width="279.781071pt" height="206.248309pt" viewBox="0 0 279.781071 206.248309" xmlns="http://www.w3.org/2000/svg" version="1.1">
 <metadata>
  <rdf:RDF xmlns:dc="http://purl.org/dc/elements/1.1/" xmlns:cc="http://creativecommons.org/ns#" xmlns:rdf="http://www.w3.org/1999/02/22-rdf-syntax-ns#">
   <cc:Work>
    <dc:type rdf:resource="http://purl.org/dc/dcmitype/StillImage"/>
    <dc:date>2026-04-01T23:56:37.614780</dc:date>
    <dc:format>image/svg+xml</dc:format>
    <dc:creator>
     <cc:Agent>
      <dc:title>Matplotlib v3.10.3, https://matplotlib.org/</dc:title>
     </cc:Agent>
    </dc:creator>
   </cc:Work>
  </rdf:RDF>
 </metadata>
 <defs>
  <style type="text/css">*{stroke-linejoin: round; stroke-linecap: butt}</style>
 </defs>
 <g id="figure_1">
  <g id="patch_1">
   <path d="M 0 206.248309 
L 279.781071 206.248309 
L 279.781071 0 
L 0 0 
z
" style="fill: #ffffff"/>
  </g>
  <g id="axes_1">
   <g id="patch_2">
    <path d="M 51.378125 168.692059 
L 272.581071 168.692059 
L 272.581071 9.450543 
L 51.378125 9.450543 
z
" style="fill: #ffffff"/>
   </g>
   <g id="matplotlib.axis_1">
    <g id="xtick_1">
     <g id="line2d_1">
      <defs>
       <path id="ma5858760a4" d="M 0 0 
L 0 3.5 
" style="stroke: #000000; stroke-width: 0.8"/>
      </defs>
      <g>
       <use xlink:href="#ma5858760a4" x="61.432804" y="168.692059" style="stroke: #000000; stroke-width: 0.8"/>
      </g>
     </g>
     <g id="text_1">
      <!-- 0 -->
      <g transform="translate(58.251554 183.290497) scale(0.1 -0.1)">
       <defs>
        <path id="DejaVuSans-30" d="M 2034 4250 
Q 1547 4250 1301 3770 
Q 1056 3291 1056 2328 
Q 1056 1369 1301 889 
Q 1547 409 2034 409 
Q 2525 409 2770 889 
Q 3016 1369 3016 2328 
Q 3016 3291 2770 3770 
Q 2525 4250 2034 4250 
z
M 2034 4750 
Q 2819 4750 3233 4129 
Q 3647 3509 3647 2328 
Q 3647 1150 3233 529 
Q 2819 -91 2034 -91 
Q 1250 -91 836 529 
Q 422 1150 422 2328 
Q 422 3509 836 4129 
Q 1250 4750 2034 4750 
z
" transform="scale(0.015625)"/>
       </defs>
       <use xlink:href="#DejaVuSans-30"/>
      </g>
     </g>
    </g>
    <g id="xtick_2">
     <g id="line2d_2">
      <g>
       <use xlink:href="#ma5858760a4" x="110.902322" y="168.692059" style="stroke: #000000; stroke-width: 0.8"/>
      </g>
     </g>
     <g id="text_2">
      <!-- 200 -->
      <g transform="translate(101.358572 183.290497) scale(0.1 -0.1)">
       <defs>
        <path id="DejaVuSans-32" d="M 1228 531 
L 3431 531 
L 3431 0 
L 469 0 
L 469 531 
Q 828 903 1448 1529 
Q 2069 2156 2228 2338 
Q 2531 2678 2651 2914 
Q 2772 3150 2772 3378 
Q 2772 3750 2511 3984 
Q 2250 4219 1831 4219 
Q 1534 4219 1204 4116 
Q 875 4013 500 3803 
L 500 4441 
Q 881 4594 1212 4672 
Q 1544 4750 1819 4750 
Q 2544 4750 2975 4387 
Q 3406 4025 3406 3419 
Q 3406 3131 3298 2873 
Q 3191 2616 2906 2266 
Q 2828 2175 2409 1742 
Q 1991 1309 1228 531 
z
" transform="scale(0.015625)"/>
       </defs>
       <use xlink:href="#DejaVuSans-32"/>
       <use xlink:href="#DejaVuSans-30" transform="translate(63.623047 0)"/>
       <use xlink:href="#DejaVuSans-30" transform="translate(127.246094 0)"/>
      </g>
     </g>
    </g>
    <g id="xtick_3">
     <g id="line2d_3">
      <g>
       <use xlink:href="#ma5858760a4" x="160.371839" y="168.692059" style="stroke: #000000; stroke-width: 0.8"/>
      </g>
     </g>
     <g id="text_3">
      <!-- 400 -->
      <g transform="translate(150.828089 183.290497) scale(0.1 -0.1)">
       <defs>
        <path id="DejaVuSans-34" d="M 2419 4116 
L 825 1625 
L 2419 1625 
L 2419 4116 
z
M 2253 4666 
L 3047 4666 
L 3047 1625 
L 3713 1625 
L 3713 1100 
L 3047 1100 
L 3047 0 
L 2419 0 
L 2419 1100 
L 313 1100 
L 313 1709 
L 2253 4666 
z
" transform="scale(0.015625)"/>
       </defs>
       <use xlink:href="#DejaVuSans-34"/>
       <use xlink:href="#DejaVuSans-30" transform="translate(63.623047 0)"/>
       <use xlink:href="#DejaVuSans-30" transform="translate(127.246094 0)"/>
      </g>
     </g>
    </g>
    <g id="xtick_4">
     <g id="line2d_4">
      <g>
       <use xlink:href="#ma5858760a4" x="209.841356" y="168.692059" style="stroke: #000000; stroke-width: 0.8"/>
      </g>
     </g>
     <g id="text_4">
      <!-- 600 -->
      <g transform="translate(200.297606 183.290497) scale(0.1 -0.1)">
       <defs>
        <path id="DejaVuSans-36" d="M 2113 2584 
Q 1688 2584 1439 2293 
Q 1191 2003 1191 1497 
Q 1191 994 1439 701 
Q 1688 409 2113 409 
Q 2538 409 2786 701 
Q 3034 994 3034 1497 
Q 3034 2003 2786 2293 
Q 2538 2584 2113 2584 
z
M 3366 4563 
L 3366 3988 
Q 3128 4100 2886 4159 
Q 2644 4219 2406 4219 
Q 1781 4219 1451 3797 
Q 1122 3375 1075 2522 
Q 1259 2794 1537 2939 
Q 1816 3084 2150 3084 
Q 2853 3084 3261 2657 
Q 3669 2231 3669 1497 
Q 3669 778 3244 343 
Q 2819 -91 2113 -91 
Q 1303 -91 875 529 
Q 447 1150 447 2328 
Q 447 3434 972 4092 
Q 1497 4750 2381 4750 
Q 2619 4750 2861 4703 
Q 3103 4656 3366 4563 
z
" transform="scale(0.015625)"/>
       </defs>
       <use xlink:href="#DejaVuSans-36"/>
       <use xlink:href="#DejaVuSans-30" transform="translate(63.623047 0)"/>
       <use xlink:href="#DejaVuSans-30" transform="translate(127.246094 0)"/>
      </g>
     </g>
    </g>
    <g id="xtick_5">
     <g id="line2d_5">
      <g>
       <use xlink:href="#ma5858760a4" x="259.310873" y="168.692059" style="stroke: #000000; stroke-width: 0.8"/>
      </g>
     </g>
     <g id="text_5">
      <!-- 800 -->
      <g transform="translate(249.767123 183.290497) scale(0.1 -0.1)">
       <defs>
        <path id="DejaVuSans-38" d="M 2034 2216 
Q 1584 2216 1326 1975 
Q 1069 1734 1069 1313 
Q 1069 891 1326 650 
Q 1584 409 2034 409 
Q 2484 409 2743 651 
Q 3003 894 3003 1313 
Q 3003 1734 2745 1975 
Q 2488 2216 2034 2216 
z
M 1403 2484 
Q 997 2584 770 2862 
Q 544 3141 544 3541 
Q 544 4100 942 4425 
Q 1341 4750 2034 4750 
Q 2731 4750 3128 4425 
Q 3525 4100 3525 3541 
Q 3525 3141 3298 2862 
Q 3072 2584 2669 2484 
Q 3125 2378 3379 2068 
Q 3634 1759 3634 1313 
Q 3634 634 3220 271 
Q 2806 -91 2034 -91 
Q 1263 -91 848 271 
Q 434 634 434 1313 
Q 434 1759 690 2068 
Q 947 2378 1403 2484 
z
M 1172 3481 
Q 1172 3119 1398 2916 
Q 1625 2713 2034 2713 
Q 2441 2713 2670 2916 
Q 2900 3119 2900 3481 
Q 2900 3844 2670 4047 
Q 2441 4250 2034 4250 
Q 1625 4250 1398 4047 
Q 1172 3844 1172 3481 
z
" transform="scale(0.015625)"/>
       </defs>
       <use xlink:href="#DejaVuSans-38"/>
       <use xlink:href="#DejaVuSans-30" transform="translate(63.623047 0)"/>
       <use xlink:href="#DejaVuSans-30" transform="translate(127.246094 0)"/>
      </g>
     </g>
    </g>
    <g id="text_6">
     <!-- Epoch -->
     <g transform="translate(146.668661 196.968622) scale(0.1 -0.1)">
      <defs>
       <path id="DejaVuSans-45" d="M 628 4666 
L 3578 4666 
L 3578 4134 
L 1259 4134 
L 1259 2753 
L 3481 2753 
L 3481 2222 
L 1259 2222 
L 1259 531 
L 3634 531 
L 3634 0 
L 628 0 
L 628 4666 
z
" transform="scale(0.015625)"/>
       <path id="DejaVuSans-70" d="M 1159 525 
L 1159 -1331 
L 581 -1331 
L 581 3500 
L 1159 3500 
L 1159 2969 
Q 1341 3281 1617 3432 
Q 1894 3584 2278 3584 
Q 2916 3584 3314 3078 
Q 3713 2572 3713 1747 
Q 3713 922 3314 415 
Q 2916 -91 2278 -91 
Q 1894 -91 1617 61 
Q 1341 213 1159 525 
z
M 3116 1747 
Q 3116 2381 2855 2742 
Q 2594 3103 2138 3103 
Q 1681 3103 1420 2742 
Q 1159 2381 1159 1747 
Q 1159 1113 1420 752 
Q 1681 391 2138 391 
Q 2594 391 2855 752 
Q 3116 1113 3116 1747 
z
" transform="scale(0.015625)"/>
       <path id="DejaVuSans-6f" d="M 1959 3097 
Q 1497 3097 1228 2736 
Q 959 2375 959 1747 
Q 959 1119 1226 758 
Q 1494 397 1959 397 
Q 2419 397 2687 759 
Q 2956 1122 2956 1747 
Q 2956 2369 2687 2733 
Q 2419 3097 1959 3097 
z
M 1959 3584 
Q 2709 3584 3137 3096 
Q 3566 2609 3566 1747 
Q 3566 888 3137 398 
Q 2709 -91 1959 -91 
Q 1206 -91 779 398 
Q 353 888 353 1747 
Q 353 2609 779 3096 
Q 1206 3584 1959 3584 
z
" transform="scale(0.015625)"/>
       <path id="DejaVuSans-63" d="M 3122 3366 
L 3122 2828 
Q 2878 2963 2633 3030 
Q 2388 3097 2138 3097 
Q 1578 3097 1268 2742 
Q 959 2388 959 1747 
Q 959 1106 1268 751 
Q 1578 397 2138 397 
Q 2388 397 2633 464 
Q 2878 531 3122 666 
L 3122 134 
Q 2881 22 2623 -34 
Q 2366 -91 2075 -91 
Q 1284 -91 818 406 
Q 353 903 353 1747 
Q 353 2603 823 3093 
Q 1294 3584 2113 3584 
Q 2378 3584 2631 3529 
Q 2884 3475 3122 3366 
z
" transform="scale(0.015625)"/>
       <path id="DejaVuSans-68" d="M 3513 2113 
L 3513 0 
L 2938 0 
L 2938 2094 
Q 2938 2591 2744 2837 
Q 2550 3084 2163 3084 
Q 1697 3084 1428 2787 
Q 1159 2491 1159 1978 
L 1159 0 
L 581 0 
L 581 4863 
L 1159 4863 
L 1159 2956 
Q 1366 3272 1645 3428 
Q 1925 3584 2291 3584 
Q 2894 3584 3203 3211 
Q 3513 2838 3513 2113 
z
" transform="scale(0.015625)"/>
      </defs>
      <use xlink:href="#DejaVuSans-45"/>
      <use xlink:href="#DejaVuSans-70" transform="translate(63.183594 0)"/>
      <use xlink:href="#DejaVuSans-6f" transform="translate(126.660156 0)"/>
      <use xlink:href="#DejaVuSans-63" transform="translate(187.841797 0)"/>
      <use xlink:href="#DejaVuSans-68" transform="translate(242.822266 0)"/>
     </g>
    </g>
   </g>
   <g id="matplotlib.axis_2">
    <g id="ytick_1">
     <g id="line2d_6">
      <defs>
       <path id="m7d52c50958" d="M 0 0 
L -3.5 0 
" style="stroke: #000000; stroke-width: 0.8"/>
      </defs>
      <g>
       <use xlink:href="#m7d52c50958" x="51.378125" y="145.516703" style="stroke: #000000; stroke-width: 0.8"/>
      </g>
     </g>
     <g id="text_7">
      <!-- $\mathdefault{10^{-4}}$ -->
      <g transform="translate(20.878125 149.315922) scale(0.1 -0.1)">
       <defs>
        <path id="DejaVuSans-31" d="M 794 531 
L 1825 531 
L 1825 4091 
L 703 3866 
L 703 4441 
L 1819 4666 
L 2450 4666 
L 2450 531 
L 3481 531 
L 3481 0 
L 794 0 
L 794 531 
z
" transform="scale(0.015625)"/>
        <path id="DejaVuSans-2212" d="M 678 2272 
L 4684 2272 
L 4684 1741 
L 678 1741 
L 678 2272 
z
" transform="scale(0.015625)"/>
       </defs>
       <use xlink:href="#DejaVuSans-31" transform="translate(0 0.684375)"/>
       <use xlink:href="#DejaVuSans-30" transform="translate(63.623047 0.684375)"/>
       <use xlink:href="#DejaVuSans-2212" transform="translate(128.203125 38.965625) scale(0.7)"/>
       <use xlink:href="#DejaVuSans-34" transform="translate(186.855469 38.965625) scale(0.7)"/>
      </g>
     </g>
    </g>
    <g id="ytick_2">
     <g id="line2d_7">
      <g>
       <use xlink:href="#m7d52c50958" x="51.378125" y="111.887332" style="stroke: #000000; stroke-width: 0.8"/>
      </g>
     </g>
     <g id="text_8">
      <!-- $\mathdefault{10^{-3}}$ -->
      <g transform="translate(20.878125 115.686551) scale(0.1 -0.1)">
       <defs>
        <path id="DejaVuSans-33" d="M 2597 2516 
Q 3050 2419 3304 2112 
Q 3559 1806 3559 1356 
Q 3559 666 3084 287 
Q 2609 -91 1734 -91 
Q 1441 -91 1130 -33 
Q 819 25 488 141 
L 488 750 
Q 750 597 1062 519 
Q 1375 441 1716 441 
Q 2309 441 2620 675 
Q 2931 909 2931 1356 
Q 2931 1769 2642 2001 
Q 2353 2234 1838 2234 
L 1294 2234 
L 1294 2753 
L 1863 2753 
Q 2328 2753 2575 2939 
Q 2822 3125 2822 3475 
Q 2822 3834 2567 4026 
Q 2313 4219 1838 4219 
Q 1578 4219 1281 4162 
Q 984 4106 628 3988 
L 628 4550 
Q 988 4650 1302 4700 
Q 1616 4750 1894 4750 
Q 2613 4750 3031 4423 
Q 3450 4097 3450 3541 
Q 3450 3153 3228 2886 
Q 3006 2619 2597 2516 
z
" transform="scale(0.015625)"/>
       </defs>
       <use xlink:href="#DejaVuSans-31" transform="translate(0 0.765625)"/>
       <use xlink:href="#DejaVuSans-30" transform="translate(63.623047 0.765625)"/>
       <use xlink:href="#DejaVuSans-2212" transform="translate(128.203125 39.046875) scale(0.7)"/>
       <use xlink:href="#DejaVuSans-33" transform="translate(186.855469 39.046875) scale(0.7)"/>
      </g>
     </g>
    </g>
    <g id="ytick_3">
     <g id="line2d_8">
      <g>
       <use xlink:href="#m7d52c50958" x="51.378125" y="78.257961" style="stroke: #000000; stroke-width: 0.8"/>
      </g>
     </g>
     <g id="text_9">
      <!-- $\mathdefault{10^{-2}}$ -->
      <g transform="translate(20.878125 82.05718) scale(0.1 -0.1)">
       <use xlink:href="#DejaVuSans-31" transform="translate(0 0.765625)"/>
       <use xlink:href="#DejaVuSans-30" transform="translate(63.623047 0.765625)"/>
       <use xlink:href="#DejaVuSans-2212" transform="translate(128.203125 39.046875) scale(0.7)"/>
       <use xlink:href="#DejaVuSans-32" transform="translate(186.855469 39.046875) scale(0.7)"/>
      </g>
     </g>
    </g>
    <g id="ytick_4">
     <g id="line2d_9">
      <g>
       <use xlink:href="#m7d52c50958" x="51.378125" y="44.62859" style="stroke: #000000; stroke-width: 0.8"/>
      </g>
     </g>
     <g id="text_10">
      <!-- $\mathdefault{10^{-1}}$ -->
      <g transform="translate(20.878125 48.427809) scale(0.1 -0.1)">
       <use xlink:href="#DejaVuSans-31" transform="translate(0 0.684375)"/>
       <use xlink:href="#DejaVuSans-30" transform="translate(63.623047 0.684375)"/>
       <use xlink:href="#DejaVuSans-2212" transform="translate(128.203125 38.965625) scale(0.7)"/>
       <use xlink:href="#DejaVuSans-31" transform="translate(186.855469 38.965625) scale(0.7)"/>
      </g>
     </g>
    </g>
    <g id="ytick_5">
     <g id="line2d_10">
      <g>
       <use xlink:href="#m7d52c50958" x="51.378125" y="10.999219" style="stroke: #000000; stroke-width: 0.8"/>
      </g>
     </g>
     <g id="text_11">
      <!-- $\mathdefault{10^{0}}$ -->
      <g transform="translate(26.778125 14.798438) scale(0.1 -0.1)">
       <use xlink:href="#DejaVuSans-31" transform="translate(0 0.765625)"/>
       <use xlink:href="#DejaVuSans-30" transform="translate(63.623047 0.765625)"/>
       <use xlink:href="#DejaVuSans-30" transform="translate(128.203125 39.046875) scale(0.7)"/>
      </g>
     </g>
    </g>
    <g id="ytick_6">
     <g id="line2d_11">
      <defs>
       <path id="m12811d7555" d="M 0 0 
L -2 0 
" style="stroke: #000000; stroke-width: 0.6"/>
      </defs>
      <g>
       <use xlink:href="#m12811d7555" x="51.378125" y="163.100787" style="stroke: #000000; stroke-width: 0.6"/>
      </g>
     </g>
    </g>
    <g id="ytick_7">
     <g id="line2d_12">
      <g>
       <use xlink:href="#m12811d7555" x="51.378125" y="158.899175" style="stroke: #000000; stroke-width: 0.6"/>
      </g>
     </g>
    </g>
    <g id="ytick_8">
     <g id="line2d_13">
      <g>
       <use xlink:href="#m12811d7555" x="51.378125" y="155.640153" style="stroke: #000000; stroke-width: 0.6"/>
      </g>
     </g>
    </g>
    <g id="ytick_9">
     <g id="line2d_14">
      <g>
       <use xlink:href="#m12811d7555" x="51.378125" y="152.977337" style="stroke: #000000; stroke-width: 0.6"/>
      </g>
     </g>
    </g>
    <g id="ytick_10">
     <g id="line2d_15">
      <g>
       <use xlink:href="#m12811d7555" x="51.378125" y="150.725959" style="stroke: #000000; stroke-width: 0.6"/>
      </g>
     </g>
    </g>
    <g id="ytick_11">
     <g id="line2d_16">
      <g>
       <use xlink:href="#m12811d7555" x="51.378125" y="148.775726" style="stroke: #000000; stroke-width: 0.6"/>
      </g>
     </g>
    </g>
    <g id="ytick_12">
     <g id="line2d_17">
      <g>
       <use xlink:href="#m12811d7555" x="51.378125" y="147.055499" style="stroke: #000000; stroke-width: 0.6"/>
      </g>
     </g>
    </g>
    <g id="ytick_13">
     <g id="line2d_18">
      <g>
       <use xlink:href="#m12811d7555" x="51.378125" y="135.393254" style="stroke: #000000; stroke-width: 0.6"/>
      </g>
     </g>
    </g>
    <g id="ytick_14">
     <g id="line2d_19">
      <g>
       <use xlink:href="#m12811d7555" x="51.378125" y="129.471416" style="stroke: #000000; stroke-width: 0.6"/>
      </g>
     </g>
    </g>
    <g id="ytick_15">
     <g id="line2d_20">
      <g>
       <use xlink:href="#m12811d7555" x="51.378125" y="125.269804" style="stroke: #000000; stroke-width: 0.6"/>
      </g>
     </g>
    </g>
    <g id="ytick_16">
     <g id="line2d_21">
      <g>
       <use xlink:href="#m12811d7555" x="51.378125" y="122.010782" style="stroke: #000000; stroke-width: 0.6"/>
      </g>
     </g>
    </g>
    <g id="ytick_17">
     <g id="line2d_22">
      <g>
       <use xlink:href="#m12811d7555" x="51.378125" y="119.347966" style="stroke: #000000; stroke-width: 0.6"/>
      </g>
     </g>
    </g>
    <g id="ytick_18">
     <g id="line2d_23">
      <g>
       <use xlink:href="#m12811d7555" x="51.378125" y="117.096588" style="stroke: #000000; stroke-width: 0.6"/>
      </g>
     </g>
    </g>
    <g id="ytick_19">
     <g id="line2d_24">
      <g>
       <use xlink:href="#m12811d7555" x="51.378125" y="115.146355" style="stroke: #000000; stroke-width: 0.6"/>
      </g>
     </g>
    </g>
    <g id="ytick_20">
     <g id="line2d_25">
      <g>
       <use xlink:href="#m12811d7555" x="51.378125" y="113.426128" style="stroke: #000000; stroke-width: 0.6"/>
      </g>
     </g>
    </g>
    <g id="ytick_21">
     <g id="line2d_26">
      <g>
       <use xlink:href="#m12811d7555" x="51.378125" y="101.763883" style="stroke: #000000; stroke-width: 0.6"/>
      </g>
     </g>
    </g>
    <g id="ytick_22">
     <g id="line2d_27">
      <g>
       <use xlink:href="#m12811d7555" x="51.378125" y="95.842044" style="stroke: #000000; stroke-width: 0.6"/>
      </g>
     </g>
    </g>
    <g id="ytick_23">
     <g id="line2d_28">
      <g>
       <use xlink:href="#m12811d7555" x="51.378125" y="91.640433" style="stroke: #000000; stroke-width: 0.6"/>
      </g>
     </g>
    </g>
    <g id="ytick_24">
     <g id="line2d_29">
      <g>
       <use xlink:href="#m12811d7555" x="51.378125" y="88.38141" style="stroke: #000000; stroke-width: 0.6"/>
      </g>
     </g>
    </g>
    <g id="ytick_25">
     <g id="line2d_30">
      <g>
       <use xlink:href="#m12811d7555" x="51.378125" y="85.718595" style="stroke: #000000; stroke-width: 0.6"/>
      </g>
     </g>
    </g>
    <g id="ytick_26">
     <g id="line2d_31">
      <g>
       <use xlink:href="#m12811d7555" x="51.378125" y="83.467216" style="stroke: #000000; stroke-width: 0.6"/>
      </g>
     </g>
    </g>
    <g id="ytick_27">
     <g id="line2d_32">
      <g>
       <use xlink:href="#m12811d7555" x="51.378125" y="81.516984" style="stroke: #000000; stroke-width: 0.6"/>
      </g>
     </g>
    </g>
    <g id="ytick_28">
     <g id="line2d_33">
      <g>
       <use xlink:href="#m12811d7555" x="51.378125" y="79.796757" style="stroke: #000000; stroke-width: 0.6"/>
      </g>
     </g>
    </g>
    <g id="ytick_29">
     <g id="line2d_34">
      <g>
       <use xlink:href="#m12811d7555" x="51.378125" y="68.134512" style="stroke: #000000; stroke-width: 0.6"/>
      </g>
     </g>
    </g>
    <g id="ytick_30">
     <g id="line2d_35">
      <g>
       <use xlink:href="#m12811d7555" x="51.378125" y="62.212673" style="stroke: #000000; stroke-width: 0.6"/>
      </g>
     </g>
    </g>
    <g id="ytick_31">
     <g id="line2d_36">
      <g>
       <use xlink:href="#m12811d7555" x="51.378125" y="58.011062" style="stroke: #000000; stroke-width: 0.6"/>
      </g>
     </g>
    </g>
    <g id="ytick_32">
     <g id="line2d_37">
      <g>
       <use xlink:href="#m12811d7555" x="51.378125" y="54.752039" style="stroke: #000000; stroke-width: 0.6"/>
      </g>
     </g>
    </g>
    <g id="ytick_33">
     <g id="line2d_38">
      <g>
       <use xlink:href="#m12811d7555" x="51.378125" y="52.089224" style="stroke: #000000; stroke-width: 0.6"/>
      </g>
     </g>
    </g>
    <g id="ytick_34">
     <g id="line2d_39">
      <g>
       <use xlink:href="#m12811d7555" x="51.378125" y="49.837845" style="stroke: #000000; stroke-width: 0.6"/>
      </g>
     </g>
    </g>
    <g id="ytick_35">
     <g id="line2d_40">
      <g>
       <use xlink:href="#m12811d7555" x="51.378125" y="47.887613" style="stroke: #000000; stroke-width: 0.6"/>
      </g>
     </g>
    </g>
    <g id="ytick_36">
     <g id="line2d_41">
      <g>
       <use xlink:href="#m12811d7555" x="51.378125" y="46.167386" style="stroke: #000000; stroke-width: 0.6"/>
      </g>
     </g>
    </g>
    <g id="ytick_37">
     <g id="line2d_42">
      <g>
       <use xlink:href="#m12811d7555" x="51.378125" y="34.50514" style="stroke: #000000; stroke-width: 0.6"/>
      </g>
     </g>
    </g>
    <g id="ytick_38">
     <g id="line2d_43">
      <g>
       <use xlink:href="#m12811d7555" x="51.378125" y="28.583302" style="stroke: #000000; stroke-width: 0.6"/>
      </g>
     </g>
    </g>
    <g id="ytick_39">
     <g id="line2d_44">
      <g>
       <use xlink:href="#m12811d7555" x="51.378125" y="24.381691" style="stroke: #000000; stroke-width: 0.6"/>
      </g>
     </g>
    </g>
    <g id="ytick_40">
     <g id="line2d_45">
      <g>
       <use xlink:href="#m12811d7555" x="51.378125" y="21.122668" style="stroke: #000000; stroke-width: 0.6"/>
      </g>
     </g>
    </g>
    <g id="ytick_41">
     <g id="line2d_46">
      <g>
       <use xlink:href="#m12811d7555" x="51.378125" y="18.459853" style="stroke: #000000; stroke-width: 0.6"/>
      </g>
     </g>
    </g>
    <g id="ytick_42">
     <g id="line2d_47">
      <g>
       <use xlink:href="#m12811d7555" x="51.378125" y="16.208474" style="stroke: #000000; stroke-width: 0.6"/>
      </g>
     </g>
    </g>
    <g id="ytick_43">
     <g id="line2d_48">
      <g>
       <use xlink:href="#m12811d7555" x="51.378125" y="14.258242" style="stroke: #000000; stroke-width: 0.6"/>
      </g>
     </g>
    </g>
    <g id="ytick_44">
     <g id="line2d_49">
      <g>
       <use xlink:href="#m12811d7555" x="51.378125" y="12.538014" style="stroke: #000000; stroke-width: 0.6"/>
      </g>
     </g>
    </g>
    <g id="text_12">
     <!-- Loss -->
     <g transform="translate(14.798438 100.038489) rotate(-90) scale(0.1 -0.1)">
      <defs>
       <path id="DejaVuSans-4c" d="M 628 4666 
L 1259 4666 
L 1259 531 
L 3531 531 
L 3531 0 
L 628 0 
L 628 4666 
z
" transform="scale(0.015625)"/>
       <path id="DejaVuSans-73" d="M 2834 3397 
L 2834 2853 
Q 2591 2978 2328 3040 
Q 2066 3103 1784 3103 
Q 1356 3103 1142 2972 
Q 928 2841 928 2578 
Q 928 2378 1081 2264 
Q 1234 2150 1697 2047 
L 1894 2003 
Q 2506 1872 2764 1633 
Q 3022 1394 3022 966 
Q 3022 478 2636 193 
Q 2250 -91 1575 -91 
Q 1294 -91 989 -36 
Q 684 19 347 128 
L 347 722 
Q 666 556 975 473 
Q 1284 391 1588 391 
Q 1994 391 2212 530 
Q 2431 669 2431 922 
Q 2431 1156 2273 1281 
Q 2116 1406 1581 1522 
L 1381 1569 
Q 847 1681 609 1914 
Q 372 2147 372 2553 
Q 372 3047 722 3315 
Q 1072 3584 1716 3584 
Q 2034 3584 2315 3537 
Q 2597 3491 2834 3397 
z
" transform="scale(0.015625)"/>
      </defs>
      <use xlink:href="#DejaVuSans-4c"/>
      <use xlink:href="#DejaVuSans-6f" transform="translate(53.962891 0)"/>
      <use xlink:href="#DejaVuSans-73" transform="translate(115.144531 0)"/>
      <use xlink:href="#DejaVuSans-73" transform="translate(167.244141 0)"/>
     </g>
    </g>
   </g>
   <g id="line2d_50">
    <path d="M 61.432804 16.688794 
L 61.9275 71.625996 
L 62.174847 81.174191 
L 62.422195 86.154137 
L 63.658933 98.105109 
L 63.90628 99.283703 
L 64.400975 102.964656 
L 64.648323 104.39243 
L 64.895671 104.665658 
L 65.143018 106.718852 
L 65.637713 107.489175 
L 66.132409 110.093147 
L 66.379756 110.85282 
L 66.627104 110.262134 
L 66.874451 110.601002 
L 67.121799 111.484059 
L 67.369146 113.033719 
L 67.616494 112.744239 
L 67.863842 114.27422 
L 68.111189 113.879394 
L 68.358537 114.326413 
L 68.605884 115.783422 
L 68.853232 115.837842 
L 69.10058 118.023797 
L 69.347927 117.169171 
L 69.595275 118.643913 
L 69.842622 117.248726 
L 70.08997 117.431487 
L 70.337317 120.239996 
L 70.584665 119.104179 
L 70.832013 119.991904 
L 71.07936 119.775521 
L 71.326708 120.455962 
L 71.574055 122.213908 
L 71.821403 115.35602 
L 72.068751 122.915141 
L 72.316098 122.496113 
L 72.563446 124.368342 
L 72.810793 124.06626 
L 73.058141 124.234458 
L 73.305488 124.035961 
L 73.552836 124.103499 
L 73.800184 125.545608 
L 74.047531 125.289422 
L 74.294879 121.77469 
L 74.542226 124.087098 
L 74.789574 123.841484 
L 75.036922 126.483455 
L 75.284269 125.405268 
L 75.531617 127.454623 
L 75.778964 122.829097 
L 76.026312 124.564053 
L 76.27366 124.132804 
L 76.521007 127.314928 
L 76.768355 127.074331 
L 77.015702 121.238161 
L 77.26305 126.251976 
L 77.510397 125.24328 
L 77.757745 128.85139 
L 78.25244 130.342108 
L 78.499788 128.299436 
L 78.747135 130.758924 
L 78.994483 130.582085 
L 79.489178 130.798942 
L 79.736526 132.047441 
L 79.983873 129.941367 
L 80.231221 130.14147 
L 80.478568 130.611015 
L 80.725916 129.350124 
L 80.973264 119.834269 
L 81.467959 131.515706 
L 81.715306 132.807106 
L 81.962654 132.184887 
L 82.210002 131.260712 
L 82.457349 131.658121 
L 82.704697 135.043472 
L 82.952044 132.272355 
L 83.199392 132.844724 
L 83.694087 131.860942 
L 83.941435 133.752394 
L 84.188782 131.02771 
L 84.43613 136.307573 
L 84.683477 132.506573 
L 84.930825 135.318663 
L 85.178173 131.861483 
L 85.42552 135.785258 
L 85.920215 134.336405 
L 86.167563 131.300582 
L 86.414911 132.650621 
L 86.662258 132.126603 
L 86.909606 135.785791 
L 87.651648 130.968067 
L 87.898996 137.438275 
L 88.146344 136.133614 
L 88.393691 133.040646 
L 88.641039 132.814916 
L 88.888386 137.284583 
L 89.135734 133.1983 
L 89.383082 133.543385 
L 89.630429 116.174665 
L 89.877777 137.004462 
L 90.125124 139.173102 
L 90.372472 136.448451 
L 90.61982 139.0451 
L 90.867167 137.747626 
L 91.114515 137.936654 
L 91.361862 133.763067 
L 91.60921 136.749554 
L 92.103905 139.178952 
L 92.351253 130.779772 
L 92.5986 136.753957 
L 92.845948 135.772639 
L 93.093295 133.598215 
L 93.340643 139.213531 
L 93.587991 136.616107 
L 93.835338 139.524993 
L 94.082686 135.608249 
L 94.577381 138.105555 
L 94.824728 138.221823 
L 95.072076 127.803899 
L 95.814119 140.397982 
L 96.061466 139.443088 
L 96.308814 139.339709 
L 96.556162 138.060426 
L 96.803509 135.49197 
L 97.050857 139.527912 
L 97.298204 138.303229 
L 97.545552 141.55037 
L 97.792899 139.443161 
L 98.040247 135.680254 
L 98.287595 137.74231 
L 98.534942 137.465504 
L 98.78229 138.970472 
L 99.029637 138.333738 
L 99.276985 146.008951 
L 99.524333 147.607807 
L 99.77168 146.717582 
L 100.019028 147.411054 
L 100.513723 145.684466 
L 100.761071 145.283569 
L 101.008418 146.863656 
L 101.255766 146.428392 
L 101.503113 146.250014 
L 101.750461 141.601178 
L 101.997808 145.974218 
L 102.492504 148.064655 
L 102.739851 145.227075 
L 102.987199 146.634255 
L 103.234546 145.614283 
L 103.481894 145.991734 
L 103.729242 144.894582 
L 103.976589 144.939346 
L 104.223937 145.574648 
L 104.471284 145.626739 
L 104.718632 145.416048 
L 104.965979 144.743424 
L 105.213327 145.484374 
L 105.460675 144.232574 
L 105.708022 144.82005 
L 105.95537 145.717831 
L 106.202717 142.587421 
L 106.450065 144.68397 
L 106.697413 145.816319 
L 106.94476 145.739633 
L 107.192108 145.247643 
L 107.439455 142.147363 
L 107.686803 145.279856 
L 108.181498 147.601858 
L 108.428846 145.193056 
L 108.676193 145.702131 
L 108.923541 145.686417 
L 109.170888 148.321504 
L 109.418236 147.120916 
L 109.665584 146.704112 
L 109.912931 146.778985 
L 110.160279 146.008223 
L 110.407626 144.281234 
L 110.654974 146.459483 
L 110.902322 146.711123 
L 111.149669 146.761222 
L 111.397017 146.663123 
L 111.891712 146.901349 
L 112.139059 147.7196 
L 112.386407 146.989503 
L 112.633755 145.517539 
L 112.881102 145.344303 
L 113.12845 145.464654 
L 113.375797 145.725322 
L 113.870493 148.001895 
L 114.11784 147.597609 
L 114.365188 148.547317 
L 114.612535 145.883121 
L 114.859883 146.460785 
L 115.107231 148.777116 
L 115.354578 147.710628 
L 115.601926 148.738196 
L 116.096621 147.490387 
L 116.343968 146.38734 
L 116.591316 146.300227 
L 116.838664 148.700379 
L 117.086011 148.524368 
L 117.333359 149.490986 
L 117.580706 148.262043 
L 117.828054 149.352866 
L 118.075402 147.876442 
L 118.322749 141.677129 
L 118.570097 149.100939 
L 118.817444 150.056751 
L 119.064792 146.994368 
L 119.312139 147.612719 
L 119.559487 149.158737 
L 119.806835 149.637329 
L 120.054182 142.675995 
L 120.30153 148.145529 
L 120.548877 150.392244 
L 120.796225 148.913368 
L 121.043573 148.854212 
L 121.29092 150.433168 
L 121.538268 147.345097 
L 121.785615 146.031341 
L 122.032963 149.501515 
L 122.280311 148.584907 
L 122.527658 148.274012 
L 122.775006 148.732988 
L 123.022353 148.105835 
L 123.269701 148.714768 
L 123.517048 142.386729 
L 123.764396 151.309021 
L 124.011744 148.124471 
L 124.259091 148.072974 
L 124.506439 149.824841 
L 124.753786 149.049676 
L 125.001134 150.581603 
L 125.248482 150.009499 
L 125.495829 148.634782 
L 125.743177 148.599465 
L 125.990524 150.354372 
L 126.237872 144.936324 
L 126.485219 150.604174 
L 126.732567 150.277841 
L 126.979915 149.295272 
L 127.227262 149.729535 
L 127.47461 150.684387 
L 127.721957 150.118418 
L 127.969305 149.982795 
L 128.216653 144.6543 
L 128.464 149.60734 
L 128.711348 150.423337 
L 128.958695 150.199791 
L 129.206043 147.120185 
L 129.700738 149.43274 
L 130.195433 147.402565 
L 130.690128 150.948987 
L 130.937476 151.460196 
L 131.184824 149.947363 
L 131.432171 147.196748 
L 131.679519 152.508877 
L 131.926866 142.196209 
L 132.174214 150.434409 
L 132.421562 149.503761 
L 132.668909 149.868164 
L 132.916257 150.447553 
L 133.163604 148.334344 
L 133.410952 151.047391 
L 133.658299 147.440707 
L 133.905647 148.644749 
L 134.152995 151.727967 
L 134.400342 150.291816 
L 134.64769 152.083045 
L 134.895037 150.091764 
L 135.142385 149.701447 
L 135.389733 147.705322 
L 135.63708 150.236392 
L 135.884428 150.419405 
L 136.131775 148.910709 
L 136.379123 149.351072 
L 136.62647 149.11908 
L 136.873818 150.118688 
L 137.121166 152.353017 
L 137.368513 151.45942 
L 137.615861 147.267536 
L 138.110556 152.06567 
L 138.357904 149.667799 
L 138.605251 145.190547 
L 138.852599 150.518763 
L 139.099946 151.354579 
L 139.347294 151.448123 
L 139.594642 151.839808 
L 139.841989 147.360202 
L 140.089337 152.273749 
L 140.336684 150.927957 
L 140.584032 150.368037 
L 140.831379 152.3194 
L 141.078727 151.514829 
L 141.326075 151.400728 
L 141.573422 149.567268 
L 141.82077 148.765169 
L 142.068117 151.193921 
L 142.315465 150.870307 
L 142.562813 150.358673 
L 142.81016 151.192741 
L 143.057508 149.323259 
L 143.552203 150.644385 
L 143.79955 152.384049 
L 144.046898 150.797907 
L 144.294246 149.987236 
L 144.541593 152.774528 
L 144.788941 148.092285 
L 145.283636 156.105653 
L 145.530984 156.678845 
L 146.025679 155.727093 
L 146.273026 154.903672 
L 146.520374 155.084319 
L 146.767722 154.79254 
L 147.015069 155.632076 
L 147.262417 156.036132 
L 147.509764 155.702225 
L 147.757112 153.840031 
L 148.004459 155.27455 
L 148.251807 155.268004 
L 148.499155 153.874746 
L 148.99385 155.447987 
L 149.241197 155.586703 
L 149.488545 154.834963 
L 149.735893 155.746684 
L 149.98324 155.215819 
L 150.230588 155.62129 
L 150.725283 153.355077 
L 150.97263 155.414934 
L 151.714673 155.465059 
L 151.962021 153.375558 
L 152.209368 154.557078 
L 152.456716 153.711349 
L 152.704064 155.631087 
L 152.951411 155.308933 
L 153.198759 155.363029 
L 153.446106 155.087272 
L 153.693454 151.70313 
L 153.940802 154.668881 
L 154.188149 155.240584 
L 154.435497 153.488094 
L 154.682844 155.530561 
L 154.930192 156.072832 
L 155.177539 155.416843 
L 155.424887 155.705756 
L 155.919582 155.753506 
L 156.16693 156.041002 
L 156.414277 154.139908 
L 156.661625 155.444114 
L 156.908973 152.990598 
L 157.403668 155.990276 
L 157.651015 155.610347 
L 157.898363 156.80906 
L 158.393058 154.065075 
L 158.640406 156.994267 
L 158.887753 156.640622 
L 159.135101 155.661877 
L 159.382448 155.420776 
L 159.629796 155.697261 
L 159.877144 155.722333 
L 160.124491 155.382868 
L 160.619186 156.08698 
L 160.866534 154.090649 
L 161.113881 155.54243 
L 161.361229 156.045024 
L 161.855924 154.751462 
L 162.350619 156.004925 
L 162.597967 155.428628 
L 162.845315 155.650018 
L 163.092662 156.255662 
L 163.34001 156.272955 
L 163.587357 155.833499 
L 163.834705 158.152745 
L 164.082053 158.633633 
L 164.824095 158.566127 
L 165.071443 158.389706 
L 165.566138 158.930321 
L 166.060833 157.195426 
L 166.308181 158.073712 
L 166.555528 157.91654 
L 167.050224 158.498957 
L 167.297571 158.291411 
L 167.792266 158.459815 
L 168.039614 158.224999 
L 168.534309 158.333293 
L 169.029004 158.577919 
L 169.276352 157.323145 
L 169.523699 157.295092 
L 170.265742 159.880713 
L 170.51309 159.846645 
L 171.007785 159.507499 
L 171.50248 159.655998 
L 171.749828 159.476336 
L 171.997175 159.77434 
L 172.739218 159.037846 
L 173.233913 159.466187 
L 173.481261 159.675869 
L 173.728608 159.375483 
L 173.975956 159.757021 
L 174.470651 159.379864 
L 174.717999 159.538309 
L 174.965346 159.461773 
L 175.212694 158.96567 
L 175.460041 159.692773 
L 175.707389 159.438945 
L 175.954737 159.573406 
L 176.449432 159.175516 
L 176.696779 159.662056 
L 176.944127 159.722373 
L 177.191475 160.217627 
L 177.68617 160.490285 
L 178.180865 160.356245 
L 178.428213 160.34952 
L 178.922908 160.101855 
L 179.417603 160.273813 
L 179.66495 160.418207 
L 179.912298 160.331882 
L 180.159646 160.376225 
L 180.654341 160.317332 
L 181.149036 160.474717 
L 181.396384 159.786364 
L 181.643731 160.385778 
L 181.891079 160.12133 
L 182.385774 160.257201 
L 182.633121 160.125452 
L 182.880469 160.388205 
L 183.127817 160.285037 
L 183.375164 160.313455 
L 183.622512 160.496605 
L 183.869859 160.329959 
L 184.85925 160.400875 
L 185.353945 160.342722 
L 185.601293 160.371843 
L 186.095988 160.145726 
L 186.343335 160.395301 
L 186.590683 160.326239 
L 186.83803 160.085348 
L 187.085378 160.34317 
L 187.332726 160.43687 
L 187.580073 160.274788 
L 187.827421 160.263283 
L 188.074768 160.857055 
L 188.322116 160.742157 
L 189.558854 160.884518 
L 190.053549 160.763065 
L 190.548244 160.821134 
L 191.290287 160.718028 
L 191.537635 160.758407 
L 191.784982 160.656021 
L 192.279677 160.824335 
L 192.527025 160.72857 
L 193.269068 160.844866 
L 194.01111 160.789621 
L 194.258458 160.849453 
L 194.505806 160.720208 
L 195.495196 160.885381 
L 195.989891 160.708758 
L 196.237239 160.785734 
L 196.484586 160.683192 
L 196.731934 160.779427 
L 196.979281 160.699429 
L 197.226629 160.77778 
L 197.473977 161.008987 
L 197.968672 161.084988 
L 200.1948 161.096885 
L 200.689495 160.979056 
L 200.936843 161.11097 
L 202.420928 161.049837 
L 202.915624 161.079042 
L 203.657666 161.064513 
L 204.647057 161.051596 
L 205.141752 161.101968 
L 206.131142 161.058701 
L 206.37849 161.145156 
L 206.625837 161.055673 
L 207.615228 161.143984 
L 207.862575 161.077514 
L 208.35727 161.120176 
L 209.594008 161.099079 
L 209.841356 161.02672 
L 210.088704 161.242679 
L 213.798917 161.243778 
L 214.046265 161.312324 
L 214.54096 161.237295 
L 215.035655 161.240408 
L 215.53035 161.268599 
L 217.014436 161.264338 
L 220.72465 161.265275 
L 221.466692 161.347367 
L 222.70343 161.300176 
L 223.445473 161.352366 
L 224.434863 161.324462 
L 227.155687 161.368595 
L 227.650382 161.335427 
L 228.392425 161.349043 
L 229.381815 161.347177 
L 231.360596 161.343578 
L 234.576115 161.362643 
L 235.812852 161.368531 
L 246.696146 161.404501 
L 247.932884 161.386374 
L 249.911665 161.432343 
L 254.611269 161.42623 
L 258.074135 161.444184 
L 259.310873 161.430477 
L 262.526392 161.44216 
L 262.526392 161.44216 
" clip-path="url(#pa6eda11acd)" style="fill: none; stroke: #1d3557; stroke-width: 1.5; stroke-linecap: square"/>
   </g>
   <g id="line2d_51">
    <path d="M 61.432804 41.546519 
L 61.9275 78.224374 
L 62.174847 83.307933 
L 62.91689 92.098487 
L 63.164237 91.319269 
L 63.411585 97.000281 
L 63.658933 96.70441 
L 63.90628 100.948336 
L 64.153628 101.027537 
L 64.400975 102.845523 
L 64.648323 100.447184 
L 65.637713 108.613303 
L 65.885061 107.473448 
L 66.132409 108.534242 
L 66.627104 108.037059 
L 66.874451 105.00783 
L 67.121799 104.693717 
L 67.369146 111.86725 
L 67.616494 112.814032 
L 67.863842 115.338877 
L 68.111189 114.050962 
L 68.358537 115.477399 
L 68.605884 114.494448 
L 68.853232 116.525943 
L 69.10058 117.204737 
L 69.347927 117.019299 
L 69.595275 115.922505 
L 70.08997 119.149474 
L 70.337317 116.395984 
L 71.07936 122.065913 
L 71.326708 122.92945 
L 71.574055 115.597099 
L 71.821403 116.738676 
L 72.068751 119.363555 
L 72.316098 124.063619 
L 72.563446 121.221849 
L 73.058141 124.240299 
L 73.305488 122.268985 
L 73.552836 123.098443 
L 73.800184 122.836116 
L 74.047531 121.17982 
L 74.294879 122.399826 
L 74.542226 120.969957 
L 74.789574 118.51277 
L 75.036922 128.24972 
L 75.284269 123.486685 
L 75.531617 128.679593 
L 75.778964 124.525101 
L 76.026312 125.258604 
L 76.27366 123.323155 
L 76.521007 126.469968 
L 76.768355 127.842075 
L 77.015702 123.851724 
L 77.26305 124.052644 
L 77.510397 129.232959 
L 77.757745 130.584097 
L 78.005093 129.353208 
L 78.25244 129.44943 
L 78.499788 126.779387 
L 78.994483 130.603823 
L 79.241831 128.765798 
L 79.489178 131.830355 
L 79.736526 127.210104 
L 79.983873 130.468613 
L 80.478568 125.676563 
L 80.725916 127.126521 
L 80.973264 117.30526 
L 81.220611 131.706416 
L 81.467959 127.329353 
L 81.715306 132.157788 
L 81.962654 130.378239 
L 82.210002 131.489112 
L 82.457349 131.411606 
L 82.704697 133.321267 
L 82.952044 124.992185 
L 83.199392 132.670576 
L 83.44674 133.657054 
L 83.694087 133.396461 
L 83.941435 128.110834 
L 84.188782 130.23338 
L 84.43613 133.825669 
L 84.683477 133.681454 
L 84.930825 134.999434 
L 85.178173 128.025257 
L 85.42552 132.594885 
L 85.672868 131.122609 
L 85.920215 135.12262 
L 86.167563 134.281124 
L 86.414911 128.313512 
L 86.662258 137.03689 
L 86.909606 132.304286 
L 87.156953 122.64656 
L 87.404301 129.975866 
L 87.651648 133.470351 
L 87.898996 130.464613 
L 88.146344 130.958968 
L 88.393691 129.310301 
L 88.641039 128.652766 
L 88.888386 132.222045 
L 89.135734 128.574166 
L 89.383082 128.580725 
L 89.630429 131.405429 
L 90.125124 137.870745 
L 90.372472 131.987052 
L 90.61982 134.033406 
L 90.867167 138.4295 
L 91.114515 132.713253 
L 91.361862 134.563656 
L 91.60921 128.270168 
L 92.103905 138.24173 
L 92.5986 135.661986 
L 92.845948 135.825895 
L 93.093295 136.860317 
L 93.340643 136.335074 
L 93.587991 128.943164 
L 93.835338 140.230692 
L 94.082686 129.20443 
L 94.577381 135.754 
L 94.824728 132.264462 
L 95.072076 122.207903 
L 95.319424 133.581595 
L 95.566771 137.915781 
L 95.814119 136.584926 
L 96.061466 138.365393 
L 96.308814 133.191652 
L 96.556162 132.740695 
L 96.803509 137.98237 
L 97.050857 140.085356 
L 97.298204 137.227778 
L 97.545552 139.292203 
L 98.040247 127.754235 
L 98.287595 134.603849 
L 98.534942 131.937767 
L 98.78229 132.275502 
L 99.029637 135.772173 
L 99.276985 143.230478 
L 99.77168 141.726602 
L 100.019028 142.222449 
L 100.266375 142.030719 
L 100.513723 143.292376 
L 101.008418 142.739928 
L 101.255766 144.127863 
L 101.503113 133.904638 
L 101.750461 142.461612 
L 101.997808 142.64737 
L 102.245156 143.626435 
L 102.492504 141.820757 
L 102.739851 142.305726 
L 102.987199 140.084098 
L 103.234546 142.777451 
L 103.481894 142.343698 
L 103.729242 142.688753 
L 103.976589 138.983724 
L 104.223937 142.941346 
L 104.471284 143.228742 
L 104.718632 143.3191 
L 104.965979 145.225441 
L 105.213327 143.195476 
L 105.460675 135.667561 
L 105.708022 145.04153 
L 105.95537 142.819801 
L 106.202717 136.653324 
L 106.450065 143.741649 
L 106.697413 142.835303 
L 106.94476 142.865043 
L 107.192108 144.670795 
L 107.439455 133.191487 
L 107.686803 139.273072 
L 108.181498 143.172851 
L 108.428846 143.637846 
L 108.676193 144.556363 
L 108.923541 144.774196 
L 109.170888 143.352127 
L 109.418236 146.301245 
L 109.912931 141.076399 
L 110.160279 136.781711 
L 110.407626 145.042687 
L 110.654974 144.451037 
L 110.902322 145.555088 
L 111.149669 143.410906 
L 111.397017 144.691832 
L 111.644364 140.460076 
L 111.891712 145.802154 
L 112.139059 141.221325 
L 112.386407 143.559364 
L 112.633755 130.556802 
L 112.881102 142.416136 
L 113.12845 146.124337 
L 113.375797 147.413796 
L 113.623145 145.981401 
L 113.870493 145.699394 
L 114.11784 146.127742 
L 114.612535 140.585958 
L 114.859883 143.376163 
L 115.107231 139.803967 
L 115.354578 147.329291 
L 115.601926 144.691961 
L 115.849273 144.716207 
L 116.096621 146.288899 
L 116.343968 145.057662 
L 116.591316 142.903552 
L 116.838664 146.160257 
L 117.086011 146.898035 
L 117.580706 142.602677 
L 117.828054 147.459682 
L 118.075402 143.318264 
L 118.322749 146.756605 
L 118.817444 146.24444 
L 119.064792 145.945647 
L 119.312139 139.091239 
L 119.559487 146.598624 
L 119.806835 146.363613 
L 120.054182 141.80449 
L 120.30153 143.2908 
L 120.548877 147.323463 
L 120.796225 148.40014 
L 121.043573 145.65011 
L 121.29092 146.640257 
L 121.538268 135.637015 
L 121.785615 147.580311 
L 122.032963 145.992126 
L 122.280311 148.188021 
L 122.527658 141.667417 
L 123.022353 148.49164 
L 123.269701 137.233717 
L 123.517048 148.161765 
L 123.764396 146.92727 
L 124.011744 143.006962 
L 124.259091 145.936923 
L 124.506439 146.336846 
L 124.753786 143.165777 
L 125.001134 146.441384 
L 125.248482 146.440631 
L 125.495829 142.762507 
L 125.743177 144.584774 
L 125.990524 144.355255 
L 126.485219 148.652505 
L 126.732567 146.172065 
L 126.979915 146.951058 
L 127.227262 142.923933 
L 127.47461 148.353261 
L 127.969305 143.691079 
L 128.216653 141.120608 
L 128.711348 144.391854 
L 128.958695 145.262625 
L 129.206043 139.712917 
L 129.45339 140.104584 
L 129.700738 147.523192 
L 129.948086 142.945297 
L 130.195433 147.828512 
L 130.690128 149.074741 
L 130.937476 149.028371 
L 131.184824 144.949083 
L 131.432171 145.006044 
L 131.679519 147.522129 
L 131.926866 146.132311 
L 132.174214 140.704572 
L 132.421562 145.897819 
L 132.668909 148.709018 
L 132.916257 137.305922 
L 133.163604 149.663339 
L 133.410952 147.413993 
L 133.658299 139.472207 
L 134.152995 149.966949 
L 134.400342 146.801735 
L 134.64769 147.472868 
L 134.895037 147.170916 
L 135.142385 147.770943 
L 135.389733 147.743972 
L 135.63708 149.928479 
L 135.884428 146.497866 
L 136.131775 147.522781 
L 136.379123 139.078769 
L 136.62647 145.938844 
L 136.873818 147.259023 
L 137.121166 145.268687 
L 137.615861 150.108029 
L 137.863208 147.813572 
L 138.110556 148.591569 
L 138.357904 143.627118 
L 138.605251 149.635859 
L 138.852599 146.970202 
L 139.099946 146.870418 
L 139.347294 144.7842 
L 139.594642 150.246065 
L 139.841989 146.968236 
L 140.089337 146.181678 
L 140.336684 144.674199 
L 140.584032 149.248017 
L 140.831379 147.824172 
L 141.078727 149.348769 
L 141.326075 142.721572 
L 141.573422 143.858083 
L 141.82077 144.390568 
L 142.068117 147.761865 
L 142.315465 147.605891 
L 142.562813 148.850022 
L 142.81016 147.206232 
L 143.057508 148.400074 
L 143.304855 148.766462 
L 143.552203 149.522357 
L 143.79955 146.06524 
L 144.046898 147.26107 
L 144.294246 149.81122 
L 144.541593 136.320864 
L 144.788941 139.094004 
L 145.036288 150.505325 
L 145.283636 149.953954 
L 145.530984 151.507904 
L 145.778331 150.195746 
L 146.025679 151.488773 
L 146.273026 148.842661 
L 146.520374 150.027298 
L 146.767722 149.022993 
L 147.262417 150.871696 
L 147.509764 150.334001 
L 147.757112 150.898345 
L 148.004459 150.143806 
L 148.251807 151.54902 
L 148.746502 147.70349 
L 148.99385 151.897361 
L 149.241197 149.441474 
L 149.488545 152.13902 
L 149.735893 151.940334 
L 150.230588 147.40179 
L 150.725283 151.277542 
L 150.97263 151.291059 
L 151.219978 152.383818 
L 151.467326 151.772507 
L 151.714673 148.706052 
L 151.962021 150.288139 
L 152.209368 151.063775 
L 152.456716 151.407307 
L 152.704064 150.527856 
L 152.951411 147.816262 
L 153.198759 150.358958 
L 153.446106 145.500243 
L 153.693454 149.603281 
L 153.940802 151.322768 
L 154.188149 151.547979 
L 154.435497 150.536117 
L 154.682844 150.839825 
L 154.930192 147.976463 
L 155.177539 150.932857 
L 155.424887 151.125564 
L 155.672235 150.628986 
L 155.919582 151.094401 
L 156.16693 152.571876 
L 156.414277 151.361542 
L 156.661625 147.637379 
L 157.15632 150.34648 
L 157.403668 150.291923 
L 157.651015 152.571914 
L 157.898363 150.051359 
L 158.14571 150.415516 
L 158.393058 152.917102 
L 158.640406 151.423857 
L 158.887753 148.766087 
L 159.135101 151.257229 
L 159.629796 151.077911 
L 159.877144 151.152081 
L 160.124491 150.3649 
L 160.371839 152.334784 
L 160.619186 151.230031 
L 160.866534 151.590637 
L 161.113881 149.316678 
L 161.361229 152.28162 
L 161.608577 146.492994 
L 161.855924 149.698689 
L 162.103272 148.656036 
L 162.350619 151.601711 
L 162.597967 151.861113 
L 162.845315 150.366601 
L 163.092662 151.402954 
L 163.34001 150.744738 
L 163.587357 146.520334 
L 163.834705 152.906735 
L 164.082053 152.277748 
L 164.3294 152.259174 
L 164.576748 153.33147 
L 164.824095 151.796671 
L 165.31879 153.25689 
L 165.566138 152.517298 
L 165.813486 150.640715 
L 166.060833 152.340161 
L 166.555528 151.946493 
L 167.050224 152.507184 
L 167.544919 152.148076 
L 167.792266 152.749612 
L 168.039614 151.646904 
L 168.286961 152.870796 
L 168.781657 152.615582 
L 169.029004 153.129845 
L 169.276352 149.869078 
L 169.523699 150.231124 
L 169.771047 153.131004 
L 170.018395 153.565446 
L 170.51309 153.368822 
L 171.007785 152.779159 
L 171.255133 153.681748 
L 171.50248 153.371269 
L 171.749828 153.72806 
L 171.997175 153.547713 
L 172.244523 153.020792 
L 172.49187 151.85174 
L 172.739218 153.290708 
L 172.986566 152.546486 
L 173.233913 153.295399 
L 173.481261 153.233798 
L 173.728608 153.050867 
L 173.975956 152.444388 
L 174.470651 153.542501 
L 174.965346 153.126956 
L 175.212694 152.973742 
L 175.460041 152.367686 
L 175.707389 152.585941 
L 176.202084 153.427307 
L 176.449432 153.045046 
L 176.696779 153.57453 
L 176.944127 153.297546 
L 177.191475 153.507248 
L 177.438822 153.472716 
L 177.68617 153.863092 
L 178.180865 153.640008 
L 178.428213 153.912202 
L 178.67556 153.246711 
L 178.922908 153.766385 
L 179.170255 153.894877 
L 179.417603 153.841841 
L 179.66495 153.563609 
L 179.912298 153.075063 
L 180.159646 153.875764 
L 180.654341 153.846476 
L 180.901688 153.72408 
L 181.149036 152.419174 
L 181.396384 153.995209 
L 181.643731 153.608 
L 181.891079 153.463152 
L 182.138426 153.638645 
L 182.385774 153.556939 
L 182.633121 154.044695 
L 182.880469 153.624561 
L 183.127817 153.451512 
L 183.622512 153.925032 
L 183.869859 153.619892 
L 184.117207 153.893449 
L 184.364555 153.634064 
L 184.611902 153.694465 
L 184.85925 153.613021 
L 185.106597 153.656719 
L 185.353945 153.865041 
L 185.601293 153.819563 
L 185.84864 153.538254 
L 186.343335 153.83698 
L 186.590683 153.732941 
L 186.83803 154.033696 
L 187.085378 153.836749 
L 187.332726 153.283659 
L 187.580073 153.74918 
L 187.827421 153.818298 
L 188.074768 153.725034 
L 188.569464 153.887026 
L 188.816811 154.075348 
L 189.064159 153.74749 
L 189.558854 154.015382 
L 189.806201 153.630351 
L 190.053549 154.013909 
L 190.300897 154.097505 
L 190.548244 153.944188 
L 190.795592 154.050176 
L 191.042939 153.9481 
L 191.290287 153.97539 
L 191.537635 153.703783 
L 192.03233 154.157714 
L 193.763763 153.88324 
L 194.01111 154.09021 
L 194.258458 154.110943 
L 194.505806 153.976011 
L 194.753153 154.136563 
L 195.247848 153.884104 
L 195.495196 153.821834 
L 195.742544 153.221189 
L 195.989891 153.996919 
L 196.237239 154.084575 
L 196.484586 153.629438 
L 197.226629 154.049646 
L 197.473977 154.00293 
L 197.968672 154.182936 
L 198.463367 154.179671 
L 198.710715 154.214123 
L 198.958062 153.965506 
L 199.20541 154.095077 
L 199.452757 154.07325 
L 199.700105 154.173946 
L 200.689495 154.041256 
L 200.936843 154.177592 
L 201.431538 154.061816 
L 202.420928 154.020223 
L 202.668276 153.979077 
L 202.915624 154.127939 
L 203.410319 154.042066 
L 203.905014 154.231141 
L 204.152361 153.998648 
L 204.647057 154.245296 
L 204.894404 154.121239 
L 205.141752 154.2096 
L 205.389099 154.014353 
L 205.883795 154.163071 
L 206.131142 153.993381 
L 206.625837 154.14812 
L 206.873185 153.683672 
L 207.120532 154.157873 
L 208.35727 154.182997 
L 208.604618 153.951039 
L 208.851966 154.185623 
L 209.099313 154.192455 
L 209.346661 153.968708 
L 209.594008 154.061557 
L 209.841356 154.027363 
L 210.088704 154.192716 
L 211.078094 154.229363 
L 211.325441 154.093666 
L 211.572789 154.235563 
L 211.820137 154.123091 
L 212.067484 154.255767 
L 212.314832 154.015569 
L 212.562179 154.229901 
L 214.293612 154.163289 
L 214.788308 154.11424 
L 215.53035 154.266088 
L 216.272393 154.195008 
L 217.014436 154.266911 
L 217.261784 154.138402 
L 217.509131 154.218336 
L 217.756479 154.075013 
L 218.003826 154.216623 
L 218.745869 154.103873 
L 218.993217 154.240549 
L 219.240564 154.170302 
L 219.982607 154.217267 
L 222.208735 154.23425 
L 222.70343 154.279855 
L 224.187516 154.26444 
L 226.166297 154.257636 
L 232.844681 154.241115 
L 233.339377 154.249477 
L 237.04959 154.267574 
L 237.544286 154.269683 
L 237.791633 154.30739 
L 238.038981 154.208697 
L 238.533676 154.262414 
L 239.028371 154.263404 
L 239.523066 154.277728 
L 242.985932 154.268483 
L 243.975323 154.287393 
L 255.105964 154.301678 
L 258.816178 154.302954 
L 262.526392 154.303608 
L 262.526392 154.303608 
" clip-path="url(#pa6eda11acd)" style="fill: none; stroke: #e63946; stroke-width: 1.5; stroke-linecap: square"/>
   </g>
   <g id="patch_3">
    <path d="M 51.378125 168.692059 
L 51.378125 9.450543 
" style="fill: none; stroke: #000000; stroke-width: 0.8; stroke-linejoin: miter; stroke-linecap: square"/>
   </g>
   <g id="patch_4">
    <path d="M 272.581071 168.692059 
L 272.581071 9.450543 
" style="fill: none; stroke: #000000; stroke-width: 0.8; stroke-linejoin: miter; stroke-linecap: square"/>
   </g>
   <g id="patch_5">
    <path d="M 51.378125 168.692059 
L 272.581071 168.692059 
" style="fill: none; stroke: #000000; stroke-width: 0.8; stroke-linejoin: miter; stroke-linecap: square"/>
   </g>
   <g id="patch_6">
    <path d="M 51.378125 9.450543 
L 272.581071 9.450543 
" style="fill: none; stroke: #000000; stroke-width: 0.8; stroke-linejoin: miter; stroke-linecap: square"/>
   </g>
   <g id="legend_1">
    <g id="patch_7">
     <path d="M 161.706071 46.806793 
L 265.581071 46.806793 
Q 267.581071 46.806793 267.581071 44.806793 
L 267.581071 16.450543 
Q 267.581071 14.450543 265.581071 14.450543 
L 161.706071 14.450543 
Q 159.706071 14.450543 159.706071 16.450543 
L 159.706071 44.806793 
Q 159.706071 46.806793 161.706071 46.806793 
z
" style="fill: #ffffff; opacity: 0.8; stroke: #cccccc; stroke-linejoin: miter"/>
    </g>
    <g id="line2d_52">
     <path d="M 163.706071 22.54898 
L 173.706071 22.54898 
L 183.706071 22.54898 
" style="fill: none; stroke: #1d3557; stroke-width: 1.5; stroke-linecap: square"/>
    </g>
    <g id="text_13">
     <!-- Training loss -->
     <g transform="translate(191.706071 26.04898) scale(0.1 -0.1)">
      <defs>
       <path id="DejaVuSans-54" d="M -19 4666 
L 3928 4666 
L 3928 4134 
L 2272 4134 
L 2272 0 
L 1638 0 
L 1638 4134 
L -19 4134 
L -19 4666 
z
" transform="scale(0.015625)"/>
       <path id="DejaVuSans-72" d="M 2631 2963 
Q 2534 3019 2420 3045 
Q 2306 3072 2169 3072 
Q 1681 3072 1420 2755 
Q 1159 2438 1159 1844 
L 1159 0 
L 581 0 
L 581 3500 
L 1159 3500 
L 1159 2956 
Q 1341 3275 1631 3429 
Q 1922 3584 2338 3584 
Q 2397 3584 2469 3576 
Q 2541 3569 2628 3553 
L 2631 2963 
z
" transform="scale(0.015625)"/>
       <path id="DejaVuSans-61" d="M 2194 1759 
Q 1497 1759 1228 1600 
Q 959 1441 959 1056 
Q 959 750 1161 570 
Q 1363 391 1709 391 
Q 2188 391 2477 730 
Q 2766 1069 2766 1631 
L 2766 1759 
L 2194 1759 
z
M 3341 1997 
L 3341 0 
L 2766 0 
L 2766 531 
Q 2569 213 2275 61 
Q 1981 -91 1556 -91 
Q 1019 -91 701 211 
Q 384 513 384 1019 
Q 384 1609 779 1909 
Q 1175 2209 1959 2209 
L 2766 2209 
L 2766 2266 
Q 2766 2663 2505 2880 
Q 2244 3097 1772 3097 
Q 1472 3097 1187 3025 
Q 903 2953 641 2809 
L 641 3341 
Q 956 3463 1253 3523 
Q 1550 3584 1831 3584 
Q 2591 3584 2966 3190 
Q 3341 2797 3341 1997 
z
" transform="scale(0.015625)"/>
       <path id="DejaVuSans-69" d="M 603 3500 
L 1178 3500 
L 1178 0 
L 603 0 
L 603 3500 
z
M 603 4863 
L 1178 4863 
L 1178 4134 
L 603 4134 
L 603 4863 
z
" transform="scale(0.015625)"/>
       <path id="DejaVuSans-6e" d="M 3513 2113 
L 3513 0 
L 2938 0 
L 2938 2094 
Q 2938 2591 2744 2837 
Q 2550 3084 2163 3084 
Q 1697 3084 1428 2787 
Q 1159 2491 1159 1978 
L 1159 0 
L 581 0 
L 581 3500 
L 1159 3500 
L 1159 2956 
Q 1366 3272 1645 3428 
Q 1925 3584 2291 3584 
Q 2894 3584 3203 3211 
Q 3513 2838 3513 2113 
z
" transform="scale(0.015625)"/>
       <path id="DejaVuSans-67" d="M 2906 1791 
Q 2906 2416 2648 2759 
Q 2391 3103 1925 3103 
Q 1463 3103 1205 2759 
Q 947 2416 947 1791 
Q 947 1169 1205 825 
Q 1463 481 1925 481 
Q 2391 481 2648 825 
Q 2906 1169 2906 1791 
z
M 3481 434 
Q 3481 -459 3084 -895 
Q 2688 -1331 1869 -1331 
Q 1566 -1331 1297 -1286 
Q 1028 -1241 775 -1147 
L 775 -588 
Q 1028 -725 1275 -790 
Q 1522 -856 1778 -856 
Q 2344 -856 2625 -561 
Q 2906 -266 2906 331 
L 2906 616 
Q 2728 306 2450 153 
Q 2172 0 1784 0 
Q 1141 0 747 490 
Q 353 981 353 1791 
Q 353 2603 747 3093 
Q 1141 3584 1784 3584 
Q 2172 3584 2450 3431 
Q 2728 3278 2906 2969 
L 2906 3500 
L 3481 3500 
L 3481 434 
z
" transform="scale(0.015625)"/>
       <path id="DejaVuSans-20" transform="scale(0.015625)"/>
       <path id="DejaVuSans-6c" d="M 603 4863 
L 1178 4863 
L 1178 0 
L 603 0 
L 603 4863 
z
" transform="scale(0.015625)"/>
      </defs>
      <use xlink:href="#DejaVuSans-54"/>
      <use xlink:href="#DejaVuSans-72" transform="translate(46.333984 0)"/>
      <use xlink:href="#DejaVuSans-61" transform="translate(87.447266 0)"/>
      <use xlink:href="#DejaVuSans-69" transform="translate(148.726562 0)"/>
      <use xlink:href="#DejaVuSans-6e" transform="translate(176.509766 0)"/>
      <use xlink:href="#DejaVuSans-69" transform="translate(239.888672 0)"/>
      <use xlink:href="#DejaVuSans-6e" transform="translate(267.671875 0)"/>
      <use xlink:href="#DejaVuSans-67" transform="translate(331.050781 0)"/>
      <use xlink:href="#DejaVuSans-20" transform="translate(394.527344 0)"/>
      <use xlink:href="#DejaVuSans-6c" transform="translate(426.314453 0)"/>
      <use xlink:href="#DejaVuSans-6f" transform="translate(454.097656 0)"/>
      <use xlink:href="#DejaVuSans-73" transform="translate(515.279297 0)"/>
      <use xlink:href="#DejaVuSans-73" transform="translate(567.378906 0)"/>
     </g>
    </g>
    <g id="line2d_53">
     <path d="M 163.706071 37.227105 
L 173.706071 37.227105 
L 183.706071 37.227105 
" style="fill: none; stroke: #e63946; stroke-width: 1.5; stroke-linecap: square"/>
    </g>
    <g id="text_14">
     <!-- Validation loss -->
     <g transform="translate(191.706071 40.727105) scale(0.1 -0.1)">
      <defs>
       <path id="DejaVuSans-56" d="M 1831 0 
L 50 4666 
L 709 4666 
L 2188 738 
L 3669 4666 
L 4325 4666 
L 2547 0 
L 1831 0 
z
" transform="scale(0.015625)"/>
       <path id="DejaVuSans-64" d="M 2906 2969 
L 2906 4863 
L 3481 4863 
L 3481 0 
L 2906 0 
L 2906 525 
Q 2725 213 2448 61 
Q 2172 -91 1784 -91 
Q 1150 -91 751 415 
Q 353 922 353 1747 
Q 353 2572 751 3078 
Q 1150 3584 1784 3584 
Q 2172 3584 2448 3432 
Q 2725 3281 2906 2969 
z
M 947 1747 
Q 947 1113 1208 752 
Q 1469 391 1925 391 
Q 2381 391 2643 752 
Q 2906 1113 2906 1747 
Q 2906 2381 2643 2742 
Q 2381 3103 1925 3103 
Q 1469 3103 1208 2742 
Q 947 2381 947 1747 
z
" transform="scale(0.015625)"/>
       <path id="DejaVuSans-74" d="M 1172 4494 
L 1172 3500 
L 2356 3500 
L 2356 3053 
L 1172 3053 
L 1172 1153 
Q 1172 725 1289 603 
Q 1406 481 1766 481 
L 2356 481 
L 2356 0 
L 1766 0 
Q 1100 0 847 248 
Q 594 497 594 1153 
L 594 3053 
L 172 3053 
L 172 3500 
L 594 3500 
L 594 4494 
L 1172 4494 
z
" transform="scale(0.015625)"/>
      </defs>
      <use xlink:href="#DejaVuSans-56"/>
      <use xlink:href="#DejaVuSans-61" transform="translate(60.658203 0)"/>
      <use xlink:href="#DejaVuSans-6c" transform="translate(121.9375 0)"/>
      <use xlink:href="#DejaVuSans-69" transform="translate(149.720703 0)"/>
      <use xlink:href="#DejaVuSans-64" transform="translate(177.503906 0)"/>
      <use xlink:href="#DejaVuSans-61" transform="translate(240.980469 0)"/>
      <use xlink:href="#DejaVuSans-74" transform="translate(302.259766 0)"/>
      <use xlink:href="#DejaVuSans-69" transform="translate(341.46875 0)"/>
      <use xlink:href="#DejaVuSans-6f" transform="translate(369.251953 0)"/>
      <use xlink:href="#DejaVuSans-6e" transform="translate(430.433594 0)"/>
      <use xlink:href="#DejaVuSans-20" transform="translate(493.8125 0)"/>
      <use xlink:href="#DejaVuSans-6c" transform="translate(525.599609 0)"/>
      <use xlink:href="#DejaVuSans-6f" transform="translate(553.382812 0)"/>
      <use xlink:href="#DejaVuSans-73" transform="translate(614.564453 0)"/>
      <use xlink:href="#DejaVuSans-73" transform="translate(666.664062 0)"/>
     </g>
    </g>
   </g>
  </g>
 </g>
 <defs>
  <clipPath id="pa6eda11acd">
   <rect x="51.378125" y="9.450543" width="221.202946" height="159.241516"/>
  </clipPath>
 </defs>
</svg>
