<?xml version="1.0" encoding="utf-8" standalone="no"?>
<!DOCTYPE svg PUBLIC "-//W3C//DTD SVG 1.1//EN"
  "http://www.w3.org/Graphics/SVG/1.1/DTD/svg11.dtd">
<svg xmlns:xlink="http://www.w3.org/1999/xlink" width="279.916071pt" height="207.99625pt" viewBox="0 0 279.916071 207.99625" xmlns="http://www.w3.org/2000/svg" version="1.1">
 <metadata>
  <rdf:RDF xmlns:dc="http://purl.org/dc/elements/1.1/" xmlns:cc="http://creativecommons.org/ns#" xmlns:rdf="http://www.w3.org/1999/02/22-rdf-syntax-ns#">
   <cc:Work>
    <dc:type rdf:resource="http://purl.org/dc/dcmitype/StillImage"/>
    <dc:date>2026-04-02T00:25:58.321009</dc:date>
    <dc:format>image/svg+xml</dc:format>
    <dc:creator>
     <cc:Agent>
      <dc:title>Matplotlib v3.10.3, https://matplotlib.org/</dc:title>
     </cc:Agent>
    </dc:creator>
   </cc:Work>
  </rdf:RDF>
 </metadata>
 <defs>
  <style type="text/css">*{stroke-linejoin: round; stroke-linecap: butt}</style>
 </defs>
 <g id="figure_1">
  <g id="patch_1">
   <path d="M 0 207.99625 
L 279.916071 207.99625 
L 279.916071 0 
L 0 0 
z
" style="fill: #ffffff"/>
  </g>
  <g id="axes_1">
   <g id="patch_2">
    <path d="M 51.378125 170.44 
L 272.716071 170.44 
L 272.716071 7.2 
L 51.378125 7.2 
z
" style="fill: #ffffff"/>
   </g>
   <g id="matplotlib.axis_1">
    <g id="xtick_1">
     <g id="line2d_1">
      <defs>
       <path id="m70de179905" d="M 0 0 
L 0 3.5 
" style="stroke: #000000; stroke-width: 0.8"/>
      </defs>
      <g>
       <use xlink:href="#m70de179905" x="61.438941" y="170.44" style="stroke: #000000; stroke-width: 0.8"/>
      </g>
     </g>
     <g id="text_1">
      <!-- 0 -->
      <g transform="translate(58.257691 185.038438) scale(0.1 -0.1)">
       <defs>
        <path id="DejaVuSans-30" d="M 2034 4250 
Q 1547 4250 1301 3770 
Q 1056 3291 1056 2328 
Q 1056 1369 1301 889 
Q 1547 409 2034 409 
Q 2525 409 2770 889 
Q 3016 1369 3016 2328 
Q 3016 3291 2770 3770 
Q 2525 4250 2034 4250 
z
M 2034 4750 
Q 2819 4750 3233 4129 
Q 3647 3509 3647 2328 
Q 3647 1150 3233 529 
Q 2819 -91 2034 -91 
Q 1250 -91 836 529 
Q 422 1150 422 2328 
Q 422 3509 836 4129 
Q 1250 4750 2034 4750 
z
" transform="scale(0.015625)"/>
       </defs>
       <use xlink:href="#DejaVuSans-30"/>
      </g>
     </g>
    </g>
    <g id="xtick_2">
     <g id="line2d_2">
      <g>
       <use xlink:href="#m70de179905" x="99.049467" y="170.44" style="stroke: #000000; stroke-width: 0.8"/>
      </g>
     </g>
     <g id="text_2">
      <!-- 100 -->
      <g transform="translate(89.505717 185.038438) scale(0.1 -0.1)">
       <defs>
        <path id="DejaVuSans-31" d="M 794 531 
L 1825 531 
L 1825 4091 
L 703 3866 
L 703 4441 
L 1819 4666 
L 2450 4666 
L 2450 531 
L 3481 531 
L 3481 0 
L 794 0 
L 794 531 
z
" transform="scale(0.015625)"/>
       </defs>
       <use xlink:href="#DejaVuSans-31"/>
       <use xlink:href="#DejaVuSans-30" transform="translate(63.623047 0)"/>
       <use xlink:href="#DejaVuSans-30" transform="translate(127.246094 0)"/>
      </g>
     </g>
    </g>
    <g id="xtick_3">
     <g id="line2d_3">
      <g>
       <use xlink:href="#m70de179905" x="136.659993" y="170.44" style="stroke: #000000; stroke-width: 0.8"/>
      </g>
     </g>
     <g id="text_3">
      <!-- 200 -->
      <g transform="translate(127.116243 185.038438) scale(0.1 -0.1)">
       <defs>
        <path id="DejaVuSans-32" d="M 1228 531 
L 3431 531 
L 3431 0 
L 469 0 
L 469 531 
Q 828 903 1448 1529 
Q 2069 2156 2228 2338 
Q 2531 2678 2651 2914 
Q 2772 3150 2772 3378 
Q 2772 3750 2511 3984 
Q 2250 4219 1831 4219 
Q 1534 4219 1204 4116 
Q 875 4013 500 3803 
L 500 4441 
Q 881 4594 1212 4672 
Q 1544 4750 1819 4750 
Q 2544 4750 2975 4387 
Q 3406 4025 3406 3419 
Q 3406 3131 3298 2873 
Q 3191 2616 2906 2266 
Q 2828 2175 2409 1742 
Q 1991 1309 1228 531 
z
" transform="scale(0.015625)"/>
       </defs>
       <use xlink:href="#DejaVuSans-32"/>
       <use xlink:href="#DejaVuSans-30" transform="translate(63.623047 0)"/>
       <use xlink:href="#DejaVuSans-30" transform="translate(127.246094 0)"/>
      </g>
     </g>
    </g>
    <g id="xtick_4">
     <g id="line2d_4">
      <g>
       <use xlink:href="#m70de179905" x="174.270519" y="170.44" style="stroke: #000000; stroke-width: 0.8"/>
      </g>
     </g>
     <g id="text_4">
      <!-- 300 -->
      <g transform="translate(164.726769 185.038438) scale(0.1 -0.1)">
       <defs>
        <path id="DejaVuSans-33" d="M 2597 2516 
Q 3050 2419 3304 2112 
Q 3559 1806 3559 1356 
Q 3559 666 3084 287 
Q 2609 -91 1734 -91 
Q 1441 -91 1130 -33 
Q 819 25 488 141 
L 488 750 
Q 750 597 1062 519 
Q 1375 441 1716 441 
Q 2309 441 2620 675 
Q 2931 909 2931 1356 
Q 2931 1769 2642 2001 
Q 2353 2234 1838 2234 
L 1294 2234 
L 1294 2753 
L 1863 2753 
Q 2328 2753 2575 2939 
Q 2822 3125 2822 3475 
Q 2822 3834 2567 4026 
Q 2313 4219 1838 4219 
Q 1578 4219 1281 4162 
Q 984 4106 628 3988 
L 628 4550 
Q 988 4650 1302 4700 
Q 1616 4750 1894 4750 
Q 2613 4750 3031 4423 
Q 3450 4097 3450 3541 
Q 3450 3153 3228 2886 
Q 3006 2619 2597 2516 
z
" transform="scale(0.015625)"/>
       </defs>
       <use xlink:href="#DejaVuSans-33"/>
       <use xlink:href="#DejaVuSans-30" transform="translate(63.623047 0)"/>
       <use xlink:href="#DejaVuSans-30" transform="translate(127.246094 0)"/>
      </g>
     </g>
    </g>
    <g id="xtick_5">
     <g id="line2d_5">
      <g>
       <use xlink:href="#m70de179905" x="211.881045" y="170.44" style="stroke: #000000; stroke-width: 0.8"/>
      </g>
     </g>
     <g id="text_5">
      <!-- 400 -->
      <g transform="translate(202.337295 185.038438) scale(0.1 -0.1)">
       <defs>
        <path id="DejaVuSans-34" d="M 2419 4116 
L 825 1625 
L 2419 1625 
L 2419 4116 
z
M 2253 4666 
L 3047 4666 
L 3047 1625 
L 3713 1625 
L 3713 1100 
L 3047 1100 
L 3047 0 
L 2419 0 
L 2419 1100 
L 313 1100 
L 313 1709 
L 2253 4666 
z
" transform="scale(0.015625)"/>
       </defs>
       <use xlink:href="#DejaVuSans-34"/>
       <use xlink:href="#DejaVuSans-30" transform="translate(63.623047 0)"/>
       <use xlink:href="#DejaVuSans-30" transform="translate(127.246094 0)"/>
      </g>
     </g>
    </g>
    <g id="xtick_6">
     <g id="line2d_6">
      <g>
       <use xlink:href="#m70de179905" x="249.491571" y="170.44" style="stroke: #000000; stroke-width: 0.8"/>
      </g>
     </g>
     <g id="text_6">
      <!-- 500 -->
      <g transform="translate(239.947821 185.038438) scale(0.1 -0.1)">
       <defs>
        <path id="DejaVuSans-35" d="M 691 4666 
L 3169 4666 
L 3169 4134 
L 1269 4134 
L 1269 2991 
Q 1406 3038 1543 3061 
Q 1681 3084 1819 3084 
Q 2600 3084 3056 2656 
Q 3513 2228 3513 1497 
Q 3513 744 3044 326 
Q 2575 -91 1722 -91 
Q 1428 -91 1123 -41 
Q 819 9 494 109 
L 494 744 
Q 775 591 1075 516 
Q 1375 441 1709 441 
Q 2250 441 2565 725 
Q 2881 1009 2881 1497 
Q 2881 1984 2565 2268 
Q 2250 2553 1709 2553 
Q 1456 2553 1204 2497 
Q 953 2441 691 2322 
L 691 4666 
z
" transform="scale(0.015625)"/>
       </defs>
       <use xlink:href="#DejaVuSans-35"/>
       <use xlink:href="#DejaVuSans-30" transform="translate(63.623047 0)"/>
       <use xlink:href="#DejaVuSans-30" transform="translate(127.246094 0)"/>
      </g>
     </g>
    </g>
    <g id="text_7">
     <!-- Epoch -->
     <g transform="translate(146.736161 198.716563) scale(0.1 -0.1)">
      <defs>
       <path id="DejaVuSans-45" d="M 628 4666 
L 3578 4666 
L 3578 4134 
L 1259 4134 
L 1259 2753 
L 3481 2753 
L 3481 2222 
L 1259 2222 
L 1259 531 
L 3634 531 
L 3634 0 
L 628 0 
L 628 4666 
z
" transform="scale(0.015625)"/>
       <path id="DejaVuSans-70" d="M 1159 525 
L 1159 -1331 
L 581 -1331 
L 581 3500 
L 1159 3500 
L 1159 2969 
Q 1341 3281 1617 3432 
Q 1894 3584 2278 3584 
Q 2916 3584 3314 3078 
Q 3713 2572 3713 1747 
Q 3713 922 3314 415 
Q 2916 -91 2278 -91 
Q 1894 -91 1617 61 
Q 1341 213 1159 525 
z
M 3116 1747 
Q 3116 2381 2855 2742 
Q 2594 3103 2138 3103 
Q 1681 3103 1420 2742 
Q 1159 2381 1159 1747 
Q 1159 1113 1420 752 
Q 1681 391 2138 391 
Q 2594 391 2855 752 
Q 3116 1113 3116 1747 
z
" transform="scale(0.015625)"/>
       <path id="DejaVuSans-6f" d="M 1959 3097 
Q 1497 3097 1228 2736 
Q 959 2375 959 1747 
Q 959 1119 1226 758 
Q 1494 397 1959 397 
Q 2419 397 2687 759 
Q 2956 1122 2956 1747 
Q 2956 2369 2687 2733 
Q 2419 3097 1959 3097 
z
M 1959 3584 
Q 2709 3584 3137 3096 
Q 3566 2609 3566 1747 
Q 3566 888 3137 398 
Q 2709 -91 1959 -91 
Q 1206 -91 779 398 
Q 353 888 353 1747 
Q 353 2609 779 3096 
Q 1206 3584 1959 3584 
z
" transform="scale(0.015625)"/>
       <path id="DejaVuSans-63" d="M 3122 3366 
L 3122 2828 
Q 2878 2963 2633 3030 
Q 2388 3097 2138 3097 
Q 1578 3097 1268 2742 
Q 959 2388 959 1747 
Q 959 1106 1268 751 
Q 1578 397 2138 397 
Q 2388 397 2633 464 
Q 2878 531 3122 666 
L 3122 134 
Q 2881 22 2623 -34 
Q 2366 -91 2075 -91 
Q 1284 -91 818 406 
Q 353 903 353 1747 
Q 353 2603 823 3093 
Q 1294 3584 2113 3584 
Q 2378 3584 2631 3529 
Q 2884 3475 3122 3366 
z
" transform="scale(0.015625)"/>
       <path id="DejaVuSans-68" d="M 3513 2113 
L 3513 0 
L 2938 0 
L 2938 2094 
Q 2938 2591 2744 2837 
Q 2550 3084 2163 3084 
Q 1697 3084 1428 2787 
Q 1159 2491 1159 1978 
L 1159 0 
L 581 0 
L 581 4863 
L 1159 4863 
L 1159 2956 
Q 1366 3272 1645 3428 
Q 1925 3584 2291 3584 
Q 2894 3584 3203 3211 
Q 3513 2838 3513 2113 
z
" transform="scale(0.015625)"/>
      </defs>
      <use xlink:href="#DejaVuSans-45"/>
      <use xlink:href="#DejaVuSans-70" transform="translate(63.183594 0)"/>
      <use xlink:href="#DejaVuSans-6f" transform="translate(126.660156 0)"/>
      <use xlink:href="#DejaVuSans-63" transform="translate(187.841797 0)"/>
      <use xlink:href="#DejaVuSans-68" transform="translate(242.822266 0)"/>
     </g>
    </g>
   </g>
   <g id="matplotlib.axis_2">
    <g id="ytick_1">
     <g id="line2d_7">
      <defs>
       <path id="m11ea8cf92b" d="M 0 0 
L -3.5 0 
" style="stroke: #000000; stroke-width: 0.8"/>
      </defs>
      <g>
       <use xlink:href="#m11ea8cf92b" x="51.378125" y="159.033049" style="stroke: #000000; stroke-width: 0.8"/>
      </g>
     </g>
     <g id="text_8">
      <!-- $\mathdefault{10^{-3}}$ -->
      <g transform="translate(20.878125 162.832268) scale(0.1 -0.1)">
       <defs>
        <path id="DejaVuSans-2212" d="M 678 2272 
L 4684 2272 
L 4684 1741 
L 678 1741 
L 678 2272 
z
" transform="scale(0.015625)"/>
       </defs>
       <use xlink:href="#DejaVuSans-31" transform="translate(0 0.765625)"/>
       <use xlink:href="#DejaVuSans-30" transform="translate(63.623047 0.765625)"/>
       <use xlink:href="#DejaVuSans-2212" transform="translate(128.203125 39.046875) scale(0.7)"/>
       <use xlink:href="#DejaVuSans-33" transform="translate(186.855469 39.046875) scale(0.7)"/>
      </g>
     </g>
    </g>
    <g id="ytick_2">
     <g id="line2d_8">
      <g>
       <use xlink:href="#m11ea8cf92b" x="51.378125" y="101.187452" style="stroke: #000000; stroke-width: 0.8"/>
      </g>
     </g>
     <g id="text_9">
      <!-- $\mathdefault{10^{-2}}$ -->
      <g transform="translate(20.878125 104.98667) scale(0.1 -0.1)">
       <use xlink:href="#DejaVuSans-31" transform="translate(0 0.765625)"/>
       <use xlink:href="#DejaVuSans-30" transform="translate(63.623047 0.765625)"/>
       <use xlink:href="#DejaVuSans-2212" transform="translate(128.203125 39.046875) scale(0.7)"/>
       <use xlink:href="#DejaVuSans-32" transform="translate(186.855469 39.046875) scale(0.7)"/>
      </g>
     </g>
    </g>
    <g id="ytick_3">
     <g id="line2d_9">
      <g>
       <use xlink:href="#m11ea8cf92b" x="51.378125" y="43.341854" style="stroke: #000000; stroke-width: 0.8"/>
      </g>
     </g>
     <g id="text_10">
      <!-- $\mathdefault{10^{-1}}$ -->
      <g transform="translate(20.878125 47.141073) scale(0.1 -0.1)">
       <use xlink:href="#DejaVuSans-31" transform="translate(0 0.684375)"/>
       <use xlink:href="#DejaVuSans-30" transform="translate(63.623047 0.684375)"/>
       <use xlink:href="#DejaVuSans-2212" transform="translate(128.203125 38.965625) scale(0.7)"/>
       <use xlink:href="#DejaVuSans-31" transform="translate(186.855469 38.965625) scale(0.7)"/>
      </g>
     </g>
    </g>
    <g id="ytick_4">
     <g id="line2d_10">
      <defs>
       <path id="m89042246c5" d="M 0 0 
L -2 0 
" style="stroke: #000000; stroke-width: 0.6"/>
      </defs>
      <g>
       <use xlink:href="#m89042246c5" x="51.378125" y="167.993446" style="stroke: #000000; stroke-width: 0.6"/>
      </g>
     </g>
    </g>
    <g id="ytick_5">
     <g id="line2d_11">
      <g>
       <use xlink:href="#m89042246c5" x="51.378125" y="164.638867" style="stroke: #000000; stroke-width: 0.6"/>
      </g>
     </g>
    </g>
    <g id="ytick_6">
     <g id="line2d_12">
      <g>
       <use xlink:href="#m89042246c5" x="51.378125" y="161.679919" style="stroke: #000000; stroke-width: 0.6"/>
      </g>
     </g>
    </g>
    <g id="ytick_7">
     <g id="line2d_13">
      <g>
       <use xlink:href="#m89042246c5" x="51.378125" y="141.619789" style="stroke: #000000; stroke-width: 0.6"/>
      </g>
     </g>
    </g>
    <g id="ytick_8">
     <g id="line2d_14">
      <g>
       <use xlink:href="#m89042246c5" x="51.378125" y="131.433685" style="stroke: #000000; stroke-width: 0.6"/>
      </g>
     </g>
    </g>
    <g id="ytick_9">
     <g id="line2d_15">
      <g>
       <use xlink:href="#m89042246c5" x="51.378125" y="124.206529" style="stroke: #000000; stroke-width: 0.6"/>
      </g>
     </g>
    </g>
    <g id="ytick_10">
     <g id="line2d_16">
      <g>
       <use xlink:href="#m89042246c5" x="51.378125" y="118.600712" style="stroke: #000000; stroke-width: 0.6"/>
      </g>
     </g>
    </g>
    <g id="ytick_11">
     <g id="line2d_17">
      <g>
       <use xlink:href="#m89042246c5" x="51.378125" y="114.020425" style="stroke: #000000; stroke-width: 0.6"/>
      </g>
     </g>
    </g>
    <g id="ytick_12">
     <g id="line2d_18">
      <g>
       <use xlink:href="#m89042246c5" x="51.378125" y="110.147848" style="stroke: #000000; stroke-width: 0.6"/>
      </g>
     </g>
    </g>
    <g id="ytick_13">
     <g id="line2d_19">
      <g>
       <use xlink:href="#m89042246c5" x="51.378125" y="106.793269" style="stroke: #000000; stroke-width: 0.6"/>
      </g>
     </g>
    </g>
    <g id="ytick_14">
     <g id="line2d_20">
      <g>
       <use xlink:href="#m89042246c5" x="51.378125" y="103.834321" style="stroke: #000000; stroke-width: 0.6"/>
      </g>
     </g>
    </g>
    <g id="ytick_15">
     <g id="line2d_21">
      <g>
       <use xlink:href="#m89042246c5" x="51.378125" y="83.774192" style="stroke: #000000; stroke-width: 0.6"/>
      </g>
     </g>
    </g>
    <g id="ytick_16">
     <g id="line2d_22">
      <g>
       <use xlink:href="#m89042246c5" x="51.378125" y="73.588087" style="stroke: #000000; stroke-width: 0.6"/>
      </g>
     </g>
    </g>
    <g id="ytick_17">
     <g id="line2d_23">
      <g>
       <use xlink:href="#m89042246c5" x="51.378125" y="66.360931" style="stroke: #000000; stroke-width: 0.6"/>
      </g>
     </g>
    </g>
    <g id="ytick_18">
     <g id="line2d_24">
      <g>
       <use xlink:href="#m89042246c5" x="51.378125" y="60.755114" style="stroke: #000000; stroke-width: 0.6"/>
      </g>
     </g>
    </g>
    <g id="ytick_19">
     <g id="line2d_25">
      <g>
       <use xlink:href="#m89042246c5" x="51.378125" y="56.174827" style="stroke: #000000; stroke-width: 0.6"/>
      </g>
     </g>
    </g>
    <g id="ytick_20">
     <g id="line2d_26">
      <g>
       <use xlink:href="#m89042246c5" x="51.378125" y="52.30225" style="stroke: #000000; stroke-width: 0.6"/>
      </g>
     </g>
    </g>
    <g id="ytick_21">
     <g id="line2d_27">
      <g>
       <use xlink:href="#m89042246c5" x="51.378125" y="48.947671" style="stroke: #000000; stroke-width: 0.6"/>
      </g>
     </g>
    </g>
    <g id="ytick_22">
     <g id="line2d_28">
      <g>
       <use xlink:href="#m89042246c5" x="51.378125" y="45.988723" style="stroke: #000000; stroke-width: 0.6"/>
      </g>
     </g>
    </g>
    <g id="ytick_23">
     <g id="line2d_29">
      <g>
       <use xlink:href="#m89042246c5" x="51.378125" y="25.928594" style="stroke: #000000; stroke-width: 0.6"/>
      </g>
     </g>
    </g>
    <g id="ytick_24">
     <g id="line2d_30">
      <g>
       <use xlink:href="#m89042246c5" x="51.378125" y="15.74249" style="stroke: #000000; stroke-width: 0.6"/>
      </g>
     </g>
    </g>
    <g id="ytick_25">
     <g id="line2d_31">
      <g>
       <use xlink:href="#m89042246c5" x="51.378125" y="8.515334" style="stroke: #000000; stroke-width: 0.6"/>
      </g>
     </g>
    </g>
    <g id="text_11">
     <!-- Loss -->
     <g transform="translate(14.798438 99.787188) rotate(-90) scale(0.1 -0.1)">
      <defs>
       <path id="DejaVuSans-4c" d="M 628 4666 
L 1259 4666 
L 1259 531 
L 3531 531 
L 3531 0 
L 628 0 
L 628 4666 
z
" transform="scale(0.015625)"/>
       <path id="DejaVuSans-73" d="M 2834 3397 
L 2834 2853 
Q 2591 2978 2328 3040 
Q 2066 3103 1784 3103 
Q 1356 3103 1142 2972 
Q 928 2841 928 2578 
Q 928 2378 1081 2264 
Q 1234 2150 1697 2047 
L 1894 2003 
Q 2506 1872 2764 1633 
Q 3022 1394 3022 966 
Q 3022 478 2636 193 
Q 2250 -91 1575 -91 
Q 1294 -91 989 -36 
Q 684 19 347 128 
L 347 722 
Q 666 556 975 473 
Q 1284 391 1588 391 
Q 1994 391 2212 530 
Q 2431 669 2431 922 
Q 2431 1156 2273 1281 
Q 2116 1406 1581 1522 
L 1381 1569 
Q 847 1681 609 1914 
Q 372 2147 372 2553 
Q 372 3047 722 3315 
Q 1072 3584 1716 3584 
Q 2034 3584 2315 3537 
Q 2597 3491 2834 3397 
z
" transform="scale(0.015625)"/>
      </defs>
      <use xlink:href="#DejaVuSans-4c"/>
      <use xlink:href="#DejaVuSans-6f" transform="translate(53.962891 0)"/>
      <use xlink:href="#DejaVuSans-73" transform="translate(115.144531 0)"/>
      <use xlink:href="#DejaVuSans-73" transform="translate(167.244141 0)"/>
     </g>
    </g>
   </g>
   <g id="line2d_32">
    <path d="M 61.438941 14.62 
L 61.815046 52.105485 
L 62.191151 59.289035 
L 62.567257 62.868577 
L 63.319467 66.868636 
L 63.695572 68.35071 
L 64.071678 69.333325 
L 64.447783 69.720137 
L 64.823888 71.873338 
L 65.199993 72.647443 
L 65.576099 72.488691 
L 65.952204 73.655026 
L 66.328309 73.452842 
L 66.704414 74.879562 
L 67.08052 75.479052 
L 67.456625 73.863056 
L 67.83273 75.486455 
L 68.208835 76.257568 
L 68.584941 74.952826 
L 68.961046 76.969249 
L 69.337151 77.168546 
L 69.713256 77.086573 
L 70.089362 78.163876 
L 70.465467 78.281892 
L 70.841572 77.291972 
L 71.217678 77.768585 
L 71.593783 77.657781 
L 71.969888 78.377795 
L 72.345993 77.42786 
L 72.722099 78.804361 
L 73.098204 77.927613 
L 73.474309 79.147945 
L 73.850414 79.948023 
L 74.97873 78.59597 
L 75.354835 78.664563 
L 75.730941 80.36351 
L 76.107046 78.850644 
L 76.483151 80.019497 
L 76.859256 80.44943 
L 77.235362 80.242882 
L 77.611467 80.752345 
L 77.987572 80.690224 
L 78.363677 80.91855 
L 78.739783 79.732436 
L 79.115888 79.457415 
L 79.491993 80.542949 
L 79.868099 80.915067 
L 80.244204 80.018451 
L 80.620309 80.665003 
L 80.996414 80.839156 
L 81.37252 80.762324 
L 81.748625 80.415316 
L 82.12473 80.687795 
L 82.500835 80.736296 
L 82.876941 81.072444 
L 83.253046 80.750987 
L 83.629151 81.025777 
L 84.005256 81.104721 
L 84.381362 81.418852 
L 85.133572 83.612434 
L 85.885783 82.731409 
L 86.261888 83.246412 
L 86.637993 82.588096 
L 87.014098 82.621792 
L 87.390204 83.142379 
L 87.766309 83.409385 
L 88.142414 82.141481 
L 88.51852 83.964462 
L 88.894625 83.645287 
L 89.27073 83.763862 
L 90.022941 83.136724 
L 90.399046 83.975318 
L 90.775151 83.934801 
L 91.151256 83.007938 
L 91.527362 83.111911 
L 91.903467 83.454156 
L 92.279572 84.191737 
L 93.031783 83.283873 
L 93.407888 83.974771 
L 93.783993 83.33697 
L 94.912309 83.568692 
L 95.288414 84.314601 
L 95.664519 83.757834 
L 96.040625 84.522709 
L 96.41673 82.9499 
L 96.792835 84.229025 
L 97.168941 84.237529 
L 97.545046 84.092709 
L 97.921151 84.370808 
L 98.297256 83.625609 
L 98.673362 83.466159 
L 99.425572 84.510585 
L 99.801677 84.58174 
L 100.553888 83.701179 
L 100.929993 83.064618 
L 101.306098 84.641983 
L 101.682204 85.064754 
L 102.058309 83.229833 
L 102.810519 84.433458 
L 103.186625 84.477148 
L 103.56273 84.868123 
L 103.938835 83.349205 
L 104.691046 84.223891 
L 105.067151 84.247412 
L 105.443256 83.925897 
L 105.819362 83.316303 
L 106.195467 84.559085 
L 106.571572 83.869396 
L 106.947677 84.359249 
L 107.323783 84.043842 
L 107.699888 85.743735 
L 108.075993 85.897433 
L 108.452098 85.39337 
L 108.828204 84.59283 
L 109.204309 85.768906 
L 109.580414 85.971871 
L 110.332625 85.958318 
L 110.70873 86.231437 
L 111.084835 85.448467 
L 111.46094 86.530085 
L 111.837046 85.046926 
L 112.589256 86.08271 
L 113.341467 85.759156 
L 113.717572 85.345023 
L 114.093677 85.780771 
L 114.469783 85.724784 
L 114.845888 85.996771 
L 115.221993 86.408457 
L 115.598098 85.642115 
L 116.350309 86.754081 
L 116.726414 84.760818 
L 117.102519 85.786545 
L 117.478625 86.361035 
L 117.85473 86.722747 
L 118.230835 85.882355 
L 118.60694 86.385275 
L 118.983046 85.826553 
L 119.359151 86.341934 
L 119.735256 85.528138 
L 120.111361 86.282419 
L 120.487467 85.807529 
L 120.863572 86.588761 
L 121.239677 85.824194 
L 121.615782 86.301377 
L 121.991888 86.240309 
L 122.367993 86.054203 
L 122.744098 86.162321 
L 123.120204 86.151337 
L 123.496309 87.191278 
L 123.872414 86.056524 
L 124.248519 86.306682 
L 124.624625 86.15191 
L 125.00073 85.687594 
L 125.376835 85.874606 
L 125.75294 87.02791 
L 126.505151 86.575816 
L 126.881256 87.10597 
L 127.257361 86.294938 
L 127.633467 87.083528 
L 128.009572 86.740365 
L 128.385677 87.069247 
L 128.761782 87.079482 
L 129.137888 86.697165 
L 129.513993 86.034747 
L 129.890098 86.742738 
L 130.266203 86.638317 
L 131.018414 86.605922 
L 131.394519 87.175645 
L 131.770625 86.367997 
L 132.14673 86.933987 
L 132.522835 87.075154 
L 132.89894 86.369398 
L 133.275046 86.168755 
L 133.651151 86.968166 
L 134.027256 87.302845 
L 134.403361 86.50226 
L 134.779467 87.331558 
L 135.155572 86.715734 
L 135.531677 87.053335 
L 136.283888 87.129056 
L 136.659993 86.740181 
L 137.036098 87.611819 
L 137.412203 87.830213 
L 137.788309 87.022486 
L 138.164414 87.525975 
L 138.540519 87.385003 
L 138.916624 86.981975 
L 139.29273 86.306353 
L 139.668835 87.198723 
L 140.04494 86.591897 
L 140.421046 86.902513 
L 140.797151 86.986675 
L 141.173256 86.494479 
L 141.549361 87.595511 
L 141.925467 87.036676 
L 142.301572 87.656677 
L 143.053782 87.571488 
L 143.429888 86.779621 
L 143.805993 87.452034 
L 144.182098 87.302223 
L 144.558203 87.361305 
L 144.934309 88.042431 
L 145.310414 86.871043 
L 145.686519 87.415649 
L 146.062624 87.76059 
L 146.43873 87.257028 
L 146.814835 87.750493 
L 147.19094 87.946261 
L 147.567045 87.409375 
L 147.943151 87.364803 
L 148.319256 87.903308 
L 148.695361 87.994353 
L 149.071467 87.125177 
L 149.447572 87.6669 
L 149.823677 87.274586 
L 150.199782 87.399292 
L 150.575888 88.042892 
L 150.951993 87.427409 
L 151.328098 87.782357 
L 151.704203 87.190753 
L 152.080309 87.16072 
L 152.456414 87.769424 
L 152.832519 87.117719 
L 153.208624 87.503674 
L 153.58473 87.586771 
L 153.960835 88.190309 
L 154.33694 88.305851 
L 155.089151 87.243231 
L 155.465256 88.038361 
L 155.841361 88.146065 
L 156.217467 87.720988 
L 156.969677 87.84925 
L 157.345782 87.579016 
L 157.721888 87.860716 
L 158.097993 88.285252 
L 158.474098 88.283645 
L 159.226309 87.216352 
L 159.602414 87.099626 
L 159.978519 87.633496 
L 160.354624 87.47096 
L 160.73073 88.097482 
L 161.106835 87.058385 
L 161.48294 87.778118 
L 161.859045 87.288468 
L 162.235151 87.721695 
L 162.611256 87.376717 
L 162.987361 87.69647 
L 163.363466 88.187813 
L 163.739572 87.938384 
L 164.115677 87.215785 
L 164.491782 87.855473 
L 164.867888 86.997281 
L 165.243993 88.318097 
L 165.620098 87.651176 
L 165.996203 87.888923 
L 166.372309 87.568824 
L 166.748414 88.006883 
L 167.500624 87.928423 
L 167.87673 88.074532 
L 168.252835 87.973975 
L 168.62894 87.611116 
L 169.005045 87.889107 
L 169.381151 87.819417 
L 169.757256 88.32668 
L 170.133361 88.138851 
L 170.509466 87.690676 
L 170.885572 87.935438 
L 171.261677 88.530867 
L 171.637782 88.028911 
L 172.013887 88.25984 
L 172.389993 87.734637 
L 172.766098 87.946574 
L 173.142203 88.56305 
L 173.894414 87.651962 
L 174.270519 88.031292 
L 174.646624 87.59033 
L 175.02273 88.266665 
L 175.398835 87.327943 
L 175.77494 87.649633 
L 176.151045 87.525994 
L 176.527151 88.429417 
L 176.903256 87.442456 
L 177.279361 88.420233 
L 177.655466 87.105478 
L 178.031572 88.111242 
L 178.407677 87.344198 
L 178.783782 87.585246 
L 179.159887 87.363853 
L 179.535993 89.025009 
L 179.912098 87.997038 
L 180.664308 87.83084 
L 181.040414 88.390502 
L 181.416519 88.147685 
L 181.792624 87.597772 
L 182.16873 88.289114 
L 182.544835 87.699266 
L 182.92094 87.671791 
L 183.297045 88.446989 
L 184.425361 87.833064 
L 185.177572 87.808019 
L 185.553677 86.747981 
L 185.929782 88.224772 
L 186.305887 87.782914 
L 186.681993 87.949416 
L 187.058098 87.717648 
L 187.434203 87.113093 
L 187.810308 87.390949 
L 188.186414 88.315162 
L 188.562519 87.870874 
L 188.938624 88.006919 
L 189.314729 87.629467 
L 189.690835 87.500865 
L 190.06694 87.575791 
L 190.443045 87.914101 
L 190.819151 88.100334 
L 191.195256 87.418092 
L 191.571361 88.284513 
L 191.947466 87.326986 
L 192.323572 87.460697 
L 192.699677 87.971525 
L 193.075782 88.164493 
L 193.827993 87.504852 
L 194.204098 87.323928 
L 194.580203 87.808044 
L 194.956308 87.789367 
L 195.332414 87.62513 
L 195.708519 87.874512 
L 196.084624 87.212563 
L 196.460729 87.966496 
L 196.836835 88.132147 
L 197.21294 88.479225 
L 197.589045 87.045965 
L 197.96515 88.103319 
L 198.341256 87.070624 
L 198.717361 87.599409 
L 199.093466 87.440799 
L 199.469572 87.88181 
L 199.845677 87.542111 
L 200.597887 87.839693 
L 200.973993 87.715637 
L 201.350098 88.16003 
L 201.726203 87.315877 
L 202.854519 88.228778 
L 203.230624 87.310315 
L 203.606729 88.109888 
L 203.982835 87.390369 
L 204.35894 88.579053 
L 204.735045 87.459733 
L 205.11115 87.682435 
L 205.487256 87.586098 
L 206.239466 87.964889 
L 206.615571 87.425975 
L 206.991677 87.861688 
L 207.367782 88.034851 
L 207.743887 87.401673 
L 208.119993 87.421389 
L 208.872203 88.388365 
L 209.248308 88.395077 
L 209.624414 87.777475 
L 210.000519 88.370058 
L 210.376624 87.628717 
L 210.752729 88.264254 
L 211.128835 88.220237 
L 211.50494 88.361157 
L 211.881045 88.283295 
L 212.25715 86.980954 
L 212.633256 87.25906 
L 213.009361 87.381273 
L 213.385466 87.896533 
L 213.761571 87.372348 
L 214.137677 87.630021 
L 214.513782 88.195115 
L 214.889887 87.766387 
L 215.265992 87.839959 
L 215.642098 88.497077 
L 216.018203 87.310433 
L 216.394308 87.949474 
L 216.770414 88.122133 
L 217.146519 87.127225 
L 217.522624 88.630836 
L 217.898729 88.272063 
L 218.274835 87.6694 
L 218.65094 88.048541 
L 219.027045 87.777242 
L 219.40315 88.003884 
L 219.779256 87.799551 
L 220.155361 87.860606 
L 220.531466 88.193232 
L 220.907571 88.243868 
L 221.283677 88.115057 
L 221.659782 87.855525 
L 222.035887 87.355142 
L 222.411992 87.18435 
L 223.164203 87.556007 
L 223.540308 88.016806 
L 223.916413 87.649838 
L 224.292519 87.118863 
L 225.044729 87.899326 
L 225.420835 87.760231 
L 225.79694 86.970533 
L 226.173045 88.158255 
L 226.54915 87.710092 
L 226.925256 87.626238 
L 227.677466 88.955131 
L 228.053571 87.164316 
L 228.805782 88.595406 
L 229.181887 87.400127 
L 229.557992 88.084877 
L 229.934098 88.094862 
L 230.310203 87.255187 
L 230.686308 87.859896 
L 231.062413 88.140062 
L 231.814624 87.264933 
L 232.190729 88.013053 
L 232.566834 88.251749 
L 232.94294 87.054012 
L 233.319045 87.830771 
L 233.69515 87.905439 
L 234.447361 87.844251 
L 234.823466 87.932288 
L 235.199571 87.801147 
L 235.575677 88.016213 
L 236.327887 88.009508 
L 236.703992 87.640782 
L 237.080098 88.185155 
L 237.456203 88.036529 
L 237.832308 87.757497 
L 238.208413 87.63064 
L 238.584519 87.828093 
L 239.712834 87.880923 
L 240.08894 88.569508 
L 240.465045 87.439299 
L 240.84115 88.147886 
L 241.217255 88.414865 
L 241.593361 87.154418 
L 241.969466 88.019429 
L 242.345571 87.790682 
L 242.721677 88.513027 
L 243.097782 87.570342 
L 243.473887 87.376293 
L 243.849992 88.531622 
L 244.226098 87.715511 
L 244.602203 87.470779 
L 244.978308 88.126289 
L 245.354413 87.035168 
L 245.730519 88.006833 
L 246.106624 87.202268 
L 246.482729 87.824115 
L 246.858834 87.106058 
L 247.98715 87.687477 
L 248.363255 88.279953 
L 248.739361 88.377142 
L 249.115466 87.525293 
L 250.243782 88.019662 
L 250.619887 87.643879 
L 250.995992 88.195255 
L 251.372098 87.308734 
L 251.748203 87.708589 
L 252.124308 87.551417 
L 252.876519 88.254887 
L 253.252624 88.110324 
L 253.628729 86.998267 
L 254.004834 87.794537 
L 254.38094 88.093825 
L 254.757045 87.809025 
L 255.13315 87.955987 
L 255.509255 87.814182 
L 255.885361 88.333891 
L 256.261466 87.214938 
L 256.637571 87.556557 
L 257.013676 87.015958 
L 257.765887 88.710211 
L 258.141992 87.677499 
L 258.518097 88.191285 
L 258.894203 86.674078 
L 259.270308 88.264679 
L 259.646413 87.186333 
L 260.022519 87.991671 
L 260.398624 87.478483 
L 260.774729 88.400704 
L 261.150834 87.877545 
L 261.52694 87.629601 
L 261.903045 87.854402 
L 262.27915 87.426495 
L 262.655255 87.904174 
L 262.655255 87.904174 
" clip-path="url(#p83c0a857bf)" style="fill: none; stroke: #1d3557; stroke-width: 1.5; stroke-linecap: square"/>
   </g>
   <g id="line2d_33">
    <path d="M 61.438941 70.512563 
L 62.191151 98.184136 
L 62.567257 96.663608 
L 62.943362 100.242573 
L 63.319467 108.506017 
L 63.695572 111.356378 
L 64.071678 101.247633 
L 64.447783 110.472381 
L 64.823888 99.659185 
L 65.199993 110.326227 
L 65.576099 114.125027 
L 65.952204 128.666351 
L 66.328309 112.526753 
L 66.704414 120.800204 
L 67.08052 114.676169 
L 67.456625 123.112657 
L 67.83273 115.799294 
L 68.208835 127.64424 
L 68.584941 124.142614 
L 68.961046 125.2664 
L 69.337151 130.332433 
L 69.713256 128.529176 
L 70.089362 130.382642 
L 70.465467 116.076414 
L 71.217678 131.128182 
L 71.593783 128.186531 
L 71.969888 113.674599 
L 72.345993 127.923407 
L 72.722099 121.487228 
L 73.098204 124.042179 
L 73.474309 130.653718 
L 73.850414 122.329391 
L 74.22652 127.236881 
L 74.602625 125.962709 
L 74.97873 126.684871 
L 75.354835 131.370961 
L 75.730941 123.133481 
L 76.107046 127.200059 
L 76.483151 135.856148 
L 76.859256 127.059084 
L 77.235362 128.297016 
L 77.611467 125.600665 
L 77.987572 131.106023 
L 78.363677 132.611634 
L 78.739783 133.277418 
L 79.115888 135.66687 
L 79.491993 127.049915 
L 79.868099 122.262468 
L 80.244204 134.856566 
L 80.620309 120.381037 
L 80.996414 129.622475 
L 81.37252 131.653044 
L 81.748625 131.742837 
L 82.12473 124.857412 
L 82.500835 129.401714 
L 82.876941 125.646049 
L 83.253046 134.381292 
L 83.629151 122.783828 
L 84.005256 124.572541 
L 84.381362 122.913052 
L 84.757467 137.06742 
L 85.133572 138.822123 
L 85.509677 143.474901 
L 85.885783 131.848005 
L 86.261888 135.060848 
L 86.637993 131.358482 
L 87.014098 134.223947 
L 87.390204 134.503608 
L 87.766309 135.823368 
L 88.142414 141.206784 
L 88.51852 139.931005 
L 88.894625 132.523656 
L 89.27073 142.752529 
L 89.646835 122.592049 
L 90.022941 143.792744 
L 90.399046 144.886443 
L 90.775151 138.287277 
L 91.151256 141.955091 
L 91.527362 130.443663 
L 91.903467 139.151845 
L 92.279572 143.282968 
L 92.655677 140.037744 
L 93.407888 131.403769 
L 93.783993 132.252508 
L 94.160098 135.291367 
L 94.536204 141.723494 
L 94.912309 144.649734 
L 95.288414 146.176906 
L 95.664519 141.326509 
L 96.040625 146.647529 
L 96.41673 137.717312 
L 96.792835 140.223712 
L 97.168941 141.289516 
L 97.545046 136.634693 
L 97.921151 138.211391 
L 98.297256 145.372501 
L 98.673362 133.064535 
L 99.049467 133.793781 
L 99.425572 148.382824 
L 99.801677 138.283937 
L 100.177783 137.933462 
L 100.553888 131.728505 
L 100.929993 142.787739 
L 101.306098 138.066399 
L 101.682204 139.600378 
L 102.058309 127.556094 
L 102.434414 139.54437 
L 102.810519 138.89943 
L 103.186625 145.278062 
L 103.56273 122.125743 
L 103.938835 130.9341 
L 104.31494 134.490804 
L 104.691046 143.355376 
L 105.067151 141.675238 
L 105.443256 131.960685 
L 105.819362 142.610158 
L 106.195467 142.637292 
L 106.571572 136.604947 
L 106.947677 135.525269 
L 107.699888 144.844441 
L 108.075993 149.815823 
L 108.452098 143.1366 
L 108.828204 150.663439 
L 109.204309 149.408356 
L 109.580414 153.964324 
L 109.956519 154.519604 
L 110.332625 146.975289 
L 110.70873 142.268331 
L 111.084835 146.133842 
L 111.46094 139.675119 
L 111.837046 147.65585 
L 112.213151 148.070377 
L 112.589256 153.036702 
L 112.965361 145.738898 
L 113.341467 146.878636 
L 113.717572 141.999028 
L 114.093677 144.223411 
L 114.469783 150.329658 
L 114.845888 142.046843 
L 115.221993 154.354401 
L 115.598098 154.224227 
L 115.974204 149.826348 
L 116.350309 147.047749 
L 116.726414 140.706178 
L 117.478625 154.591943 
L 117.85473 146.302303 
L 118.230835 151.207379 
L 118.60694 148.947142 
L 118.983046 141.031846 
L 119.359151 143.707632 
L 119.735256 145.46081 
L 120.111361 152.63286 
L 120.487467 148.837473 
L 120.863572 147.233794 
L 121.239677 146.88041 
L 121.615782 152.761089 
L 121.991888 142.691436 
L 122.367993 147.51507 
L 122.744098 148.548666 
L 123.120204 144.94412 
L 123.496309 148.588718 
L 123.872414 146.090864 
L 124.248519 152.194489 
L 124.624625 143.654202 
L 125.00073 140.893344 
L 125.75294 156.59524 
L 126.129046 148.355116 
L 126.505151 153.446526 
L 126.881256 151.450905 
L 127.257361 156.507116 
L 127.633467 155.472267 
L 128.009572 153.114899 
L 128.385677 156.385613 
L 129.137888 154.730334 
L 129.513993 152.116864 
L 129.890098 152.368662 
L 130.266203 154.098196 
L 130.642309 152.927088 
L 131.018414 154.988872 
L 131.394519 155.274807 
L 131.770625 150.600245 
L 132.14673 149.000743 
L 132.522835 154.729412 
L 132.89894 153.87233 
L 133.651151 155.028263 
L 134.027256 158.507098 
L 134.403361 157.78234 
L 134.779467 153.091947 
L 135.155572 159.622688 
L 135.531677 154.426128 
L 135.907782 156.060364 
L 136.659993 158.021312 
L 137.036098 156.134033 
L 137.412203 156.181575 
L 137.788309 159.58025 
L 138.164414 157.035294 
L 138.540519 157.045089 
L 138.916624 156.538742 
L 139.668835 159.313798 
L 140.04494 158.222599 
L 140.421046 155.145905 
L 140.797151 154.561293 
L 141.173256 158.62855 
L 141.549361 156.789304 
L 141.925467 155.803019 
L 142.301572 158.298503 
L 142.677677 157.555121 
L 143.053782 157.949562 
L 143.429888 160.918879 
L 143.805993 158.444603 
L 144.182098 159.167814 
L 144.558203 161.975152 
L 144.934309 160.665292 
L 145.310414 162.245009 
L 145.686519 160.066017 
L 146.062624 161.317059 
L 146.43873 159.963818 
L 146.814835 159.274498 
L 147.19094 158.919987 
L 147.567045 160.420484 
L 147.943151 160.699649 
L 148.319256 158.816184 
L 148.695361 157.685624 
L 149.071467 157.124732 
L 149.447572 159.401818 
L 149.823677 158.268144 
L 150.199782 159.436417 
L 150.575888 158.383352 
L 150.951993 161.440207 
L 151.328098 161.483586 
L 151.704203 160.61074 
L 152.080309 160.167823 
L 152.456414 160.16053 
L 152.832519 159.774118 
L 153.208624 157.316094 
L 153.58473 159.950364 
L 153.960835 160.898985 
L 154.33694 160.932699 
L 154.713045 159.303278 
L 155.465256 162.896936 
L 155.841361 162.026397 
L 156.217467 160.172868 
L 156.593572 162.179995 
L 156.969677 160.42219 
L 157.345782 161.093736 
L 157.721888 159.38949 
L 158.097993 161.025568 
L 158.474098 161.463781 
L 158.850203 161.710384 
L 159.602414 161.123704 
L 159.978519 161.887299 
L 160.354624 160.717756 
L 160.73073 161.177572 
L 161.106835 161.377113 
L 161.48294 161.921194 
L 162.235151 161.109669 
L 162.611256 161.440151 
L 162.987361 160.937089 
L 163.363466 162.239858 
L 163.739572 161.732611 
L 164.115677 161.508168 
L 164.491782 161.622512 
L 164.867888 162.02539 
L 165.243993 161.803089 
L 165.620098 161.038774 
L 165.996203 160.914514 
L 166.372309 161.506135 
L 166.748414 161.160361 
L 167.124519 160.22423 
L 167.500624 161.727691 
L 167.87673 161.237765 
L 168.252835 161.355243 
L 168.62894 162.388395 
L 169.005045 162.249872 
L 169.381151 162.290542 
L 169.757256 161.362503 
L 170.133361 161.598928 
L 170.885572 161.579217 
L 171.261677 161.437534 
L 171.637782 161.701538 
L 172.389993 161.626779 
L 172.766098 161.832447 
L 173.518309 161.898961 
L 174.646624 162.163494 
L 175.02273 162.038529 
L 175.398835 161.722721 
L 175.77494 162.109737 
L 176.527151 162.431595 
L 176.903256 162.572719 
L 177.279361 162.389132 
L 177.655466 161.927783 
L 178.031572 161.937903 
L 178.407677 162.171628 
L 178.783782 162.212991 
L 179.159887 162.073545 
L 179.535993 162.345562 
L 179.912098 162.468508 
L 180.288203 162.257146 
L 180.664308 162.488115 
L 181.040414 162.554913 
L 182.16873 162.24476 
L 183.673151 162.455913 
L 184.049256 162.110707 
L 184.801466 162.866763 
L 185.177572 162.818142 
L 185.553677 162.604486 
L 185.929782 162.749503 
L 186.305887 162.697962 
L 187.434203 163.02 
L 188.186414 162.918198 
L 188.562519 162.581394 
L 189.314729 162.672462 
L 189.690835 162.634235 
L 190.06694 162.437778 
L 190.819151 162.413064 
L 191.195256 162.409605 
L 191.571361 162.544044 
L 191.947466 162.496405 
L 192.699677 162.029214 
L 193.451887 162.457829 
L 193.827993 162.383538 
L 194.204098 162.626895 
L 194.580203 162.15747 
L 194.956308 162.298409 
L 195.708519 162.15779 
L 196.460729 162.601553 
L 196.836835 162.632214 
L 197.589045 162.505883 
L 197.96515 162.489751 
L 198.341256 162.595808 
L 198.717361 162.580879 
L 199.469572 162.338414 
L 201.726203 162.538142 
L 202.478414 162.478955 
L 203.606729 162.616399 
L 206.615571 162.676823 
L 207.367782 162.638862 
L 208.119993 162.557871 
L 208.872203 162.588431 
L 215.265992 162.462796 
L 216.394308 162.53695 
L 223.540308 162.561908 
L 225.79694 162.603302 
L 228.805782 162.579925 
L 239.336729 162.585108 
L 258.518097 162.590532 
L 262.655255 162.593002 
L 262.655255 162.593002 
" clip-path="url(#p83c0a857bf)" style="fill: none; stroke: #e63946; stroke-width: 1.5; stroke-linecap: square"/>
   </g>
   <g id="patch_3">
    <path d="M 51.378125 170.44 
L 51.378125 7.2 
" style="fill: none; stroke: #000000; stroke-width: 0.8; stroke-linejoin: miter; stroke-linecap: square"/>
   </g>
   <g id="patch_4">
    <path d="M 272.716071 170.44 
L 272.716071 7.2 
" style="fill: none; stroke: #000000; stroke-width: 0.8; stroke-linejoin: miter; stroke-linecap: square"/>
   </g>
   <g id="patch_5">
    <path d="M 51.378125 170.44 
L 272.716071 170.44 
" style="fill: none; stroke: #000000; stroke-width: 0.8; stroke-linejoin: miter; stroke-linecap: square"/>
   </g>
   <g id="patch_6">
    <path d="M 51.378125 7.2 
L 272.716071 7.2 
" style="fill: none; stroke: #000000; stroke-width: 0.8; stroke-linejoin: miter; stroke-linecap: square"/>
   </g>
   <g id="legend_1">
    <g id="patch_7">
     <path d="M 161.841071 44.55625 
L 265.716071 44.55625 
Q 267.716071 44.55625 267.716071 42.55625 
L 267.716071 14.2 
Q 267.716071 12.2 265.716071 12.2 
L 161.841071 12.2 
Q 159.841071 12.2 159.841071 14.2 
L 159.841071 42.55625 
Q 159.841071 44.55625 161.841071 44.55625 
z
" style="fill: #ffffff; opacity: 0.8; stroke: #cccccc; stroke-linejoin: miter"/>
    </g>
    <g id="line2d_34">
     <path d="M 163.841071 20.298438 
L 173.841071 20.298438 
L 183.841071 20.298438 
" style="fill: none; stroke: #1d3557; stroke-width: 1.5; stroke-linecap: square"/>
    </g>
    <g id="text_12">
     <!-- Training loss -->
     <g transform="translate(191.841071 23.798438) scale(0.1 -0.1)">
      <defs>
       <path id="DejaVuSans-54" d="M -19 4666 
L 3928 4666 
L 3928 4134 
L 2272 4134 
L 2272 0 
L 1638 0 
L 1638 4134 
L -19 4134 
L -19 4666 
z
" transform="scale(0.015625)"/>
       <path id="DejaVuSans-72" d="M 2631 2963 
Q 2534 3019 2420 3045 
Q 2306 3072 2169 3072 
Q 1681 3072 1420 2755 
Q 1159 2438 1159 1844 
L 1159 0 
L 581 0 
L 581 3500 
L 1159 3500 
L 1159 2956 
Q 1341 3275 1631 3429 
Q 1922 3584 2338 3584 
Q 2397 3584 2469 3576 
Q 2541 3569 2628 3553 
L 2631 2963 
z
" transform="scale(0.015625)"/>
       <path id="DejaVuSans-61" d="M 2194 1759 
Q 1497 1759 1228 1600 
Q 959 1441 959 1056 
Q 959 750 1161 570 
Q 1363 391 1709 391 
Q 2188 391 2477 730 
Q 2766 1069 2766 1631 
L 2766 1759 
L 2194 1759 
z
M 3341 1997 
L 3341 0 
L 2766 0 
L 2766 531 
Q 2569 213 2275 61 
Q 1981 -91 1556 -91 
Q 1019 -91 701 211 
Q 384 513 384 1019 
Q 384 1609 779 1909 
Q 1175 2209 1959 2209 
L 2766 2209 
L 2766 2266 
Q 2766 2663 2505 2880 
Q 2244 3097 1772 3097 
Q 1472 3097 1187 3025 
Q 903 2953 641 2809 
L 641 3341 
Q 956 3463 1253 3523 
Q 1550 3584 1831 3584 
Q 2591 3584 2966 3190 
Q 3341 2797 3341 1997 
z
" transform="scale(0.015625)"/>
       <path id="DejaVuSans-69" d="M 603 3500 
L 1178 3500 
L 1178 0 
L 603 0 
L 603 3500 
z
M 603 4863 
L 1178 4863 
L 1178 4134 
L 603 4134 
L 603 4863 
z
" transform="scale(0.015625)"/>
       <path id="DejaVuSans-6e" d="M 3513 2113 
L 3513 0 
L 2938 0 
L 2938 2094 
Q 2938 2591 2744 2837 
Q 2550 3084 2163 3084 
Q 1697 3084 1428 2787 
Q 1159 2491 1159 1978 
L 1159 0 
L 581 0 
L 581 3500 
L 1159 3500 
L 1159 2956 
Q 1366 3272 1645 3428 
Q 1925 3584 2291 3584 
Q 2894 3584 3203 3211 
Q 3513 2838 3513 2113 
z
" transform="scale(0.015625)"/>
       <path id="DejaVuSans-67" d="M 2906 1791 
Q 2906 2416 2648 2759 
Q 2391 3103 1925 3103 
Q 1463 3103 1205 2759 
Q 947 2416 947 1791 
Q 947 1169 1205 825 
Q 1463 481 1925 481 
Q 2391 481 2648 825 
Q 2906 1169 2906 1791 
z
M 3481 434 
Q 3481 -459 3084 -895 
Q 2688 -1331 1869 -1331 
Q 1566 -1331 1297 -1286 
Q 1028 -1241 775 -1147 
L 775 -588 
Q 1028 -725 1275 -790 
Q 1522 -856 1778 -856 
Q 2344 -856 2625 -561 
Q 2906 -266 2906 331 
L 2906 616 
Q 2728 306 2450 153 
Q 2172 0 1784 0 
Q 1141 0 747 490 
Q 353 981 353 1791 
Q 353 2603 747 3093 
Q 1141 3584 1784 3584 
Q 2172 3584 2450 3431 
Q 2728 3278 2906 2969 
L 2906 3500 
L 3481 3500 
L 3481 434 
z
" transform="scale(0.015625)"/>
       <path id="DejaVuSans-20" transform="scale(0.015625)"/>
       <path id="DejaVuSans-6c" d="M 603 4863 
L 1178 4863 
L 1178 0 
L 603 0 
L 603 4863 
z
" transform="scale(0.015625)"/>
      </defs>
      <use xlink:href="#DejaVuSans-54"/>
      <use xlink:href="#DejaVuSans-72" transform="translate(46.333984 0)"/>
      <use xlink:href="#DejaVuSans-61" transform="translate(87.447266 0)"/>
      <use xlink:href="#DejaVuSans-69" transform="translate(148.726562 0)"/>
      <use xlink:href="#DejaVuSans-6e" transform="translate(176.509766 0)"/>
      <use xlink:href="#DejaVuSans-69" transform="translate(239.888672 0)"/>
      <use xlink:href="#DejaVuSans-6e" transform="translate(267.671875 0)"/>
      <use xlink:href="#DejaVuSans-67" transform="translate(331.050781 0)"/>
      <use xlink:href="#DejaVuSans-20" transform="translate(394.527344 0)"/>
      <use xlink:href="#DejaVuSans-6c" transform="translate(426.314453 0)"/>
      <use xlink:href="#DejaVuSans-6f" transform="translate(454.097656 0)"/>
      <use xlink:href="#DejaVuSans-73" transform="translate(515.279297 0)"/>
      <use xlink:href="#DejaVuSans-73" transform="translate(567.378906 0)"/>
     </g>
    </g>
    <g id="line2d_35">
     <path d="M 163.841071 34.976563 
L 173.841071 34.976563 
L 183.841071 34.976563 
" style="fill: none; stroke: #e63946; stroke-width: 1.5; stroke-linecap: square"/>
    </g>
    <g id="text_13">
     <!-- Validation loss -->
     <g transform="translate(191.841071 38.476563) scale(0.1 -0.1)">
      <defs>
       <path id="DejaVuSans-56" d="M 1831 0 
L 50 4666 
L 709 4666 
L 2188 738 
L 3669 4666 
L 4325 4666 
L 2547 0 
L 1831 0 
z
" transform="scale(0.015625)"/>
       <path id="DejaVuSans-64" d="M 2906 2969 
L 2906 4863 
L 3481 4863 
L 3481 0 
L 2906 0 
L 2906 525 
Q 2725 213 2448 61 
Q 2172 -91 1784 -91 
Q 1150 -91 751 415 
Q 353 922 353 1747 
Q 353 2572 751 3078 
Q 1150 3584 1784 3584 
Q 2172 3584 2448 3432 
Q 2725 3281 2906 2969 
z
M 947 1747 
Q 947 1113 1208 752 
Q 1469 391 1925 391 
Q 2381 391 2643 752 
Q 2906 1113 2906 1747 
Q 2906 2381 2643 2742 
Q 2381 3103 1925 3103 
Q 1469 3103 1208 2742 
Q 947 2381 947 1747 
z
" transform="scale(0.015625)"/>
       <path id="DejaVuSans-74" d="M 1172 4494 
L 1172 3500 
L 2356 3500 
L 2356 3053 
L 1172 3053 
L 1172 1153 
Q 1172 725 1289 603 
Q 1406 481 1766 481 
L 2356 481 
L 2356 0 
L 1766 0 
Q 1100 0 847 248 
Q 594 497 594 1153 
L 594 3053 
L 172 3053 
L 172 3500 
L 594 3500 
L 594 4494 
L 1172 4494 
z
" transform="scale(0.015625)"/>
      </defs>
      <use xlink:href="#DejaVuSans-56"/>
      <use xlink:href="#DejaVuSans-61" transform="translate(60.658203 0)"/>
      <use xlink:href="#DejaVuSans-6c" transform="translate(121.9375 0)"/>
      <use xlink:href="#DejaVuSans-69" transform="translate(149.720703 0)"/>
      <use xlink:href="#DejaVuSans-64" transform="translate(177.503906 0)"/>
      <use xlink:href="#DejaVuSans-61" transform="translate(240.980469 0)"/>
      <use xlink:href="#DejaVuSans-74" transform="translate(302.259766 0)"/>
      <use xlink:href="#DejaVuSans-69" transform="translate(341.46875 0)"/>
      <use xlink:href="#DejaVuSans-6f" transform="translate(369.251953 0)"/>
      <use xlink:href="#DejaVuSans-6e" transform="translate(430.433594 0)"/>
      <use xlink:href="#DejaVuSans-20" transform="translate(493.8125 0)"/>
      <use xlink:href="#DejaVuSans-6c" transform="translate(525.599609 0)"/>
      <use xlink:href="#DejaVuSans-6f" transform="translate(553.382812 0)"/>
      <use xlink:href="#DejaVuSans-73" transform="translate(614.564453 0)"/>
      <use xlink:href="#DejaVuSans-73" transform="translate(666.664062 0)"/>
     </g>
    </g>
   </g>
  </g>
 </g>
 <defs>
  <clipPath id="p83c0a857bf">
   <rect x="51.378125" y="7.2" width="221.337946" height="163.24"/>
  </clipPath>
 </defs>
</svg>
