<?xml version="1.0" encoding="utf-8" standalone="no"?>
<!DOCTYPE svg PUBLIC "-//W3C//DTD SVG 1.1//EN"
  "http://www.w3.org/Graphics/SVG/1.1/DTD/svg11.dtd">
<svg xmlns:xlink="http://www.w3.org/1999/xlink" width="278.836696pt" height="207.051875pt" viewBox="0 0 278.836696 207.051875" xmlns="http://www.w3.org/2000/svg" version="1.1">
 <metadata>
  <rdf:RDF xmlns:dc="http://purl.org/dc/elements/1.1/" xmlns:cc="http://creativecommons.org/ns#" xmlns:rdf="http://www.w3.org/1999/02/22-rdf-syntax-ns#">
   <cc:Work>
    <dc:type rdf:resource="http://purl.org/dc/dcmitype/StillImage"/>
    <dc:date>2026-04-02T00:59:18.798567</dc:date>
    <dc:format>image/svg+xml</dc:format>
    <dc:creator>
     <cc:Agent>
      <dc:title>Matplotlib v3.10.3, https://matplotlib.org/</dc:title>
     </cc:Agent>
    </dc:creator>
   </cc:Work>
  </rdf:RDF>
 </metadata>
 <defs>
  <style type="text/css">*{stroke-linejoin: round; stroke-linecap: butt}</style>
 </defs>
 <g id="figure_1">
  <g id="patch_1">
   <path d="M 0 207.051875 
L 278.836696 207.051875 
L 278.836696 0 
L 0 0 
z
" style="fill: #ffffff"/>
  </g>
  <g id="axes_1">
   <g id="patch_2">
    <path d="M 53.31375 167.56 
L 271.636696 167.56 
L 271.636696 7.2 
L 53.31375 7.2 
z
" style="fill: #e5e5e5"/>
   </g>
   <g id="matplotlib.axis_1">
    <g id="xtick_1">
     <g id="line2d_1">
      <path d="M 63.23752 167.56 
L 63.23752 7.2 
" clip-path="url(#p3e87991612)" style="fill: none; stroke: #ffffff; stroke-width: 0.8; stroke-linecap: square"/>
     </g>
     <g id="line2d_2">
      <defs>
       <path id="m1a3feffafa" d="M 0 0 
L 0 3.5 
" style="stroke: #555555; stroke-width: 0.8"/>
      </defs>
      <g>
       <use xlink:href="#m1a3feffafa" x="63.23752" y="167.56" style="fill: #555555; stroke: #555555; stroke-width: 0.8"/>
      </g>
     </g>
     <g id="text_1">
      <!-- 0 -->
      <g style="fill: #555555" transform="translate(60.05627 182.158437) scale(0.1 -0.1)">
       <defs>
        <path id="DejaVuSans-30" d="M 2034 4250 
Q 1547 4250 1301 3770 
Q 1056 3291 1056 2328 
Q 1056 1369 1301 889 
Q 1547 409 2034 409 
Q 2525 409 2770 889 
Q 3016 1369 3016 2328 
Q 3016 3291 2770 3770 
Q 2525 4250 2034 4250 
z
M 2034 4750 
Q 2819 4750 3233 4129 
Q 3647 3509 3647 2328 
Q 3647 1150 3233 529 
Q 2819 -91 2034 -91 
Q 1250 -91 836 529 
Q 422 1150 422 2328 
Q 422 3509 836 4129 
Q 1250 4750 2034 4750 
z
" transform="scale(0.015625)"/>
       </defs>
       <use xlink:href="#DejaVuSans-30"/>
      </g>
     </g>
    </g>
    <g id="xtick_2">
     <g id="line2d_3">
      <path d="M 124.026312 167.56 
L 124.026312 7.2 
" clip-path="url(#p3e87991612)" style="fill: none; stroke: #ffffff; stroke-width: 0.8; stroke-linecap: square"/>
     </g>
     <g id="line2d_4">
      <g>
       <use xlink:href="#m1a3feffafa" x="124.026312" y="167.56" style="fill: #555555; stroke: #555555; stroke-width: 0.8"/>
      </g>
     </g>
     <g id="text_2">
      <!-- 200 -->
      <g style="fill: #555555" transform="translate(114.482562 182.158437) scale(0.1 -0.1)">
       <defs>
        <path id="DejaVuSans-32" d="M 1228 531 
L 3431 531 
L 3431 0 
L 469 0 
L 469 531 
Q 828 903 1448 1529 
Q 2069 2156 2228 2338 
Q 2531 2678 2651 2914 
Q 2772 3150 2772 3378 
Q 2772 3750 2511 3984 
Q 2250 4219 1831 4219 
Q 1534 4219 1204 4116 
Q 875 4013 500 3803 
L 500 4441 
Q 881 4594 1212 4672 
Q 1544 4750 1819 4750 
Q 2544 4750 2975 4387 
Q 3406 4025 3406 3419 
Q 3406 3131 3298 2873 
Q 3191 2616 2906 2266 
Q 2828 2175 2409 1742 
Q 1991 1309 1228 531 
z
" transform="scale(0.015625)"/>
       </defs>
       <use xlink:href="#DejaVuSans-32"/>
       <use xlink:href="#DejaVuSans-30" transform="translate(63.623047 0)"/>
       <use xlink:href="#DejaVuSans-30" transform="translate(127.246094 0)"/>
      </g>
     </g>
    </g>
    <g id="xtick_3">
     <g id="line2d_5">
      <path d="M 184.815104 167.56 
L 184.815104 7.2 
" clip-path="url(#p3e87991612)" style="fill: none; stroke: #ffffff; stroke-width: 0.8; stroke-linecap: square"/>
     </g>
     <g id="line2d_6">
      <g>
       <use xlink:href="#m1a3feffafa" x="184.815104" y="167.56" style="fill: #555555; stroke: #555555; stroke-width: 0.8"/>
      </g>
     </g>
     <g id="text_3">
      <!-- 400 -->
      <g style="fill: #555555" transform="translate(175.271354 182.158437) scale(0.1 -0.1)">
       <defs>
        <path id="DejaVuSans-34" d="M 2419 4116 
L 825 1625 
L 2419 1625 
L 2419 4116 
z
M 2253 4666 
L 3047 4666 
L 3047 1625 
L 3713 1625 
L 3713 1100 
L 3047 1100 
L 3047 0 
L 2419 0 
L 2419 1100 
L 313 1100 
L 313 1709 
L 2253 4666 
z
" transform="scale(0.015625)"/>
       </defs>
       <use xlink:href="#DejaVuSans-34"/>
       <use xlink:href="#DejaVuSans-30" transform="translate(63.623047 0)"/>
       <use xlink:href="#DejaVuSans-30" transform="translate(127.246094 0)"/>
      </g>
     </g>
    </g>
    <g id="xtick_4">
     <g id="line2d_7">
      <path d="M 245.603896 167.56 
L 245.603896 7.2 
" clip-path="url(#p3e87991612)" style="fill: none; stroke: #ffffff; stroke-width: 0.8; stroke-linecap: square"/>
     </g>
     <g id="line2d_8">
      <g>
       <use xlink:href="#m1a3feffafa" x="245.603896" y="167.56" style="fill: #555555; stroke: #555555; stroke-width: 0.8"/>
      </g>
     </g>
     <g id="text_4">
      <!-- 600 -->
      <g style="fill: #555555" transform="translate(236.060146 182.158437) scale(0.1 -0.1)">
       <defs>
        <path id="DejaVuSans-36" d="M 2113 2584 
Q 1688 2584 1439 2293 
Q 1191 2003 1191 1497 
Q 1191 994 1439 701 
Q 1688 409 2113 409 
Q 2538 409 2786 701 
Q 3034 994 3034 1497 
Q 3034 2003 2786 2293 
Q 2538 2584 2113 2584 
z
M 3366 4563 
L 3366 3988 
Q 3128 4100 2886 4159 
Q 2644 4219 2406 4219 
Q 1781 4219 1451 3797 
Q 1122 3375 1075 2522 
Q 1259 2794 1537 2939 
Q 1816 3084 2150 3084 
Q 2853 3084 3261 2657 
Q 3669 2231 3669 1497 
Q 3669 778 3244 343 
Q 2819 -91 2113 -91 
Q 1303 -91 875 529 
Q 447 1150 447 2328 
Q 447 3434 972 4092 
Q 1497 4750 2381 4750 
Q 2619 4750 2861 4703 
Q 3103 4656 3366 4563 
z
" transform="scale(0.015625)"/>
       </defs>
       <use xlink:href="#DejaVuSans-36"/>
       <use xlink:href="#DejaVuSans-30" transform="translate(63.623047 0)"/>
       <use xlink:href="#DejaVuSans-30" transform="translate(127.246094 0)"/>
      </g>
     </g>
    </g>
    <g id="text_5">
     <!-- Epoch -->
     <g style="fill: #555555" transform="translate(144.102098 197.35625) scale(0.12 -0.12)">
      <defs>
       <path id="DejaVuSans-45" d="M 628 4666 
L 3578 4666 
L 3578 4134 
L 1259 4134 
L 1259 2753 
L 3481 2753 
L 3481 2222 
L 1259 2222 
L 1259 531 
L 3634 531 
L 3634 0 
L 628 0 
L 628 4666 
z
" transform="scale(0.015625)"/>
       <path id="DejaVuSans-70" d="M 1159 525 
L 1159 -1331 
L 581 -1331 
L 581 3500 
L 1159 3500 
L 1159 2969 
Q 1341 3281 1617 3432 
Q 1894 3584 2278 3584 
Q 2916 3584 3314 3078 
Q 3713 2572 3713 1747 
Q 3713 922 3314 415 
Q 2916 -91 2278 -91 
Q 1894 -91 1617 61 
Q 1341 213 1159 525 
z
M 3116 1747 
Q 3116 2381 2855 2742 
Q 2594 3103 2138 3103 
Q 1681 3103 1420 2742 
Q 1159 2381 1159 1747 
Q 1159 1113 1420 752 
Q 1681 391 2138 391 
Q 2594 391 2855 752 
Q 3116 1113 3116 1747 
z
" transform="scale(0.015625)"/>
       <path id="DejaVuSans-6f" d="M 1959 3097 
Q 1497 3097 1228 2736 
Q 959 2375 959 1747 
Q 959 1119 1226 758 
Q 1494 397 1959 397 
Q 2419 397 2687 759 
Q 2956 1122 2956 1747 
Q 2956 2369 2687 2733 
Q 2419 3097 1959 3097 
z
M 1959 3584 
Q 2709 3584 3137 3096 
Q 3566 2609 3566 1747 
Q 3566 888 3137 398 
Q 2709 -91 1959 -91 
Q 1206 -91 779 398 
Q 353 888 353 1747 
Q 353 2609 779 3096 
Q 1206 3584 1959 3584 
z
" transform="scale(0.015625)"/>
       <path id="DejaVuSans-63" d="M 3122 3366 
L 3122 2828 
Q 2878 2963 2633 3030 
Q 2388 3097 2138 3097 
Q 1578 3097 1268 2742 
Q 959 2388 959 1747 
Q 959 1106 1268 751 
Q 1578 397 2138 397 
Q 2388 397 2633 464 
Q 2878 531 3122 666 
L 3122 134 
Q 2881 22 2623 -34 
Q 2366 -91 2075 -91 
Q 1284 -91 818 406 
Q 353 903 353 1747 
Q 353 2603 823 3093 
Q 1294 3584 2113 3584 
Q 2378 3584 2631 3529 
Q 2884 3475 3122 3366 
z
" transform="scale(0.015625)"/>
       <path id="DejaVuSans-68" d="M 3513 2113 
L 3513 0 
L 2938 0 
L 2938 2094 
Q 2938 2591 2744 2837 
Q 2550 3084 2163 3084 
Q 1697 3084 1428 2787 
Q 1159 2491 1159 1978 
L 1159 0 
L 581 0 
L 581 4863 
L 1159 4863 
L 1159 2956 
Q 1366 3272 1645 3428 
Q 1925 3584 2291 3584 
Q 2894 3584 3203 3211 
Q 3513 2838 3513 2113 
z
" transform="scale(0.015625)"/>
      </defs>
      <use xlink:href="#DejaVuSans-45"/>
      <use xlink:href="#DejaVuSans-70" transform="translate(63.183594 0)"/>
      <use xlink:href="#DejaVuSans-6f" transform="translate(126.660156 0)"/>
      <use xlink:href="#DejaVuSans-63" transform="translate(187.841797 0)"/>
      <use xlink:href="#DejaVuSans-68" transform="translate(242.822266 0)"/>
     </g>
    </g>
   </g>
   <g id="matplotlib.axis_2">
    <g id="ytick_1">
     <g id="line2d_9">
      <path d="M 53.31375 152.042371 
L 271.636696 152.042371 
" clip-path="url(#p3e87991612)" style="fill: none; stroke: #ffffff; stroke-width: 0.8; stroke-linecap: square"/>
     </g>
     <g id="line2d_10">
      <defs>
       <path id="mdb8288c10d" d="M 0 0 
L -3.5 0 
" style="stroke: #555555; stroke-width: 0.8"/>
      </defs>
      <g>
       <use xlink:href="#mdb8288c10d" x="53.31375" y="152.042371" style="fill: #555555; stroke: #555555; stroke-width: 0.8"/>
      </g>
     </g>
     <g id="text_6">
      <!-- $\mathdefault{10^{-5}}$ -->
      <g style="fill: #555555" transform="translate(22.81375 155.84159) scale(0.1 -0.1)">
       <defs>
        <path id="DejaVuSans-31" d="M 794 531 
L 1825 531 
L 1825 4091 
L 703 3866 
L 703 4441 
L 1819 4666 
L 2450 4666 
L 2450 531 
L 3481 531 
L 3481 0 
L 794 0 
L 794 531 
z
" transform="scale(0.015625)"/>
        <path id="DejaVuSans-2212" d="M 678 2272 
L 4684 2272 
L 4684 1741 
L 678 1741 
L 678 2272 
z
" transform="scale(0.015625)"/>
        <path id="DejaVuSans-35" d="M 691 4666 
L 3169 4666 
L 3169 4134 
L 1269 4134 
L 1269 2991 
Q 1406 3038 1543 3061 
Q 1681 3084 1819 3084 
Q 2600 3084 3056 2656 
Q 3513 2228 3513 1497 
Q 3513 744 3044 326 
Q 2575 -91 1722 -91 
Q 1428 -91 1123 -41 
Q 819 9 494 109 
L 494 744 
Q 775 591 1075 516 
Q 1375 441 1709 441 
Q 2250 441 2565 725 
Q 2881 1009 2881 1497 
Q 2881 1984 2565 2268 
Q 2250 2553 1709 2553 
Q 1456 2553 1204 2497 
Q 953 2441 691 2322 
L 691 4666 
z
" transform="scale(0.015625)"/>
       </defs>
       <use xlink:href="#DejaVuSans-31" transform="translate(0 0.684375)"/>
       <use xlink:href="#DejaVuSans-30" transform="translate(63.623047 0.684375)"/>
       <use xlink:href="#DejaVuSans-2212" transform="translate(128.203125 38.965625) scale(0.7)"/>
       <use xlink:href="#DejaVuSans-35" transform="translate(186.855469 38.965625) scale(0.7)"/>
      </g>
     </g>
    </g>
    <g id="ytick_2">
     <g id="line2d_11">
      <path d="M 53.31375 119.968842 
L 271.636696 119.968842 
" clip-path="url(#p3e87991612)" style="fill: none; stroke: #ffffff; stroke-width: 0.8; stroke-linecap: square"/>
     </g>
     <g id="line2d_12">
      <g>
       <use xlink:href="#mdb8288c10d" x="53.31375" y="119.968842" style="fill: #555555; stroke: #555555; stroke-width: 0.8"/>
      </g>
     </g>
     <g id="text_7">
      <!-- $\mathdefault{10^{-4}}$ -->
      <g style="fill: #555555" transform="translate(22.81375 123.76806) scale(0.1 -0.1)">
       <use xlink:href="#DejaVuSans-31" transform="translate(0 0.684375)"/>
       <use xlink:href="#DejaVuSans-30" transform="translate(63.623047 0.684375)"/>
       <use xlink:href="#DejaVuSans-2212" transform="translate(128.203125 38.965625) scale(0.7)"/>
       <use xlink:href="#DejaVuSans-34" transform="translate(186.855469 38.965625) scale(0.7)"/>
      </g>
     </g>
    </g>
    <g id="ytick_3">
     <g id="line2d_13">
      <path d="M 53.31375 87.895312 
L 271.636696 87.895312 
" clip-path="url(#p3e87991612)" style="fill: none; stroke: #ffffff; stroke-width: 0.8; stroke-linecap: square"/>
     </g>
     <g id="line2d_14">
      <g>
       <use xlink:href="#mdb8288c10d" x="53.31375" y="87.895312" style="fill: #555555; stroke: #555555; stroke-width: 0.8"/>
      </g>
     </g>
     <g id="text_8">
      <!-- $\mathdefault{10^{-3}}$ -->
      <g style="fill: #555555" transform="translate(22.81375 91.694531) scale(0.1 -0.1)">
       <defs>
        <path id="DejaVuSans-33" d="M 2597 2516 
Q 3050 2419 3304 2112 
Q 3559 1806 3559 1356 
Q 3559 666 3084 287 
Q 2609 -91 1734 -91 
Q 1441 -91 1130 -33 
Q 819 25 488 141 
L 488 750 
Q 750 597 1062 519 
Q 1375 441 1716 441 
Q 2309 441 2620 675 
Q 2931 909 2931 1356 
Q 2931 1769 2642 2001 
Q 2353 2234 1838 2234 
L 1294 2234 
L 1294 2753 
L 1863 2753 
Q 2328 2753 2575 2939 
Q 2822 3125 2822 3475 
Q 2822 3834 2567 4026 
Q 2313 4219 1838 4219 
Q 1578 4219 1281 4162 
Q 984 4106 628 3988 
L 628 4550 
Q 988 4650 1302 4700 
Q 1616 4750 1894 4750 
Q 2613 4750 3031 4423 
Q 3450 4097 3450 3541 
Q 3450 3153 3228 2886 
Q 3006 2619 2597 2516 
z
" transform="scale(0.015625)"/>
       </defs>
       <use xlink:href="#DejaVuSans-31" transform="translate(0 0.765625)"/>
       <use xlink:href="#DejaVuSans-30" transform="translate(63.623047 0.765625)"/>
       <use xlink:href="#DejaVuSans-2212" transform="translate(128.203125 39.046875) scale(0.7)"/>
       <use xlink:href="#DejaVuSans-33" transform="translate(186.855469 39.046875) scale(0.7)"/>
      </g>
     </g>
    </g>
    <g id="ytick_4">
     <g id="line2d_15">
      <path d="M 53.31375 55.821782 
L 271.636696 55.821782 
" clip-path="url(#p3e87991612)" style="fill: none; stroke: #ffffff; stroke-width: 0.8; stroke-linecap: square"/>
     </g>
     <g id="line2d_16">
      <g>
       <use xlink:href="#mdb8288c10d" x="53.31375" y="55.821782" style="fill: #555555; stroke: #555555; stroke-width: 0.8"/>
      </g>
     </g>
     <g id="text_9">
      <!-- $\mathdefault{10^{-2}}$ -->
      <g style="fill: #555555" transform="translate(22.81375 59.621001) scale(0.1 -0.1)">
       <use xlink:href="#DejaVuSans-31" transform="translate(0 0.765625)"/>
       <use xlink:href="#DejaVuSans-30" transform="translate(63.623047 0.765625)"/>
       <use xlink:href="#DejaVuSans-2212" transform="translate(128.203125 39.046875) scale(0.7)"/>
       <use xlink:href="#DejaVuSans-32" transform="translate(186.855469 39.046875) scale(0.7)"/>
      </g>
     </g>
    </g>
    <g id="ytick_5">
     <g id="line2d_17">
      <path d="M 53.31375 23.748253 
L 271.636696 23.748253 
" clip-path="url(#p3e87991612)" style="fill: none; stroke: #ffffff; stroke-width: 0.8; stroke-linecap: square"/>
     </g>
     <g id="line2d_18">
      <g>
       <use xlink:href="#mdb8288c10d" x="53.31375" y="23.748253" style="fill: #555555; stroke: #555555; stroke-width: 0.8"/>
      </g>
     </g>
     <g id="text_10">
      <!-- $\mathdefault{10^{-1}}$ -->
      <g style="fill: #555555" transform="translate(22.81375 27.547472) scale(0.1 -0.1)">
       <use xlink:href="#DejaVuSans-31" transform="translate(0 0.684375)"/>
       <use xlink:href="#DejaVuSans-30" transform="translate(63.623047 0.684375)"/>
       <use xlink:href="#DejaVuSans-2212" transform="translate(128.203125 38.965625) scale(0.7)"/>
       <use xlink:href="#DejaVuSans-31" transform="translate(186.855469 38.965625) scale(0.7)"/>
      </g>
     </g>
    </g>
    <g id="ytick_6">
     <g id="line2d_19">
      <defs>
       <path id="m1d0d7f29d5" d="M 0 0 
L -2 0 
" style="stroke: #555555; stroke-width: 0.6"/>
      </defs>
      <g>
       <use xlink:href="#m1d0d7f29d5" x="53.31375" y="164.805712" style="fill: #555555; stroke: #555555; stroke-width: 0.6"/>
      </g>
     </g>
    </g>
    <g id="ytick_7">
     <g id="line2d_20">
      <g>
       <use xlink:href="#m1d0d7f29d5" x="53.31375" y="161.697466" style="fill: #555555; stroke: #555555; stroke-width: 0.6"/>
      </g>
     </g>
    </g>
    <g id="ytick_8">
     <g id="line2d_21">
      <g>
       <use xlink:href="#m1d0d7f29d5" x="53.31375" y="159.157844" style="fill: #555555; stroke: #555555; stroke-width: 0.6"/>
      </g>
     </g>
    </g>
    <g id="ytick_9">
     <g id="line2d_22">
      <g>
       <use xlink:href="#m1d0d7f29d5" x="53.31375" y="157.010624" style="fill: #555555; stroke: #555555; stroke-width: 0.6"/>
      </g>
     </g>
    </g>
    <g id="ytick_10">
     <g id="line2d_23">
      <g>
       <use xlink:href="#m1d0d7f29d5" x="53.31375" y="155.150618" style="fill: #555555; stroke: #555555; stroke-width: 0.6"/>
      </g>
     </g>
    </g>
    <g id="ytick_11">
     <g id="line2d_24">
      <g>
       <use xlink:href="#m1d0d7f29d5" x="53.31375" y="153.509976" style="fill: #555555; stroke: #555555; stroke-width: 0.6"/>
      </g>
     </g>
    </g>
    <g id="ytick_12">
     <g id="line2d_25">
      <g>
       <use xlink:href="#m1d0d7f29d5" x="53.31375" y="142.387277" style="fill: #555555; stroke: #555555; stroke-width: 0.6"/>
      </g>
     </g>
    </g>
    <g id="ytick_13">
     <g id="line2d_26">
      <g>
       <use xlink:href="#m1d0d7f29d5" x="53.31375" y="136.739409" style="fill: #555555; stroke: #555555; stroke-width: 0.6"/>
      </g>
     </g>
    </g>
    <g id="ytick_14">
     <g id="line2d_27">
      <g>
       <use xlink:href="#m1d0d7f29d5" x="53.31375" y="132.732182" style="fill: #555555; stroke: #555555; stroke-width: 0.6"/>
      </g>
     </g>
    </g>
    <g id="ytick_15">
     <g id="line2d_28">
      <g>
       <use xlink:href="#m1d0d7f29d5" x="53.31375" y="129.623936" style="fill: #555555; stroke: #555555; stroke-width: 0.6"/>
      </g>
     </g>
    </g>
    <g id="ytick_16">
     <g id="line2d_29">
      <g>
       <use xlink:href="#m1d0d7f29d5" x="53.31375" y="127.084314" style="fill: #555555; stroke: #555555; stroke-width: 0.6"/>
      </g>
     </g>
    </g>
    <g id="ytick_17">
     <g id="line2d_30">
      <g>
       <use xlink:href="#m1d0d7f29d5" x="53.31375" y="124.937094" style="fill: #555555; stroke: #555555; stroke-width: 0.6"/>
      </g>
     </g>
    </g>
    <g id="ytick_18">
     <g id="line2d_31">
      <g>
       <use xlink:href="#m1d0d7f29d5" x="53.31375" y="123.077088" style="fill: #555555; stroke: #555555; stroke-width: 0.6"/>
      </g>
     </g>
    </g>
    <g id="ytick_19">
     <g id="line2d_32">
      <g>
       <use xlink:href="#m1d0d7f29d5" x="53.31375" y="121.436446" style="fill: #555555; stroke: #555555; stroke-width: 0.6"/>
      </g>
     </g>
    </g>
    <g id="ytick_20">
     <g id="line2d_33">
      <g>
       <use xlink:href="#m1d0d7f29d5" x="53.31375" y="110.313747" style="fill: #555555; stroke: #555555; stroke-width: 0.6"/>
      </g>
     </g>
    </g>
    <g id="ytick_21">
     <g id="line2d_34">
      <g>
       <use xlink:href="#m1d0d7f29d5" x="53.31375" y="104.665879" style="fill: #555555; stroke: #555555; stroke-width: 0.6"/>
      </g>
     </g>
    </g>
    <g id="ytick_22">
     <g id="line2d_35">
      <g>
       <use xlink:href="#m1d0d7f29d5" x="53.31375" y="100.658653" style="fill: #555555; stroke: #555555; stroke-width: 0.6"/>
      </g>
     </g>
    </g>
    <g id="ytick_23">
     <g id="line2d_36">
      <g>
       <use xlink:href="#m1d0d7f29d5" x="53.31375" y="97.550407" style="fill: #555555; stroke: #555555; stroke-width: 0.6"/>
      </g>
     </g>
    </g>
    <g id="ytick_24">
     <g id="line2d_37">
      <g>
       <use xlink:href="#m1d0d7f29d5" x="53.31375" y="95.010785" style="fill: #555555; stroke: #555555; stroke-width: 0.6"/>
      </g>
     </g>
    </g>
    <g id="ytick_25">
     <g id="line2d_38">
      <g>
       <use xlink:href="#m1d0d7f29d5" x="53.31375" y="92.863565" style="fill: #555555; stroke: #555555; stroke-width: 0.6"/>
      </g>
     </g>
    </g>
    <g id="ytick_26">
     <g id="line2d_39">
      <g>
       <use xlink:href="#m1d0d7f29d5" x="53.31375" y="91.003558" style="fill: #555555; stroke: #555555; stroke-width: 0.6"/>
      </g>
     </g>
    </g>
    <g id="ytick_27">
     <g id="line2d_40">
      <g>
       <use xlink:href="#m1d0d7f29d5" x="53.31375" y="89.362916" style="fill: #555555; stroke: #555555; stroke-width: 0.6"/>
      </g>
     </g>
    </g>
    <g id="ytick_28">
     <g id="line2d_41">
      <g>
       <use xlink:href="#m1d0d7f29d5" x="53.31375" y="78.240218" style="fill: #555555; stroke: #555555; stroke-width: 0.6"/>
      </g>
     </g>
    </g>
    <g id="ytick_29">
     <g id="line2d_42">
      <g>
       <use xlink:href="#m1d0d7f29d5" x="53.31375" y="72.592349" style="fill: #555555; stroke: #555555; stroke-width: 0.6"/>
      </g>
     </g>
    </g>
    <g id="ytick_30">
     <g id="line2d_43">
      <g>
       <use xlink:href="#m1d0d7f29d5" x="53.31375" y="68.585123" style="fill: #555555; stroke: #555555; stroke-width: 0.6"/>
      </g>
     </g>
    </g>
    <g id="ytick_31">
     <g id="line2d_44">
      <g>
       <use xlink:href="#m1d0d7f29d5" x="53.31375" y="65.476877" style="fill: #555555; stroke: #555555; stroke-width: 0.6"/>
      </g>
     </g>
    </g>
    <g id="ytick_32">
     <g id="line2d_45">
      <g>
       <use xlink:href="#m1d0d7f29d5" x="53.31375" y="62.937255" style="fill: #555555; stroke: #555555; stroke-width: 0.6"/>
      </g>
     </g>
    </g>
    <g id="ytick_33">
     <g id="line2d_46">
      <g>
       <use xlink:href="#m1d0d7f29d5" x="53.31375" y="60.790035" style="fill: #555555; stroke: #555555; stroke-width: 0.6"/>
      </g>
     </g>
    </g>
    <g id="ytick_34">
     <g id="line2d_47">
      <g>
       <use xlink:href="#m1d0d7f29d5" x="53.31375" y="58.930029" style="fill: #555555; stroke: #555555; stroke-width: 0.6"/>
      </g>
     </g>
    </g>
    <g id="ytick_35">
     <g id="line2d_48">
      <g>
       <use xlink:href="#m1d0d7f29d5" x="53.31375" y="57.289387" style="fill: #555555; stroke: #555555; stroke-width: 0.6"/>
      </g>
     </g>
    </g>
    <g id="ytick_36">
     <g id="line2d_49">
      <g>
       <use xlink:href="#m1d0d7f29d5" x="53.31375" y="46.166688" style="fill: #555555; stroke: #555555; stroke-width: 0.6"/>
      </g>
     </g>
    </g>
    <g id="ytick_37">
     <g id="line2d_50">
      <g>
       <use xlink:href="#m1d0d7f29d5" x="53.31375" y="40.51882" style="fill: #555555; stroke: #555555; stroke-width: 0.6"/>
      </g>
     </g>
    </g>
    <g id="ytick_38">
     <g id="line2d_51">
      <g>
       <use xlink:href="#m1d0d7f29d5" x="53.31375" y="36.511594" style="fill: #555555; stroke: #555555; stroke-width: 0.6"/>
      </g>
     </g>
    </g>
    <g id="ytick_39">
     <g id="line2d_52">
      <g>
       <use xlink:href="#m1d0d7f29d5" x="53.31375" y="33.403347" style="fill: #555555; stroke: #555555; stroke-width: 0.6"/>
      </g>
     </g>
    </g>
    <g id="ytick_40">
     <g id="line2d_53">
      <g>
       <use xlink:href="#m1d0d7f29d5" x="53.31375" y="30.863725" style="fill: #555555; stroke: #555555; stroke-width: 0.6"/>
      </g>
     </g>
    </g>
    <g id="ytick_41">
     <g id="line2d_54">
      <g>
       <use xlink:href="#m1d0d7f29d5" x="53.31375" y="28.716505" style="fill: #555555; stroke: #555555; stroke-width: 0.6"/>
      </g>
     </g>
    </g>
    <g id="ytick_42">
     <g id="line2d_55">
      <g>
       <use xlink:href="#m1d0d7f29d5" x="53.31375" y="26.856499" style="fill: #555555; stroke: #555555; stroke-width: 0.6"/>
      </g>
     </g>
    </g>
    <g id="ytick_43">
     <g id="line2d_56">
      <g>
       <use xlink:href="#m1d0d7f29d5" x="53.31375" y="25.215857" style="fill: #555555; stroke: #555555; stroke-width: 0.6"/>
      </g>
     </g>
    </g>
    <g id="ytick_44">
     <g id="line2d_57">
      <g>
       <use xlink:href="#m1d0d7f29d5" x="53.31375" y="14.093158" style="fill: #555555; stroke: #555555; stroke-width: 0.6"/>
      </g>
     </g>
    </g>
    <g id="ytick_45">
     <g id="line2d_58">
      <g>
       <use xlink:href="#m1d0d7f29d5" x="53.31375" y="8.44529" style="fill: #555555; stroke: #555555; stroke-width: 0.6"/>
      </g>
     </g>
    </g>
    <g id="text_11">
     <!-- Loss -->
     <g style="fill: #555555" transform="translate(16.318125 100.540625) rotate(-90) scale(0.12 -0.12)">
      <defs>
       <path id="DejaVuSans-4c" d="M 628 4666 
L 1259 4666 
L 1259 531 
L 3531 531 
L 3531 0 
L 628 0 
L 628 4666 
z
" transform="scale(0.015625)"/>
       <path id="DejaVuSans-73" d="M 2834 3397 
L 2834 2853 
Q 2591 2978 2328 3040 
Q 2066 3103 1784 3103 
Q 1356 3103 1142 2972 
Q 928 2841 928 2578 
Q 928 2378 1081 2264 
Q 1234 2150 1697 2047 
L 1894 2003 
Q 2506 1872 2764 1633 
Q 3022 1394 3022 966 
Q 3022 478 2636 193 
Q 2250 -91 1575 -91 
Q 1294 -91 989 -36 
Q 684 19 347 128 
L 347 722 
Q 666 556 975 473 
Q 1284 391 1588 391 
Q 1994 391 2212 530 
Q 2431 669 2431 922 
Q 2431 1156 2273 1281 
Q 2116 1406 1581 1522 
L 1381 1569 
Q 847 1681 609 1914 
Q 372 2147 372 2553 
Q 372 3047 722 3315 
Q 1072 3584 1716 3584 
Q 2034 3584 2315 3537 
Q 2597 3491 2834 3397 
z
" transform="scale(0.015625)"/>
      </defs>
      <use xlink:href="#DejaVuSans-4c"/>
      <use xlink:href="#DejaVuSans-6f" transform="translate(53.962891 0)"/>
      <use xlink:href="#DejaVuSans-73" transform="translate(115.144531 0)"/>
      <use xlink:href="#DejaVuSans-73" transform="translate(167.244141 0)"/>
     </g>
    </g>
   </g>
   <g id="line2d_59">
    <path d="M 63.23752 14.489091 
L 63.541464 60.462524 
L 63.845408 77.304626 
L 64.149352 84.982369 
L 64.453296 86.970199 
L 64.75724 90.457437 
L 65.061184 90.895842 
L 65.365128 94.747388 
L 65.669072 88.249888 
L 65.973016 97.348776 
L 66.27696 97.231514 
L 66.580904 93.747273 
L 66.884848 100.168106 
L 67.188792 97.662148 
L 67.492736 93.500428 
L 67.79668 94.070925 
L 68.100624 100.137839 
L 68.404568 91.864997 
L 68.708512 94.510143 
L 69.012456 95.290098 
L 69.316399 90.520319 
L 69.620343 99.398771 
L 69.924287 97.817361 
L 70.228231 91.112209 
L 70.532175 96.465166 
L 70.836119 97.438021 
L 71.140063 94.918892 
L 71.444007 96.68481 
L 71.747951 101.926159 
L 72.051895 98.470815 
L 72.355839 83.963346 
L 72.659783 88.281181 
L 72.963727 97.695126 
L 73.267671 90.398099 
L 73.571615 96.601689 
L 73.875559 98.974722 
L 74.179503 96.737158 
L 74.787391 114.339877 
L 75.091335 111.602205 
L 75.395279 111.819677 
L 75.699223 111.356251 
L 76.003167 113.623844 
L 76.307111 113.253593 
L 76.611054 109.559412 
L 76.914998 111.886 
L 77.218942 112.703278 
L 77.522886 106.447591 
L 77.82683 107.793101 
L 78.130774 109.796817 
L 78.434718 113.397065 
L 78.738662 113.052242 
L 79.042606 114.756751 
L 79.650494 107.922177 
L 79.954438 112.390499 
L 80.258382 103.137059 
L 80.562326 108.177292 
L 80.86627 110.680099 
L 81.170214 111.660652 
L 81.474158 114.156178 
L 81.778102 109.927101 
L 82.082046 109.425143 
L 82.38599 111.45598 
L 82.689934 111.079424 
L 82.993878 109.659494 
L 83.297822 106.439426 
L 83.601766 113.977187 
L 83.90571 104.307991 
L 84.209653 109.063485 
L 84.513597 102.208381 
L 85.121485 107.785482 
L 85.425429 107.259445 
L 85.729373 104.115439 
L 86.033317 112.853591 
L 86.641205 105.119229 
L 86.945149 112.503478 
L 87.249093 109.971345 
L 87.553037 112.782406 
L 88.160925 100.562352 
L 88.464869 110.993817 
L 88.768813 108.577608 
L 89.072757 108.710856 
L 89.376701 116.454544 
L 89.680645 115.753078 
L 89.984589 114.4318 
L 90.288533 117.388516 
L 90.592477 118.974005 
L 90.896421 117.819697 
L 91.200365 117.152024 
L 91.504309 115.616901 
L 91.808252 119.302589 
L 92.112196 115.75733 
L 92.41614 113.531499 
L 92.720084 115.311653 
L 93.024028 114.784941 
L 93.327972 118.60665 
L 93.631916 117.128499 
L 93.93586 114.815879 
L 94.543748 114.269336 
L 94.847692 112.482045 
L 95.151636 114.554335 
L 95.45558 118.516055 
L 95.759524 116.969218 
L 96.063468 116.107918 
L 96.367412 116.718175 
L 96.671356 114.434726 
L 96.9753 108.768026 
L 97.279244 107.780761 
L 97.583188 116.629918 
L 97.887132 114.537692 
L 98.191076 117.115573 
L 98.49502 118.315578 
L 99.102907 112.084629 
L 99.406851 117.858116 
L 99.710795 109.208917 
L 100.014739 111.209525 
L 100.318683 112.044272 
L 100.622627 120.984361 
L 100.926571 119.453588 
L 101.230515 120.613135 
L 101.534459 119.56368 
L 101.838403 117.599853 
L 102.142347 122.061319 
L 102.446291 118.47603 
L 102.750235 119.105856 
L 103.054179 119.458163 
L 103.358123 116.678039 
L 103.966011 120.317417 
L 104.269955 115.928765 
L 104.877843 121.143179 
L 105.181787 115.769085 
L 105.485731 119.579087 
L 105.789675 115.51391 
L 106.093619 118.583835 
L 106.397563 119.433636 
L 106.701506 119.200923 
L 107.00545 122.867043 
L 107.309394 118.925229 
L 107.613338 118.442893 
L 107.917282 120.885639 
L 108.221226 118.596587 
L 108.52517 113.618522 
L 108.829114 114.748162 
L 109.133058 119.415635 
L 109.437002 116.35237 
L 109.740946 122.937421 
L 110.04489 119.305578 
L 110.348834 122.481254 
L 110.652778 115.463486 
L 110.956722 123.72421 
L 111.260666 119.781285 
L 111.56461 117.689989 
L 111.868554 118.792426 
L 112.172498 122.235917 
L 112.476442 120.011985 
L 112.780386 121.316425 
L 113.08433 121.501264 
L 113.388274 116.961327 
L 113.692218 120.727732 
L 113.996162 122.987712 
L 114.300105 120.64153 
L 114.604049 117.190867 
L 114.907993 120.806693 
L 115.211937 121.421441 
L 115.515881 117.74259 
L 115.819825 124.608274 
L 116.123769 123.779737 
L 116.427713 123.730688 
L 116.731657 124.24644 
L 117.035601 122.059683 
L 117.339545 123.82659 
L 117.643489 123.080521 
L 117.947433 121.828307 
L 118.251377 123.053247 
L 118.555321 119.249467 
L 118.859265 122.305471 
L 119.163209 119.917474 
L 119.771097 122.770076 
L 120.075041 120.038109 
L 120.378985 124.145422 
L 120.682929 123.355672 
L 120.986873 123.074581 
L 121.290817 122.292188 
L 121.59476 122.778117 
L 122.202648 119.946411 
L 122.506592 123.063898 
L 122.810536 121.293153 
L 123.11448 122.233134 
L 123.418424 124.643094 
L 123.722368 123.627357 
L 124.026312 120.14602 
L 124.330256 122.081673 
L 124.6342 121.900523 
L 124.938144 121.220414 
L 125.242088 122.254587 
L 125.546032 118.41356 
L 125.849976 122.115645 
L 126.15392 120.638445 
L 126.457864 121.032075 
L 126.761808 119.493342 
L 127.065752 123.744555 
L 127.369696 119.120039 
L 127.67364 126.645918 
L 127.977584 120.280563 
L 128.281528 123.828279 
L 128.585472 122.441623 
L 128.889416 122.440949 
L 129.193359 121.324041 
L 129.497303 123.451446 
L 129.801247 123.725256 
L 130.105191 123.643178 
L 130.409135 123.321409 
L 130.713079 121.634723 
L 131.017023 120.849654 
L 131.624911 123.143347 
L 131.928855 120.966212 
L 132.232799 124.990403 
L 132.536743 121.841238 
L 132.840687 120.236846 
L 133.144631 124.537056 
L 133.448575 123.924848 
L 133.752519 121.722128 
L 134.056463 120.412444 
L 134.360407 124.278842 
L 134.664351 121.310251 
L 134.968295 123.746408 
L 135.272239 123.714166 
L 135.576183 123.878863 
L 135.880127 120.589854 
L 136.488015 123.013216 
L 136.791958 126.819924 
L 137.095902 123.806034 
L 137.399846 123.889913 
L 137.70379 120.135405 
L 138.007734 119.643604 
L 138.311678 124.325275 
L 138.919566 123.822827 
L 139.527454 125.321462 
L 140.135342 120.464369 
L 140.439286 122.935409 
L 140.74323 121.460612 
L 141.047174 121.126409 
L 141.351118 121.781611 
L 141.655062 119.500944 
L 141.959006 124.481042 
L 142.26295 125.074927 
L 142.566894 122.87997 
L 142.870838 123.427653 
L 143.174782 120.359025 
L 143.478726 123.594153 
L 143.78267 122.0552 
L 144.086613 123.339111 
L 144.390557 122.260274 
L 144.694501 118.234277 
L 145.606333 125.78927 
L 145.910277 121.03476 
L 146.214221 121.349905 
L 146.518165 126.585872 
L 146.822109 122.532462 
L 147.126053 126.733437 
L 147.429997 123.487226 
L 147.733941 117.038103 
L 148.037885 124.455184 
L 148.341829 122.954639 
L 148.645773 125.341464 
L 148.949717 129.112574 
L 149.253661 124.169013 
L 149.557605 122.666381 
L 149.861549 124.587126 
L 150.165493 124.695424 
L 150.469437 119.873588 
L 150.773381 125.272412 
L 151.077325 125.88257 
L 151.381269 124.330318 
L 151.685212 121.697276 
L 151.989156 124.369573 
L 152.2931 124.173694 
L 152.597044 122.329539 
L 152.900988 123.570044 
L 153.508876 124.361788 
L 153.81282 122.321499 
L 154.116764 122.852343 
L 154.420708 121.503939 
L 154.724652 122.112316 
L 155.028596 121.332318 
L 155.33254 127.410763 
L 155.636484 120.077443 
L 156.244372 122.456016 
L 156.548316 123.168144 
L 156.85226 119.791648 
L 157.460148 124.728868 
L 157.764092 121.146904 
L 158.068036 124.265273 
L 158.37198 124.03017 
L 158.675924 126.477485 
L 158.979868 123.492742 
L 159.283811 127.556809 
L 159.587755 123.984486 
L 160.195643 122.028421 
L 160.499587 123.470583 
L 160.803531 126.366775 
L 161.107475 125.122907 
L 161.411419 125.330111 
L 161.715363 128.469966 
L 162.019307 122.493531 
L 162.323251 122.677512 
L 162.627195 123.651985 
L 162.931139 121.042102 
L 163.235083 121.173499 
L 163.539027 120.82141 
L 163.842971 125.092754 
L 164.146915 124.095204 
L 164.450859 125.636309 
L 164.754803 122.686646 
L 165.058747 124.813622 
L 165.362691 116.975369 
L 165.666635 122.83805 
L 165.970579 123.294739 
L 166.274523 127.596958 
L 166.578466 125.040182 
L 166.88241 127.927796 
L 167.186354 123.71426 
L 167.794242 127.024947 
L 168.098186 121.891668 
L 168.40213 123.190922 
L 168.706074 123.179736 
L 169.010018 126.31643 
L 169.313962 120.786423 
L 169.617906 121.678732 
L 169.92185 124.298808 
L 170.225794 118.332886 
L 170.529738 126.457234 
L 170.833682 121.62484 
L 171.137626 124.070346 
L 171.745514 121.704198 
L 172.049458 121.933487 
L 172.353402 122.89538 
L 172.657346 125.393075 
L 172.96129 125.528208 
L 173.265234 124.352269 
L 173.569178 122.116861 
L 173.873122 123.117104 
L 174.177065 121.511862 
L 174.481009 125.323241 
L 174.784953 126.32011 
L 175.088897 122.275789 
L 175.392841 124.261726 
L 175.696785 119.159073 
L 176.000729 122.118299 
L 176.304673 121.64233 
L 176.608617 119.163217 
L 176.912561 124.194774 
L 177.216505 119.058568 
L 177.520449 128.144124 
L 177.824393 123.319463 
L 178.128337 126.459204 
L 178.432281 124.697856 
L 178.736225 123.899328 
L 179.040169 124.552375 
L 179.344113 122.970833 
L 179.648057 124.374479 
L 179.952001 122.983221 
L 180.255945 126.967611 
L 180.559889 123.450513 
L 180.863833 124.633044 
L 181.167777 121.445812 
L 181.471721 124.860504 
L 181.775664 120.137409 
L 182.079608 119.575985 
L 182.383552 123.658143 
L 182.687496 126.131493 
L 182.99144 124.450426 
L 183.295384 124.67369 
L 183.599328 119.406176 
L 183.903272 125.456641 
L 184.207216 127.531094 
L 184.51116 124.572565 
L 184.815104 124.716715 
L 185.119048 123.561157 
L 185.422992 122.975906 
L 185.726936 123.471357 
L 186.03088 126.122207 
L 186.334824 123.647562 
L 186.638768 123.286533 
L 186.942712 124.128862 
L 187.246656 123.459446 
L 187.5506 122.098403 
L 187.854544 125.961968 
L 188.158488 126.25187 
L 188.462432 124.968983 
L 188.766376 120.721593 
L 189.07032 125.139833 
L 189.374263 121.411334 
L 189.678207 126.119562 
L 189.982151 120.691595 
L 190.590039 126.266893 
L 190.893983 123.146727 
L 191.197927 123.661654 
L 191.501871 122.466206 
L 191.805815 123.693382 
L 192.109759 123.346506 
L 192.413703 124.068465 
L 192.717647 125.36789 
L 193.021591 119.913837 
L 193.325535 126.188011 
L 193.629479 125.825776 
L 193.933423 123.467204 
L 194.237367 125.669942 
L 194.541311 124.437454 
L 194.845255 122.040949 
L 195.149199 121.35646 
L 195.757087 125.050333 
L 196.061031 121.866116 
L 196.364975 121.273415 
L 196.668918 121.262926 
L 196.972862 123.088884 
L 197.276806 123.081802 
L 197.58075 123.566665 
L 197.884694 123.425115 
L 198.188638 125.070073 
L 198.492582 123.345541 
L 198.796526 127.390799 
L 199.10047 124.227828 
L 199.404414 123.810944 
L 199.708358 123.085747 
L 200.012302 123.156842 
L 200.316246 127.773825 
L 200.62019 117.674386 
L 200.924134 119.387933 
L 201.228078 124.908657 
L 201.532022 122.876069 
L 201.835966 128.570747 
L 202.13991 122.416407 
L 202.443854 124.485269 
L 202.747798 121.272515 
L 203.051742 122.745805 
L 203.355686 121.38749 
L 203.65963 122.996862 
L 203.963574 126.067265 
L 204.267517 126.78581 
L 204.571461 121.205319 
L 204.875405 127.022626 
L 205.179349 125.701606 
L 205.483293 122.140213 
L 205.787237 122.118767 
L 206.091181 124.943202 
L 206.395125 121.366691 
L 206.699069 122.498264 
L 207.003013 125.702857 
L 207.306957 122.69504 
L 207.610901 117.886252 
L 207.914845 119.49666 
L 208.218789 125.541738 
L 208.522733 126.790469 
L 208.826677 124.260433 
L 209.130621 126.589904 
L 209.434565 124.320458 
L 209.738509 119.949618 
L 210.042453 121.721249 
L 210.346397 128.626261 
L 210.650341 127.149651 
L 210.954285 120.733548 
L 211.258229 121.047759 
L 211.562173 127.210576 
L 211.866116 123.59548 
L 212.17006 124.499845 
L 212.474004 122.592565 
L 212.777948 125.342285 
L 213.081892 122.562789 
L 213.385836 125.787369 
L 213.68978 122.308428 
L 213.993724 124.794485 
L 214.297668 121.988871 
L 214.601612 121.620039 
L 214.905556 123.563188 
L 215.2095 123.590447 
L 215.513444 127.371375 
L 215.817388 124.270778 
L 216.121332 127.881037 
L 216.425276 125.488752 
L 216.72922 121.778157 
L 217.337108 127.328118 
L 218.552884 119.61482 
L 218.856828 122.532663 
L 219.160771 120.307344 
L 219.464715 122.375495 
L 219.768659 126.534568 
L 220.072603 126.954073 
L 220.680491 122.732031 
L 220.984435 124.844684 
L 221.288379 125.072921 
L 221.592323 121.891157 
L 221.896267 126.305583 
L 222.200211 120.652317 
L 222.504155 122.257897 
L 222.808099 124.527412 
L 223.112043 121.835416 
L 223.415987 124.78633 
L 223.719931 122.346423 
L 224.023875 123.623776 
L 224.327819 122.595248 
L 224.631763 125.678101 
L 224.935707 123.873022 
L 225.239651 124.878661 
L 225.543595 123.415845 
L 225.847539 118.966788 
L 226.151483 123.21479 
L 226.455427 123.177232 
L 226.75937 124.766184 
L 227.063314 128.736911 
L 227.671202 123.701848 
L 227.975146 123.150969 
L 228.27909 125.398159 
L 228.583034 121.845486 
L 228.886978 126.596472 
L 229.494866 123.752324 
L 229.79881 123.253315 
L 230.102754 127.418738 
L 230.710642 121.261946 
L 231.014586 124.617343 
L 231.31853 126.331133 
L 231.622474 125.205811 
L 231.926418 127.408153 
L 232.230362 119.788405 
L 232.534306 123.597636 
L 232.83825 125.129326 
L 233.142194 123.01808 
L 233.446138 123.719732 
L 233.750082 125.388918 
L 234.054026 128.541487 
L 234.357969 124.478304 
L 234.661913 125.520898 
L 234.965857 125.18355 
L 235.269801 120.706735 
L 235.573745 122.480528 
L 235.877689 122.061296 
L 236.181633 121.372601 
L 236.485577 120.094237 
L 236.789521 125.608843 
L 237.093465 123.374725 
L 237.397409 124.678521 
L 237.701353 127.308915 
L 238.005297 126.952919 
L 238.309241 118.951344 
L 238.613185 124.107484 
L 238.917129 120.558069 
L 239.221073 122.321345 
L 239.525017 124.854016 
L 239.828961 121.751791 
L 240.132905 122.691407 
L 240.436849 122.307659 
L 240.740793 124.669448 
L 241.044737 122.338129 
L 241.348681 124.698801 
L 241.652624 119.224746 
L 241.956568 125.168619 
L 242.260512 121.952022 
L 242.564456 124.662324 
L 242.8684 119.188312 
L 243.172344 120.819711 
L 243.476288 126.509926 
L 244.084176 123.724715 
L 244.38812 125.139128 
L 244.692064 120.514504 
L 244.996008 124.567463 
L 245.299952 121.343046 
L 245.603896 125.691077 
L 245.90784 124.129545 
L 246.211784 124.482967 
L 246.515728 125.448971 
L 246.819672 120.980512 
L 247.123616 123.667626 
L 247.42756 122.23149 
L 247.731504 124.846313 
L 248.035448 125.952294 
L 248.339392 123.207146 
L 248.643336 126.437331 
L 248.94728 128.413138 
L 249.251223 127.296976 
L 249.555167 123.976309 
L 249.859111 125.076727 
L 250.163055 121.406136 
L 250.466999 124.002113 
L 250.770943 128.381599 
L 251.074887 128.625998 
L 251.378831 125.372944 
L 251.682775 124.631018 
L 251.986719 122.147138 
L 252.594607 124.763027 
L 252.898551 120.675741 
L 253.202495 122.896665 
L 253.506439 123.637457 
L 253.810383 122.896688 
L 254.114327 123.752545 
L 254.418271 125.452231 
L 254.722215 123.571267 
L 255.026159 123.554658 
L 255.330103 125.971059 
L 255.937991 122.362667 
L 256.241935 122.751909 
L 256.545879 126.498837 
L 256.849822 123.158617 
L 257.153766 123.367927 
L 257.45771 122.820489 
L 257.761654 124.913748 
L 258.065598 121.477677 
L 258.369542 128.427836 
L 258.673486 123.826958 
L 258.97743 123.206432 
L 259.281374 125.930459 
L 259.585318 123.511618 
L 259.889262 125.605963 
L 260.193206 122.059981 
L 260.49715 124.369895 
L 261.105038 122.551563 
L 261.408982 128.232626 
L 261.712926 124.14602 
L 261.712926 124.14602 
" clip-path="url(#p3e87991612)" style="fill: none; stroke: #1d3557; stroke-width: 1.5; stroke-linecap: square"/>
   </g>
   <g id="line2d_60">
    <path d="M 63.23752 50.749721 
L 63.541464 72.25573 
L 63.845408 83.780291 
L 64.149352 84.926238 
L 64.453296 93.885661 
L 64.75724 91.224966 
L 65.061184 93.273824 
L 65.365128 93.753358 
L 65.669072 100.654923 
L 65.973016 103.910028 
L 66.27696 100.350669 
L 66.580904 98.498485 
L 66.884848 106.114032 
L 67.188792 86.93297 
L 67.79668 109.030715 
L 68.100624 99.215938 
L 68.404568 100.616135 
L 68.708512 100.947021 
L 69.012456 95.374291 
L 69.316399 100.644937 
L 69.620343 101.81689 
L 69.924287 97.585091 
L 70.228231 90.372085 
L 70.532175 108.202115 
L 70.836119 105.029862 
L 71.444007 92.342984 
L 71.747951 99.849341 
L 72.051895 96.414368 
L 72.355839 76.027961 
L 72.659783 100.819522 
L 72.963727 99.660111 
L 73.267671 80.709172 
L 73.571615 107.988042 
L 73.875559 106.855377 
L 74.179503 92.46488 
L 74.483447 120.366347 
L 74.787391 123.720638 
L 75.091335 125.458064 
L 75.395279 130.097788 
L 75.699223 113.48628 
L 76.003167 133.632106 
L 76.307111 124.807963 
L 76.611054 121.586453 
L 76.914998 114.08901 
L 77.218942 122.203162 
L 77.522886 123.267615 
L 77.82683 115.489037 
L 78.434718 124.737714 
L 78.738662 119.143373 
L 79.042606 133.665577 
L 79.954438 112.264542 
L 80.258382 117.36968 
L 80.562326 109.49754 
L 80.86627 124.494935 
L 81.170214 126.247465 
L 81.778102 123.153159 
L 82.082046 123.396493 
L 82.38599 119.994413 
L 82.689934 133.881991 
L 82.993878 107.389296 
L 83.297822 119.031702 
L 83.601766 119.442946 
L 83.90571 108.247924 
L 84.513597 104.290638 
L 84.817541 110.472553 
L 85.121485 106.012608 
L 85.425429 119.10909 
L 85.729373 118.416918 
L 86.033317 130.699522 
L 86.337261 109.799608 
L 86.641205 115.621508 
L 87.249093 119.684426 
L 87.553037 115.325469 
L 87.856981 105.206777 
L 88.160925 112.1001 
L 88.464869 106.910482 
L 88.768813 122.409678 
L 89.072757 123.469423 
L 89.376701 130.306538 
L 89.680645 130.016217 
L 89.984589 127.672051 
L 90.288533 138.645099 
L 90.592477 131.740294 
L 90.896421 132.040232 
L 91.200365 121.114187 
L 91.504309 130.010044 
L 91.808252 130.832784 
L 92.112196 134.673184 
L 92.41614 122.537305 
L 92.720084 127.995191 
L 93.024028 123.528089 
L 93.327972 136.92441 
L 93.631916 114.951135 
L 93.93586 139.359631 
L 94.239804 123.173994 
L 94.543748 125.946491 
L 94.847692 115.709233 
L 95.45558 128.060873 
L 95.759524 128.882337 
L 96.063468 137.079033 
L 96.367412 131.916334 
L 96.671356 114.031032 
L 96.9753 120.710939 
L 97.279244 113.909286 
L 97.583188 136.985855 
L 97.887132 133.32818 
L 98.191076 125.847332 
L 98.49502 129.95875 
L 99.102907 112.481168 
L 99.406851 129.99773 
L 99.710795 120.154518 
L 100.014739 117.294506 
L 100.318683 124.930851 
L 100.622627 139.85873 
L 100.926571 142.542226 
L 101.230515 140.005697 
L 101.534459 143.823677 
L 101.838403 138.016702 
L 102.142347 144.831844 
L 102.446291 142.706988 
L 102.750235 131.841965 
L 103.054179 142.831335 
L 103.358123 136.207643 
L 103.662067 142.845949 
L 103.966011 127.830308 
L 104.269955 139.235018 
L 104.573899 138.006453 
L 104.877843 139.301731 
L 105.181787 131.696715 
L 105.485731 138.823298 
L 105.789675 130.495147 
L 106.093619 141.563408 
L 106.397563 138.266451 
L 106.701506 129.796682 
L 107.00545 144.425192 
L 107.309394 137.785239 
L 107.613338 141.728789 
L 107.917282 143.354787 
L 108.221226 139.558848 
L 108.52517 130.533889 
L 108.829114 126.600573 
L 109.133058 150.835 
L 109.437002 129.21896 
L 109.740946 145.25333 
L 110.04489 145.968829 
L 110.348834 145.399678 
L 110.652778 139.774289 
L 110.956722 146.491506 
L 111.260666 149.580355 
L 111.56461 136.588349 
L 111.868554 146.958391 
L 112.172498 137.509982 
L 112.476442 140.093979 
L 112.780386 147.957707 
L 113.08433 146.597238 
L 113.388274 141.304783 
L 113.692218 148.027025 
L 114.300105 138.830864 
L 114.604049 137.928154 
L 114.907993 140.523036 
L 115.211937 138.542159 
L 115.515881 140.618271 
L 115.819825 154.006144 
L 116.123769 147.157502 
L 116.427713 154.678297 
L 116.731657 146.338341 
L 117.035601 146.388826 
L 117.643489 153.188035 
L 117.947433 150.452696 
L 118.251377 149.692786 
L 118.555321 146.018758 
L 118.859265 143.946537 
L 119.163209 144.419432 
L 119.467153 145.205738 
L 119.771097 150.466672 
L 120.075041 145.65196 
L 120.378985 147.520383 
L 120.682929 148.651043 
L 121.290817 136.044054 
L 121.59476 154.125542 
L 121.898704 151.113024 
L 122.202648 145.383939 
L 122.506592 146.855883 
L 122.810536 142.946293 
L 123.11448 154.158523 
L 123.418424 156.847154 
L 123.722368 154.754453 
L 124.026312 151.324019 
L 124.330256 155.300482 
L 124.6342 151.107675 
L 124.938144 153.286608 
L 125.242088 153.223667 
L 125.546032 153.893916 
L 125.849976 148.691532 
L 126.15392 145.850477 
L 126.457864 144.541589 
L 126.761808 144.941945 
L 127.065752 153.789606 
L 127.369696 151.891305 
L 127.67364 153.909282 
L 127.977584 149.297058 
L 128.281528 153.296014 
L 128.585472 151.583153 
L 128.889416 148.845122 
L 129.193359 152.67923 
L 129.497303 154.585946 
L 129.801247 149.016229 
L 130.105191 151.248576 
L 130.409135 156.932577 
L 130.713079 155.077709 
L 131.017023 154.430752 
L 131.320967 154.879036 
L 131.624911 156.357195 
L 131.928855 155.392079 
L 132.232799 155.823536 
L 132.536743 156.734762 
L 132.840687 155.178777 
L 133.144631 156.233819 
L 133.448575 150.741921 
L 133.752519 154.552911 
L 134.056463 149.483125 
L 134.360407 156.086415 
L 134.664351 154.824967 
L 134.968295 158.336598 
L 135.272239 155.181076 
L 135.576183 156.169296 
L 135.880127 152.967521 
L 136.184071 152.78266 
L 136.488015 157.386908 
L 136.791958 158.174785 
L 137.399846 149.354713 
L 137.70379 153.218213 
L 138.007734 151.700121 
L 138.311678 156.501779 
L 138.615622 157.535208 
L 138.919566 156.173869 
L 139.22351 154.141184 
L 139.527454 157.112514 
L 139.831398 154.765156 
L 140.135342 155.44214 
L 140.439286 155.227667 
L 140.74323 154.319253 
L 141.351118 148.445307 
L 141.655062 154.347944 
L 141.959006 157.593593 
L 142.26295 157.123338 
L 142.566894 156.050286 
L 142.870838 157.218077 
L 143.174782 157.18772 
L 143.478726 155.416776 
L 143.78267 158.025938 
L 144.086613 157.256467 
L 144.390557 154.649946 
L 144.694501 155.519391 
L 144.998445 155.3994 
L 145.606333 158.475683 
L 145.910277 155.94651 
L 146.214221 156.045659 
L 146.518165 157.911923 
L 146.822109 156.684865 
L 147.126053 158.016568 
L 147.429997 156.984117 
L 147.733941 153.342707 
L 148.037885 154.341827 
L 148.341829 154.507632 
L 148.645773 155.615302 
L 148.949717 157.48694 
L 149.253661 157.612741 
L 149.557605 155.433105 
L 149.861549 155.919677 
L 150.165493 155.781696 
L 150.469437 158.710522 
L 150.773381 158.280683 
L 151.077325 155.81576 
L 151.381269 156.045037 
L 151.685212 156.758669 
L 151.989156 157.096157 
L 152.2931 157.693837 
L 152.597044 155.821702 
L 152.900988 157.84828 
L 153.204932 156.064132 
L 153.508876 157.97545 
L 153.81282 157.588875 
L 154.116764 157.589992 
L 154.420708 155.896052 
L 154.724652 155.878641 
L 155.028596 155.732072 
L 155.33254 158.056461 
L 155.636484 156.5857 
L 155.940428 158.551685 
L 156.548316 154.860939 
L 156.85226 155.088733 
L 157.156204 156.882606 
L 157.460148 157.209322 
L 157.764092 158.79181 
L 158.068036 158.897644 
L 158.37198 158.169749 
L 158.979868 159.21652 
L 159.283811 158.326484 
L 159.587755 158.85309 
L 159.891699 158.620035 
L 160.195643 157.825419 
L 160.499587 158.569325 
L 160.803531 157.62851 
L 161.107475 158.375487 
L 161.411419 158.247521 
L 161.715363 159.314796 
L 162.019307 154.758669 
L 162.323251 157.984138 
L 162.627195 158.421147 
L 162.931139 156.822793 
L 163.235083 158.915953 
L 163.539027 158.306915 
L 163.842971 159.206728 
L 164.146915 159.041318 
L 164.450859 158.692276 
L 164.754803 157.559621 
L 165.362691 157.401852 
L 165.666635 157.126442 
L 165.970579 158.963507 
L 166.578466 157.986619 
L 166.88241 157.822435 
L 167.186354 158.612252 
L 167.490298 158.799726 
L 167.794242 158.464604 
L 168.098186 156.456607 
L 168.40213 159.335425 
L 168.706074 159.339679 
L 169.010018 159.137435 
L 169.313962 159.717767 
L 169.617906 158.576727 
L 169.92185 159.678726 
L 170.225794 159.968996 
L 170.529738 159.637586 
L 170.833682 158.981913 
L 171.137626 159.821206 
L 171.44157 159.030527 
L 171.745514 158.734955 
L 172.049458 159.355311 
L 172.353402 159.489347 
L 172.657346 159.278117 
L 172.96129 159.590499 
L 173.265234 159.662513 
L 173.569178 159.217849 
L 173.873122 159.525958 
L 174.177065 159.222385 
L 174.481009 159.640557 
L 174.784953 159.121126 
L 175.088897 159.596479 
L 175.392841 159.752201 
L 175.696785 158.812486 
L 176.304673 160.086357 
L 176.608617 158.52093 
L 176.912561 159.625372 
L 177.216505 156.926114 
L 177.520449 159.206467 
L 177.824393 159.530665 
L 178.128337 159.171624 
L 178.432281 159.695561 
L 178.736225 159.263896 
L 179.040169 159.458414 
L 179.344113 159.251649 
L 179.648057 158.760439 
L 179.952001 159.467633 
L 180.255945 159.599461 
L 180.559889 159.974264 
L 180.863833 159.80723 
L 181.167777 159.303726 
L 181.471721 159.330447 
L 181.775664 159.633439 
L 182.383552 159.50297 
L 182.99144 159.835976 
L 183.295384 159.761883 
L 183.599328 159.886679 
L 183.903272 159.834115 
L 184.51116 160.085727 
L 184.815104 159.595334 
L 186.03088 160.001254 
L 186.638768 159.653085 
L 186.942712 159.649762 
L 187.246656 159.208144 
L 188.158488 159.755484 
L 188.462432 159.58598 
L 188.766376 159.547225 
L 189.07032 159.218669 
L 189.374263 159.884527 
L 189.678207 159.657804 
L 189.982151 159.900583 
L 190.286095 159.832715 
L 190.590039 159.374162 
L 190.893983 159.925159 
L 191.197927 159.787654 
L 191.501871 159.885016 
L 191.805815 159.770095 
L 192.413703 159.996075 
L 192.717647 159.843181 
L 193.021591 160.218555 
L 193.325535 159.782893 
L 193.629479 160.090162 
L 193.933423 160.106356 
L 194.237367 159.674042 
L 194.541311 159.880692 
L 194.845255 159.778218 
L 195.149199 159.995207 
L 195.757087 159.978247 
L 196.061031 160.141781 
L 196.364975 160.140983 
L 196.668918 159.937189 
L 196.972862 159.965128 
L 197.276806 160.150239 
L 197.884694 159.79678 
L 198.188638 159.775663 
L 198.492582 160.087726 
L 198.796526 159.62179 
L 199.404414 160.069958 
L 199.708358 160.186891 
L 200.316246 160.013818 
L 200.62019 159.884076 
L 200.924134 160.270909 
L 201.228078 160.125823 
L 201.835966 160.113532 
L 203.65963 160.038301 
L 203.963574 159.868722 
L 204.571461 160.00695 
L 204.875405 160.056782 
L 205.179349 159.912476 
L 205.483293 160.035454 
L 206.395125 160.024198 
L 206.699069 160.072749 
L 207.003013 159.798266 
L 207.914845 160.075638 
L 208.522733 159.918293 
L 208.826677 160.056789 
L 209.130621 159.916915 
L 209.434565 159.928655 
L 210.042453 160.164414 
L 210.346397 160.013405 
L 210.954285 160.09381 
L 211.258229 160.166736 
L 211.562173 160.04842 
L 212.474004 160.121435 
L 213.385836 159.964745 
L 214.601612 160.025892 
L 215.513444 160.077712 
L 217.641052 160.021891 
L 219.464715 160.246299 
L 220.376547 160.137929 
L 222.504155 160.190583 
L 225.543595 160.144191 
L 226.151483 160.204743 
L 229.79881 160.186702 
L 232.83825 160.146832 
L 244.692064 160.180151 
L 261.712926 160.177932 
L 261.712926 160.177932 
" clip-path="url(#p3e87991612)" style="fill: none; stroke: #e63946; stroke-width: 1.5; stroke-linecap: square"/>
   </g>
   <g id="patch_3">
    <path d="M 53.31375 167.56 
L 53.31375 7.2 
" style="fill: none; stroke: #ffffff; stroke-linejoin: miter; stroke-linecap: square"/>
   </g>
   <g id="patch_4">
    <path d="M 271.636696 167.56 
L 271.636696 7.2 
" style="fill: none; stroke: #ffffff; stroke-linejoin: miter; stroke-linecap: square"/>
   </g>
   <g id="patch_5">
    <path d="M 53.31375 167.56 
L 271.636696 167.56 
" style="fill: none; stroke: #ffffff; stroke-linejoin: miter; stroke-linecap: square"/>
   </g>
   <g id="patch_6">
    <path d="M 53.31375 7.2 
L 271.636696 7.2 
" style="fill: none; stroke: #ffffff; stroke-linejoin: miter; stroke-linecap: square"/>
   </g>
   <g id="legend_1">
    <g id="patch_7">
     <path d="M 160.761696 44.55625 
L 264.636696 44.55625 
Q 266.636696 44.55625 266.636696 42.55625 
L 266.636696 14.2 
Q 266.636696 12.2 264.636696 12.2 
L 160.761696 12.2 
Q 158.761696 12.2 158.761696 14.2 
L 158.761696 42.55625 
Q 158.761696 44.55625 160.761696 44.55625 
z
" style="fill: #e5e5e5; opacity: 0.8; stroke: #cccccc; stroke-width: 0.5; stroke-linejoin: miter"/>
    </g>
    <g id="line2d_61">
     <path d="M 162.761696 20.298437 
L 172.761696 20.298437 
L 182.761696 20.298437 
" style="fill: none; stroke: #1d3557; stroke-width: 1.5; stroke-linecap: square"/>
    </g>
    <g id="text_12">
     <!-- Training loss -->
     <g transform="translate(190.761696 23.798437) scale(0.1 -0.1)">
      <defs>
       <path id="DejaVuSans-54" d="M -19 4666 
L 3928 4666 
L 3928 4134 
L 2272 4134 
L 2272 0 
L 1638 0 
L 1638 4134 
L -19 4134 
L -19 4666 
z
" transform="scale(0.015625)"/>
       <path id="DejaVuSans-72" d="M 2631 2963 
Q 2534 3019 2420 3045 
Q 2306 3072 2169 3072 
Q 1681 3072 1420 2755 
Q 1159 2438 1159 1844 
L 1159 0 
L 581 0 
L 581 3500 
L 1159 3500 
L 1159 2956 
Q 1341 3275 1631 3429 
Q 1922 3584 2338 3584 
Q 2397 3584 2469 3576 
Q 2541 3569 2628 3553 
L 2631 2963 
z
" transform="scale(0.015625)"/>
       <path id="DejaVuSans-61" d="M 2194 1759 
Q 1497 1759 1228 1600 
Q 959 1441 959 1056 
Q 959 750 1161 570 
Q 1363 391 1709 391 
Q 2188 391 2477 730 
Q 2766 1069 2766 1631 
L 2766 1759 
L 2194 1759 
z
M 3341 1997 
L 3341 0 
L 2766 0 
L 2766 531 
Q 2569 213 2275 61 
Q 1981 -91 1556 -91 
Q 1019 -91 701 211 
Q 384 513 384 1019 
Q 384 1609 779 1909 
Q 1175 2209 1959 2209 
L 2766 2209 
L 2766 2266 
Q 2766 2663 2505 2880 
Q 2244 3097 1772 3097 
Q 1472 3097 1187 3025 
Q 903 2953 641 2809 
L 641 3341 
Q 956 3463 1253 3523 
Q 1550 3584 1831 3584 
Q 2591 3584 2966 3190 
Q 3341 2797 3341 1997 
z
" transform="scale(0.015625)"/>
       <path id="DejaVuSans-69" d="M 603 3500 
L 1178 3500 
L 1178 0 
L 603 0 
L 603 3500 
z
M 603 4863 
L 1178 4863 
L 1178 4134 
L 603 4134 
L 603 4863 
z
" transform="scale(0.015625)"/>
       <path id="DejaVuSans-6e" d="M 3513 2113 
L 3513 0 
L 2938 0 
L 2938 2094 
Q 2938 2591 2744 2837 
Q 2550 3084 2163 3084 
Q 1697 3084 1428 2787 
Q 1159 2491 1159 1978 
L 1159 0 
L 581 0 
L 581 3500 
L 1159 3500 
L 1159 2956 
Q 1366 3272 1645 3428 
Q 1925 3584 2291 3584 
Q 2894 3584 3203 3211 
Q 3513 2838 3513 2113 
z
" transform="scale(0.015625)"/>
       <path id="DejaVuSans-67" d="M 2906 1791 
Q 2906 2416 2648 2759 
Q 2391 3103 1925 3103 
Q 1463 3103 1205 2759 
Q 947 2416 947 1791 
Q 947 1169 1205 825 
Q 1463 481 1925 481 
Q 2391 481 2648 825 
Q 2906 1169 2906 1791 
z
M 3481 434 
Q 3481 -459 3084 -895 
Q 2688 -1331 1869 -1331 
Q 1566 -1331 1297 -1286 
Q 1028 -1241 775 -1147 
L 775 -588 
Q 1028 -725 1275 -790 
Q 1522 -856 1778 -856 
Q 2344 -856 2625 -561 
Q 2906 -266 2906 331 
L 2906 616 
Q 2728 306 2450 153 
Q 2172 0 1784 0 
Q 1141 0 747 490 
Q 353 981 353 1791 
Q 353 2603 747 3093 
Q 1141 3584 1784 3584 
Q 2172 3584 2450 3431 
Q 2728 3278 2906 2969 
L 2906 3500 
L 3481 3500 
L 3481 434 
z
" transform="scale(0.015625)"/>
       <path id="DejaVuSans-20" transform="scale(0.015625)"/>
       <path id="DejaVuSans-6c" d="M 603 4863 
L 1178 4863 
L 1178 0 
L 603 0 
L 603 4863 
z
" transform="scale(0.015625)"/>
      </defs>
      <use xlink:href="#DejaVuSans-54"/>
      <use xlink:href="#DejaVuSans-72" transform="translate(46.333984 0)"/>
      <use xlink:href="#DejaVuSans-61" transform="translate(87.447266 0)"/>
      <use xlink:href="#DejaVuSans-69" transform="translate(148.726562 0)"/>
      <use xlink:href="#DejaVuSans-6e" transform="translate(176.509766 0)"/>
      <use xlink:href="#DejaVuSans-69" transform="translate(239.888672 0)"/>
      <use xlink:href="#DejaVuSans-6e" transform="translate(267.671875 0)"/>
      <use xlink:href="#DejaVuSans-67" transform="translate(331.050781 0)"/>
      <use xlink:href="#DejaVuSans-20" transform="translate(394.527344 0)"/>
      <use xlink:href="#DejaVuSans-6c" transform="translate(426.314453 0)"/>
      <use xlink:href="#DejaVuSans-6f" transform="translate(454.097656 0)"/>
      <use xlink:href="#DejaVuSans-73" transform="translate(515.279297 0)"/>
      <use xlink:href="#DejaVuSans-73" transform="translate(567.378906 0)"/>
     </g>
    </g>
    <g id="line2d_62">
     <path d="M 162.761696 34.976562 
L 172.761696 34.976562 
L 182.761696 34.976562 
" style="fill: none; stroke: #e63946; stroke-width: 1.5; stroke-linecap: square"/>
    </g>
    <g id="text_13">
     <!-- Validation loss -->
     <g transform="translate(190.761696 38.476562) scale(0.1 -0.1)">
      <defs>
       <path id="DejaVuSans-56" d="M 1831 0 
L 50 4666 
L 709 4666 
L 2188 738 
L 3669 4666 
L 4325 4666 
L 2547 0 
L 1831 0 
z
" transform="scale(0.015625)"/>
       <path id="DejaVuSans-64" d="M 2906 2969 
L 2906 4863 
L 3481 4863 
L 3481 0 
L 2906 0 
L 2906 525 
Q 2725 213 2448 61 
Q 2172 -91 1784 -91 
Q 1150 -91 751 415 
Q 353 922 353 1747 
Q 353 2572 751 3078 
Q 1150 3584 1784 3584 
Q 2172 3584 2448 3432 
Q 2725 3281 2906 2969 
z
M 947 1747 
Q 947 1113 1208 752 
Q 1469 391 1925 391 
Q 2381 391 2643 752 
Q 2906 1113 2906 1747 
Q 2906 2381 2643 2742 
Q 2381 3103 1925 3103 
Q 1469 3103 1208 2742 
Q 947 2381 947 1747 
z
" transform="scale(0.015625)"/>
       <path id="DejaVuSans-74" d="M 1172 4494 
L 1172 3500 
L 2356 3500 
L 2356 3053 
L 1172 3053 
L 1172 1153 
Q 1172 725 1289 603 
Q 1406 481 1766 481 
L 2356 481 
L 2356 0 
L 1766 0 
Q 1100 0 847 248 
Q 594 497 594 1153 
L 594 3053 
L 172 3053 
L 172 3500 
L 594 3500 
L 594 4494 
L 1172 4494 
z
" transform="scale(0.015625)"/>
      </defs>
      <use xlink:href="#DejaVuSans-56"/>
      <use xlink:href="#DejaVuSans-61" transform="translate(60.658203 0)"/>
      <use xlink:href="#DejaVuSans-6c" transform="translate(121.9375 0)"/>
      <use xlink:href="#DejaVuSans-69" transform="translate(149.720703 0)"/>
      <use xlink:href="#DejaVuSans-64" transform="translate(177.503906 0)"/>
      <use xlink:href="#DejaVuSans-61" transform="translate(240.980469 0)"/>
      <use xlink:href="#DejaVuSans-74" transform="translate(302.259766 0)"/>
      <use xlink:href="#DejaVuSans-69" transform="translate(341.46875 0)"/>
      <use xlink:href="#DejaVuSans-6f" transform="translate(369.251953 0)"/>
      <use xlink:href="#DejaVuSans-6e" transform="translate(430.433594 0)"/>
      <use xlink:href="#DejaVuSans-20" transform="translate(493.8125 0)"/>
      <use xlink:href="#DejaVuSans-6c" transform="translate(525.599609 0)"/>
      <use xlink:href="#DejaVuSans-6f" transform="translate(553.382812 0)"/>
      <use xlink:href="#DejaVuSans-73" transform="translate(614.564453 0)"/>
      <use xlink:href="#DejaVuSans-73" transform="translate(666.664062 0)"/>
     </g>
    </g>
   </g>
  </g>
 </g>
 <defs>
  <clipPath id="p3e87991612">
   <rect x="53.31375" y="7.2" width="218.322946" height="160.36"/>
  </clipPath>
 </defs>
</svg>
