<?xml version="1.0" encoding="utf-8" standalone="no"?>
<!DOCTYPE svg PUBLIC "-//W3C//DTD SVG 1.1//EN"
  "http://www.w3.org/Graphics/SVG/1.1/DTD/svg11.dtd">
<svg xmlns:xlink="http://www.w3.org/1999/xlink" width="278.887158pt" height="207.051875pt" viewBox="0 0 278.887158 207.051875" xmlns="http://www.w3.org/2000/svg" version="1.1">
 <metadata>
  <rdf:RDF xmlns:dc="http://purl.org/dc/elements/1.1/" xmlns:cc="http://creativecommons.org/ns#" xmlns:rdf="http://www.w3.org/1999/02/22-rdf-syntax-ns#">
   <cc:Work>
    <dc:type rdf:resource="http://purl.org/dc/dcmitype/StillImage"/>
    <dc:date>2026-04-02T03:26:30.135778</dc:date>
    <dc:format>image/svg+xml</dc:format>
    <dc:creator>
     <cc:Agent>
      <dc:title>Matplotlib v3.10.3, https://matplotlib.org/</dc:title>
     </cc:Agent>
    </dc:creator>
   </cc:Work>
  </rdf:RDF>
 </metadata>
 <defs>
  <style type="text/css">*{stroke-linejoin: round; stroke-linecap: butt}</style>
 </defs>
 <g id="figure_1">
  <g id="patch_1">
   <path d="M 0 207.051875 
L 278.887158 207.051875 
L 278.887158 0 
L 0 0 
z
" style="fill: #ffffff"/>
  </g>
  <g id="axes_1">
   <g id="patch_2">
    <path d="M 53.31375 167.56 
L 262.168325 167.56 
L 262.168325 7.2 
L 53.31375 7.2 
z
" style="fill: #e5e5e5"/>
   </g>
   <g id="matplotlib.axis_1">
    <g id="xtick_1">
     <g id="line2d_1">
      <path d="M 62.80714 167.56 
L 62.80714 7.2 
" clip-path="url(#p7ad27a099c)" style="fill: none; stroke: #ffffff; stroke-width: 0.8; stroke-linecap: square"/>
     </g>
     <g id="line2d_2">
      <defs>
       <path id="mc7ba57aef0" d="M 0 0 
L 0 3.5 
" style="stroke: #555555; stroke-width: 0.8"/>
      </defs>
      <g>
       <use xlink:href="#mc7ba57aef0" x="62.80714" y="167.56" style="fill: #555555; stroke: #555555; stroke-width: 0.8"/>
      </g>
     </g>
     <g id="text_1">
      <!-- 0 -->
      <g style="fill: #555555" transform="translate(59.62589 182.158437) scale(0.1 -0.1)">
       <defs>
        <path id="DejaVuSans-30" d="M 2034 4250 
Q 1547 4250 1301 3770 
Q 1056 3291 1056 2328 
Q 1056 1369 1301 889 
Q 1547 409 2034 409 
Q 2525 409 2770 889 
Q 3016 1369 3016 2328 
Q 3016 3291 2770 3770 
Q 2525 4250 2034 4250 
z
M 2034 4750 
Q 2819 4750 3233 4129 
Q 3647 3509 3647 2328 
Q 3647 1150 3233 529 
Q 2819 -91 2034 -91 
Q 1250 -91 836 529 
Q 422 1150 422 2328 
Q 422 3509 836 4129 
Q 1250 4750 2034 4750 
z
" transform="scale(0.015625)"/>
       </defs>
       <use xlink:href="#DejaVuSans-30"/>
      </g>
     </g>
    </g>
    <g id="xtick_2">
     <g id="line2d_3">
      <path d="M 112.641207 167.56 
L 112.641207 7.2 
" clip-path="url(#p7ad27a099c)" style="fill: none; stroke: #ffffff; stroke-width: 0.8; stroke-linecap: square"/>
     </g>
     <g id="line2d_4">
      <g>
       <use xlink:href="#mc7ba57aef0" x="112.641207" y="167.56" style="fill: #555555; stroke: #555555; stroke-width: 0.8"/>
      </g>
     </g>
     <g id="text_2">
      <!-- 200 -->
      <g style="fill: #555555" transform="translate(103.097457 182.158437) scale(0.1 -0.1)">
       <defs>
        <path id="DejaVuSans-32" d="M 1228 531 
L 3431 531 
L 3431 0 
L 469 0 
L 469 531 
Q 828 903 1448 1529 
Q 2069 2156 2228 2338 
Q 2531 2678 2651 2914 
Q 2772 3150 2772 3378 
Q 2772 3750 2511 3984 
Q 2250 4219 1831 4219 
Q 1534 4219 1204 4116 
Q 875 4013 500 3803 
L 500 4441 
Q 881 4594 1212 4672 
Q 1544 4750 1819 4750 
Q 2544 4750 2975 4387 
Q 3406 4025 3406 3419 
Q 3406 3131 3298 2873 
Q 3191 2616 2906 2266 
Q 2828 2175 2409 1742 
Q 1991 1309 1228 531 
z
" transform="scale(0.015625)"/>
       </defs>
       <use xlink:href="#DejaVuSans-32"/>
       <use xlink:href="#DejaVuSans-30" transform="translate(63.623047 0)"/>
       <use xlink:href="#DejaVuSans-30" transform="translate(127.246094 0)"/>
      </g>
     </g>
    </g>
    <g id="xtick_3">
     <g id="line2d_5">
      <path d="M 162.475274 167.56 
L 162.475274 7.2 
" clip-path="url(#p7ad27a099c)" style="fill: none; stroke: #ffffff; stroke-width: 0.8; stroke-linecap: square"/>
     </g>
     <g id="line2d_6">
      <g>
       <use xlink:href="#mc7ba57aef0" x="162.475274" y="167.56" style="fill: #555555; stroke: #555555; stroke-width: 0.8"/>
      </g>
     </g>
     <g id="text_3">
      <!-- 400 -->
      <g style="fill: #555555" transform="translate(152.931524 182.158437) scale(0.1 -0.1)">
       <defs>
        <path id="DejaVuSans-34" d="M 2419 4116 
L 825 1625 
L 2419 1625 
L 2419 4116 
z
M 2253 4666 
L 3047 4666 
L 3047 1625 
L 3713 1625 
L 3713 1100 
L 3047 1100 
L 3047 0 
L 2419 0 
L 2419 1100 
L 313 1100 
L 313 1709 
L 2253 4666 
z
" transform="scale(0.015625)"/>
       </defs>
       <use xlink:href="#DejaVuSans-34"/>
       <use xlink:href="#DejaVuSans-30" transform="translate(63.623047 0)"/>
       <use xlink:href="#DejaVuSans-30" transform="translate(127.246094 0)"/>
      </g>
     </g>
    </g>
    <g id="xtick_4">
     <g id="line2d_7">
      <path d="M 212.309341 167.56 
L 212.309341 7.2 
" clip-path="url(#p7ad27a099c)" style="fill: none; stroke: #ffffff; stroke-width: 0.8; stroke-linecap: square"/>
     </g>
     <g id="line2d_8">
      <g>
       <use xlink:href="#mc7ba57aef0" x="212.309341" y="167.56" style="fill: #555555; stroke: #555555; stroke-width: 0.8"/>
      </g>
     </g>
     <g id="text_4">
      <!-- 600 -->
      <g style="fill: #555555" transform="translate(202.765591 182.158437) scale(0.1 -0.1)">
       <defs>
        <path id="DejaVuSans-36" d="M 2113 2584 
Q 1688 2584 1439 2293 
Q 1191 2003 1191 1497 
Q 1191 994 1439 701 
Q 1688 409 2113 409 
Q 2538 409 2786 701 
Q 3034 994 3034 1497 
Q 3034 2003 2786 2293 
Q 2538 2584 2113 2584 
z
M 3366 4563 
L 3366 3988 
Q 3128 4100 2886 4159 
Q 2644 4219 2406 4219 
Q 1781 4219 1451 3797 
Q 1122 3375 1075 2522 
Q 1259 2794 1537 2939 
Q 1816 3084 2150 3084 
Q 2853 3084 3261 2657 
Q 3669 2231 3669 1497 
Q 3669 778 3244 343 
Q 2819 -91 2113 -91 
Q 1303 -91 875 529 
Q 447 1150 447 2328 
Q 447 3434 972 4092 
Q 1497 4750 2381 4750 
Q 2619 4750 2861 4703 
Q 3103 4656 3366 4563 
z
" transform="scale(0.015625)"/>
       </defs>
       <use xlink:href="#DejaVuSans-36"/>
       <use xlink:href="#DejaVuSans-30" transform="translate(63.623047 0)"/>
       <use xlink:href="#DejaVuSans-30" transform="translate(127.246094 0)"/>
      </g>
     </g>
    </g>
    <g id="xtick_5">
     <g id="line2d_9">
      <path d="M 262.143408 167.56 
L 262.143408 7.2 
" clip-path="url(#p7ad27a099c)" style="fill: none; stroke: #ffffff; stroke-width: 0.8; stroke-linecap: square"/>
     </g>
     <g id="line2d_10">
      <g>
       <use xlink:href="#mc7ba57aef0" x="262.143408" y="167.56" style="fill: #555555; stroke: #555555; stroke-width: 0.8"/>
      </g>
     </g>
     <g id="text_5">
      <!-- 800 -->
      <g style="fill: #555555" transform="translate(252.599658 182.158437) scale(0.1 -0.1)">
       <defs>
        <path id="DejaVuSans-38" d="M 2034 2216 
Q 1584 2216 1326 1975 
Q 1069 1734 1069 1313 
Q 1069 891 1326 650 
Q 1584 409 2034 409 
Q 2484 409 2743 651 
Q 3003 894 3003 1313 
Q 3003 1734 2745 1975 
Q 2488 2216 2034 2216 
z
M 1403 2484 
Q 997 2584 770 2862 
Q 544 3141 544 3541 
Q 544 4100 942 4425 
Q 1341 4750 2034 4750 
Q 2731 4750 3128 4425 
Q 3525 4100 3525 3541 
Q 3525 3141 3298 2862 
Q 3072 2584 2669 2484 
Q 3125 2378 3379 2068 
Q 3634 1759 3634 1313 
Q 3634 634 3220 271 
Q 2806 -91 2034 -91 
Q 1263 -91 848 271 
Q 434 634 434 1313 
Q 434 1759 690 2068 
Q 947 2378 1403 2484 
z
M 1172 3481 
Q 1172 3119 1398 2916 
Q 1625 2713 2034 2713 
Q 2441 2713 2670 2916 
Q 2900 3119 2900 3481 
Q 2900 3844 2670 4047 
Q 2441 4250 2034 4250 
Q 1625 4250 1398 4047 
Q 1172 3844 1172 3481 
z
" transform="scale(0.015625)"/>
       </defs>
       <use xlink:href="#DejaVuSans-38"/>
       <use xlink:href="#DejaVuSans-30" transform="translate(63.623047 0)"/>
       <use xlink:href="#DejaVuSans-30" transform="translate(127.246094 0)"/>
      </g>
     </g>
    </g>
    <g id="text_6">
     <!-- Epoch -->
     <g style="fill: #555555" transform="translate(139.367912 197.35625) scale(0.12 -0.12)">
      <defs>
       <path id="DejaVuSans-45" d="M 628 4666 
L 3578 4666 
L 3578 4134 
L 1259 4134 
L 1259 2753 
L 3481 2753 
L 3481 2222 
L 1259 2222 
L 1259 531 
L 3634 531 
L 3634 0 
L 628 0 
L 628 4666 
z
" transform="scale(0.015625)"/>
       <path id="DejaVuSans-70" d="M 1159 525 
L 1159 -1331 
L 581 -1331 
L 581 3500 
L 1159 3500 
L 1159 2969 
Q 1341 3281 1617 3432 
Q 1894 3584 2278 3584 
Q 2916 3584 3314 3078 
Q 3713 2572 3713 1747 
Q 3713 922 3314 415 
Q 2916 -91 2278 -91 
Q 1894 -91 1617 61 
Q 1341 213 1159 525 
z
M 3116 1747 
Q 3116 2381 2855 2742 
Q 2594 3103 2138 3103 
Q 1681 3103 1420 2742 
Q 1159 2381 1159 1747 
Q 1159 1113 1420 752 
Q 1681 391 2138 391 
Q 2594 391 2855 752 
Q 3116 1113 3116 1747 
z
" transform="scale(0.015625)"/>
       <path id="DejaVuSans-6f" d="M 1959 3097 
Q 1497 3097 1228 2736 
Q 959 2375 959 1747 
Q 959 1119 1226 758 
Q 1494 397 1959 397 
Q 2419 397 2687 759 
Q 2956 1122 2956 1747 
Q 2956 2369 2687 2733 
Q 2419 3097 1959 3097 
z
M 1959 3584 
Q 2709 3584 3137 3096 
Q 3566 2609 3566 1747 
Q 3566 888 3137 398 
Q 2709 -91 1959 -91 
Q 1206 -91 779 398 
Q 353 888 353 1747 
Q 353 2609 779 3096 
Q 1206 3584 1959 3584 
z
" transform="scale(0.015625)"/>
       <path id="DejaVuSans-63" d="M 3122 3366 
L 3122 2828 
Q 2878 2963 2633 3030 
Q 2388 3097 2138 3097 
Q 1578 3097 1268 2742 
Q 959 2388 959 1747 
Q 959 1106 1268 751 
Q 1578 397 2138 397 
Q 2388 397 2633 464 
Q 2878 531 3122 666 
L 3122 134 
Q 2881 22 2623 -34 
Q 2366 -91 2075 -91 
Q 1284 -91 818 406 
Q 353 903 353 1747 
Q 353 2603 823 3093 
Q 1294 3584 2113 3584 
Q 2378 3584 2631 3529 
Q 2884 3475 3122 3366 
z
" transform="scale(0.015625)"/>
       <path id="DejaVuSans-68" d="M 3513 2113 
L 3513 0 
L 2938 0 
L 2938 2094 
Q 2938 2591 2744 2837 
Q 2550 3084 2163 3084 
Q 1697 3084 1428 2787 
Q 1159 2491 1159 1978 
L 1159 0 
L 581 0 
L 581 4863 
L 1159 4863 
L 1159 2956 
Q 1366 3272 1645 3428 
Q 1925 3584 2291 3584 
Q 2894 3584 3203 3211 
Q 3513 2838 3513 2113 
z
" transform="scale(0.015625)"/>
      </defs>
      <use xlink:href="#DejaVuSans-45"/>
      <use xlink:href="#DejaVuSans-70" transform="translate(63.183594 0)"/>
      <use xlink:href="#DejaVuSans-6f" transform="translate(126.660156 0)"/>
      <use xlink:href="#DejaVuSans-63" transform="translate(187.841797 0)"/>
      <use xlink:href="#DejaVuSans-68" transform="translate(242.822266 0)"/>
     </g>
    </g>
   </g>
   <g id="matplotlib.axis_2">
    <g id="ytick_1">
     <g id="line2d_11">
      <path d="M 53.31375 156.759364 
L 262.168325 156.759364 
" clip-path="url(#p7ad27a099c)" style="fill: none; stroke: #ffffff; stroke-width: 0.8; stroke-linecap: square"/>
     </g>
     <g id="line2d_12">
      <defs>
       <path id="m9891e48d5a" d="M 0 0 
L -3.5 0 
" style="stroke: #555555; stroke-width: 0.8"/>
      </defs>
      <g>
       <use xlink:href="#m9891e48d5a" x="53.31375" y="156.759364" style="fill: #555555; stroke: #555555; stroke-width: 0.8"/>
      </g>
     </g>
     <g id="text_7">
      <!-- $\mathdefault{10^{-6}}$ -->
      <g style="fill: #555555" transform="translate(22.81375 160.558583) scale(0.1 -0.1)">
       <defs>
        <path id="DejaVuSans-31" d="M 794 531 
L 1825 531 
L 1825 4091 
L 703 3866 
L 703 4441 
L 1819 4666 
L 2450 4666 
L 2450 531 
L 3481 531 
L 3481 0 
L 794 0 
L 794 531 
z
" transform="scale(0.015625)"/>
        <path id="DejaVuSans-2212" d="M 678 2272 
L 4684 2272 
L 4684 1741 
L 678 1741 
L 678 2272 
z
" transform="scale(0.015625)"/>
       </defs>
       <use xlink:href="#DejaVuSans-31" transform="translate(0 0.765625)"/>
       <use xlink:href="#DejaVuSans-30" transform="translate(63.623047 0.765625)"/>
       <use xlink:href="#DejaVuSans-2212" transform="translate(128.203125 39.046875) scale(0.7)"/>
       <use xlink:href="#DejaVuSans-36" transform="translate(186.855469 39.046875) scale(0.7)"/>
      </g>
     </g>
    </g>
    <g id="ytick_2">
     <g id="line2d_13">
      <path d="M 53.31375 130.180448 
L 262.168325 130.180448 
" clip-path="url(#p7ad27a099c)" style="fill: none; stroke: #ffffff; stroke-width: 0.8; stroke-linecap: square"/>
     </g>
     <g id="line2d_14">
      <g>
       <use xlink:href="#m9891e48d5a" x="53.31375" y="130.180448" style="fill: #555555; stroke: #555555; stroke-width: 0.8"/>
      </g>
     </g>
     <g id="text_8">
      <!-- $\mathdefault{10^{-5}}$ -->
      <g style="fill: #555555" transform="translate(22.81375 133.979667) scale(0.1 -0.1)">
       <defs>
        <path id="DejaVuSans-35" d="M 691 4666 
L 3169 4666 
L 3169 4134 
L 1269 4134 
L 1269 2991 
Q 1406 3038 1543 3061 
Q 1681 3084 1819 3084 
Q 2600 3084 3056 2656 
Q 3513 2228 3513 1497 
Q 3513 744 3044 326 
Q 2575 -91 1722 -91 
Q 1428 -91 1123 -41 
Q 819 9 494 109 
L 494 744 
Q 775 591 1075 516 
Q 1375 441 1709 441 
Q 2250 441 2565 725 
Q 2881 1009 2881 1497 
Q 2881 1984 2565 2268 
Q 2250 2553 1709 2553 
Q 1456 2553 1204 2497 
Q 953 2441 691 2322 
L 691 4666 
z
" transform="scale(0.015625)"/>
       </defs>
       <use xlink:href="#DejaVuSans-31" transform="translate(0 0.684375)"/>
       <use xlink:href="#DejaVuSans-30" transform="translate(63.623047 0.684375)"/>
       <use xlink:href="#DejaVuSans-2212" transform="translate(128.203125 38.965625) scale(0.7)"/>
       <use xlink:href="#DejaVuSans-35" transform="translate(186.855469 38.965625) scale(0.7)"/>
      </g>
     </g>
    </g>
    <g id="ytick_3">
     <g id="line2d_15">
      <path d="M 53.31375 103.601533 
L 262.168325 103.601533 
" clip-path="url(#p7ad27a099c)" style="fill: none; stroke: #ffffff; stroke-width: 0.8; stroke-linecap: square"/>
     </g>
     <g id="line2d_16">
      <g>
       <use xlink:href="#m9891e48d5a" x="53.31375" y="103.601533" style="fill: #555555; stroke: #555555; stroke-width: 0.8"/>
      </g>
     </g>
     <g id="text_9">
      <!-- $\mathdefault{10^{-4}}$ -->
      <g style="fill: #555555" transform="translate(22.81375 107.400751) scale(0.1 -0.1)">
       <use xlink:href="#DejaVuSans-31" transform="translate(0 0.684375)"/>
       <use xlink:href="#DejaVuSans-30" transform="translate(63.623047 0.684375)"/>
       <use xlink:href="#DejaVuSans-2212" transform="translate(128.203125 38.965625) scale(0.7)"/>
       <use xlink:href="#DejaVuSans-34" transform="translate(186.855469 38.965625) scale(0.7)"/>
      </g>
     </g>
    </g>
    <g id="ytick_4">
     <g id="line2d_17">
      <path d="M 53.31375 77.022617 
L 262.168325 77.022617 
" clip-path="url(#p7ad27a099c)" style="fill: none; stroke: #ffffff; stroke-width: 0.8; stroke-linecap: square"/>
     </g>
     <g id="line2d_18">
      <g>
       <use xlink:href="#m9891e48d5a" x="53.31375" y="77.022617" style="fill: #555555; stroke: #555555; stroke-width: 0.8"/>
      </g>
     </g>
     <g id="text_10">
      <!-- $\mathdefault{10^{-3}}$ -->
      <g style="fill: #555555" transform="translate(22.81375 80.821836) scale(0.1 -0.1)">
       <defs>
        <path id="DejaVuSans-33" d="M 2597 2516 
Q 3050 2419 3304 2112 
Q 3559 1806 3559 1356 
Q 3559 666 3084 287 
Q 2609 -91 1734 -91 
Q 1441 -91 1130 -33 
Q 819 25 488 141 
L 488 750 
Q 750 597 1062 519 
Q 1375 441 1716 441 
Q 2309 441 2620 675 
Q 2931 909 2931 1356 
Q 2931 1769 2642 2001 
Q 2353 2234 1838 2234 
L 1294 2234 
L 1294 2753 
L 1863 2753 
Q 2328 2753 2575 2939 
Q 2822 3125 2822 3475 
Q 2822 3834 2567 4026 
Q 2313 4219 1838 4219 
Q 1578 4219 1281 4162 
Q 984 4106 628 3988 
L 628 4550 
Q 988 4650 1302 4700 
Q 1616 4750 1894 4750 
Q 2613 4750 3031 4423 
Q 3450 4097 3450 3541 
Q 3450 3153 3228 2886 
Q 3006 2619 2597 2516 
z
" transform="scale(0.015625)"/>
       </defs>
       <use xlink:href="#DejaVuSans-31" transform="translate(0 0.765625)"/>
       <use xlink:href="#DejaVuSans-30" transform="translate(63.623047 0.765625)"/>
       <use xlink:href="#DejaVuSans-2212" transform="translate(128.203125 39.046875) scale(0.7)"/>
       <use xlink:href="#DejaVuSans-33" transform="translate(186.855469 39.046875) scale(0.7)"/>
      </g>
     </g>
    </g>
    <g id="ytick_5">
     <g id="line2d_19">
      <path d="M 53.31375 50.443701 
L 262.168325 50.443701 
" clip-path="url(#p7ad27a099c)" style="fill: none; stroke: #ffffff; stroke-width: 0.8; stroke-linecap: square"/>
     </g>
     <g id="line2d_20">
      <g>
       <use xlink:href="#m9891e48d5a" x="53.31375" y="50.443701" style="fill: #555555; stroke: #555555; stroke-width: 0.8"/>
      </g>
     </g>
     <g id="text_11">
      <!-- $\mathdefault{10^{-2}}$ -->
      <g style="fill: #555555" transform="translate(22.81375 54.24292) scale(0.1 -0.1)">
       <use xlink:href="#DejaVuSans-31" transform="translate(0 0.765625)"/>
       <use xlink:href="#DejaVuSans-30" transform="translate(63.623047 0.765625)"/>
       <use xlink:href="#DejaVuSans-2212" transform="translate(128.203125 39.046875) scale(0.7)"/>
       <use xlink:href="#DejaVuSans-32" transform="translate(186.855469 39.046875) scale(0.7)"/>
      </g>
     </g>
    </g>
    <g id="ytick_6">
     <g id="line2d_21">
      <path d="M 53.31375 23.864786 
L 262.168325 23.864786 
" clip-path="url(#p7ad27a099c)" style="fill: none; stroke: #ffffff; stroke-width: 0.8; stroke-linecap: square"/>
     </g>
     <g id="line2d_22">
      <g>
       <use xlink:href="#m9891e48d5a" x="53.31375" y="23.864786" style="fill: #555555; stroke: #555555; stroke-width: 0.8"/>
      </g>
     </g>
     <g id="text_12">
      <!-- $\mathdefault{10^{-1}}$ -->
      <g style="fill: #555555" transform="translate(22.81375 27.664004) scale(0.1 -0.1)">
       <use xlink:href="#DejaVuSans-31" transform="translate(0 0.684375)"/>
       <use xlink:href="#DejaVuSans-30" transform="translate(63.623047 0.684375)"/>
       <use xlink:href="#DejaVuSans-2212" transform="translate(128.203125 38.965625) scale(0.7)"/>
       <use xlink:href="#DejaVuSans-31" transform="translate(186.855469 38.965625) scale(0.7)"/>
      </g>
     </g>
    </g>
    <g id="ytick_7">
     <g id="line2d_23">
      <defs>
       <path id="m95a1f8e745" d="M 0 0 
L -2 0 
" style="stroke: #555555; stroke-width: 0.6"/>
      </defs>
      <g>
       <use xlink:href="#m95a1f8e745" x="53.31375" y="167.336178" style="fill: #555555; stroke: #555555; stroke-width: 0.6"/>
      </g>
     </g>
    </g>
    <g id="ytick_8">
     <g id="line2d_24">
      <g>
       <use xlink:href="#m95a1f8e745" x="53.31375" y="164.760415" style="fill: #555555; stroke: #555555; stroke-width: 0.6"/>
      </g>
     </g>
    </g>
    <g id="ytick_9">
     <g id="line2d_25">
      <g>
       <use xlink:href="#m95a1f8e745" x="53.31375" y="162.655863" style="fill: #555555; stroke: #555555; stroke-width: 0.6"/>
      </g>
     </g>
    </g>
    <g id="ytick_10">
     <g id="line2d_26">
      <g>
       <use xlink:href="#m95a1f8e745" x="53.31375" y="160.87649" style="fill: #555555; stroke: #555555; stroke-width: 0.6"/>
      </g>
     </g>
    </g>
    <g id="ytick_11">
     <g id="line2d_27">
      <g>
       <use xlink:href="#m95a1f8e745" x="53.31375" y="159.335127" style="fill: #555555; stroke: #555555; stroke-width: 0.6"/>
      </g>
     </g>
    </g>
    <g id="ytick_12">
     <g id="line2d_28">
      <g>
       <use xlink:href="#m95a1f8e745" x="53.31375" y="157.975549" style="fill: #555555; stroke: #555555; stroke-width: 0.6"/>
      </g>
     </g>
    </g>
    <g id="ytick_13">
     <g id="line2d_29">
      <g>
       <use xlink:href="#m95a1f8e745" x="53.31375" y="148.758313" style="fill: #555555; stroke: #555555; stroke-width: 0.6"/>
      </g>
     </g>
    </g>
    <g id="ytick_14">
     <g id="line2d_30">
      <g>
       <use xlink:href="#m95a1f8e745" x="53.31375" y="144.077998" style="fill: #555555; stroke: #555555; stroke-width: 0.6"/>
      </g>
     </g>
    </g>
    <g id="ytick_15">
     <g id="line2d_31">
      <g>
       <use xlink:href="#m95a1f8e745" x="53.31375" y="140.757262" style="fill: #555555; stroke: #555555; stroke-width: 0.6"/>
      </g>
     </g>
    </g>
    <g id="ytick_16">
     <g id="line2d_32">
      <g>
       <use xlink:href="#m95a1f8e745" x="53.31375" y="138.181499" style="fill: #555555; stroke: #555555; stroke-width: 0.6"/>
      </g>
     </g>
    </g>
    <g id="ytick_17">
     <g id="line2d_33">
      <g>
       <use xlink:href="#m95a1f8e745" x="53.31375" y="136.076948" style="fill: #555555; stroke: #555555; stroke-width: 0.6"/>
      </g>
     </g>
    </g>
    <g id="ytick_18">
     <g id="line2d_34">
      <g>
       <use xlink:href="#m95a1f8e745" x="53.31375" y="134.297574" style="fill: #555555; stroke: #555555; stroke-width: 0.6"/>
      </g>
     </g>
    </g>
    <g id="ytick_19">
     <g id="line2d_35">
      <g>
       <use xlink:href="#m95a1f8e745" x="53.31375" y="132.756211" style="fill: #555555; stroke: #555555; stroke-width: 0.6"/>
      </g>
     </g>
    </g>
    <g id="ytick_20">
     <g id="line2d_36">
      <g>
       <use xlink:href="#m95a1f8e745" x="53.31375" y="131.396633" style="fill: #555555; stroke: #555555; stroke-width: 0.6"/>
      </g>
     </g>
    </g>
    <g id="ytick_21">
     <g id="line2d_37">
      <g>
       <use xlink:href="#m95a1f8e745" x="53.31375" y="122.179397" style="fill: #555555; stroke: #555555; stroke-width: 0.6"/>
      </g>
     </g>
    </g>
    <g id="ytick_22">
     <g id="line2d_38">
      <g>
       <use xlink:href="#m95a1f8e745" x="53.31375" y="117.499083" style="fill: #555555; stroke: #555555; stroke-width: 0.6"/>
      </g>
     </g>
    </g>
    <g id="ytick_23">
     <g id="line2d_39">
      <g>
       <use xlink:href="#m95a1f8e745" x="53.31375" y="114.178347" style="fill: #555555; stroke: #555555; stroke-width: 0.6"/>
      </g>
     </g>
    </g>
    <g id="ytick_24">
     <g id="line2d_40">
      <g>
       <use xlink:href="#m95a1f8e745" x="53.31375" y="111.602584" style="fill: #555555; stroke: #555555; stroke-width: 0.6"/>
      </g>
     </g>
    </g>
    <g id="ytick_25">
     <g id="line2d_41">
      <g>
       <use xlink:href="#m95a1f8e745" x="53.31375" y="109.498032" style="fill: #555555; stroke: #555555; stroke-width: 0.6"/>
      </g>
     </g>
    </g>
    <g id="ytick_26">
     <g id="line2d_42">
      <g>
       <use xlink:href="#m95a1f8e745" x="53.31375" y="107.718659" style="fill: #555555; stroke: #555555; stroke-width: 0.6"/>
      </g>
     </g>
    </g>
    <g id="ytick_27">
     <g id="line2d_43">
      <g>
       <use xlink:href="#m95a1f8e745" x="53.31375" y="106.177296" style="fill: #555555; stroke: #555555; stroke-width: 0.6"/>
      </g>
     </g>
    </g>
    <g id="ytick_28">
     <g id="line2d_44">
      <g>
       <use xlink:href="#m95a1f8e745" x="53.31375" y="104.817717" style="fill: #555555; stroke: #555555; stroke-width: 0.6"/>
      </g>
     </g>
    </g>
    <g id="ytick_29">
     <g id="line2d_45">
      <g>
       <use xlink:href="#m95a1f8e745" x="53.31375" y="95.600482" style="fill: #555555; stroke: #555555; stroke-width: 0.6"/>
      </g>
     </g>
    </g>
    <g id="ytick_30">
     <g id="line2d_46">
      <g>
       <use xlink:href="#m95a1f8e745" x="53.31375" y="90.920167" style="fill: #555555; stroke: #555555; stroke-width: 0.6"/>
      </g>
     </g>
    </g>
    <g id="ytick_31">
     <g id="line2d_47">
      <g>
       <use xlink:href="#m95a1f8e745" x="53.31375" y="87.599431" style="fill: #555555; stroke: #555555; stroke-width: 0.6"/>
      </g>
     </g>
    </g>
    <g id="ytick_32">
     <g id="line2d_48">
      <g>
       <use xlink:href="#m95a1f8e745" x="53.31375" y="85.023668" style="fill: #555555; stroke: #555555; stroke-width: 0.6"/>
      </g>
     </g>
    </g>
    <g id="ytick_33">
     <g id="line2d_49">
      <g>
       <use xlink:href="#m95a1f8e745" x="53.31375" y="82.919116" style="fill: #555555; stroke: #555555; stroke-width: 0.6"/>
      </g>
     </g>
    </g>
    <g id="ytick_34">
     <g id="line2d_50">
      <g>
       <use xlink:href="#m95a1f8e745" x="53.31375" y="81.139743" style="fill: #555555; stroke: #555555; stroke-width: 0.6"/>
      </g>
     </g>
    </g>
    <g id="ytick_35">
     <g id="line2d_51">
      <g>
       <use xlink:href="#m95a1f8e745" x="53.31375" y="79.59838" style="fill: #555555; stroke: #555555; stroke-width: 0.6"/>
      </g>
     </g>
    </g>
    <g id="ytick_36">
     <g id="line2d_52">
      <g>
       <use xlink:href="#m95a1f8e745" x="53.31375" y="78.238801" style="fill: #555555; stroke: #555555; stroke-width: 0.6"/>
      </g>
     </g>
    </g>
    <g id="ytick_37">
     <g id="line2d_53">
      <g>
       <use xlink:href="#m95a1f8e745" x="53.31375" y="69.021566" style="fill: #555555; stroke: #555555; stroke-width: 0.6"/>
      </g>
     </g>
    </g>
    <g id="ytick_38">
     <g id="line2d_54">
      <g>
       <use xlink:href="#m95a1f8e745" x="53.31375" y="64.341251" style="fill: #555555; stroke: #555555; stroke-width: 0.6"/>
      </g>
     </g>
    </g>
    <g id="ytick_39">
     <g id="line2d_55">
      <g>
       <use xlink:href="#m95a1f8e745" x="53.31375" y="61.020515" style="fill: #555555; stroke: #555555; stroke-width: 0.6"/>
      </g>
     </g>
    </g>
    <g id="ytick_40">
     <g id="line2d_56">
      <g>
       <use xlink:href="#m95a1f8e745" x="53.31375" y="58.444752" style="fill: #555555; stroke: #555555; stroke-width: 0.6"/>
      </g>
     </g>
    </g>
    <g id="ytick_41">
     <g id="line2d_57">
      <g>
       <use xlink:href="#m95a1f8e745" x="53.31375" y="56.3402" style="fill: #555555; stroke: #555555; stroke-width: 0.6"/>
      </g>
     </g>
    </g>
    <g id="ytick_42">
     <g id="line2d_58">
      <g>
       <use xlink:href="#m95a1f8e745" x="53.31375" y="54.560827" style="fill: #555555; stroke: #555555; stroke-width: 0.6"/>
      </g>
     </g>
    </g>
    <g id="ytick_43">
     <g id="line2d_59">
      <g>
       <use xlink:href="#m95a1f8e745" x="53.31375" y="53.019464" style="fill: #555555; stroke: #555555; stroke-width: 0.6"/>
      </g>
     </g>
    </g>
    <g id="ytick_44">
     <g id="line2d_60">
      <g>
       <use xlink:href="#m95a1f8e745" x="53.31375" y="51.659886" style="fill: #555555; stroke: #555555; stroke-width: 0.6"/>
      </g>
     </g>
    </g>
    <g id="ytick_45">
     <g id="line2d_61">
      <g>
       <use xlink:href="#m95a1f8e745" x="53.31375" y="42.44265" style="fill: #555555; stroke: #555555; stroke-width: 0.6"/>
      </g>
     </g>
    </g>
    <g id="ytick_46">
     <g id="line2d_62">
      <g>
       <use xlink:href="#m95a1f8e745" x="53.31375" y="37.762336" style="fill: #555555; stroke: #555555; stroke-width: 0.6"/>
      </g>
     </g>
    </g>
    <g id="ytick_47">
     <g id="line2d_63">
      <g>
       <use xlink:href="#m95a1f8e745" x="53.31375" y="34.441599" style="fill: #555555; stroke: #555555; stroke-width: 0.6"/>
      </g>
     </g>
    </g>
    <g id="ytick_48">
     <g id="line2d_64">
      <g>
       <use xlink:href="#m95a1f8e745" x="53.31375" y="31.865836" style="fill: #555555; stroke: #555555; stroke-width: 0.6"/>
      </g>
     </g>
    </g>
    <g id="ytick_49">
     <g id="line2d_65">
      <g>
       <use xlink:href="#m95a1f8e745" x="53.31375" y="29.761285" style="fill: #555555; stroke: #555555; stroke-width: 0.6"/>
      </g>
     </g>
    </g>
    <g id="ytick_50">
     <g id="line2d_66">
      <g>
       <use xlink:href="#m95a1f8e745" x="53.31375" y="27.981912" style="fill: #555555; stroke: #555555; stroke-width: 0.6"/>
      </g>
     </g>
    </g>
    <g id="ytick_51">
     <g id="line2d_67">
      <g>
       <use xlink:href="#m95a1f8e745" x="53.31375" y="26.440549" style="fill: #555555; stroke: #555555; stroke-width: 0.6"/>
      </g>
     </g>
    </g>
    <g id="ytick_52">
     <g id="line2d_68">
      <g>
       <use xlink:href="#m95a1f8e745" x="53.31375" y="25.08097" style="fill: #555555; stroke: #555555; stroke-width: 0.6"/>
      </g>
     </g>
    </g>
    <g id="ytick_53">
     <g id="line2d_69">
      <g>
       <use xlink:href="#m95a1f8e745" x="53.31375" y="15.863735" style="fill: #555555; stroke: #555555; stroke-width: 0.6"/>
      </g>
     </g>
    </g>
    <g id="ytick_54">
     <g id="line2d_70">
      <g>
       <use xlink:href="#m95a1f8e745" x="53.31375" y="11.18342" style="fill: #555555; stroke: #555555; stroke-width: 0.6"/>
      </g>
     </g>
    </g>
    <g id="ytick_55">
     <g id="line2d_71">
      <g>
       <use xlink:href="#m95a1f8e745" x="53.31375" y="7.862684" style="fill: #555555; stroke: #555555; stroke-width: 0.6"/>
      </g>
     </g>
    </g>
    <g id="text_13">
     <!-- Loss -->
     <g style="fill: #555555" transform="translate(16.318125 100.540625) rotate(-90) scale(0.12 -0.12)">
      <defs>
       <path id="DejaVuSans-4c" d="M 628 4666 
L 1259 4666 
L 1259 531 
L 3531 531 
L 3531 0 
L 628 0 
L 628 4666 
z
" transform="scale(0.015625)"/>
       <path id="DejaVuSans-73" d="M 2834 3397 
L 2834 2853 
Q 2591 2978 2328 3040 
Q 2066 3103 1784 3103 
Q 1356 3103 1142 2972 
Q 928 2841 928 2578 
Q 928 2378 1081 2264 
Q 1234 2150 1697 2047 
L 1894 2003 
Q 2506 1872 2764 1633 
Q 3022 1394 3022 966 
Q 3022 478 2636 193 
Q 2250 -91 1575 -91 
Q 1294 -91 989 -36 
Q 684 19 347 128 
L 347 722 
Q 666 556 975 473 
Q 1284 391 1588 391 
Q 1994 391 2212 530 
Q 2431 669 2431 922 
Q 2431 1156 2273 1281 
Q 2116 1406 1581 1522 
L 1381 1569 
Q 847 1681 609 1914 
Q 372 2147 372 2553 
Q 372 3047 722 3315 
Q 1072 3584 1716 3584 
Q 2034 3584 2315 3537 
Q 2597 3491 2834 3397 
z
" transform="scale(0.015625)"/>
      </defs>
      <use xlink:href="#DejaVuSans-4c"/>
      <use xlink:href="#DejaVuSans-6f" transform="translate(53.962891 0)"/>
      <use xlink:href="#DejaVuSans-73" transform="translate(115.144531 0)"/>
      <use xlink:href="#DejaVuSans-73" transform="translate(167.244141 0)"/>
     </g>
    </g>
   </g>
   <g id="line2d_72">
    <path d="M 62.80714 14.489091 
L 63.05631 61.989458 
L 63.30548 73.952639 
L 63.554651 79.153879 
L 64.551332 88.712589 
L 64.800502 89.646891 
L 65.049673 92.715048 
L 65.298843 92.667799 
L 65.548013 95.646312 
L 66.046354 93.558874 
L 66.295524 87.903243 
L 66.544695 94.217281 
L 66.793865 96.883006 
L 67.043035 88.922743 
L 67.292206 91.227577 
L 67.541376 89.886632 
L 68.039717 103.976222 
L 68.288887 95.630959 
L 68.538057 94.350728 
L 68.787228 102.198853 
L 69.036398 92.918908 
L 69.285568 99.768582 
L 69.534739 91.009177 
L 69.783909 91.063255 
L 70.033079 84.889629 
L 70.28225 81.653437 
L 70.53142 103.617256 
L 70.78059 105.150154 
L 71.029761 102.482804 
L 71.278931 106.817771 
L 71.528101 103.660984 
L 71.777272 95.369305 
L 72.026442 92.913853 
L 72.275612 105.973187 
L 72.524783 98.891751 
L 72.773953 85.463644 
L 73.023123 101.128856 
L 73.272294 101.833512 
L 73.521464 97.655792 
L 73.770634 77.205679 
L 74.268975 109.362043 
L 74.767316 99.600966 
L 75.016486 107.980314 
L 75.265656 108.018938 
L 75.514827 99.987646 
L 75.763997 98.551153 
L 76.013167 109.204476 
L 76.262338 97.122164 
L 76.511508 75.269248 
L 76.760678 95.589989 
L 77.009849 100.818802 
L 77.259019 111.086288 
L 77.75736 104.779137 
L 78.00653 107.216853 
L 78.255701 93.887138 
L 78.504871 97.889674 
L 78.754041 90.278041 
L 79.003212 98.696082 
L 79.252382 100.613398 
L 79.501552 92.328058 
L 79.750723 91.671565 
L 79.999893 100.191993 
L 80.249063 100.938263 
L 80.498234 95.944193 
L 80.747404 93.767559 
L 80.996574 104.669624 
L 81.494915 110.934372 
L 81.993256 85.690464 
L 82.242426 100.013765 
L 82.491596 100.229013 
L 82.740767 99.530637 
L 82.989937 101.709842 
L 83.239107 110.640841 
L 83.488278 102.192893 
L 83.737448 87.511652 
L 83.986618 94.637811 
L 84.235789 80.504019 
L 84.484959 92.515058 
L 84.734129 97.621146 
L 84.9833 108.63322 
L 85.23247 108.239797 
L 85.48164 105.633399 
L 85.730811 90.470036 
L 85.979981 102.646659 
L 86.229151 88.134667 
L 86.478322 91.545615 
L 86.727492 115.532752 
L 87.225833 103.632167 
L 87.475003 101.147661 
L 87.724173 91.979788 
L 87.973344 108.171643 
L 88.222514 115.975678 
L 88.471684 111.920091 
L 88.720855 109.788027 
L 88.970025 102.569773 
L 89.219195 83.899288 
L 89.468366 88.922537 
L 89.717536 110.437864 
L 89.966706 101.885963 
L 90.215877 98.838466 
L 90.465047 115.067389 
L 90.714217 110.424778 
L 91.212558 108.159455 
L 91.461728 112.341177 
L 91.710899 89.739605 
L 92.209239 106.642033 
L 92.45841 115.730621 
L 92.70758 106.423952 
L 92.95675 101.344047 
L 93.205921 85.68188 
L 93.455091 120.52703 
L 93.704261 121.797454 
L 93.953432 132.781186 
L 94.202602 134.884308 
L 94.451772 128.074239 
L 94.700943 130.555413 
L 94.950113 131.204199 
L 95.199283 132.516864 
L 95.448454 116.004324 
L 95.697624 130.831969 
L 95.946794 132.735625 
L 96.195965 127.438347 
L 96.445135 125.860889 
L 96.943476 121.508119 
L 97.192646 106.88017 
L 97.690987 121.077286 
L 97.940157 117.959594 
L 98.189327 122.43589 
L 98.438498 114.699301 
L 98.687668 118.791946 
L 98.936838 110.543597 
L 99.186009 114.18945 
L 99.435179 104.649003 
L 99.684349 133.836557 
L 99.93352 136.03464 
L 100.18269 134.65098 
L 100.43186 136.581422 
L 100.681031 139.533715 
L 100.930201 129.91811 
L 101.179371 134.94461 
L 101.428542 117.642461 
L 101.677712 133.026718 
L 101.926882 130.111273 
L 102.176053 134.488982 
L 102.425223 131.585318 
L 102.674393 131.850562 
L 102.923564 123.550958 
L 103.172734 123.352944 
L 103.421904 134.132514 
L 103.671075 117.636041 
L 103.920245 127.01303 
L 104.169415 129.10482 
L 104.418586 119.905218 
L 104.667756 122.18065 
L 104.916926 133.087775 
L 105.166097 132.533358 
L 105.415267 132.268296 
L 105.664437 120.765103 
L 105.913608 125.217475 
L 106.162778 124.759202 
L 106.411948 129.798657 
L 106.661119 121.093895 
L 107.159459 114.224121 
L 107.40863 124.44162 
L 107.6578 117.996775 
L 107.90697 115.039661 
L 108.156141 116.478991 
L 108.405311 122.103633 
L 108.654481 134.564104 
L 108.903652 136.886832 
L 109.152822 135.440416 
L 109.651163 143.281896 
L 109.900333 128.250596 
L 110.149503 140.677134 
L 110.398674 123.466706 
L 110.647844 126.292228 
L 110.897014 125.958008 
L 111.146185 132.361388 
L 111.395355 127.674362 
L 111.644525 137.126368 
L 112.142866 127.437373 
L 112.392036 143.182756 
L 112.641207 140.871456 
L 112.890377 136.469851 
L 113.388718 122.897525 
L 113.637888 129.394556 
L 113.887058 139.065609 
L 114.136229 133.040561 
L 114.385399 133.059544 
L 114.634569 136.151357 
L 114.88374 150.000043 
L 115.13291 129.862573 
L 115.38208 135.193331 
L 115.631251 128.088592 
L 115.880421 132.446702 
L 116.129591 128.069253 
L 116.378762 135.538238 
L 116.627932 138.374459 
L 116.877102 146.968331 
L 117.375443 121.720571 
L 117.624613 144.141105 
L 117.873784 130.160522 
L 118.122954 130.941755 
L 118.372124 125.865888 
L 118.621295 147.554176 
L 118.870465 136.534856 
L 119.119635 130.886447 
L 119.368806 142.532589 
L 119.617976 137.823776 
L 119.867146 127.412003 
L 120.116317 140.809273 
L 120.365487 144.474841 
L 120.614657 134.025835 
L 120.863828 146.045119 
L 121.112998 128.616006 
L 121.362168 128.727234 
L 121.611339 132.831641 
L 121.860509 141.251333 
L 122.109679 124.170557 
L 122.60802 142.138838 
L 122.85719 140.224273 
L 123.106361 141.481946 
L 123.355531 140.120307 
L 123.853872 122.47515 
L 124.103042 147.477685 
L 124.352212 148.231347 
L 124.601383 125.605018 
L 124.850553 140.724254 
L 125.099723 129.453525 
L 125.348894 136.544375 
L 125.598064 130.040664 
L 125.847234 112.494743 
L 126.096405 146.726376 
L 126.345575 147.235749 
L 126.594745 137.888806 
L 126.843916 143.150242 
L 127.093086 141.914406 
L 127.342256 142.896331 
L 127.591427 149.163089 
L 127.840597 142.397078 
L 128.089767 142.598809 
L 128.338938 143.393105 
L 128.588108 142.627585 
L 128.837278 124.446558 
L 129.086449 146.077017 
L 129.335619 144.847949 
L 129.584789 148.351546 
L 129.83396 148.202269 
L 130.08313 134.595441 
L 130.3323 147.662582 
L 130.581471 132.647348 
L 130.830641 140.481358 
L 131.079811 128.002581 
L 131.328982 123.336731 
L 131.827322 142.330469 
L 132.076493 133.227173 
L 132.325663 129.163684 
L 132.574833 132.175251 
L 132.824004 150.985098 
L 133.073174 139.851605 
L 133.322344 136.349535 
L 133.571515 147.179289 
L 133.820685 152.532936 
L 134.069855 144.119768 
L 134.319026 130.131518 
L 135.066537 150.160963 
L 135.315707 130.197155 
L 135.564877 131.195843 
L 135.814048 141.801373 
L 136.063218 121.906223 
L 136.312389 137.615743 
L 136.561559 138.174368 
L 136.810729 130.678025 
L 137.0599 131.630997 
L 137.30907 130.792545 
L 137.55824 134.692006 
L 137.807411 141.188669 
L 138.056581 152.993299 
L 138.305751 141.409047 
L 138.554922 144.481239 
L 139.053262 125.186824 
L 139.302433 147.571428 
L 139.551603 141.84927 
L 139.800773 146.285989 
L 140.049944 138.765119 
L 140.548284 143.501028 
L 140.797455 129.687049 
L 141.046625 151.561105 
L 141.295795 124.744595 
L 141.544966 151.330039 
L 141.794136 156.633762 
L 142.043306 124.842789 
L 142.292477 131.273432 
L 142.541647 152.932906 
L 142.790817 138.980576 
L 143.039988 145.922003 
L 143.289158 144.896398 
L 143.538328 136.305706 
L 143.787499 140.552268 
L 144.036669 152.077925 
L 144.285839 139.285703 
L 144.53501 136.060842 
L 145.03335 153.180077 
L 145.282521 126.573485 
L 145.531691 133.560884 
L 145.780861 137.066302 
L 146.030032 155.728596 
L 146.279202 131.127085 
L 146.528372 146.774656 
L 146.777543 147.883212 
L 147.026713 146.877634 
L 147.525054 147.855066 
L 147.774224 139.042763 
L 148.023394 140.828883 
L 148.272565 138.34711 
L 148.521735 132.131959 
L 148.770905 149.998635 
L 149.020076 131.61589 
L 149.269246 133.832924 
L 149.518416 151.225463 
L 149.767587 137.547173 
L 150.016757 141.94472 
L 150.265927 149.50363 
L 150.515098 124.735008 
L 150.764268 140.915832 
L 151.013438 149.231943 
L 151.262609 153.760934 
L 151.511779 131.632455 
L 151.760949 153.696481 
L 152.01012 129.87481 
L 152.25929 145.032406 
L 152.50846 136.750774 
L 152.757631 151.369342 
L 153.006801 146.810127 
L 153.255971 137.662362 
L 153.505142 149.540346 
L 153.754312 147.515399 
L 154.003482 144.114228 
L 154.252653 133.898496 
L 154.501823 131.493914 
L 154.750993 133.815093 
L 155.000164 148.195942 
L 155.249334 139.356161 
L 155.498504 154.633822 
L 155.747675 145.969496 
L 155.996845 127.988968 
L 156.246015 152.001526 
L 156.495186 134.683535 
L 156.744356 144.680502 
L 157.242697 135.679135 
L 157.491867 136.98842 
L 157.741037 150.903918 
L 157.990208 144.827644 
L 158.239378 128.572643 
L 158.488548 152.838491 
L 158.737719 143.925093 
L 158.986889 140.913774 
L 159.48523 131.918601 
L 159.7344 146.613862 
L 159.98357 132.947418 
L 160.232741 151.762742 
L 160.481911 134.082856 
L 160.731081 132.677939 
L 160.980252 140.674223 
L 161.229422 141.454239 
L 161.478592 125.707586 
L 161.727763 151.047668 
L 161.976933 128.495336 
L 162.226103 139.998946 
L 162.475274 135.345759 
L 162.724444 127.738262 
L 162.973614 154.477978 
L 163.471955 135.35273 
L 163.721125 147.074081 
L 163.970296 128.386828 
L 164.219466 136.298023 
L 164.468636 130.987858 
L 164.717807 138.558028 
L 164.966977 127.504937 
L 165.216147 127.010502 
L 165.714488 152.850292 
L 165.963658 148.374558 
L 166.212829 146.0964 
L 166.461999 139.586977 
L 166.711169 148.154071 
L 166.96034 144.661773 
L 167.20951 137.490855 
L 167.45868 133.800725 
L 167.707851 137.526538 
L 167.957021 148.359141 
L 168.206191 152.231699 
L 168.455362 147.285826 
L 168.704532 137.857632 
L 168.953702 146.837042 
L 169.452043 134.89792 
L 169.701213 134.845121 
L 169.950384 127.85771 
L 170.199554 146.919262 
L 170.448724 146.885926 
L 170.697895 134.1611 
L 170.947065 141.952055 
L 171.196235 141.478301 
L 171.445406 140.224584 
L 171.694576 145.526078 
L 171.943746 145.618506 
L 172.192917 153.720265 
L 172.442087 148.746638 
L 172.691257 138.007774 
L 172.940428 137.491264 
L 173.189598 143.68297 
L 173.438768 153.92747 
L 173.687939 142.726492 
L 173.937109 143.025405 
L 174.186279 129.6647 
L 174.43545 137.167437 
L 174.68462 139.316724 
L 174.93379 143.808366 
L 175.182961 139.374988 
L 175.681301 149.69198 
L 175.930472 146.714236 
L 176.179642 152.209994 
L 176.428812 146.238294 
L 176.677983 132.29015 
L 176.927153 153.719443 
L 177.176323 136.865428 
L 177.425494 144.433665 
L 177.674664 148.002789 
L 177.923834 155.67632 
L 178.422175 147.503736 
L 178.671345 144.641796 
L 178.920516 126.793208 
L 179.169686 130.23861 
L 179.418856 139.985717 
L 179.668027 132.664044 
L 179.917197 138.486262 
L 180.166367 150.875675 
L 180.415538 141.088482 
L 180.664708 144.058728 
L 180.913878 137.002686 
L 181.163049 146.851437 
L 181.412219 145.913683 
L 181.661389 145.496245 
L 181.91056 134.61021 
L 182.15973 135.043141 
L 182.4089 142.867829 
L 182.658071 128.880635 
L 182.907241 130.50224 
L 183.156411 130.665413 
L 183.405582 137.885798 
L 183.654752 132.506354 
L 184.153093 152.648358 
L 184.651433 129.074046 
L 184.900604 132.678882 
L 185.149774 146.542832 
L 185.398944 147.887076 
L 185.648115 146.722254 
L 186.146455 126.816274 
L 186.395626 150.167998 
L 186.644796 124.657953 
L 186.893966 145.84598 
L 187.392307 153.209114 
L 187.641477 132.044852 
L 187.890648 143.9838 
L 188.139818 145.067398 
L 188.638159 134.080768 
L 188.887329 133.750789 
L 189.136499 133.912574 
L 189.38567 154.139184 
L 189.63484 133.189255 
L 189.88401 150.426377 
L 190.133181 141.078116 
L 190.382351 146.159734 
L 190.631521 143.159068 
L 190.880692 158.958023 
L 191.379032 141.288633 
L 191.628203 151.51756 
L 191.877373 145.740404 
L 192.126543 150.832769 
L 192.375714 142.011131 
L 192.624884 141.704264 
L 192.874054 147.39404 
L 193.123225 148.790401 
L 193.372395 129.803453 
L 193.870736 143.439909 
L 194.119906 152.845033 
L 194.369076 123.781682 
L 194.618247 143.408453 
L 194.867417 149.724093 
L 195.365758 132.533729 
L 195.614928 155.150895 
L 195.864099 149.968407 
L 196.113269 148.704693 
L 196.362439 134.45305 
L 196.86078 148.516668 
L 197.10995 144.044988 
L 197.359121 135.963796 
L 197.608291 142.449023 
L 197.857461 145.611448 
L 198.106632 142.182265 
L 198.355802 153.947693 
L 198.604972 160.270909 
L 198.854143 142.73804 
L 199.103313 145.654343 
L 199.352483 152.56569 
L 199.601654 143.782838 
L 199.850824 143.912765 
L 200.349165 130.195924 
L 200.598335 142.620926 
L 200.847505 148.935374 
L 201.096676 149.32032 
L 201.345846 136.987398 
L 201.595016 133.697014 
L 201.844187 132.793829 
L 202.093357 140.504505 
L 202.342527 122.683472 
L 202.840868 148.209461 
L 203.090038 151.579113 
L 203.339209 137.104004 
L 203.588379 135.358481 
L 203.837549 139.216018 
L 204.08672 148.888517 
L 204.33589 138.656083 
L 204.58506 134.59048 
L 204.834231 152.726791 
L 205.083401 137.775676 
L 205.830912 147.968242 
L 206.080082 144.840501 
L 206.329253 124.61215 
L 206.578423 123.388162 
L 206.827593 150.049137 
L 207.076764 140.285781 
L 207.325934 149.982158 
L 207.575104 153.614864 
L 208.073445 144.862531 
L 208.322615 152.756312 
L 208.571786 134.683275 
L 208.820956 137.813744 
L 209.070126 134.352878 
L 209.319297 135.785761 
L 209.568467 133.436497 
L 209.817637 157.581177 
L 210.066808 140.249907 
L 210.315978 142.284275 
L 210.565148 150.987124 
L 210.814319 138.363726 
L 211.063489 133.846723 
L 211.312659 133.034134 
L 211.56183 137.251785 
L 211.811 145.174732 
L 212.06017 143.902627 
L 212.309341 139.140184 
L 212.558511 143.948207 
L 212.807681 131.992883 
L 213.056852 150.945926 
L 213.306022 129.436553 
L 213.555192 132.297519 
L 213.804363 152.896262 
L 214.053533 151.841525 
L 214.302703 133.035306 
L 214.551874 139.878582 
L 214.801044 142.91026 
L 215.050214 136.60204 
L 215.299385 145.12314 
L 215.548555 132.32548 
L 215.797725 133.955544 
L 216.046896 141.132023 
L 216.296066 154.657849 
L 216.545236 136.469496 
L 217.043577 127.927186 
L 217.292747 146.009764 
L 217.541918 144.617522 
L 217.791088 130.552252 
L 218.040258 141.486836 
L 218.289429 130.62326 
L 218.538599 143.043079 
L 219.03694 156.714245 
L 219.53528 132.512868 
L 219.784451 133.778743 
L 220.033621 130.059668 
L 220.282791 137.010663 
L 220.531962 128.694575 
L 220.781132 131.003817 
L 221.030302 139.737945 
L 221.279473 140.974809 
L 221.528643 156.441708 
L 221.777813 131.903822 
L 222.026984 146.779448 
L 222.276154 154.520675 
L 222.525324 140.05883 
L 222.774495 145.246003 
L 223.023665 137.138942 
L 223.272835 137.339538 
L 223.522006 143.582639 
L 223.771176 138.181628 
L 224.020346 143.643604 
L 224.269517 142.335973 
L 224.518687 129.213909 
L 224.767857 140.45454 
L 225.017028 136.755373 
L 225.266198 142.135725 
L 225.515368 138.155589 
L 225.764539 157.45922 
L 226.013709 130.412637 
L 226.262879 146.315337 
L 226.51205 146.484195 
L 226.76122 131.689386 
L 227.01039 141.261288 
L 227.508731 151.988391 
L 227.757901 130.651169 
L 228.007072 149.932105 
L 228.256242 127.427855 
L 228.505412 141.731522 
L 228.754583 145.038065 
L 229.003753 145.391003 
L 229.252923 145.070949 
L 229.502094 139.084461 
L 229.751264 141.322197 
L 230.000434 144.997712 
L 230.249605 133.24666 
L 230.498775 144.375913 
L 230.747945 144.953342 
L 230.997116 133.21805 
L 231.246286 149.44918 
L 231.495456 143.01839 
L 231.993797 136.840746 
L 232.242967 130.946604 
L 232.492138 145.47133 
L 232.741308 145.263541 
L 232.990478 142.112092 
L 233.239649 141.927873 
L 233.488819 137.306494 
L 233.737989 139.166559 
L 233.98716 152.683469 
L 234.23633 141.199251 
L 234.4855 153.579983 
L 234.734671 133.378131 
L 235.233011 150.195535 
L 235.482182 156.109342 
L 235.731352 157.630596 
L 235.980522 136.259194 
L 236.229693 130.849986 
L 236.478863 137.210982 
L 236.728033 132.413689 
L 236.977204 149.665718 
L 237.226374 130.555599 
L 237.475544 148.61993 
L 237.973885 128.199459 
L 238.472226 149.168229 
L 238.721396 126.253828 
L 238.970566 150.851988 
L 239.219737 152.880904 
L 239.468907 134.204574 
L 239.718077 146.556385 
L 239.967248 149.16981 
L 240.465588 140.134659 
L 240.714759 131.876904 
L 240.963929 140.164401 
L 241.213099 138.589887 
L 241.46227 134.170331 
L 241.71144 136.165866 
L 242.209781 145.509878 
L 242.458951 135.235259 
L 242.708121 136.344789 
L 242.957292 136.533785 
L 243.206462 138.714111 
L 243.455632 137.709975 
L 243.704803 133.526474 
L 243.953973 120.665779 
L 244.203143 137.423617 
L 244.452314 144.879737 
L 244.701484 140.837219 
L 244.950654 146.143932 
L 245.199825 131.455182 
L 245.448995 138.535705 
L 245.698165 141.187442 
L 245.947336 145.541973 
L 246.445676 129.133347 
L 246.694847 149.616347 
L 246.944017 149.896596 
L 247.442358 133.816099 
L 247.691528 132.744838 
L 248.189869 153.707268 
L 248.439039 152.699092 
L 248.688209 155.676529 
L 248.93738 145.342847 
L 249.18655 142.487207 
L 249.684891 134.372622 
L 249.934061 143.268248 
L 250.183231 141.506469 
L 250.432402 153.741596 
L 250.681572 145.188844 
L 250.930742 141.638623 
L 251.179913 142.77071 
L 251.429083 141.924891 
L 251.678253 139.460697 
L 251.927424 148.989504 
L 252.176594 146.705465 
L 252.674935 134.213249 
L 252.674935 134.213249 
" clip-path="url(#p7ad27a099c)" style="fill: none; stroke: #1d3557; stroke-width: 1.5; stroke-linecap: square"/>
   </g>
   <g id="line2d_73">
    <path d="M 62.80714 53.678378 
L 63.05631 69.884053 
L 63.30548 78.15103 
L 63.803821 84.354899 
L 64.052991 85.677669 
L 64.302162 88.466298 
L 64.551332 89.351033 
L 64.800502 93.06923 
L 65.049673 93.448078 
L 65.298843 92.196859 
L 65.548013 97.302635 
L 65.797184 97.350632 
L 66.046354 88.151725 
L 66.295524 86.004202 
L 66.793865 99.310032 
L 67.043035 81.465109 
L 67.292206 75.592109 
L 67.790546 102.544329 
L 68.039717 94.75908 
L 68.288887 90.803992 
L 68.538057 90.959369 
L 68.787228 99.801616 
L 69.036398 99.63479 
L 69.534739 78.792528 
L 69.783909 93.28144 
L 70.033079 83.224998 
L 70.28225 105.094356 
L 70.53142 102.194239 
L 70.78059 113.481851 
L 71.278931 104.981867 
L 71.528101 92.23002 
L 71.777272 106.068584 
L 72.026442 105.46253 
L 72.275612 102.764854 
L 72.524783 81.696242 
L 72.773953 93.665266 
L 73.023123 91.891344 
L 73.272294 88.628817 
L 73.521464 97.388653 
L 73.770634 75.19857 
L 74.019805 113.676614 
L 74.268975 96.866555 
L 74.518145 101.796279 
L 74.767316 101.658561 
L 75.265656 106.083808 
L 75.514827 99.454714 
L 75.763997 103.803575 
L 76.013167 105.87362 
L 76.262338 76.537155 
L 76.511508 85.36728 
L 76.760678 106.601547 
L 77.009849 103.241423 
L 77.259019 114.663826 
L 77.50819 108.62517 
L 77.75736 111.264327 
L 78.00653 97.646327 
L 78.255701 97.293378 
L 78.504871 100.853656 
L 78.754041 80.16935 
L 79.003212 116.743144 
L 79.252382 87.016439 
L 79.501552 87.794908 
L 79.750723 97.912821 
L 79.999893 89.10323 
L 80.249063 113.451945 
L 80.498234 89.16902 
L 80.747404 95.401244 
L 80.996574 107.914434 
L 81.245745 98.568044 
L 81.494915 111.319681 
L 81.744085 101.165714 
L 81.993256 84.888591 
L 82.242426 110.566195 
L 82.491596 106.116846 
L 82.740767 111.984749 
L 82.989937 106.147247 
L 83.239107 117.85063 
L 83.737448 89.031746 
L 83.986618 94.647501 
L 84.235789 85.486724 
L 84.9833 108.864699 
L 85.23247 98.26882 
L 85.48164 100.973259 
L 85.730811 96.510262 
L 85.979981 94.256319 
L 86.229151 89.85041 
L 86.478322 112.266292 
L 86.727492 110.378216 
L 86.976662 112.165604 
L 87.475003 104.220771 
L 87.724173 95.728795 
L 87.973344 123.094351 
L 88.222514 112.308647 
L 88.471684 110.400289 
L 88.720855 111.279615 
L 88.970025 95.517052 
L 89.219195 90.019418 
L 89.468366 95.387921 
L 89.717536 115.265586 
L 89.966706 110.234604 
L 90.215877 109.563702 
L 90.465047 114.429797 
L 90.714217 103.09133 
L 91.212558 111.076287 
L 91.461728 108.207507 
L 91.710899 84.698594 
L 91.960069 113.346171 
L 92.209239 107.084431 
L 92.45841 120.417402 
L 92.70758 113.622514 
L 92.95675 80.268862 
L 93.455091 124.979352 
L 93.953432 133.411582 
L 94.202602 130.036587 
L 94.451772 119.891374 
L 94.700943 132.756005 
L 94.950113 127.64503 
L 95.199283 128.464573 
L 95.448454 121.96017 
L 95.697624 129.973791 
L 95.946794 129.757607 
L 96.195965 132.983428 
L 96.445135 126.014179 
L 96.694305 126.824536 
L 96.943476 119.839744 
L 97.192646 102.793399 
L 97.441816 120.438088 
L 97.690987 112.349321 
L 97.940157 119.167469 
L 98.189327 117.127025 
L 98.438498 120.261865 
L 98.687668 127.833126 
L 98.936838 123.966288 
L 99.186009 86.668503 
L 99.435179 130.751201 
L 99.684349 128.696261 
L 99.93352 135.536434 
L 100.43186 132.635916 
L 100.681031 136.227655 
L 100.930201 131.346733 
L 101.179371 130.756127 
L 101.428542 120.508273 
L 101.677712 135.992688 
L 101.926882 129.056496 
L 102.176053 132.796954 
L 102.425223 134.739593 
L 102.923564 113.017179 
L 103.172734 130.884775 
L 103.421904 136.525776 
L 103.671075 119.992135 
L 103.920245 120.246858 
L 104.169415 128.404312 
L 104.418586 123.678743 
L 104.667756 133.737614 
L 105.166097 126.667205 
L 105.415267 134.677935 
L 105.664437 121.164384 
L 105.913608 125.540512 
L 106.162778 125.949721 
L 106.411948 129.60691 
L 106.661119 126.215436 
L 106.910289 108.881288 
L 107.40863 136.084188 
L 107.6578 130.284259 
L 107.90697 113.125229 
L 108.156141 120.440696 
L 108.405311 133.820784 
L 108.654481 131.630604 
L 109.152822 140.540333 
L 109.401992 139.475331 
L 109.651163 140.243868 
L 109.900333 139.31036 
L 110.149503 139.552622 
L 110.398674 134.236521 
L 110.647844 132.353455 
L 110.897014 139.776561 
L 111.146185 135.460055 
L 111.395355 135.686478 
L 111.644525 139.041367 
L 111.893696 135.172025 
L 112.142866 136.986776 
L 112.392036 137.386467 
L 112.641207 139.236565 
L 112.890377 135.044762 
L 113.139547 122.194497 
L 113.388718 135.487503 
L 113.637888 135.391605 
L 113.887058 137.13773 
L 114.136229 139.923112 
L 114.385399 120.61167 
L 114.634569 141.364875 
L 114.88374 142.275629 
L 115.13291 140.30889 
L 115.38208 139.557479 
L 115.631251 136.036006 
L 115.880421 141.749148 
L 116.129591 137.174663 
L 116.378762 142.245293 
L 116.627932 142.670653 
L 116.877102 137.110747 
L 117.375443 136.26961 
L 117.624613 142.717576 
L 118.122954 134.297662 
L 118.372124 140.244341 
L 118.621295 142.237989 
L 118.870465 139.727505 
L 119.119635 140.598167 
L 119.368806 138.792486 
L 119.617976 131.579869 
L 119.867146 135.05357 
L 120.116317 140.65219 
L 120.365487 141.330902 
L 120.614657 139.326735 
L 120.863828 142.119171 
L 121.112998 140.584302 
L 121.362168 140.317674 
L 121.611339 140.393251 
L 121.860509 140.152211 
L 122.109679 138.242304 
L 122.35885 138.642491 
L 122.60802 142.228667 
L 122.85719 143.393349 
L 123.355531 141.02555 
L 123.604701 135.40721 
L 123.853872 142.218948 
L 124.103042 140.986487 
L 124.352212 141.569793 
L 124.601383 137.277625 
L 124.850553 137.207679 
L 125.099723 139.675502 
L 125.348894 140.541839 
L 125.598064 126.033807 
L 125.847234 141.506273 
L 126.096405 142.894734 
L 126.345575 142.728749 
L 126.594745 138.866296 
L 126.843916 141.051778 
L 127.093086 141.300204 
L 127.342256 143.219922 
L 127.840597 141.682116 
L 128.089767 141.827865 
L 128.338938 143.962683 
L 128.588108 143.428561 
L 128.837278 142.427719 
L 129.086449 144.147194 
L 129.335619 144.117225 
L 129.584789 143.832389 
L 129.83396 142.619623 
L 130.08313 140.711828 
L 130.3323 142.669763 
L 130.581471 137.995492 
L 130.830641 143.440439 
L 131.079811 142.118303 
L 131.328982 143.734703 
L 131.827322 143.153669 
L 132.076493 140.071266 
L 132.325663 142.371814 
L 132.574833 142.195681 
L 132.824004 144.479968 
L 133.322344 143.863658 
L 133.571515 144.327044 
L 133.820685 144.513586 
L 134.319026 136.32224 
L 134.568196 144.731055 
L 134.817366 143.430896 
L 135.066537 144.900875 
L 135.315707 141.62001 
L 135.564877 141.929168 
L 135.814048 142.526422 
L 136.063218 124.135347 
L 136.312389 142.379347 
L 136.561559 135.867468 
L 136.810729 143.840171 
L 137.0599 127.895833 
L 137.30907 141.78114 
L 137.55824 135.876525 
L 137.807411 142.001342 
L 138.056581 144.419829 
L 138.305751 142.803386 
L 138.554922 143.64069 
L 138.804092 143.191217 
L 139.053262 132.060839 
L 139.302433 144.502661 
L 139.551603 143.653616 
L 139.800773 144.57735 
L 140.049944 141.918096 
L 140.548284 145.31394 
L 140.797455 141.864995 
L 141.046625 144.929922 
L 141.295795 144.920537 
L 141.544966 145.365056 
L 141.794136 145.157308 
L 142.043306 141.229795 
L 142.292477 144.093652 
L 142.541647 144.333854 
L 142.790817 136.889708 
L 143.039988 145.249426 
L 143.289158 144.207849 
L 143.538328 145.151161 
L 143.787499 144.683141 
L 144.036669 143.635626 
L 144.285839 144.50772 
L 144.53501 144.810878 
L 144.78418 144.741868 
L 145.03335 145.626659 
L 145.282521 140.128823 
L 145.531691 145.030955 
L 145.780861 144.052841 
L 146.030032 145.486377 
L 146.279202 142.292819 
L 146.528372 144.694846 
L 146.777543 144.326851 
L 147.026713 145.247871 
L 147.275883 143.777612 
L 147.525054 145.647333 
L 147.774224 144.633953 
L 148.023394 144.197103 
L 148.272565 145.273547 
L 148.521735 144.135163 
L 148.770905 145.699034 
L 149.020076 141.950836 
L 149.269246 145.003319 
L 149.518416 145.859676 
L 149.767587 143.921718 
L 150.016757 145.309795 
L 150.265927 145.115492 
L 150.515098 139.940153 
L 150.764268 144.680953 
L 151.013438 144.155638 
L 151.262609 145.258863 
L 151.511779 143.141566 
L 151.760949 145.563655 
L 152.01012 143.779622 
L 152.25929 145.442157 
L 152.50846 145.731273 
L 153.505142 144.756885 
L 153.754312 143.510653 
L 154.003482 144.026783 
L 154.252653 145.601567 
L 154.501823 143.515942 
L 154.750993 145.678628 
L 155.000164 146.031813 
L 155.249334 144.710881 
L 155.498504 145.950159 
L 155.747675 145.286788 
L 155.996845 142.697892 
L 156.246015 145.895669 
L 156.495186 144.647945 
L 156.744356 145.690795 
L 156.993526 144.319463 
L 157.242697 142.315608 
L 157.491867 145.628484 
L 157.741037 145.693553 
L 157.990208 145.427668 
L 158.239378 143.536899 
L 158.488548 145.598207 
L 158.737719 145.694428 
L 158.986889 139.527004 
L 159.236059 145.825254 
L 159.48523 145.88533 
L 159.7344 142.597151 
L 159.98357 145.731129 
L 160.232741 146.181818 
L 160.481911 144.359471 
L 160.731081 145.828838 
L 160.980252 144.663736 
L 161.229422 146.13214 
L 161.478592 145.144074 
L 161.727763 145.944658 
L 161.976933 145.809021 
L 162.226103 146.144922 
L 162.475274 146.092841 
L 162.724444 145.608608 
L 162.973614 145.969148 
L 163.222785 146.101268 
L 163.471955 144.029518 
L 163.721125 146.004802 
L 163.970296 142.916519 
L 164.219466 146.027866 
L 164.468636 141.42272 
L 164.966977 145.971443 
L 165.216147 143.811348 
L 165.465318 146.317573 
L 165.714488 145.760648 
L 165.963658 145.774714 
L 166.212829 145.930154 
L 166.711169 146.023557 
L 166.96034 146.282503 
L 167.20951 145.683861 
L 167.45868 145.928375 
L 167.707851 146.384341 
L 167.957021 146.299574 
L 168.206191 145.904389 
L 168.455362 146.289144 
L 168.704532 145.740383 
L 168.953702 143.643003 
L 169.202873 146.433851 
L 169.701213 144.456793 
L 169.950384 144.937655 
L 170.199554 146.088277 
L 170.448724 145.95794 
L 170.697895 146.396013 
L 170.947065 144.232582 
L 171.196235 145.345477 
L 171.445406 145.593135 
L 171.694576 146.231227 
L 171.943746 146.356161 
L 172.192917 146.161712 
L 172.442087 144.846741 
L 172.691257 144.174949 
L 172.940428 144.019233 
L 173.189598 145.973114 
L 173.438768 146.424708 
L 173.687939 145.717636 
L 173.937109 146.304959 
L 174.186279 144.290801 
L 174.43545 144.909296 
L 174.68462 144.815594 
L 174.93379 146.449684 
L 175.182961 145.750845 
L 175.432131 146.380391 
L 175.681301 146.365827 
L 175.930472 146.124159 
L 176.179642 146.641777 
L 176.428812 146.36923 
L 176.677983 145.101213 
L 176.927153 146.705601 
L 177.425494 146.155818 
L 177.674664 146.498041 
L 177.923834 146.335257 
L 178.173005 146.356427 
L 178.422175 146.684174 
L 178.671345 146.459183 
L 178.920516 145.651751 
L 179.169686 146.220589 
L 179.418856 145.87919 
L 180.166367 146.472118 
L 180.415538 146.322431 
L 180.664708 146.463608 
L 180.913878 145.56647 
L 181.163049 146.322194 
L 181.412219 146.304325 
L 181.661389 146.088518 
L 182.15973 146.502765 
L 182.4089 146.55998 
L 182.658071 145.452279 
L 183.156411 146.485221 
L 183.405582 146.714603 
L 184.402263 146.372165 
L 184.651433 146.233236 
L 184.900604 145.680266 
L 185.398944 146.646318 
L 186.146455 146.541125 
L 186.395626 146.738368 
L 186.644796 144.727591 
L 186.893966 146.697075 
L 187.143137 146.344081 
L 187.392307 146.716241 
L 187.641477 146.267616 
L 188.139818 146.681201 
L 188.388988 146.193663 
L 188.638159 144.999476 
L 188.887329 146.634451 
L 189.136499 146.244109 
L 189.38567 146.65906 
L 189.63484 145.89653 
L 189.88401 146.580829 
L 190.133181 146.619775 
L 190.382351 146.323146 
L 191.129862 146.620791 
L 191.379032 145.24275 
L 191.628203 146.281062 
L 191.877373 146.60777 
L 193.123225 146.765649 
L 193.372395 146.426804 
L 194.119906 146.791677 
L 194.369076 146.861905 
L 194.618247 146.669684 
L 194.867417 146.668377 
L 195.116588 146.089843 
L 195.365758 146.764816 
L 196.113269 146.669478 
L 196.362439 146.355234 
L 196.61161 146.713929 
L 197.10995 146.624113 
L 197.359121 146.279846 
L 197.608291 146.605567 
L 197.857461 146.69147 
L 198.355802 146.660777 
L 198.604972 146.784653 
L 198.854143 146.689653 
L 199.103313 146.726032 
L 199.352483 146.647623 
L 199.601654 146.708819 
L 200.099994 146.672296 
L 201.096676 146.761253 
L 201.345846 146.461586 
L 201.844187 146.63323 
L 202.591698 146.636765 
L 202.840868 146.917857 
L 203.090038 146.870387 
L 203.339209 146.682807 
L 203.588379 146.759711 
L 204.08672 146.720216 
L 204.834231 146.768588 
L 205.581742 146.752977 
L 206.329253 146.703487 
L 206.578423 146.299896 
L 206.827593 146.7474 
L 207.076764 146.638782 
L 207.824275 146.799035 
L 208.073445 146.710961 
L 208.322615 146.81298 
L 208.820956 146.773056 
L 209.070126 146.850733 
L 210.066808 146.688556 
L 210.814319 146.804395 
L 211.063489 146.755442 
L 211.56183 146.841744 
L 213.555192 146.806894 
L 215.050214 146.830364 
L 216.046896 146.752999 
L 218.289429 146.736912 
L 221.777813 146.794846 
L 222.774495 146.78224 
L 252.674935 146.811674 
L 252.674935 146.811674 
" clip-path="url(#p7ad27a099c)" style="fill: none; stroke: #e63946; stroke-width: 1.5; stroke-linecap: square"/>
   </g>
   <g id="patch_3">
    <path d="M 53.31375 167.56 
L 53.31375 7.2 
" style="fill: none; stroke: #ffffff; stroke-linejoin: miter; stroke-linecap: square"/>
   </g>
   <g id="patch_4">
    <path d="M 262.168325 167.56 
L 262.168325 7.2 
" style="fill: none; stroke: #ffffff; stroke-linejoin: miter; stroke-linecap: square"/>
   </g>
   <g id="patch_5">
    <path d="M 53.31375 167.56 
L 262.168325 167.56 
" style="fill: none; stroke: #ffffff; stroke-linejoin: miter; stroke-linecap: square"/>
   </g>
   <g id="patch_6">
    <path d="M 53.31375 7.2 
L 262.168325 7.2 
" style="fill: none; stroke: #ffffff; stroke-linejoin: miter; stroke-linecap: square"/>
   </g>
   <g id="legend_1">
    <g id="patch_7">
     <path d="M 151.293325 44.55625 
L 255.168325 44.55625 
Q 257.168325 44.55625 257.168325 42.55625 
L 257.168325 14.2 
Q 257.168325 12.2 255.168325 12.2 
L 151.293325 12.2 
Q 149.293325 12.2 149.293325 14.2 
L 149.293325 42.55625 
Q 149.293325 44.55625 151.293325 44.55625 
z
" style="fill: #e5e5e5; opacity: 0.8; stroke: #cccccc; stroke-width: 0.5; stroke-linejoin: miter"/>
    </g>
    <g id="line2d_74">
     <path d="M 153.293325 20.298437 
L 163.293325 20.298437 
L 173.293325 20.298437 
" style="fill: none; stroke: #1d3557; stroke-width: 1.5; stroke-linecap: square"/>
    </g>
    <g id="text_14">
     <!-- Training loss -->
     <g transform="translate(181.293325 23.798437) scale(0.1 -0.1)">
      <defs>
       <path id="DejaVuSans-54" d="M -19 4666 
L 3928 4666 
L 3928 4134 
L 2272 4134 
L 2272 0 
L 1638 0 
L 1638 4134 
L -19 4134 
L -19 4666 
z
" transform="scale(0.015625)"/>
       <path id="DejaVuSans-72" d="M 2631 2963 
Q 2534 3019 2420 3045 
Q 2306 3072 2169 3072 
Q 1681 3072 1420 2755 
Q 1159 2438 1159 1844 
L 1159 0 
L 581 0 
L 581 3500 
L 1159 3500 
L 1159 2956 
Q 1341 3275 1631 3429 
Q 1922 3584 2338 3584 
Q 2397 3584 2469 3576 
Q 2541 3569 2628 3553 
L 2631 2963 
z
" transform="scale(0.015625)"/>
       <path id="DejaVuSans-61" d="M 2194 1759 
Q 1497 1759 1228 1600 
Q 959 1441 959 1056 
Q 959 750 1161 570 
Q 1363 391 1709 391 
Q 2188 391 2477 730 
Q 2766 1069 2766 1631 
L 2766 1759 
L 2194 1759 
z
M 3341 1997 
L 3341 0 
L 2766 0 
L 2766 531 
Q 2569 213 2275 61 
Q 1981 -91 1556 -91 
Q 1019 -91 701 211 
Q 384 513 384 1019 
Q 384 1609 779 1909 
Q 1175 2209 1959 2209 
L 2766 2209 
L 2766 2266 
Q 2766 2663 2505 2880 
Q 2244 3097 1772 3097 
Q 1472 3097 1187 3025 
Q 903 2953 641 2809 
L 641 3341 
Q 956 3463 1253 3523 
Q 1550 3584 1831 3584 
Q 2591 3584 2966 3190 
Q 3341 2797 3341 1997 
z
" transform="scale(0.015625)"/>
       <path id="DejaVuSans-69" d="M 603 3500 
L 1178 3500 
L 1178 0 
L 603 0 
L 603 3500 
z
M 603 4863 
L 1178 4863 
L 1178 4134 
L 603 4134 
L 603 4863 
z
" transform="scale(0.015625)"/>
       <path id="DejaVuSans-6e" d="M 3513 2113 
L 3513 0 
L 2938 0 
L 2938 2094 
Q 2938 2591 2744 2837 
Q 2550 3084 2163 3084 
Q 1697 3084 1428 2787 
Q 1159 2491 1159 1978 
L 1159 0 
L 581 0 
L 581 3500 
L 1159 3500 
L 1159 2956 
Q 1366 3272 1645 3428 
Q 1925 3584 2291 3584 
Q 2894 3584 3203 3211 
Q 3513 2838 3513 2113 
z
" transform="scale(0.015625)"/>
       <path id="DejaVuSans-67" d="M 2906 1791 
Q 2906 2416 2648 2759 
Q 2391 3103 1925 3103 
Q 1463 3103 1205 2759 
Q 947 2416 947 1791 
Q 947 1169 1205 825 
Q 1463 481 1925 481 
Q 2391 481 2648 825 
Q 2906 1169 2906 1791 
z
M 3481 434 
Q 3481 -459 3084 -895 
Q 2688 -1331 1869 -1331 
Q 1566 -1331 1297 -1286 
Q 1028 -1241 775 -1147 
L 775 -588 
Q 1028 -725 1275 -790 
Q 1522 -856 1778 -856 
Q 2344 -856 2625 -561 
Q 2906 -266 2906 331 
L 2906 616 
Q 2728 306 2450 153 
Q 2172 0 1784 0 
Q 1141 0 747 490 
Q 353 981 353 1791 
Q 353 2603 747 3093 
Q 1141 3584 1784 3584 
Q 2172 3584 2450 3431 
Q 2728 3278 2906 2969 
L 2906 3500 
L 3481 3500 
L 3481 434 
z
" transform="scale(0.015625)"/>
       <path id="DejaVuSans-20" transform="scale(0.015625)"/>
       <path id="DejaVuSans-6c" d="M 603 4863 
L 1178 4863 
L 1178 0 
L 603 0 
L 603 4863 
z
" transform="scale(0.015625)"/>
      </defs>
      <use xlink:href="#DejaVuSans-54"/>
      <use xlink:href="#DejaVuSans-72" transform="translate(46.333984 0)"/>
      <use xlink:href="#DejaVuSans-61" transform="translate(87.447266 0)"/>
      <use xlink:href="#DejaVuSans-69" transform="translate(148.726562 0)"/>
      <use xlink:href="#DejaVuSans-6e" transform="translate(176.509766 0)"/>
      <use xlink:href="#DejaVuSans-69" transform="translate(239.888672 0)"/>
      <use xlink:href="#DejaVuSans-6e" transform="translate(267.671875 0)"/>
      <use xlink:href="#DejaVuSans-67" transform="translate(331.050781 0)"/>
      <use xlink:href="#DejaVuSans-20" transform="translate(394.527344 0)"/>
      <use xlink:href="#DejaVuSans-6c" transform="translate(426.314453 0)"/>
      <use xlink:href="#DejaVuSans-6f" transform="translate(454.097656 0)"/>
      <use xlink:href="#DejaVuSans-73" transform="translate(515.279297 0)"/>
      <use xlink:href="#DejaVuSans-73" transform="translate(567.378906 0)"/>
     </g>
    </g>
    <g id="line2d_75">
     <path d="M 153.293325 34.976562 
L 163.293325 34.976562 
L 173.293325 34.976562 
" style="fill: none; stroke: #e63946; stroke-width: 1.5; stroke-linecap: square"/>
    </g>
    <g id="text_15">
     <!-- Validation loss -->
     <g transform="translate(181.293325 38.476562) scale(0.1 -0.1)">
      <defs>
       <path id="DejaVuSans-56" d="M 1831 0 
L 50 4666 
L 709 4666 
L 2188 738 
L 3669 4666 
L 4325 4666 
L 2547 0 
L 1831 0 
z
" transform="scale(0.015625)"/>
       <path id="DejaVuSans-64" d="M 2906 2969 
L 2906 4863 
L 3481 4863 
L 3481 0 
L 2906 0 
L 2906 525 
Q 2725 213 2448 61 
Q 2172 -91 1784 -91 
Q 1150 -91 751 415 
Q 353 922 353 1747 
Q 353 2572 751 3078 
Q 1150 3584 1784 3584 
Q 2172 3584 2448 3432 
Q 2725 3281 2906 2969 
z
M 947 1747 
Q 947 1113 1208 752 
Q 1469 391 1925 391 
Q 2381 391 2643 752 
Q 2906 1113 2906 1747 
Q 2906 2381 2643 2742 
Q 2381 3103 1925 3103 
Q 1469 3103 1208 2742 
Q 947 2381 947 1747 
z
" transform="scale(0.015625)"/>
       <path id="DejaVuSans-74" d="M 1172 4494 
L 1172 3500 
L 2356 3500 
L 2356 3053 
L 1172 3053 
L 1172 1153 
Q 1172 725 1289 603 
Q 1406 481 1766 481 
L 2356 481 
L 2356 0 
L 1766 0 
Q 1100 0 847 248 
Q 594 497 594 1153 
L 594 3053 
L 172 3053 
L 172 3500 
L 594 3500 
L 594 4494 
L 1172 4494 
z
" transform="scale(0.015625)"/>
      </defs>
      <use xlink:href="#DejaVuSans-56"/>
      <use xlink:href="#DejaVuSans-61" transform="translate(60.658203 0)"/>
      <use xlink:href="#DejaVuSans-6c" transform="translate(121.9375 0)"/>
      <use xlink:href="#DejaVuSans-69" transform="translate(149.720703 0)"/>
      <use xlink:href="#DejaVuSans-64" transform="translate(177.503906 0)"/>
      <use xlink:href="#DejaVuSans-61" transform="translate(240.980469 0)"/>
      <use xlink:href="#DejaVuSans-74" transform="translate(302.259766 0)"/>
      <use xlink:href="#DejaVuSans-69" transform="translate(341.46875 0)"/>
      <use xlink:href="#DejaVuSans-6f" transform="translate(369.251953 0)"/>
      <use xlink:href="#DejaVuSans-6e" transform="translate(430.433594 0)"/>
      <use xlink:href="#DejaVuSans-20" transform="translate(493.8125 0)"/>
      <use xlink:href="#DejaVuSans-6c" transform="translate(525.599609 0)"/>
      <use xlink:href="#DejaVuSans-6f" transform="translate(553.382812 0)"/>
      <use xlink:href="#DejaVuSans-73" transform="translate(614.564453 0)"/>
      <use xlink:href="#DejaVuSans-73" transform="translate(666.664062 0)"/>
     </g>
    </g>
   </g>
  </g>
 </g>
 <defs>
  <clipPath id="p7ad27a099c">
   <rect x="53.31375" y="7.2" width="208.854575" height="160.36"/>
  </clipPath>
 </defs>
</svg>
