<?xml version="1.0" encoding="utf-8" standalone="no"?>
<!DOCTYPE svg PUBLIC "-//W3C//DTD SVG 1.1//EN"
  "http://www.w3.org/Graphics/SVG/1.1/DTD/svg11.dtd">
<svg xmlns:xlink="http://www.w3.org/1999/xlink" width="279.781071pt" height="206.206897pt" viewBox="0 0 279.781071 206.206897" xmlns="http://www.w3.org/2000/svg" version="1.1">
 <metadata>
  <rdf:RDF xmlns:dc="http://purl.org/dc/elements/1.1/" xmlns:cc="http://creativecommons.org/ns#" xmlns:rdf="http://www.w3.org/1999/02/22-rdf-syntax-ns#">
   <cc:Work>
    <dc:type rdf:resource="http://purl.org/dc/dcmitype/StillImage"/>
    <dc:date>2026-04-02T00:06:03.173249</dc:date>
    <dc:format>image/svg+xml</dc:format>
    <dc:creator>
     <cc:Agent>
      <dc:title>Matplotlib v3.10.3, https://matplotlib.org/</dc:title>
     </cc:Agent>
    </dc:creator>
   </cc:Work>
  </rdf:RDF>
 </metadata>
 <defs>
  <style type="text/css">*{stroke-linejoin: round; stroke-linecap: butt}</style>
 </defs>
 <g id="figure_1">
  <g id="patch_1">
   <path d="M 0 206.206897 
L 279.781071 206.206897 
L 279.781071 0 
L 0 0 
z
" style="fill: #ffffff"/>
  </g>
  <g id="axes_1">
   <g id="patch_2">
    <path d="M 51.378125 168.650647 
L 272.581071 168.650647 
L 272.581071 10.465896 
L 51.378125 10.465896 
z
" style="fill: #ffffff"/>
   </g>
   <g id="matplotlib.axis_1">
    <g id="xtick_1">
     <g id="line2d_1">
      <defs>
       <path id="m906536aa8a" d="M 0 0 
L 0 3.5 
" style="stroke: #000000; stroke-width: 0.8"/>
      </defs>
      <g>
       <use xlink:href="#m906536aa8a" x="61.432804" y="168.650647" style="stroke: #000000; stroke-width: 0.8"/>
      </g>
     </g>
     <g id="text_1">
      <!-- 0 -->
      <g transform="translate(58.251554 183.249084) scale(0.1 -0.1)">
       <defs>
        <path id="DejaVuSans-30" d="M 2034 4250 
Q 1547 4250 1301 3770 
Q 1056 3291 1056 2328 
Q 1056 1369 1301 889 
Q 1547 409 2034 409 
Q 2525 409 2770 889 
Q 3016 1369 3016 2328 
Q 3016 3291 2770 3770 
Q 2525 4250 2034 4250 
z
M 2034 4750 
Q 2819 4750 3233 4129 
Q 3647 3509 3647 2328 
Q 3647 1150 3233 529 
Q 2819 -91 2034 -91 
Q 1250 -91 836 529 
Q 422 1150 422 2328 
Q 422 3509 836 4129 
Q 1250 4750 2034 4750 
z
" transform="scale(0.015625)"/>
       </defs>
       <use xlink:href="#DejaVuSans-30"/>
      </g>
     </g>
    </g>
    <g id="xtick_2">
     <g id="line2d_2">
      <g>
       <use xlink:href="#m906536aa8a" x="115.41766" y="168.650647" style="stroke: #000000; stroke-width: 0.8"/>
      </g>
     </g>
     <g id="text_2">
      <!-- 200 -->
      <g transform="translate(105.87391 183.249084) scale(0.1 -0.1)">
       <defs>
        <path id="DejaVuSans-32" d="M 1228 531 
L 3431 531 
L 3431 0 
L 469 0 
L 469 531 
Q 828 903 1448 1529 
Q 2069 2156 2228 2338 
Q 2531 2678 2651 2914 
Q 2772 3150 2772 3378 
Q 2772 3750 2511 3984 
Q 2250 4219 1831 4219 
Q 1534 4219 1204 4116 
Q 875 4013 500 3803 
L 500 4441 
Q 881 4594 1212 4672 
Q 1544 4750 1819 4750 
Q 2544 4750 2975 4387 
Q 3406 4025 3406 3419 
Q 3406 3131 3298 2873 
Q 3191 2616 2906 2266 
Q 2828 2175 2409 1742 
Q 1991 1309 1228 531 
z
" transform="scale(0.015625)"/>
       </defs>
       <use xlink:href="#DejaVuSans-32"/>
       <use xlink:href="#DejaVuSans-30" transform="translate(63.623047 0)"/>
       <use xlink:href="#DejaVuSans-30" transform="translate(127.246094 0)"/>
      </g>
     </g>
    </g>
    <g id="xtick_3">
     <g id="line2d_3">
      <g>
       <use xlink:href="#m906536aa8a" x="169.402516" y="168.650647" style="stroke: #000000; stroke-width: 0.8"/>
      </g>
     </g>
     <g id="text_3">
      <!-- 400 -->
      <g transform="translate(159.858766 183.249084) scale(0.1 -0.1)">
       <defs>
        <path id="DejaVuSans-34" d="M 2419 4116 
L 825 1625 
L 2419 1625 
L 2419 4116 
z
M 2253 4666 
L 3047 4666 
L 3047 1625 
L 3713 1625 
L 3713 1100 
L 3047 1100 
L 3047 0 
L 2419 0 
L 2419 1100 
L 313 1100 
L 313 1709 
L 2253 4666 
z
" transform="scale(0.015625)"/>
       </defs>
       <use xlink:href="#DejaVuSans-34"/>
       <use xlink:href="#DejaVuSans-30" transform="translate(63.623047 0)"/>
       <use xlink:href="#DejaVuSans-30" transform="translate(127.246094 0)"/>
      </g>
     </g>
    </g>
    <g id="xtick_4">
     <g id="line2d_4">
      <g>
       <use xlink:href="#m906536aa8a" x="223.387371" y="168.650647" style="stroke: #000000; stroke-width: 0.8"/>
      </g>
     </g>
     <g id="text_4">
      <!-- 600 -->
      <g transform="translate(213.843621 183.249084) scale(0.1 -0.1)">
       <defs>
        <path id="DejaVuSans-36" d="M 2113 2584 
Q 1688 2584 1439 2293 
Q 1191 2003 1191 1497 
Q 1191 994 1439 701 
Q 1688 409 2113 409 
Q 2538 409 2786 701 
Q 3034 994 3034 1497 
Q 3034 2003 2786 2293 
Q 2538 2584 2113 2584 
z
M 3366 4563 
L 3366 3988 
Q 3128 4100 2886 4159 
Q 2644 4219 2406 4219 
Q 1781 4219 1451 3797 
Q 1122 3375 1075 2522 
Q 1259 2794 1537 2939 
Q 1816 3084 2150 3084 
Q 2853 3084 3261 2657 
Q 3669 2231 3669 1497 
Q 3669 778 3244 343 
Q 2819 -91 2113 -91 
Q 1303 -91 875 529 
Q 447 1150 447 2328 
Q 447 3434 972 4092 
Q 1497 4750 2381 4750 
Q 2619 4750 2861 4703 
Q 3103 4656 3366 4563 
z
" transform="scale(0.015625)"/>
       </defs>
       <use xlink:href="#DejaVuSans-36"/>
       <use xlink:href="#DejaVuSans-30" transform="translate(63.623047 0)"/>
       <use xlink:href="#DejaVuSans-30" transform="translate(127.246094 0)"/>
      </g>
     </g>
    </g>
    <g id="text_5">
     <!-- Epoch -->
     <g transform="translate(146.668661 196.927209) scale(0.1 -0.1)">
      <defs>
       <path id="DejaVuSans-45" d="M 628 4666 
L 3578 4666 
L 3578 4134 
L 1259 4134 
L 1259 2753 
L 3481 2753 
L 3481 2222 
L 1259 2222 
L 1259 531 
L 3634 531 
L 3634 0 
L 628 0 
L 628 4666 
z
" transform="scale(0.015625)"/>
       <path id="DejaVuSans-70" d="M 1159 525 
L 1159 -1331 
L 581 -1331 
L 581 3500 
L 1159 3500 
L 1159 2969 
Q 1341 3281 1617 3432 
Q 1894 3584 2278 3584 
Q 2916 3584 3314 3078 
Q 3713 2572 3713 1747 
Q 3713 922 3314 415 
Q 2916 -91 2278 -91 
Q 1894 -91 1617 61 
Q 1341 213 1159 525 
z
M 3116 1747 
Q 3116 2381 2855 2742 
Q 2594 3103 2138 3103 
Q 1681 3103 1420 2742 
Q 1159 2381 1159 1747 
Q 1159 1113 1420 752 
Q 1681 391 2138 391 
Q 2594 391 2855 752 
Q 3116 1113 3116 1747 
z
" transform="scale(0.015625)"/>
       <path id="DejaVuSans-6f" d="M 1959 3097 
Q 1497 3097 1228 2736 
Q 959 2375 959 1747 
Q 959 1119 1226 758 
Q 1494 397 1959 397 
Q 2419 397 2687 759 
Q 2956 1122 2956 1747 
Q 2956 2369 2687 2733 
Q 2419 3097 1959 3097 
z
M 1959 3584 
Q 2709 3584 3137 3096 
Q 3566 2609 3566 1747 
Q 3566 888 3137 398 
Q 2709 -91 1959 -91 
Q 1206 -91 779 398 
Q 353 888 353 1747 
Q 353 2609 779 3096 
Q 1206 3584 1959 3584 
z
" transform="scale(0.015625)"/>
       <path id="DejaVuSans-63" d="M 3122 3366 
L 3122 2828 
Q 2878 2963 2633 3030 
Q 2388 3097 2138 3097 
Q 1578 3097 1268 2742 
Q 959 2388 959 1747 
Q 959 1106 1268 751 
Q 1578 397 2138 397 
Q 2388 397 2633 464 
Q 2878 531 3122 666 
L 3122 134 
Q 2881 22 2623 -34 
Q 2366 -91 2075 -91 
Q 1284 -91 818 406 
Q 353 903 353 1747 
Q 353 2603 823 3093 
Q 1294 3584 2113 3584 
Q 2378 3584 2631 3529 
Q 2884 3475 3122 3366 
z
" transform="scale(0.015625)"/>
       <path id="DejaVuSans-68" d="M 3513 2113 
L 3513 0 
L 2938 0 
L 2938 2094 
Q 2938 2591 2744 2837 
Q 2550 3084 2163 3084 
Q 1697 3084 1428 2787 
Q 1159 2491 1159 1978 
L 1159 0 
L 581 0 
L 581 4863 
L 1159 4863 
L 1159 2956 
Q 1366 3272 1645 3428 
Q 1925 3584 2291 3584 
Q 2894 3584 3203 3211 
Q 3513 2838 3513 2113 
z
" transform="scale(0.015625)"/>
      </defs>
      <use xlink:href="#DejaVuSans-45"/>
      <use xlink:href="#DejaVuSans-70" transform="translate(63.183594 0)"/>
      <use xlink:href="#DejaVuSans-6f" transform="translate(126.660156 0)"/>
      <use xlink:href="#DejaVuSans-63" transform="translate(187.841797 0)"/>
      <use xlink:href="#DejaVuSans-68" transform="translate(242.822266 0)"/>
     </g>
    </g>
   </g>
   <g id="matplotlib.axis_2">
    <g id="ytick_1">
     <g id="line2d_5">
      <defs>
       <path id="m4d81553f5b" d="M 0 0 
L -3.5 0 
" style="stroke: #000000; stroke-width: 0.8"/>
      </defs>
      <g>
       <use xlink:href="#m4d81553f5b" x="51.378125" y="150.305883" style="stroke: #000000; stroke-width: 0.8"/>
      </g>
     </g>
     <g id="text_6">
      <!-- $\mathdefault{10^{-4}}$ -->
      <g transform="translate(20.878125 154.105101) scale(0.1 -0.1)">
       <defs>
        <path id="DejaVuSans-31" d="M 794 531 
L 1825 531 
L 1825 4091 
L 703 3866 
L 703 4441 
L 1819 4666 
L 2450 4666 
L 2450 531 
L 3481 531 
L 3481 0 
L 794 0 
L 794 531 
z
" transform="scale(0.015625)"/>
        <path id="DejaVuSans-2212" d="M 678 2272 
L 4684 2272 
L 4684 1741 
L 678 1741 
L 678 2272 
z
" transform="scale(0.015625)"/>
       </defs>
       <use xlink:href="#DejaVuSans-31" transform="translate(0 0.684375)"/>
       <use xlink:href="#DejaVuSans-30" transform="translate(63.623047 0.684375)"/>
       <use xlink:href="#DejaVuSans-2212" transform="translate(128.203125 38.965625) scale(0.7)"/>
       <use xlink:href="#DejaVuSans-34" transform="translate(186.855469 38.965625) scale(0.7)"/>
      </g>
     </g>
    </g>
    <g id="ytick_2">
     <g id="line2d_6">
      <g>
       <use xlink:href="#m4d81553f5b" x="51.378125" y="115.479217" style="stroke: #000000; stroke-width: 0.8"/>
      </g>
     </g>
     <g id="text_7">
      <!-- $\mathdefault{10^{-3}}$ -->
      <g transform="translate(20.878125 119.278435) scale(0.1 -0.1)">
       <defs>
        <path id="DejaVuSans-33" d="M 2597 2516 
Q 3050 2419 3304 2112 
Q 3559 1806 3559 1356 
Q 3559 666 3084 287 
Q 2609 -91 1734 -91 
Q 1441 -91 1130 -33 
Q 819 25 488 141 
L 488 750 
Q 750 597 1062 519 
Q 1375 441 1716 441 
Q 2309 441 2620 675 
Q 2931 909 2931 1356 
Q 2931 1769 2642 2001 
Q 2353 2234 1838 2234 
L 1294 2234 
L 1294 2753 
L 1863 2753 
Q 2328 2753 2575 2939 
Q 2822 3125 2822 3475 
Q 2822 3834 2567 4026 
Q 2313 4219 1838 4219 
Q 1578 4219 1281 4162 
Q 984 4106 628 3988 
L 628 4550 
Q 988 4650 1302 4700 
Q 1616 4750 1894 4750 
Q 2613 4750 3031 4423 
Q 3450 4097 3450 3541 
Q 3450 3153 3228 2886 
Q 3006 2619 2597 2516 
z
" transform="scale(0.015625)"/>
       </defs>
       <use xlink:href="#DejaVuSans-31" transform="translate(0 0.765625)"/>
       <use xlink:href="#DejaVuSans-30" transform="translate(63.623047 0.765625)"/>
       <use xlink:href="#DejaVuSans-2212" transform="translate(128.203125 39.046875) scale(0.7)"/>
       <use xlink:href="#DejaVuSans-33" transform="translate(186.855469 39.046875) scale(0.7)"/>
      </g>
     </g>
    </g>
    <g id="ytick_3">
     <g id="line2d_7">
      <g>
       <use xlink:href="#m4d81553f5b" x="51.378125" y="80.652551" style="stroke: #000000; stroke-width: 0.8"/>
      </g>
     </g>
     <g id="text_8">
      <!-- $\mathdefault{10^{-2}}$ -->
      <g transform="translate(20.878125 84.451769) scale(0.1 -0.1)">
       <use xlink:href="#DejaVuSans-31" transform="translate(0 0.765625)"/>
       <use xlink:href="#DejaVuSans-30" transform="translate(63.623047 0.765625)"/>
       <use xlink:href="#DejaVuSans-2212" transform="translate(128.203125 39.046875) scale(0.7)"/>
       <use xlink:href="#DejaVuSans-32" transform="translate(186.855469 39.046875) scale(0.7)"/>
      </g>
     </g>
    </g>
    <g id="ytick_4">
     <g id="line2d_8">
      <g>
       <use xlink:href="#m4d81553f5b" x="51.378125" y="45.825885" style="stroke: #000000; stroke-width: 0.8"/>
      </g>
     </g>
     <g id="text_9">
      <!-- $\mathdefault{10^{-1}}$ -->
      <g transform="translate(20.878125 49.625103) scale(0.1 -0.1)">
       <use xlink:href="#DejaVuSans-31" transform="translate(0 0.684375)"/>
       <use xlink:href="#DejaVuSans-30" transform="translate(63.623047 0.684375)"/>
       <use xlink:href="#DejaVuSans-2212" transform="translate(128.203125 38.965625) scale(0.7)"/>
       <use xlink:href="#DejaVuSans-31" transform="translate(186.855469 38.965625) scale(0.7)"/>
      </g>
     </g>
    </g>
    <g id="ytick_5">
     <g id="line2d_9">
      <g>
       <use xlink:href="#m4d81553f5b" x="51.378125" y="10.999219" style="stroke: #000000; stroke-width: 0.8"/>
      </g>
     </g>
     <g id="text_10">
      <!-- $\mathdefault{10^{0}}$ -->
      <g transform="translate(26.778125 14.798438) scale(0.1 -0.1)">
       <use xlink:href="#DejaVuSans-31" transform="translate(0 0.765625)"/>
       <use xlink:href="#DejaVuSans-30" transform="translate(63.623047 0.765625)"/>
       <use xlink:href="#DejaVuSans-30" transform="translate(128.203125 39.046875) scale(0.7)"/>
      </g>
     </g>
    </g>
    <g id="ytick_6">
     <g id="line2d_10">
      <defs>
       <path id="m68350476a4" d="M 0 0 
L -2 0 
" style="stroke: #000000; stroke-width: 0.6"/>
      </defs>
      <g>
       <use xlink:href="#m68350476a4" x="51.378125" y="168.516006" style="stroke: #000000; stroke-width: 0.6"/>
      </g>
     </g>
    </g>
    <g id="ytick_7">
     <g id="line2d_11">
      <g>
       <use xlink:href="#m68350476a4" x="51.378125" y="164.164806" style="stroke: #000000; stroke-width: 0.6"/>
      </g>
     </g>
    </g>
    <g id="ytick_8">
     <g id="line2d_12">
      <g>
       <use xlink:href="#m68350476a4" x="51.378125" y="160.789754" style="stroke: #000000; stroke-width: 0.6"/>
      </g>
     </g>
    </g>
    <g id="ytick_9">
     <g id="line2d_13">
      <g>
       <use xlink:href="#m68350476a4" x="51.378125" y="158.032135" style="stroke: #000000; stroke-width: 0.6"/>
      </g>
     </g>
    </g>
    <g id="ytick_10">
     <g id="line2d_14">
      <g>
       <use xlink:href="#m68350476a4" x="51.378125" y="155.700601" style="stroke: #000000; stroke-width: 0.6"/>
      </g>
     </g>
    </g>
    <g id="ytick_11">
     <g id="line2d_15">
      <g>
       <use xlink:href="#m68350476a4" x="51.378125" y="153.680935" style="stroke: #000000; stroke-width: 0.6"/>
      </g>
     </g>
    </g>
    <g id="ytick_12">
     <g id="line2d_16">
      <g>
       <use xlink:href="#m68350476a4" x="51.378125" y="151.899463" style="stroke: #000000; stroke-width: 0.6"/>
      </g>
     </g>
    </g>
    <g id="ytick_13">
     <g id="line2d_17">
      <g>
       <use xlink:href="#m68350476a4" x="51.378125" y="139.822012" style="stroke: #000000; stroke-width: 0.6"/>
      </g>
     </g>
    </g>
    <g id="ytick_14">
     <g id="line2d_18">
      <g>
       <use xlink:href="#m68350476a4" x="51.378125" y="133.68934" style="stroke: #000000; stroke-width: 0.6"/>
      </g>
     </g>
    </g>
    <g id="ytick_15">
     <g id="line2d_19">
      <g>
       <use xlink:href="#m68350476a4" x="51.378125" y="129.33814" style="stroke: #000000; stroke-width: 0.6"/>
      </g>
     </g>
    </g>
    <g id="ytick_16">
     <g id="line2d_20">
      <g>
       <use xlink:href="#m68350476a4" x="51.378125" y="125.963088" style="stroke: #000000; stroke-width: 0.6"/>
      </g>
     </g>
    </g>
    <g id="ytick_17">
     <g id="line2d_21">
      <g>
       <use xlink:href="#m68350476a4" x="51.378125" y="123.205469" style="stroke: #000000; stroke-width: 0.6"/>
      </g>
     </g>
    </g>
    <g id="ytick_18">
     <g id="line2d_22">
      <g>
       <use xlink:href="#m68350476a4" x="51.378125" y="120.873935" style="stroke: #000000; stroke-width: 0.6"/>
      </g>
     </g>
    </g>
    <g id="ytick_19">
     <g id="line2d_23">
      <g>
       <use xlink:href="#m68350476a4" x="51.378125" y="118.854269" style="stroke: #000000; stroke-width: 0.6"/>
      </g>
     </g>
    </g>
    <g id="ytick_20">
     <g id="line2d_24">
      <g>
       <use xlink:href="#m68350476a4" x="51.378125" y="117.072798" style="stroke: #000000; stroke-width: 0.6"/>
      </g>
     </g>
    </g>
    <g id="ytick_21">
     <g id="line2d_25">
      <g>
       <use xlink:href="#m68350476a4" x="51.378125" y="104.995346" style="stroke: #000000; stroke-width: 0.6"/>
      </g>
     </g>
    </g>
    <g id="ytick_22">
     <g id="line2d_26">
      <g>
       <use xlink:href="#m68350476a4" x="51.378125" y="98.862674" style="stroke: #000000; stroke-width: 0.6"/>
      </g>
     </g>
    </g>
    <g id="ytick_23">
     <g id="line2d_27">
      <g>
       <use xlink:href="#m68350476a4" x="51.378125" y="94.511474" style="stroke: #000000; stroke-width: 0.6"/>
      </g>
     </g>
    </g>
    <g id="ytick_24">
     <g id="line2d_28">
      <g>
       <use xlink:href="#m68350476a4" x="51.378125" y="91.136422" style="stroke: #000000; stroke-width: 0.6"/>
      </g>
     </g>
    </g>
    <g id="ytick_25">
     <g id="line2d_29">
      <g>
       <use xlink:href="#m68350476a4" x="51.378125" y="88.378803" style="stroke: #000000; stroke-width: 0.6"/>
      </g>
     </g>
    </g>
    <g id="ytick_26">
     <g id="line2d_30">
      <g>
       <use xlink:href="#m68350476a4" x="51.378125" y="86.04727" style="stroke: #000000; stroke-width: 0.6"/>
      </g>
     </g>
    </g>
    <g id="ytick_27">
     <g id="line2d_31">
      <g>
       <use xlink:href="#m68350476a4" x="51.378125" y="84.027603" style="stroke: #000000; stroke-width: 0.6"/>
      </g>
     </g>
    </g>
    <g id="ytick_28">
     <g id="line2d_32">
      <g>
       <use xlink:href="#m68350476a4" x="51.378125" y="82.246132" style="stroke: #000000; stroke-width: 0.6"/>
      </g>
     </g>
    </g>
    <g id="ytick_29">
     <g id="line2d_33">
      <g>
       <use xlink:href="#m68350476a4" x="51.378125" y="70.16868" style="stroke: #000000; stroke-width: 0.6"/>
      </g>
     </g>
    </g>
    <g id="ytick_30">
     <g id="line2d_34">
      <g>
       <use xlink:href="#m68350476a4" x="51.378125" y="64.036008" style="stroke: #000000; stroke-width: 0.6"/>
      </g>
     </g>
    </g>
    <g id="ytick_31">
     <g id="line2d_35">
      <g>
       <use xlink:href="#m68350476a4" x="51.378125" y="59.684808" style="stroke: #000000; stroke-width: 0.6"/>
      </g>
     </g>
    </g>
    <g id="ytick_32">
     <g id="line2d_36">
      <g>
       <use xlink:href="#m68350476a4" x="51.378125" y="56.309756" style="stroke: #000000; stroke-width: 0.6"/>
      </g>
     </g>
    </g>
    <g id="ytick_33">
     <g id="line2d_37">
      <g>
       <use xlink:href="#m68350476a4" x="51.378125" y="53.552137" style="stroke: #000000; stroke-width: 0.6"/>
      </g>
     </g>
    </g>
    <g id="ytick_34">
     <g id="line2d_38">
      <g>
       <use xlink:href="#m68350476a4" x="51.378125" y="51.220604" style="stroke: #000000; stroke-width: 0.6"/>
      </g>
     </g>
    </g>
    <g id="ytick_35">
     <g id="line2d_39">
      <g>
       <use xlink:href="#m68350476a4" x="51.378125" y="49.200937" style="stroke: #000000; stroke-width: 0.6"/>
      </g>
     </g>
    </g>
    <g id="ytick_36">
     <g id="line2d_40">
      <g>
       <use xlink:href="#m68350476a4" x="51.378125" y="47.419466" style="stroke: #000000; stroke-width: 0.6"/>
      </g>
     </g>
    </g>
    <g id="ytick_37">
     <g id="line2d_41">
      <g>
       <use xlink:href="#m68350476a4" x="51.378125" y="35.342014" style="stroke: #000000; stroke-width: 0.6"/>
      </g>
     </g>
    </g>
    <g id="ytick_38">
     <g id="line2d_42">
      <g>
       <use xlink:href="#m68350476a4" x="51.378125" y="29.209342" style="stroke: #000000; stroke-width: 0.6"/>
      </g>
     </g>
    </g>
    <g id="ytick_39">
     <g id="line2d_43">
      <g>
       <use xlink:href="#m68350476a4" x="51.378125" y="24.858143" style="stroke: #000000; stroke-width: 0.6"/>
      </g>
     </g>
    </g>
    <g id="ytick_40">
     <g id="line2d_44">
      <g>
       <use xlink:href="#m68350476a4" x="51.378125" y="21.48309" style="stroke: #000000; stroke-width: 0.6"/>
      </g>
     </g>
    </g>
    <g id="ytick_41">
     <g id="line2d_45">
      <g>
       <use xlink:href="#m68350476a4" x="51.378125" y="18.725471" style="stroke: #000000; stroke-width: 0.6"/>
      </g>
     </g>
    </g>
    <g id="ytick_42">
     <g id="line2d_46">
      <g>
       <use xlink:href="#m68350476a4" x="51.378125" y="16.393938" style="stroke: #000000; stroke-width: 0.6"/>
      </g>
     </g>
    </g>
    <g id="ytick_43">
     <g id="line2d_47">
      <g>
       <use xlink:href="#m68350476a4" x="51.378125" y="14.374271" style="stroke: #000000; stroke-width: 0.6"/>
      </g>
     </g>
    </g>
    <g id="ytick_44">
     <g id="line2d_48">
      <g>
       <use xlink:href="#m68350476a4" x="51.378125" y="12.5928" style="stroke: #000000; stroke-width: 0.6"/>
      </g>
     </g>
    </g>
    <g id="text_11">
     <!-- Loss -->
     <g transform="translate(14.798438 100.525459) rotate(-90) scale(0.1 -0.1)">
      <defs>
       <path id="DejaVuSans-4c" d="M 628 4666 
L 1259 4666 
L 1259 531 
L 3531 531 
L 3531 0 
L 628 0 
L 628 4666 
z
" transform="scale(0.015625)"/>
       <path id="DejaVuSans-73" d="M 2834 3397 
L 2834 2853 
Q 2591 2978 2328 3040 
Q 2066 3103 1784 3103 
Q 1356 3103 1142 2972 
Q 928 2841 928 2578 
Q 928 2378 1081 2264 
Q 1234 2150 1697 2047 
L 1894 2003 
Q 2506 1872 2764 1633 
Q 3022 1394 3022 966 
Q 3022 478 2636 193 
Q 2250 -91 1575 -91 
Q 1294 -91 989 -36 
Q 684 19 347 128 
L 347 722 
Q 666 556 975 473 
Q 1284 391 1588 391 
Q 1994 391 2212 530 
Q 2431 669 2431 922 
Q 2431 1156 2273 1281 
Q 2116 1406 1581 1522 
L 1381 1569 
Q 847 1681 609 1914 
Q 372 2147 372 2553 
Q 372 3047 722 3315 
Q 1072 3584 1716 3584 
Q 2034 3584 2315 3537 
Q 2597 3491 2834 3397 
z
" transform="scale(0.015625)"/>
      </defs>
      <use xlink:href="#DejaVuSans-4c"/>
      <use xlink:href="#DejaVuSans-6f" transform="translate(53.962891 0)"/>
      <use xlink:href="#DejaVuSans-73" transform="translate(115.144531 0)"/>
      <use xlink:href="#DejaVuSans-73" transform="translate(167.244141 0)"/>
     </g>
    </g>
   </g>
   <g id="line2d_49">
    <path d="M 61.432804 17.656112 
L 61.702729 59.634082 
L 61.972653 78.210125 
L 62.512501 89.391741 
L 63.322274 98.507557 
L 64.401971 104.879518 
L 65.211744 108.681316 
L 65.481669 109.195685 
L 66.021517 111.618199 
L 66.291441 111.39847 
L 66.83129 113.775532 
L 67.101214 114.027579 
L 67.371138 115.276983 
L 67.641063 114.836664 
L 67.910987 116.224012 
L 68.450836 117.690354 
L 68.990684 117.854413 
L 69.260608 118.866044 
L 69.530533 119.303625 
L 70.340306 121.999525 
L 70.880154 120.092818 
L 71.150078 122.533524 
L 71.420003 122.350887 
L 71.689927 123.366491 
L 71.959851 121.170207 
L 72.229776 123.437182 
L 72.769624 125.433092 
L 73.309473 126.043901 
L 73.579397 125.535572 
L 73.849321 124.161441 
L 74.119245 124.956728 
L 74.38917 128.624982 
L 74.659094 127.768142 
L 74.929018 128.184174 
L 75.198943 127.137013 
L 75.468867 129.654892 
L 76.008715 127.713905 
L 76.27864 128.432258 
L 76.548564 125.56338 
L 76.818488 129.93535 
L 77.088413 128.029954 
L 77.358337 127.747442 
L 77.898185 130.002981 
L 78.707958 132.830253 
L 78.977882 131.354488 
L 79.247807 132.198248 
L 79.517731 130.576748 
L 79.787655 132.695383 
L 80.05758 128.080988 
L 80.327504 134.253673 
L 80.597428 130.562285 
L 80.867352 131.100727 
L 81.137277 132.029901 
L 81.407201 133.785378 
L 81.677125 131.633525 
L 82.216974 133.682336 
L 82.486898 134.134296 
L 82.756822 133.07063 
L 83.026747 135.791241 
L 83.296671 134.282129 
L 83.566595 134.625788 
L 83.836519 134.094492 
L 84.106444 134.3069 
L 84.646292 132.56719 
L 84.916217 135.951044 
L 85.186141 134.847343 
L 85.456065 132.396969 
L 85.725989 136.315303 
L 85.995914 134.287597 
L 86.265838 134.5078 
L 86.535762 137.150348 
L 86.805687 135.067317 
L 87.075611 135.202951 
L 87.345535 135.025125 
L 87.615459 136.973467 
L 87.885384 137.490573 
L 88.155308 137.52375 
L 88.425232 136.230744 
L 88.695156 136.625967 
L 88.965081 137.642415 
L 89.504929 135.992065 
L 89.774854 134.455333 
L 90.044778 137.453722 
L 90.314702 137.748929 
L 90.584626 131.512751 
L 90.854551 135.997904 
L 91.124475 135.580958 
L 91.394399 138.567001 
L 91.664324 138.677969 
L 91.934248 139.566107 
L 92.474096 136.277929 
L 92.744021 141.161081 
L 93.013945 137.343322 
L 93.553793 140.981739 
L 94.093642 140.540008 
L 94.363566 134.17526 
L 94.633491 141.076482 
L 94.903415 130.033731 
L 95.173339 138.716997 
L 95.443263 140.79163 
L 95.983112 142.82366 
L 96.253036 139.027175 
L 96.522961 131.84705 
L 96.792885 140.720501 
L 97.062809 141.222057 
L 97.332733 142.789139 
L 97.602658 138.458704 
L 98.142506 144.488778 
L 98.41243 142.358071 
L 98.682355 138.850404 
L 98.952279 141.539983 
L 99.222203 140.390278 
L 99.492128 142.641615 
L 99.762052 139.444151 
L 100.031976 134.383482 
L 100.3019 137.431757 
L 100.571825 138.049781 
L 100.841749 143.07623 
L 101.111673 137.010623 
L 101.381598 145.073019 
L 101.651522 140.72648 
L 101.921446 143.028692 
L 102.19137 140.521163 
L 102.461295 145.108845 
L 102.731219 143.277745 
L 103.001143 138.358683 
L 103.271068 146.280665 
L 103.540992 141.261758 
L 103.810916 143.910811 
L 104.08084 145.407212 
L 104.350765 141.374436 
L 104.620689 143.92334 
L 105.160537 140.308749 
L 105.430462 143.070185 
L 105.700386 140.732125 
L 105.97031 142.183497 
L 106.240235 137.096119 
L 106.510159 143.780066 
L 106.780083 145.045912 
L 107.319932 140.871315 
L 107.589856 144.038134 
L 107.85978 144.178936 
L 108.129705 143.165084 
L 108.399629 143.816332 
L 108.669553 146.241273 
L 108.939477 143.790904 
L 109.209402 150.07606 
L 109.479326 150.64577 
L 109.74925 152.251964 
L 110.019174 151.580806 
L 110.289099 149.34459 
L 110.559023 149.956658 
L 111.098872 150.369001 
L 111.368796 151.004617 
L 111.63872 149.04446 
L 111.908644 150.676655 
L 112.178569 150.907509 
L 112.448493 150.615497 
L 112.718417 150.635241 
L 112.988342 151.146452 
L 113.52819 149.888981 
L 113.798114 149.337356 
L 114.068039 150.586295 
L 114.337963 150.348945 
L 114.607887 148.751508 
L 114.877811 149.345988 
L 115.147736 150.787245 
L 115.41766 150.034215 
L 115.687584 152.021009 
L 115.957509 147.880315 
L 116.227433 150.52614 
L 116.497357 148.36363 
L 116.767281 150.180602 
L 117.037206 150.909997 
L 117.30713 151.055555 
L 117.577054 150.627962 
L 117.846979 151.003308 
L 118.116903 150.557314 
L 118.386827 148.355084 
L 118.656751 150.736565 
L 118.926676 149.955864 
L 119.1966 150.595315 
L 119.466524 145.335691 
L 119.736448 151.723579 
L 120.006373 152.278669 
L 120.276297 150.499342 
L 120.546221 151.952852 
L 120.816146 152.528934 
L 121.08607 147.87674 
L 121.355994 150.119471 
L 121.625918 147.934494 
L 121.895843 149.756429 
L 122.165767 152.764746 
L 122.435691 151.35276 
L 122.705616 152.003153 
L 122.97554 151.05143 
L 123.515388 154.434808 
L 124.055237 155.053709 
L 124.325161 156.136708 
L 124.595085 155.81246 
L 124.86501 155.268013 
L 125.134934 155.114425 
L 125.404858 154.822238 
L 125.944707 153.566962 
L 126.214631 155.162364 
L 126.484555 155.525962 
L 126.75448 155.555734 
L 127.024404 153.276784 
L 127.294328 153.485692 
L 127.564253 155.422424 
L 127.834177 154.701705 
L 128.104101 153.591279 
L 128.374025 155.165235 
L 128.64395 155.348137 
L 128.913874 154.317631 
L 129.183798 154.740095 
L 129.453723 155.791216 
L 129.993571 154.305853 
L 130.263495 153.874955 
L 130.53342 155.467064 
L 130.803344 155.53285 
L 131.073268 156.126456 
L 131.343192 153.192878 
L 131.613117 155.451987 
L 131.883041 156.059901 
L 132.152965 154.749372 
L 132.42289 155.982896 
L 132.962738 155.025571 
L 133.232662 154.410712 
L 133.502587 155.441092 
L 133.772511 155.30809 
L 134.042435 154.48482 
L 134.31236 155.729775 
L 134.582284 154.584928 
L 134.852208 154.493573 
L 135.122132 154.669854 
L 135.392057 155.057822 
L 135.661981 155.127242 
L 135.931905 154.902705 
L 136.201829 156.001555 
L 136.741678 155.552132 
L 137.011602 154.858371 
L 137.281527 154.760249 
L 137.551451 157.915502 
L 137.821375 158.194631 
L 138.091299 157.904933 
L 138.361224 157.840308 
L 138.631148 157.567199 
L 138.901072 157.078914 
L 139.170997 157.419823 
L 139.440921 158.123875 
L 139.710845 157.666528 
L 139.980769 157.973313 
L 140.250694 157.544876 
L 140.520618 157.709805 
L 140.790542 156.961959 
L 141.060466 157.88228 
L 141.330391 157.364211 
L 141.600315 157.646897 
L 141.870239 158.095088 
L 142.140164 157.741072 
L 142.410088 157.866339 
L 142.680012 157.388844 
L 142.949936 157.662269 
L 143.489785 157.688696 
L 143.759709 157.405033 
L 144.029634 158.062879 
L 144.299558 157.997678 
L 144.569482 157.286692 
L 144.839406 157.528559 
L 145.109331 157.442485 
L 145.379255 157.951322 
L 145.649179 157.439567 
L 145.919103 157.81826 
L 146.189028 156.714319 
L 146.458952 157.920493 
L 146.728876 158.146487 
L 146.998801 157.982115 
L 147.268725 158.253774 
L 147.538649 157.728367 
L 147.808573 158.355285 
L 148.078498 157.529792 
L 148.348422 158.095533 
L 148.618346 157.893209 
L 148.888271 157.082435 
L 149.158195 158.005346 
L 149.698043 158.484281 
L 149.967968 157.635504 
L 150.507816 157.767577 
L 150.77774 158.608209 
L 151.047665 157.171919 
L 151.317589 157.113741 
L 151.587513 158.203283 
L 151.857438 156.989649 
L 152.127362 157.954105 
L 152.397286 157.798951 
L 152.66721 158.282437 
L 152.937135 159.425955 
L 153.476983 159.678463 
L 153.746908 159.56615 
L 154.016832 159.577098 
L 154.55668 159.19854 
L 154.826605 159.267952 
L 155.366453 159.663149 
L 155.636378 158.771103 
L 156.176226 159.650388 
L 156.44615 159.265457 
L 156.716075 159.634219 
L 156.985999 159.378933 
L 157.255923 159.471769 
L 157.795772 159.287115 
L 158.065696 159.664317 
L 158.33562 159.116405 
L 158.605545 159.339335 
L 158.875469 159.126193 
L 159.145393 158.749027 
L 159.415317 159.22999 
L 159.685242 159.404411 
L 160.495015 159.170862 
L 160.764939 159.698116 
L 161.034863 159.284851 
L 161.304787 159.399629 
L 161.574712 159.650087 
L 161.844636 159.592669 
L 162.11456 159.223166 
L 162.384484 159.333428 
L 162.654409 159.076818 
L 162.924333 159.534789 
L 163.194257 158.999705 
L 163.464182 159.115183 
L 163.734106 159.427093 
L 164.00403 159.543973 
L 164.273954 159.478542 
L 164.543879 158.694449 
L 164.813803 159.339005 
L 165.353652 159.887909 
L 165.623576 159.370085 
L 165.8935 159.503429 
L 166.163424 159.257301 
L 166.703273 159.244875 
L 166.973197 159.577756 
L 167.243121 159.433818 
L 167.513046 159.49245 
L 167.78297 159.943256 
L 168.052894 160.126909 
L 168.322819 160.445503 
L 168.592743 160.300764 
L 168.862667 160.568632 
L 169.67244 160.06497 
L 169.942364 160.399844 
L 170.212289 160.207685 
L 170.482213 160.494422 
L 171.022061 160.263889 
L 171.291986 160.506347 
L 171.56191 159.96817 
L 171.831834 160.298566 
L 172.371683 159.92445 
L 172.641607 160.314746 
L 172.911531 160.182125 
L 173.45138 160.422035 
L 173.721304 160.316429 
L 173.991228 160.053226 
L 174.261153 160.736255 
L 176.150623 160.677666 
L 176.690471 160.688857 
L 177.23032 160.571791 
L 178.040093 160.791013 
L 179.659638 160.799161 
L 180.199487 160.699512 
L 180.739335 160.758752 
L 181.279184 161.011197 
L 181.819033 161.000679 
L 183.168654 160.904729 
L 184.248351 160.992 
L 185.328048 160.889678 
L 187.217518 160.988464 
L 188.567139 160.956171 
L 188.837064 161.031598 
L 189.646837 160.997691 
L 190.456609 161.02376 
L 190.726534 160.929705 
L 191.266382 161.008376 
L 191.806231 160.90652 
L 192.616004 161.024315 
L 197.744565 161.051203 
L 198.014489 160.926305 
L 198.824262 161.060401 
L 199.364111 161.014021 
L 200.173883 161.069629 
L 201.793429 161.069647 
L 202.333278 160.967583 
L 202.873126 160.996986 
L 203.682899 160.97477 
L 204.222748 161.021016 
L 205.03252 161.051053 
L 206.382142 161.030863 
L 209.621233 161.06111 
L 210.431006 161.045092 
L 210.970855 161.129606 
L 211.240779 161.041019 
L 211.510703 161.092657 
L 211.780627 161.027597 
L 212.320476 161.105861 
L 212.860325 161.03265 
L 213.130249 161.142268 
L 215.289643 161.114432 
L 216.099416 161.128216 
L 216.639264 161.085245 
L 217.179113 161.092739 
L 217.718962 161.100092 
L 217.988886 161.169305 
L 218.528734 161.151982 
L 220.14828 161.096241 
L 220.958053 161.101323 
L 221.767826 161.153358 
L 224.197144 161.099601 
L 224.467068 161.287363 
L 227.70616 161.294004 
L 228.246008 161.311259 
L 229.865554 161.269801 
L 230.675327 161.289598 
L 231.4851 161.292209 
L 232.564797 161.286898 
L 234.994115 161.315153 
L 236.343737 161.341384 
L 237.693358 161.372306 
L 237.963282 161.321826 
L 238.503131 161.38201 
L 239.852752 161.342443 
L 241.472298 161.363681 
L 258.477528 161.441654 
L 259.827149 161.449679 
L 262.526392 161.457914 
L 262.526392 161.457914 
" clip-path="url(#pbec80c7983)" style="fill: none; stroke: #1d3557; stroke-width: 1.5; stroke-linecap: square"/>
   </g>
   <g id="line2d_50">
    <path d="M 61.432804 47.034445 
L 61.702729 72.710107 
L 61.972653 82.121573 
L 62.512501 90.714612 
L 62.782426 90.599427 
L 63.05235 95.968859 
L 63.322274 97.631485 
L 63.592199 100.98564 
L 63.862123 100.823173 
L 64.401971 103.917717 
L 64.94182 107.842412 
L 65.211744 104.43405 
L 65.481669 109.108134 
L 65.751593 109.962101 
L 66.021517 109.951093 
L 66.291441 107.381421 
L 66.561366 110.129048 
L 66.83129 111.369884 
L 67.101214 112.070316 
L 67.371138 109.252071 
L 67.641063 113.096528 
L 68.180911 111.809625 
L 68.450836 114.110918 
L 68.72076 115.329173 
L 69.260608 119.584616 
L 69.530533 118.109636 
L 69.800457 119.291371 
L 70.070381 118.922597 
L 70.340306 120.903219 
L 70.61023 119.740777 
L 70.880154 116.205996 
L 71.150078 122.025559 
L 71.420003 120.698571 
L 71.689927 115.346529 
L 71.959851 118.963497 
L 72.229776 116.467937 
L 72.769624 125.170858 
L 73.039548 124.258982 
L 73.309473 123.842083 
L 73.579397 121.484454 
L 73.849321 116.019297 
L 74.119245 125.774828 
L 74.38917 126.118663 
L 74.659094 123.383226 
L 74.929018 127.539019 
L 75.198943 125.817464 
L 75.738791 127.017937 
L 76.008715 126.240264 
L 76.27864 128.59837 
L 76.548564 127.471914 
L 76.818488 124.885809 
L 77.088413 112.605164 
L 77.358337 128.872761 
L 77.628261 127.997374 
L 77.898185 125.547442 
L 78.16811 129.792366 
L 78.438034 129.719334 
L 78.707958 124.9816 
L 78.977882 132.809657 
L 79.247807 120.031144 
L 79.517731 132.251167 
L 79.787655 132.649264 
L 80.05758 132.162273 
L 80.327504 132.207139 
L 80.597428 127.710448 
L 80.867352 131.240181 
L 81.137277 132.105012 
L 81.407201 131.031485 
L 81.677125 125.577378 
L 81.94705 132.499571 
L 82.216974 129.861753 
L 82.486898 125.833096 
L 82.756822 132.042138 
L 83.026747 134.449941 
L 83.296671 133.488332 
L 83.566595 119.044315 
L 83.836519 129.712175 
L 84.106444 131.394926 
L 84.376368 133.836886 
L 84.646292 132.275834 
L 84.916217 129.651327 
L 85.186141 136.991901 
L 85.456065 126.939084 
L 85.725989 133.234001 
L 85.995914 125.407783 
L 86.265838 136.318596 
L 86.535762 124.18925 
L 86.805687 133.383294 
L 87.075611 134.619196 
L 87.345535 132.495125 
L 87.615459 131.814674 
L 87.885384 135.742517 
L 88.155308 129.716387 
L 88.425232 137.013392 
L 88.695156 128.200954 
L 88.965081 136.655964 
L 89.235005 128.838895 
L 89.774854 133.84468 
L 90.044778 137.099918 
L 90.314702 132.098322 
L 90.584626 132.114777 
L 90.854551 127.583699 
L 91.124475 134.548212 
L 91.394399 138.201282 
L 91.664324 136.245749 
L 91.934248 138.233666 
L 92.204172 133.963155 
L 92.474096 131.838441 
L 92.744021 138.479787 
L 93.013945 127.111546 
L 93.283869 131.547063 
L 93.553793 140.624708 
L 93.823718 139.381155 
L 94.093642 141.791094 
L 94.633491 132.889704 
L 94.903415 139.344542 
L 95.173339 134.644365 
L 95.443263 139.080702 
L 95.713188 139.219899 
L 95.983112 137.679539 
L 96.253036 134.207583 
L 96.522961 137.045347 
L 96.792885 137.96847 
L 97.062809 142.06571 
L 97.332733 133.742435 
L 97.602658 140.274981 
L 97.872582 140.992405 
L 98.142506 137.880292 
L 98.41243 140.066727 
L 98.682355 139.817281 
L 98.952279 138.177 
L 99.222203 142.458869 
L 99.492128 141.37926 
L 100.031976 125.192116 
L 100.3019 126.128995 
L 100.571825 141.372478 
L 100.841749 131.023179 
L 101.381598 142.423439 
L 101.921446 136.11508 
L 102.19137 141.991308 
L 102.461295 140.569358 
L 102.731219 131.642314 
L 103.001143 141.148575 
L 103.271068 145.197491 
L 103.540992 142.192685 
L 103.810916 144.462644 
L 104.08084 134.708219 
L 104.350765 142.538555 
L 104.620689 133.314797 
L 104.890613 143.774833 
L 105.160537 139.628383 
L 105.430462 130.906718 
L 105.700386 138.625514 
L 105.97031 125.917441 
L 106.240235 140.79652 
L 106.510159 144.006683 
L 106.780083 141.219186 
L 107.050007 141.642532 
L 107.319932 138.701478 
L 107.589856 144.773558 
L 107.85978 141.558797 
L 108.129705 141.856587 
L 108.399629 141.256039 
L 108.669553 142.887038 
L 108.939477 136.16092 
L 109.209402 146.022082 
L 109.479326 145.782756 
L 109.74925 145.988218 
L 110.019174 145.292651 
L 110.559023 142.214886 
L 110.828947 145.612441 
L 111.098872 144.585127 
L 111.368796 145.681169 
L 111.63872 142.990994 
L 112.178569 147.032007 
L 112.448493 146.153498 
L 112.718417 146.198997 
L 112.988342 140.697237 
L 113.258266 145.268991 
L 113.798114 147.710403 
L 114.337963 145.121647 
L 114.877811 145.236122 
L 115.147736 147.691506 
L 115.687584 146.266512 
L 115.957509 140.667371 
L 116.227433 144.664195 
L 116.497357 145.221131 
L 116.767281 146.623734 
L 117.037206 146.819679 
L 117.30713 145.613137 
L 117.577054 148.667657 
L 117.846979 146.742328 
L 118.116903 142.483498 
L 118.386827 146.06671 
L 118.656751 143.568699 
L 118.926676 147.583781 
L 119.466524 139.754248 
L 119.736448 146.016593 
L 120.006373 143.862886 
L 120.276297 145.953905 
L 120.546221 146.938917 
L 120.816146 143.819296 
L 121.08607 143.866942 
L 121.355994 143.566776 
L 121.625918 140.935964 
L 121.895843 147.414219 
L 122.165767 148.367151 
L 122.435691 148.005802 
L 122.705616 148.436958 
L 122.97554 146.547505 
L 123.245464 145.876272 
L 123.515388 148.775355 
L 123.785313 148.018423 
L 124.325161 149.785613 
L 124.595085 149.52027 
L 124.86501 149.774458 
L 125.134934 149.155691 
L 125.404858 149.404046 
L 125.674783 147.896343 
L 125.944707 149.443963 
L 126.214631 149.902224 
L 126.484555 148.421175 
L 126.75448 148.131188 
L 127.024404 148.228271 
L 127.294328 144.767575 
L 127.564253 148.200958 
L 127.834177 149.335778 
L 128.374025 145.781006 
L 128.64395 148.490405 
L 128.913874 147.790883 
L 129.183798 150.276709 
L 129.453723 149.26812 
L 129.723647 148.877414 
L 129.993571 149.786779 
L 130.53342 146.426135 
L 130.803344 149.267318 
L 131.073268 148.767086 
L 131.343192 147.719352 
L 131.613117 150.660066 
L 131.883041 150.052759 
L 132.152965 147.37055 
L 132.42289 149.79626 
L 132.692814 148.160051 
L 132.962738 149.5895 
L 133.232662 146.099341 
L 133.502587 146.218229 
L 133.772511 149.619848 
L 134.042435 150.413031 
L 134.31236 148.29395 
L 134.582284 149.177984 
L 134.852208 149.596736 
L 135.122132 147.135965 
L 135.392057 148.178244 
L 135.661981 150.054001 
L 135.931905 149.281313 
L 136.201829 149.025897 
L 136.471754 149.030748 
L 137.011602 149.290183 
L 137.281527 148.031382 
L 137.551451 150.449418 
L 137.821375 150.93853 
L 138.091299 150.614355 
L 138.361224 150.912014 
L 138.631148 150.436725 
L 138.901072 151.119924 
L 139.170997 151.106498 
L 139.440921 151.393785 
L 139.710845 150.172244 
L 139.980769 151.532692 
L 140.250694 150.660238 
L 140.520618 150.174203 
L 140.790542 150.351707 
L 141.060466 150.006617 
L 141.330391 150.341831 
L 141.600315 151.301858 
L 141.870239 150.962734 
L 142.140164 151.718524 
L 142.410088 151.036649 
L 142.680012 151.065775 
L 142.949936 150.967216 
L 143.219861 149.866961 
L 143.489785 149.751343 
L 143.759709 150.440045 
L 144.029634 150.590083 
L 144.299558 151.244557 
L 144.569482 151.504218 
L 144.839406 151.016311 
L 145.109331 151.047359 
L 145.379255 150.668067 
L 145.649179 150.98656 
L 145.919103 150.935449 
L 146.189028 150.770908 
L 146.458952 150.171706 
L 146.728876 150.597562 
L 146.998801 151.777003 
L 147.268725 149.287853 
L 147.538649 151.777374 
L 147.808573 151.432595 
L 148.078498 150.703932 
L 148.348422 150.626076 
L 148.618346 150.287722 
L 148.888271 150.62083 
L 149.158195 150.324828 
L 149.428119 151.64415 
L 149.698043 150.273673 
L 149.967968 150.886802 
L 150.237892 149.634338 
L 150.507816 151.30012 
L 150.77774 151.380689 
L 151.047665 150.568813 
L 151.317589 151.44938 
L 151.587513 150.419476 
L 151.857438 151.238433 
L 152.127362 150.698086 
L 152.397286 151.61941 
L 152.66721 150.999532 
L 152.937135 151.89945 
L 153.207059 151.246549 
L 153.746908 152.359269 
L 154.016832 152.224934 
L 154.286756 151.47126 
L 154.55668 152.210382 
L 154.826605 151.613854 
L 155.096529 152.319912 
L 155.366453 151.861338 
L 155.636378 150.341133 
L 155.906302 152.376667 
L 156.716075 151.437308 
L 156.985999 152.222582 
L 157.255923 151.947781 
L 157.525847 151.907893 
L 157.795772 152.305005 
L 158.065696 151.820958 
L 158.605545 152.335063 
L 158.875469 151.255995 
L 159.145393 152.190224 
L 159.415317 150.834546 
L 159.685242 151.155245 
L 159.955166 152.019003 
L 160.22509 152.254831 
L 160.495015 152.036423 
L 160.764939 152.218149 
L 161.034863 151.83614 
L 161.304787 151.886982 
L 161.574712 152.577966 
L 161.844636 152.304562 
L 162.11456 152.669873 
L 162.384484 152.005373 
L 162.654409 152.268992 
L 163.464182 152.341171 
L 163.734106 152.646166 
L 164.273954 151.553689 
L 164.543879 150.553616 
L 164.813803 152.255975 
L 165.083727 152.521373 
L 165.353652 151.936277 
L 165.623576 152.497077 
L 165.8935 152.385816 
L 166.433349 151.388458 
L 166.973197 152.354604 
L 167.243121 152.021066 
L 167.513046 152.663558 
L 167.78297 152.268764 
L 168.052894 152.756343 
L 168.322819 152.891088 
L 168.592743 152.393967 
L 168.862667 152.746502 
L 169.402516 152.668566 
L 169.67244 152.777857 
L 169.942364 152.622167 
L 170.482213 152.77687 
L 170.752137 152.536461 
L 171.291986 152.492106 
L 171.56191 151.741735 
L 171.831834 152.564026 
L 172.101758 152.115958 
L 172.371683 152.354795 
L 172.641607 152.788356 
L 172.911531 152.72598 
L 173.181456 152.821428 
L 173.45138 152.55125 
L 173.721304 152.080532 
L 173.991228 152.065017 
L 174.261153 152.758637 
L 175.070926 153.07103 
L 175.34085 152.935712 
L 175.610774 153.024046 
L 175.880698 152.820952 
L 176.150623 153.009613 
L 176.420547 152.816928 
L 176.690471 152.834626 
L 176.960395 152.671144 
L 177.23032 152.894129 
L 177.500244 152.666819 
L 177.770168 152.903825 
L 178.310017 153.004852 
L 179.389714 152.822476 
L 179.659638 153.060642 
L 179.929563 152.921435 
L 180.199487 152.554039 
L 180.469411 153.034046 
L 180.739335 152.94186 
L 181.00926 153.078872 
L 181.549108 153.060853 
L 182.088957 153.075447 
L 182.358881 152.994964 
L 182.628805 153.060668 
L 182.89873 152.99598 
L 183.168654 153.065756 
L 184.7882 152.82088 
L 185.058124 153.039276 
L 185.328048 152.946956 
L 185.597972 153.027232 
L 185.867897 152.948722 
L 186.407745 153.106151 
L 186.947594 153.043868 
L 187.757367 153.094199 
L 188.027291 152.91871 
L 188.297215 153.105147 
L 189.106988 153.035743 
L 189.376912 153.112639 
L 189.916761 153.009429 
L 190.186685 153.079242 
L 190.456609 152.906112 
L 190.996458 153.008696 
L 191.806231 152.922385 
L 192.076155 153.054064 
L 192.885928 152.89892 
L 193.155852 153.102176 
L 193.695701 153.025198 
L 193.965625 152.942912 
L 195.045322 153.160191 
L 195.315246 153.058134 
L 196.125019 153.15421 
L 197.204716 153.000796 
L 197.474641 152.866077 
L 197.744565 153.088976 
L 198.014489 153.138532 
L 198.554338 152.892438 
L 198.824262 153.13501 
L 199.094186 152.973307 
L 199.364111 153.146562 
L 199.634035 153.091592 
L 199.903959 153.157729 
L 200.173883 153.032164 
L 201.523505 153.119759 
L 202.333278 152.766204 
L 202.603202 153.197851 
L 202.873126 152.965236 
L 203.14305 152.930233 
L 203.412975 153.142142 
L 203.682899 153.062539 
L 204.492672 153.162051 
L 204.762596 153.074695 
L 205.302445 153.153023 
L 205.572369 153.083708 
L 205.842293 153.173291 
L 206.382142 152.946746 
L 206.652066 153.217037 
L 207.461839 153.185739 
L 209.351309 153.118073 
L 209.621233 152.744018 
L 209.891157 153.124705 
L 210.70093 153.165283 
L 210.970855 153.220637 
L 211.510703 153.037881 
L 211.780627 153.188989 
L 212.320476 152.974438 
L 212.5904 153.188943 
L 213.400173 153.141137 
L 214.209946 153.102628 
L 214.47987 153.232029 
L 216.36934 153.185837 
L 216.909189 153.075175 
L 217.179113 153.248839 
L 217.449037 152.978538 
L 217.718962 153.215287 
L 218.528734 153.28024 
L 218.798659 153.274756 
L 219.338507 152.994194 
L 219.608431 153.171296 
L 220.14828 153.172923 
L 220.418204 153.217318 
L 220.688129 153.119139 
L 220.958053 153.276473 
L 221.227977 153.199751 
L 221.497901 153.267097 
L 222.307674 153.166871 
L 222.577599 153.249426 
L 222.847523 153.165226 
L 223.117447 153.266883 
L 223.387371 153.247868 
L 223.657296 152.953878 
L 223.92722 153.0059 
L 224.197144 153.246 
L 225.276841 153.23123 
L 227.976084 153.258593 
L 228.246008 153.125547 
L 228.515933 153.290111 
L 230.135478 153.297616 
L 230.405403 153.169712 
L 230.675327 153.279286 
L 231.4851 153.126807 
L 232.024948 153.312745 
L 232.834721 153.264075 
L 233.37457 153.271514 
L 262.526392 153.358948 
L 262.526392 153.358948 
" clip-path="url(#pbec80c7983)" style="fill: none; stroke: #e63946; stroke-width: 1.5; stroke-linecap: square"/>
   </g>
   <g id="patch_3">
    <path d="M 51.378125 168.650647 
L 51.378125 10.465896 
" style="fill: none; stroke: #000000; stroke-width: 0.8; stroke-linejoin: miter; stroke-linecap: square"/>
   </g>
   <g id="patch_4">
    <path d="M 272.581071 168.650647 
L 272.581071 10.465896 
" style="fill: none; stroke: #000000; stroke-width: 0.8; stroke-linejoin: miter; stroke-linecap: square"/>
   </g>
   <g id="patch_5">
    <path d="M 51.378125 168.650647 
L 272.581071 168.650647 
" style="fill: none; stroke: #000000; stroke-width: 0.8; stroke-linejoin: miter; stroke-linecap: square"/>
   </g>
   <g id="patch_6">
    <path d="M 51.378125 10.465896 
L 272.581071 10.465896 
" style="fill: none; stroke: #000000; stroke-width: 0.8; stroke-linejoin: miter; stroke-linecap: square"/>
   </g>
   <g id="legend_1">
    <g id="patch_7">
     <path d="M 161.706071 47.822146 
L 265.581071 47.822146 
Q 267.581071 47.822146 267.581071 45.822146 
L 267.581071 17.465896 
Q 267.581071 15.465896 265.581071 15.465896 
L 161.706071 15.465896 
Q 159.706071 15.465896 159.706071 17.465896 
L 159.706071 45.822146 
Q 159.706071 47.822146 161.706071 47.822146 
z
" style="fill: #ffffff; opacity: 0.8; stroke: #cccccc; stroke-linejoin: miter"/>
    </g>
    <g id="line2d_51">
     <path d="M 163.706071 23.564333 
L 173.706071 23.564333 
L 183.706071 23.564333 
" style="fill: none; stroke: #1d3557; stroke-width: 1.5; stroke-linecap: square"/>
    </g>
    <g id="text_12">
     <!-- Training loss -->
     <g transform="translate(191.706071 27.064333) scale(0.1 -0.1)">
      <defs>
       <path id="DejaVuSans-54" d="M -19 4666 
L 3928 4666 
L 3928 4134 
L 2272 4134 
L 2272 0 
L 1638 0 
L 1638 4134 
L -19 4134 
L -19 4666 
z
" transform="scale(0.015625)"/>
       <path id="DejaVuSans-72" d="M 2631 2963 
Q 2534 3019 2420 3045 
Q 2306 3072 2169 3072 
Q 1681 3072 1420 2755 
Q 1159 2438 1159 1844 
L 1159 0 
L 581 0 
L 581 3500 
L 1159 3500 
L 1159 2956 
Q 1341 3275 1631 3429 
Q 1922 3584 2338 3584 
Q 2397 3584 2469 3576 
Q 2541 3569 2628 3553 
L 2631 2963 
z
" transform="scale(0.015625)"/>
       <path id="DejaVuSans-61" d="M 2194 1759 
Q 1497 1759 1228 1600 
Q 959 1441 959 1056 
Q 959 750 1161 570 
Q 1363 391 1709 391 
Q 2188 391 2477 730 
Q 2766 1069 2766 1631 
L 2766 1759 
L 2194 1759 
z
M 3341 1997 
L 3341 0 
L 2766 0 
L 2766 531 
Q 2569 213 2275 61 
Q 1981 -91 1556 -91 
Q 1019 -91 701 211 
Q 384 513 384 1019 
Q 384 1609 779 1909 
Q 1175 2209 1959 2209 
L 2766 2209 
L 2766 2266 
Q 2766 2663 2505 2880 
Q 2244 3097 1772 3097 
Q 1472 3097 1187 3025 
Q 903 2953 641 2809 
L 641 3341 
Q 956 3463 1253 3523 
Q 1550 3584 1831 3584 
Q 2591 3584 2966 3190 
Q 3341 2797 3341 1997 
z
" transform="scale(0.015625)"/>
       <path id="DejaVuSans-69" d="M 603 3500 
L 1178 3500 
L 1178 0 
L 603 0 
L 603 3500 
z
M 603 4863 
L 1178 4863 
L 1178 4134 
L 603 4134 
L 603 4863 
z
" transform="scale(0.015625)"/>
       <path id="DejaVuSans-6e" d="M 3513 2113 
L 3513 0 
L 2938 0 
L 2938 2094 
Q 2938 2591 2744 2837 
Q 2550 3084 2163 3084 
Q 1697 3084 1428 2787 
Q 1159 2491 1159 1978 
L 1159 0 
L 581 0 
L 581 3500 
L 1159 3500 
L 1159 2956 
Q 1366 3272 1645 3428 
Q 1925 3584 2291 3584 
Q 2894 3584 3203 3211 
Q 3513 2838 3513 2113 
z
" transform="scale(0.015625)"/>
       <path id="DejaVuSans-67" d="M 2906 1791 
Q 2906 2416 2648 2759 
Q 2391 3103 1925 3103 
Q 1463 3103 1205 2759 
Q 947 2416 947 1791 
Q 947 1169 1205 825 
Q 1463 481 1925 481 
Q 2391 481 2648 825 
Q 2906 1169 2906 1791 
z
M 3481 434 
Q 3481 -459 3084 -895 
Q 2688 -1331 1869 -1331 
Q 1566 -1331 1297 -1286 
Q 1028 -1241 775 -1147 
L 775 -588 
Q 1028 -725 1275 -790 
Q 1522 -856 1778 -856 
Q 2344 -856 2625 -561 
Q 2906 -266 2906 331 
L 2906 616 
Q 2728 306 2450 153 
Q 2172 0 1784 0 
Q 1141 0 747 490 
Q 353 981 353 1791 
Q 353 2603 747 3093 
Q 1141 3584 1784 3584 
Q 2172 3584 2450 3431 
Q 2728 3278 2906 2969 
L 2906 3500 
L 3481 3500 
L 3481 434 
z
" transform="scale(0.015625)"/>
       <path id="DejaVuSans-20" transform="scale(0.015625)"/>
       <path id="DejaVuSans-6c" d="M 603 4863 
L 1178 4863 
L 1178 0 
L 603 0 
L 603 4863 
z
" transform="scale(0.015625)"/>
      </defs>
      <use xlink:href="#DejaVuSans-54"/>
      <use xlink:href="#DejaVuSans-72" transform="translate(46.333984 0)"/>
      <use xlink:href="#DejaVuSans-61" transform="translate(87.447266 0)"/>
      <use xlink:href="#DejaVuSans-69" transform="translate(148.726562 0)"/>
      <use xlink:href="#DejaVuSans-6e" transform="translate(176.509766 0)"/>
      <use xlink:href="#DejaVuSans-69" transform="translate(239.888672 0)"/>
      <use xlink:href="#DejaVuSans-6e" transform="translate(267.671875 0)"/>
      <use xlink:href="#DejaVuSans-67" transform="translate(331.050781 0)"/>
      <use xlink:href="#DejaVuSans-20" transform="translate(394.527344 0)"/>
      <use xlink:href="#DejaVuSans-6c" transform="translate(426.314453 0)"/>
      <use xlink:href="#DejaVuSans-6f" transform="translate(454.097656 0)"/>
      <use xlink:href="#DejaVuSans-73" transform="translate(515.279297 0)"/>
      <use xlink:href="#DejaVuSans-73" transform="translate(567.378906 0)"/>
     </g>
    </g>
    <g id="line2d_52">
     <path d="M 163.706071 38.242458 
L 173.706071 38.242458 
L 183.706071 38.242458 
" style="fill: none; stroke: #e63946; stroke-width: 1.5; stroke-linecap: square"/>
    </g>
    <g id="text_13">
     <!-- Validation loss -->
     <g transform="translate(191.706071 41.742458) scale(0.1 -0.1)">
      <defs>
       <path id="DejaVuSans-56" d="M 1831 0 
L 50 4666 
L 709 4666 
L 2188 738 
L 3669 4666 
L 4325 4666 
L 2547 0 
L 1831 0 
z
" transform="scale(0.015625)"/>
       <path id="DejaVuSans-64" d="M 2906 2969 
L 2906 4863 
L 3481 4863 
L 3481 0 
L 2906 0 
L 2906 525 
Q 2725 213 2448 61 
Q 2172 -91 1784 -91 
Q 1150 -91 751 415 
Q 353 922 353 1747 
Q 353 2572 751 3078 
Q 1150 3584 1784 3584 
Q 2172 3584 2448 3432 
Q 2725 3281 2906 2969 
z
M 947 1747 
Q 947 1113 1208 752 
Q 1469 391 1925 391 
Q 2381 391 2643 752 
Q 2906 1113 2906 1747 
Q 2906 2381 2643 2742 
Q 2381 3103 1925 3103 
Q 1469 3103 1208 2742 
Q 947 2381 947 1747 
z
" transform="scale(0.015625)"/>
       <path id="DejaVuSans-74" d="M 1172 4494 
L 1172 3500 
L 2356 3500 
L 2356 3053 
L 1172 3053 
L 1172 1153 
Q 1172 725 1289 603 
Q 1406 481 1766 481 
L 2356 481 
L 2356 0 
L 1766 0 
Q 1100 0 847 248 
Q 594 497 594 1153 
L 594 3053 
L 172 3053 
L 172 3500 
L 594 3500 
L 594 4494 
L 1172 4494 
z
" transform="scale(0.015625)"/>
      </defs>
      <use xlink:href="#DejaVuSans-56"/>
      <use xlink:href="#DejaVuSans-61" transform="translate(60.658203 0)"/>
      <use xlink:href="#DejaVuSans-6c" transform="translate(121.9375 0)"/>
      <use xlink:href="#DejaVuSans-69" transform="translate(149.720703 0)"/>
      <use xlink:href="#DejaVuSans-64" transform="translate(177.503906 0)"/>
      <use xlink:href="#DejaVuSans-61" transform="translate(240.980469 0)"/>
      <use xlink:href="#DejaVuSans-74" transform="translate(302.259766 0)"/>
      <use xlink:href="#DejaVuSans-69" transform="translate(341.46875 0)"/>
      <use xlink:href="#DejaVuSans-6f" transform="translate(369.251953 0)"/>
      <use xlink:href="#DejaVuSans-6e" transform="translate(430.433594 0)"/>
      <use xlink:href="#DejaVuSans-20" transform="translate(493.8125 0)"/>
      <use xlink:href="#DejaVuSans-6c" transform="translate(525.599609 0)"/>
      <use xlink:href="#DejaVuSans-6f" transform="translate(553.382812 0)"/>
      <use xlink:href="#DejaVuSans-73" transform="translate(614.564453 0)"/>
      <use xlink:href="#DejaVuSans-73" transform="translate(666.664062 0)"/>
     </g>
    </g>
   </g>
  </g>
 </g>
 <defs>
  <clipPath id="pbec80c7983">
   <rect x="51.378125" y="10.465896" width="221.202946" height="158.184751"/>
  </clipPath>
 </defs>
</svg>
